<?xml version="1.0" standalone="no"?>
<!DOCTYPE svg PUBLIC "-//W3C//DTD SVG 1.1//EN" "http://www.w3.org/Graphics/SVG/1.1/DTD/svg11.dtd" >
<svg>
<metadata>
Created by FontForge 20110222 at Thu Mar 13 09:58:42 2014
 By Orthosie Webhosting
Copyright (c) 2005 - 2006 Linotype GmbH, www.linotype.com. All rights reserved. This font software may not be reproduced, modified, disclosed or transferred without the express written approval of Linotype GmbH. Diverda is a trademark of Heidelberger Druckmaschinen AG, exclusively licensed through Linotype GmbH, and may be registered in certain jurisdictions. This typeface is original artwork of Daniel Lanz. The design may be protected in certain jurisdictions. 
</metadata>
<defs>
<font id="DiverdaSansComBold" horiz-adv-x="554" >
  <font-face 
    font-family="DiverdaSansComBold"
    font-weight="700"
    font-stretch="normal"
    units-per-em="1000"
    panose-1="2 0 8 3 6 0 0 2 0 3"
    ascent="694"
    descent="-306"
    x-height="445"
    cap-height="680"
    bbox="-149 -230 1091 931"
    underline-thickness="50"
    underline-position="-50"
    unicode-range="U+000D-FB04"
  />
<missing-glyph horiz-adv-x="512" 
d="M222 117v67h56v-67h-56zM225 234l-2 17q0 56 13 81q7 13 18 27.5t28 31.5q16 15 26 26.5t15 21t7 18t2 17.5q0 36 -22.5 60.5t-53.5 24.5t-53.5 -22t-28.5 -73l-50 8q7 72 44 104.5t91 32.5t89 -35.5t35 -95.5q0 -32 -12.5 -58.5t-50.5 -61.5q-37 -33 -43 -52
q-6 -20 -6 -72h-46zM462 50v617h-412v-617h412zM512 718v-718h-512v718h512z" />
    <glyph glyph-name="IJ" unicode="IJ" horiz-adv-x="555" 
d="M72 680h135v-680h-135v680zM321 -145q-35 0 -63 5t-46 13l26 88q8 -4 21 -8.5t31 -4.5q31 0 45 24t14 83v625h134v-593q0 -43 -5.5 -84.5t-22.5 -74.5t-49 -53t-85 -20z" />
    <glyph glyph-name="ij" unicode="ij" horiz-adv-x="530" 
d="M71 445h128v-445h-128v445zM135 520q-31 0 -52 21.5t-21 51.5q0 31 21 52.5t52 21.5t52 -21.5t21 -52.5q0 -30 -21 -51.5t-52 -21.5zM303 -221q-35 0 -61 4.5t-45 11.5l25 83q5 -3 18 -7t30 -4q32 0 45 21t13 72v485h128v-459q0 -96 -36.5 -151.5t-116.5 -55.5zM392 520
q-30 0 -51.5 21.5t-21.5 51.5q0 31 21.5 52.5t51.5 21.5q31 0 52.5 -21.5t21.5 -52.5q0 -30 -21.5 -51.5t-52.5 -21.5z" />
    <glyph glyph-name="napostrophe" unicode="&#x22;n" 
d="M64 445h127l-1 -65h2q9 13 23 27t32 25.5t40.5 18.5t49.5 7q30 0 58.5 -8t50.5 -27t35 -51.5t13 -80.5v-291h-128v279q0 45 -15.5 66t-53.5 21q-30 0 -58.5 -18t-46.5 -45v-303h-128v445zM104 572q-26 0 -42 16t-16 43q0 26 17 42.5t47 16.5q31 0 49.5 -19t18.5 -50
q0 -35 -17.5 -65.5t-51.5 -68.5l-53 12q17 17 31.5 36t19.5 34z" />
    <glyph glyph-name="f_t" unicode="ft" horiz-adv-x="660" 
d="M102 362h-75v83h75v73q0 34 8.5 66t27.5 56.5t49 39t73 14.5q50 0 78.5 -11t42.5 -19l-40 -77q-8 7 -19 13.5t-32 6.5q-34 0 -48 -21t-14 -46v-95h154v70l126 66v-136h123v-83h-123v-207q0 -42 10 -60.5t38 -18.5q18 0 32.5 4t22.5 9l25 -86q-11 -4 -40 -10t-66 -6
q-42 0 -70.5 11.5t-46 35.5t-24.5 60t-7 85v183h-154v-362h-126v362z" />
    <glyph glyph-name="f_h" unicode="fh" horiz-adv-x="890" 
d="M102 362h-75v83h75v62q0 47 17.5 82t47.5 58.5t70 35t86 11.5q61 0 116 -14t88 -34v-266h2q9 14 23 28t32 25t40.5 18t49.5 7q31 0 59.5 -8t50 -27.5t34 -51.5t12.5 -79v-292h-129v279q0 48 -17.5 67.5t-56.5 19.5q-35 0 -61 -20t-39 -42v-304h-126v599q-9 5 -28 7.5
t-36 2.5q-58 0 -83.5 -25.5t-25.5 -73.5v-65h109v-83h-109v-362h-126v362z" />
    <glyph glyph-name="f_j" unicode="fj" horiz-adv-x="584" 
d="M104 362h-75v83h75v61q0 46 17.5 81.5t47 59t68.5 35.5t82 12q63 0 113 -15.5t83 -36.5l-49 -76q-24 20 -58.5 30.5t-72.5 10.5q-53 0 -79.5 -25t-26.5 -73v-64h284v-459q0 -96 -35 -151.5t-115 -55.5q-35 0 -61.5 4.5t-45.5 11.5l25 83q5 -3 18 -7t30 -4q36 0 47.5 23.5
t11.5 69.5v402h-159v-362h-125v362z" />
    <glyph glyph-name="f_b" unicode="fb" horiz-adv-x="884" 
d="M102 362h-75v83h75v61q0 48 16.5 83t46 58.5t69 35t85.5 11.5q61 0 113.5 -14t86.5 -34v-242h2q21 25 55 39.5t74 14.5q36 0 71 -13t63 -40.5t45 -70.5t17 -102q0 -53 -18 -98t-50 -77.5t-75.5 -51t-94.5 -18.5q-48 0 -86.5 9.5t-67.5 21.5q-33 13 -60 31v549q-9 5 -26 8
t-34 3q-58 0 -82.5 -26t-24.5 -74v-64h110v-83h-110v-362h-125v362zM604 71q48 0 81 40t33 115q0 72 -27.5 110t-72.5 38q-35 0 -59 -15t-40 -40v-229q8 -4 27.5 -11.5t57.5 -7.5z" />
    <glyph glyph-name="f_k" unicode="fk" horiz-adv-x="858" 
d="M102 362h-75v83h75v62q0 47 17.5 82t47.5 58.5t70 35t86 11.5q61 0 116 -14t88 -34v-362h5l184 161h124l-207 -177l218 -268h-154l-165 212h-5v-212h-126v599q-9 5 -28 7.5t-36 2.5q-58 0 -83.5 -25.5t-25.5 -73.5v-65h109v-83h-109v-362h-126v362z" />
    <glyph glyph-name="f_f" unicode="ff" horiz-adv-x="658" 
d="M102 362h-75v83h75v61q0 48 17.5 83.5t47 58.5t68.5 34.5t82 11.5q44 0 78.5 -7.5t63.5 -20.5q37 28 93 28q44 0 72.5 -8t50.5 -22l-33 -78q-10 9 -25 15t-35 6q-27 0 -43 -18t-16 -47v-97h118v-83h-118v-362h-126v362h-169v-362h-126v362zM397 445v81q0 25 2.5 40
t8.5 29q-9 5 -28 9t-42 4q-52 0 -81 -23.5t-29 -74.5v-65h169z" />
    <glyph glyph-name="fi" unicode="fi" horiz-adv-x="582" 
d="M102 362h-75v83h75v61q0 48 17.5 83.5t47 58.5t68.5 34.5t82 11.5q63 0 113 -15.5t83 -36.5l-48 -76q-23 20 -56.5 31t-70.5 11q-52 0 -81 -23.5t-29 -74.5v-65h283v-445h-125v362h-158v-362h-126v362z" />
    <glyph glyph-name="fl" unicode="fl" horiz-adv-x="610" 
d="M102 362h-75v83h75v61q0 46 16.5 81t46 59t69 36t85.5 12q63 0 115 -14t86 -34v-514q0 -54 31 -54q10 0 17.5 3.5t9.5 5.5l23 -85q-15 -5 -36 -10t-50 -5q-36 0 -60 14.5t-37.5 38.5t-19 54t-5.5 61v443q-9 5 -25.5 8t-33.5 3q-58 0 -82 -26t-24 -74v-64h108v-83h-108
v-362h-126v362z" />
    <glyph glyph-name="f_f_i" unicode="ffi" horiz-adv-x="878" 
d="M102 362h-75v83h75v61q0 48 17.5 83.5t47 58.5t68.5 34.5t82 11.5q49 0 90.5 -10t71.5 -24q28 18 62.5 26t71.5 8q63 0 112.5 -15.5t83.5 -36.5l-49 -76q-23 20 -56 31t-70 11q-53 0 -82 -23.5t-29 -74.5v-65h284v-445h-125v362h-159v-362h-125v362h-171v-362h-125v362z
M398 445v61q0 50 19 87q-17 7 -37 11t-42 4q-52 0 -81.5 -23.5t-29.5 -74.5v-65h171z" />
    <glyph glyph-name="f_f_l" unicode="ffl" horiz-adv-x="905" 
d="M397 445v61q0 25 5 46t14 40q-17 7 -36.5 11.5t-41.5 4.5q-53 0 -82 -24t-29 -75v-64h170zM102 362h-75v83h75v61q0 46 17.5 81.5t47 59t68.5 35.5t82 12q49 0 90.5 -10.5t71.5 -24.5q28 18 62.5 26.5t71.5 8.5q64 0 118 -15t84 -33v-514q0 -54 31 -54q10 0 17.5 3.5
t9.5 5.5l23 -85q-15 -5 -36 -10t-50 -5q-36 0 -59.5 14.5t-37 38.5t-19 54t-5.5 61v443q-5 3 -22.5 7t-37.5 4q-54 0 -80 -26t-26 -74v-64h108v-83h-108v-362h-126v362h-170v-362h-125v362z" />
    <glyph glyph-name=".notdef" horiz-adv-x="512" 
d="M222 117v67h56v-67h-56zM225 234l-2 17q0 56 13 81q7 13 18 27.5t28 31.5q16 15 26 26.5t15 21t7 18t2 17.5q0 36 -22.5 60.5t-53.5 24.5t-53.5 -22t-28.5 -73l-50 8q7 72 44 104.5t91 32.5t89 -35.5t35 -95.5q0 -32 -12.5 -58.5t-50.5 -61.5q-37 -33 -43 -52
q-6 -20 -6 -72h-46zM462 50v617h-412v-617h412zM512 718v-718h-512v718h512z" />
    <glyph glyph-name=".null" horiz-adv-x="500" 
 />
    <glyph glyph-name="nonmarkingreturn" unicode="&#xd;" horiz-adv-x="0" 
 />
    <glyph glyph-name="space" unicode=" " horiz-adv-x="244" 
 />
    <glyph glyph-name="exclam" unicode="!" horiz-adv-x="308" 
d="M154 -13q-16 0 -30 6t-24.5 16.5t-17 24.5t-6.5 30t6.5 30t17 24.5t24.5 16.5t30 6t30 -6t24.5 -16.5t17 -24.5t6.5 -30t-6.5 -30t-17 -24.5t-24.5 -16.5t-30 -6zM91 680h125v-473h-125v473z" />
    <glyph glyph-name="quotedbl" unicode="&#x22;" horiz-adv-x="369" 
d="M34 680h122l-15 -244h-92zM212 680h123l-16 -244h-91z" />
    <glyph glyph-name="numbersign" unicode="#" horiz-adv-x="577" 
d="M128 217h-89v75h100l16 125h-89v75h101l26 188h100l-26 -188h84l25 188h101l-26 -188h89v-75h-99l-17 -125h89v-75h-100l-29 -217h-100l29 217h-84l-29 -217h-101zM323 292l17 125h-83l-17 -125h83z" />
    <glyph glyph-name="dollar" unicode="$" horiz-adv-x="555" 
d="M248 -12q-76 7 -129.5 31.5t-93.5 67.5l74 79q17 -29 53 -53t96 -32v221q-35 13 -69.5 30t-62 41.5t-44.5 58.5t-17 81q0 40 16 72t42.5 55.5t61.5 36.5t73 16v61h66v-61q32 -4 59.5 -13t49.5 -19.5t38.5 -22.5t26.5 -22l-77 -72q-13 17 -34.5 35t-62.5 25v-182
q38 -14 75.5 -31t67.5 -42t48.5 -60t18.5 -86q0 -44 -15 -80.5t-43 -64.5t-66.5 -46t-85.5 -24v-65h-66v65zM393 183q0 41 -22 61.5t-57 36.5v-200q34 7 56.5 31.5t22.5 70.5zM175 528q0 -32 20.5 -51.5t52.5 -31.5v159q-30 -6 -51.5 -23.5t-21.5 -52.5z" />
    <glyph glyph-name="percent" unicode="%" horiz-adv-x="817" 
d="M205 344q-37 0 -67.5 13t-52 35.5t-33.5 53.5t-12 68t12.5 69t34.5 54.5t52.5 35.5t65.5 13q37 0 67.5 -13t52.5 -36t33.5 -54.5t11.5 -68.5t-12 -68.5t-34 -54t-52 -35t-67 -12.5zM205 412q32 0 45 25t13 77q0 54 -13 80t-45 26t-46 -27t-14 -79t15.5 -77t44.5 -25z
M558 686l70 -40l-390 -676l-65 37zM606 -10q-37 0 -67.5 12.5t-52 35t-33.5 54t-12 68.5t12.5 68.5t34.5 54.5t52.5 35.5t65.5 12.5q37 0 67.5 -13t52.5 -35.5t33.5 -54t11.5 -68.5q0 -38 -12 -69t-34 -53.5t-52 -35t-67 -12.5zM606 58q31 0 44.5 24.5t13.5 77.5
q0 54 -13 79.5t-45 25.5t-46 -26.5t-14 -78.5q0 -53 15.5 -77.5t44.5 -24.5z" />
    <glyph glyph-name="ampersand" unicode="&#x26;" horiz-adv-x="649" 
d="M307 -13q-59 0 -108.5 14t-85 41t-55.5 67t-20 93q0 35 10.5 65t28.5 53t41.5 37.5t49.5 19.5v2q-26 12 -46 42.5t-20 75.5q0 27 10.5 53.5t32 46.5t55 32.5t78.5 12.5q55 0 89 -13t59 -36l-63 -68q-10 19 -27 28.5t-45 9.5q-35 0 -53.5 -22t-18.5 -55q0 -34 16 -57.5
t60 -26.5v-82q-38 0 -62 -11t-37.5 -28.5t-19 -39.5t-5.5 -44q0 -64 37 -95t99 -31q63 0 99 37t36 125q0 23 -1.5 46.5t-5.5 40.5h-95v82h289v-82h-67q2 -15 3 -32.5t1 -36.5q0 -53 -15.5 -101t-47 -84t-80.5 -57.5t-116 -21.5z" />
    <glyph glyph-name="quotesingle" unicode="'" horiz-adv-x="190" 
d="M34 680h122l-15 -244h-91z" />
    <glyph glyph-name="parenleft" unicode="(" horiz-adv-x="303" 
d="M216 -145q-39 44 -70 94t-52 103t-32.5 107t-11.5 107q0 66 13 122.5t35.5 105.5t52.5 90.5t65 77.5l63 -47q-46 -61 -73.5 -148.5t-27.5 -200.5q0 -104 24 -192.5t78 -173.5z" />
    <glyph glyph-name="parenright" unicode=")" horiz-adv-x="305" 
d="M23 -100q55 85 79 173.5t24 192.5q0 113 -27.5 200.5t-74.5 148.5l64 47q34 -36 64.5 -77.5t53.5 -90.5t36 -105.5t13 -122.5q0 -53 -11.5 -107t-33 -107t-52.5 -103t-70 -94z" />
    <glyph glyph-name="asterisk" unicode="*" horiz-adv-x="500" 
d="M291 555l2 -1l127 43l26 -79l-126 -45l-1 -1l82 -108l-69 -52l-82 111h-1l-81 -111l-69 52l80 108l-1 2l-124 44l26 79l125 -43l2 1v134h84v-134z" />
    <glyph glyph-name="plus" unicode="+" horiz-adv-x="545" 
d="M220 226h-168v91h168v169h104v-169h169v-91h-169v-173h-104v173z" />
    <glyph glyph-name="comma" unicode="," horiz-adv-x="264" 
d="M131 -13q-33 0 -55.5 21.5t-22.5 54.5q0 34 22.5 55.5t55.5 21.5q21 0 36 -7.5t25 -20t14.5 -29t4.5 -33.5q0 -21 -4 -40.5t-14 -40.5t-26.5 -45t-41.5 -54l-60 16q23 23 43 50.5t26 47.5z" />
    <glyph glyph-name="hyphen" unicode="-" horiz-adv-x="370" 
d="M52 317h266v-91h-266v91z" />
    <glyph glyph-name="period" unicode="." horiz-adv-x="262" 
d="M131 -13q-33 0 -55.5 22.5t-22.5 55.5q0 32 22.5 55t55.5 23q32 0 55 -23t23 -55q0 -33 -23 -55.5t-55 -22.5z" />
    <glyph glyph-name="slash" unicode="/" horiz-adv-x="396" 
d="M291 702l95 -37l-279 -715l-94 38z" />
    <glyph glyph-name="zero" unicode="0" horiz-adv-x="539" 
d="M269 -13q-48 0 -89 19t-71 59t-47 101.5t-17 146.5q0 69 13.5 129t41 104.5t70 69.5t100.5 25q107 0 165.5 -85.5t58.5 -241.5q0 -158 -59 -242.5t-166 -84.5zM269 77q22 0 39.5 12.5t29.5 41t18.5 73t6.5 109.5t-6.5 110.5t-18.5 74.5t-29.5 42t-39.5 13q-94 0 -94 -240
q0 -67 7 -112.5t19.5 -73t30 -39t37.5 -11.5z" />
    <glyph glyph-name="one" unicode="1" horiz-adv-x="539" 
d="M115 86h115v417l-2 1l-100 -67l-44 70l182 121h90v-542h107v-86h-348v86z" />
    <glyph glyph-name="two" unicode="2" horiz-adv-x="539" 
d="M277 366q15 23 30 51.5t15 58.5q0 32 -17 55.5t-61 23.5q-19 0 -35 -6.5t-28.5 -16t-21 -21.5t-11.5 -23l-86 44q13 23 29.5 43t40 34.5t54.5 23t73 8.5q37 0 71.5 -9t60.5 -28.5t42 -51t16 -75.5q0 -49 -18.5 -86t-34.5 -61l-156 -240v-2h242v-88h-450z" />
    <glyph glyph-name="three" unicode="3" horiz-adv-x="539" 
d="M231 -13q-59 0 -97 11.5t-68 29.5l48 80q13 -12 39.5 -23t67.5 -11q19 0 38 6t34 19t24.5 34.5t9.5 52.5q0 63 -43 84t-130 21v83q30 1 58.5 4.5t51 14t36 29.5t13.5 50q0 40 -19.5 63t-57.5 23q-35 0 -57 -20.5t-30 -46.5l-84 42q23 48 66.5 78t118.5 30
q52 0 87.5 -13.5t57.5 -35t31.5 -49.5t9.5 -58q0 -23 -8.5 -45t-22.5 -40.5t-32 -31.5t-38 -19v-2q22 -5 44.5 -15t40.5 -28t29.5 -45.5t11.5 -65.5q0 -95 -60.5 -150.5t-169.5 -55.5z" />
    <glyph glyph-name="four" unicode="4" horiz-adv-x="539" 
d="M283 173h-281l292 455h118v-372h90v-83h-90v-173h-129v173zM283 473h-2l-136 -217h138v217z" />
    <glyph glyph-name="five" unicode="5" horiz-adv-x="539" 
d="M232 -13q-55 0 -97.5 13t-65.5 28q12 21 23.5 41.5t23.5 40.5q15 -14 43 -24.5t60 -10.5q51 0 79.5 34.5t28.5 94.5q0 31 -12 52.5t-32.5 34.5t-48 19t-58.5 7l-82 2l17 309h309v-86h-190l-8 -149h57q38 0 71 -11t57.5 -33.5t38.5 -56.5t14 -80q0 -51 -16.5 -93
t-46.5 -71t-72 -45t-93 -16z" />
    <glyph glyph-name="six" unicode="6" horiz-adv-x="539" 
d="M286 -13q-59 0 -102 25t-70.5 66.5t-40.5 96t-13 113.5q0 72 12.5 136t42 112t77.5 76.5t120 28.5q54 0 89.5 -16t56.5 -36l-55 -73q-10 14 -28.5 26.5t-59.5 12.5q-35 0 -58 -15.5t-36.5 -40.5t-20 -56.5t-7.5 -64.5h2q17 23 49 39t68 16q29 0 60 -8.5t57 -32t43 -65
t17 -106.5q0 -56 -16 -99.5t-43.5 -73.5t-64.5 -45.5t-79 -15.5zM283 75q38 0 58.5 38t20.5 107q0 61 -18.5 94.5t-64.5 33.5q-32 0 -54 -17.5t-33 -40.5q0 -63 5.5 -104.5t16.5 -66t28 -34.5t41 -10z" />
    <glyph glyph-name="seven" unicode="7" horiz-adv-x="539" 
d="M317 536h-254v92h425l-230 -628h-137z" />
    <glyph glyph-name="eight" unicode="8" horiz-adv-x="539" 
d="M268 -13q-56 0 -96.5 18.5t-67 47t-39.5 62.5t-13 65q0 33 10.5 59t26.5 46t36 34.5t40 23.5v2q-38 23 -59.5 58t-21.5 81q0 34 13.5 63t38 50t58 32.5t73.5 11.5q36 0 68.5 -9t57 -28t39.5 -48.5t15 -69.5q0 -25 -6.5 -45t-18 -35.5t-26 -28t-29.5 -21.5v-2
q25 -13 47 -28.5t38 -36t25.5 -47t9.5 -61.5q0 -42 -16 -78t-45.5 -61.5t-69.5 -40t-88 -14.5zM267 69q50 0 71.5 30t21.5 70q0 26 -11.5 45t-28.5 33.5t-37 24.5t-37 18q-23 -13 -39 -25t-25.5 -25.5t-13.5 -30t-4 -37.5q0 -11 4 -28.5t15 -34t31.5 -28.5t52.5 -12z
M281 398q29 17 46 37t17 52q0 30 -18 53t-56 23q-35 0 -54 -20.5t-19 -50.5q0 -18 8.5 -32.5t21 -25.5t27 -20t27.5 -16z" />
    <glyph glyph-name="nine" unicode="9" horiz-adv-x="539" 
d="M230 -13q-51 0 -91 12.5t-60 27.5l48 81q13 -14 39 -24t64 -10q28 0 50 9t37.5 29.5t24 53.5t9.5 81h-2q-16 -24 -48 -39.5t-67 -15.5q-30 0 -61.5 10t-58 35t-43 67t-16.5 106q0 54 16.5 97t45 72.5t65.5 45.5t79 16q58 0 100 -22.5t69 -63t40 -95.5t13 -121
q0 -75 -13 -139.5t-42.5 -111.5t-78 -74t-119.5 -27zM264 277q32 0 54.5 18.5t33.5 41.5q0 59 -4 100t-14.5 66.5t-28 37t-43.5 11.5q-39 0 -60 -35.5t-21 -104.5q0 -135 83 -135z" />
    <glyph glyph-name="colon" unicode=":" horiz-adv-x="287" 
d="M143 -13q-32 0 -55 22.5t-23 55.5q0 32 23 55t55 23t55 -23t23 -55q0 -33 -23 -55.5t-55 -22.5zM143 301q-32 0 -55 23t-23 56q0 16 6 30t16.5 24.5t25 17t30.5 6.5t30.5 -6.5t25 -17t16.5 -24.5t6 -30q0 -33 -23 -56t-55 -23z" />
    <glyph glyph-name="semicolon" unicode=";" horiz-adv-x="288" 
d="M143 -13q-33 0 -55.5 21.5t-22.5 54.5q0 34 22.5 55.5t55.5 21.5q21 0 36 -7.5t25 -20t14.5 -29t4.5 -33.5q0 -21 -4 -40.5t-14 -40.5t-26.5 -45t-41.5 -54l-60 16q23 23 43 50.5t26 47.5zM143 301q-32 0 -55 23t-23 56q0 16 6 30t16.5 24.5t25 17t30.5 6.5t30.5 -6.5
t25 -17t16.5 -24.5t6 -30q0 -33 -23 -56t-55 -23z" />
    <glyph glyph-name="less" unicode="&#x3c;" horiz-adv-x="623" 
d="M47 224v90l489 207l34 -76l-363 -174v-3l363 -178l-34 -74z" />
    <glyph glyph-name="equal" unicode="=" horiz-adv-x="553" 
d="M56 233h441v-88h-441v88zM56 399h441v-87h-441v87z" />
    <glyph glyph-name="greater" unicode="&#x3e;" horiz-adv-x="623" 
d="M52 90l364 178v3l-364 174l35 76l489 -207v-90l-489 -208z" />
    <glyph glyph-name="question" unicode="?" horiz-adv-x="481" 
d="M229 -12q-32 0 -55 22t-23 54t23 55t55 23q16 0 30 -6t24.5 -16.5t16.5 -25t6 -30.5q0 -32 -22.5 -54t-54.5 -22zM164 267q0 40 11.5 68t28.5 48.5t36.5 37t36.5 33t28.5 36.5t11.5 48q0 32 -22.5 50t-64.5 18q-38 0 -69 -17t-48 -55l-89 46q33 60 86 87t125 27
q56 0 96 -13t65.5 -35.5t37.5 -53t12 -66.5q0 -37 -11.5 -63t-29 -46.5t-38 -36.5t-38 -33t-29 -37.5t-11.5 -47.5v-69h-125v74z" />
    <glyph glyph-name="at" unicode="@" horiz-adv-x="878" 
d="M462 -202q-90 0 -166.5 31t-132.5 86t-87.5 130t-31.5 164q0 84 29 159.5t83 131.5t130.5 89t172.5 33q82 0 151 -26t119 -72t78.5 -109t28.5 -136q0 -74 -21 -129t-55.5 -91t-77.5 -54t-87 -18q-39 0 -65 18.5t-34 48.5h-2q-16 -28 -44.5 -47.5t-77.5 -19.5
q-30 0 -59 10.5t-51.5 32t-36 55t-13.5 80.5q0 57 20.5 110t57 93.5t87 65t110.5 24.5q43 0 84 -8.5t79 -22.5l-51 -321q-1 -5 -1 -15q0 -14 5.5 -23.5t22.5 -9.5q24 0 46 16.5t39 46t27 69t10 85.5q0 59 -20 109.5t-57.5 87t-91 57.5t-120.5 21q-72 0 -132.5 -27
t-104 -73.5t-67.5 -108.5t-24 -132q0 -65 23 -125.5t66 -107t104.5 -75t137.5 -28.5q56 0 101.5 10t80.5 25.5t60 35t40 38.5l53 -56q-51 -58 -134 -93t-201 -35zM405 73q18 0 32 5.5t24 13.5t16.5 17.5t10.5 17.5l42 259q-8 2 -19.5 4.5t-28.5 2.5q-29 0 -55 -15.5t-46 -44
t-32 -68.5t-12 -89q0 -103 68 -103z" />
    <glyph glyph-name="A" unicode="A" horiz-adv-x="677" 
d="M285 680h108l272 -680h-151l-68 180h-255l-69 -180h-110zM412 266l-90 247h-2l-95 -247h187z" />
    <glyph glyph-name="B" unicode="B" horiz-adv-x="595" 
d="M72 680h228q119 0 171 -43t52 -124q0 -45 -22.5 -83.5t-56.5 -54.5v-2q19 -8 38 -21t34.5 -33t25.5 -47.5t10 -64.5q0 -54 -18 -93t-50 -64.5t-76.5 -37.5t-98.5 -12h-237v680zM298 94q54 -1 86.5 29.5t32.5 83.5q0 57 -30 83.5t-87 26.5l-96 -1v-221zM287 404
q107 -2 107 106q0 42 -28 62.5t-73 19.5l-89 -1v-186z" />
    <glyph glyph-name="C" unicode="C" horiz-adv-x="696" 
d="M393 -13q-83 0 -148.5 28t-111 76.5t-69.5 112.5t-24 136q0 87 28.5 153t77 111t112 67.5t132.5 22.5q52 0 93.5 -8t73.5 -21t56 -31t43 -37l-97 -75q-9 15 -22.5 29t-33 25t-46 18t-61.5 7q-46 0 -84 -16.5t-65.5 -49t-42.5 -81.5t-15 -114q0 -57 15.5 -104t43 -81.5
t66.5 -53.5t86 -19q67 0 111 25.5t70 70.5l90 -69q-20 -24 -44 -46t-56.5 -39t-76 -27t-101.5 -10z" />
    <glyph glyph-name="D" unicode="D" horiz-adv-x="711" 
d="M72 680h226q105 0 176.5 -27.5t115 -74t62.5 -106.5t19 -125q0 -86 -28 -151t-78.5 -108.5t-121 -65.5t-155.5 -22h-216v680zM287 97q56 0 100 13t75 42.5t47 77.5t16 117q0 52 -13.5 96.5t-42 76t-72.5 49.5t-106 18l-85 -1v-488z" />
    <glyph glyph-name="E" unicode="E" horiz-adv-x="540" 
d="M72 680h417v-95h-284v-179h248v-93h-248v-215h292v-98h-425v680z" />
    <glyph glyph-name="F" unicode="F" horiz-adv-x="521" 
d="M72 680h419v-95h-285v-180h250v-94h-249v-311h-135v680z" />
    <glyph glyph-name="G" unicode="G" horiz-adv-x="718" 
d="M396 -13q-74 0 -139 24t-113 69.5t-76 111t-28 148.5q0 90 30 156.5t79.5 110.5t113.5 65.5t132 21.5q53 0 93.5 -8.5t72 -22t55.5 -30.5t44 -35l-102 -74q-6 9 -17 22.5t-29.5 26t-47 21t-69.5 8.5q-43 0 -81 -17t-66.5 -50t-45.5 -82t-17 -113q0 -60 16 -107.5
t45 -81.5t68.5 -52t86.5 -18q51 0 80.5 8t44.5 19v240h133v-288q-15 -11 -39 -23.5t-57 -23.5t-75 -18.5t-92 -7.5z" />
    <glyph glyph-name="H" unicode="H" horiz-adv-x="692" 
d="M72 680h134v-274h280v274h134v-680h-134v313h-280v-313h-134v680z" />
    <glyph glyph-name="I" unicode="I" horiz-adv-x="279" 
d="M72 680h135v-680h-135v680z" />
    <glyph glyph-name="J" unicode="J" horiz-adv-x="307" 
d="M73 -145q-35 0 -63 5t-46 13l26 88q8 -4 21 -8.5t31 -4.5q31 0 45 24t14 83v625h134v-593q0 -43 -5.5 -84.5t-22.5 -74.5t-49 -53t-85 -20z" />
    <glyph glyph-name="K" unicode="K" horiz-adv-x="644" 
d="M72 680h134v-274h3l277 274h134l-303 -295l318 -385h-173l-253 322h-3v-322h-134v680z" />
    <glyph glyph-name="L" unicode="L" horiz-adv-x="509" 
d="M72 680h134v-582h284v-98h-418v680z" />
    <glyph glyph-name="M" unicode="M" horiz-adv-x="836" 
d="M103 680h144l171 -464h2l169 464h136l47 -680h-136l-28 450h-2l-161 -450h-79l-170 450h-2l-21 -450h-109z" />
    <glyph glyph-name="N" unicode="N" horiz-adv-x="692" 
d="M72 680h129l308 -461h2v461h109v-680h-118l-319 476h-2v-476h-109v680z" />
    <glyph glyph-name="O" unicode="O" horiz-adv-x="786" 
d="M393 -13q-82 0 -147.5 29.5t-111 78.5t-70 112.5t-24.5 132.5q0 78 26.5 143t74 112t112 73t140.5 26q80 0 145 -26t111.5 -73t71.5 -112t25 -143q0 -77 -27 -141.5t-74 -111.5t-112 -73.5t-140 -26.5zM393 81q46 0 84.5 17t66.5 50t43 81.5t15 110.5q0 57 -15 105.5
t-42.5 83t-66 54t-85.5 19.5t-86 -18t-66.5 -52t-43 -82.5t-15.5 -109.5q0 -59 16 -107t44 -82t66.5 -52t84.5 -18z" />
    <glyph glyph-name="P" unicode="P" horiz-adv-x="556" 
d="M72 680h226q68 0 111.5 -17.5t68.5 -45.5t34.5 -62.5t9.5 -68.5q0 -32 -12.5 -68t-38.5 -66t-68 -50t-100 -20h-97v-282h-134v680zM290 376q48 -1 74.5 29.5t26.5 80.5q0 21 -5.5 40t-17.5 33.5t-32 23t-49 8.5l-82 -1v-213z" />
    <glyph glyph-name="Q" unicode="Q" horiz-adv-x="791" 
d="M400 -13q-78 0 -144 26t-114 72.5t-75 111.5t-27 143q0 85 30 151t79.5 111t113.5 68.5t132 23.5q74 0 138 -23.5t111.5 -68.5t74.5 -111t27 -151q0 -70 -20.5 -122t-49 -88t-59 -57t-49.5 -28v-2q13 -6 37 -14t51 -15t53.5 -12.5t46.5 -8.5l-31 -87q-23 3 -62.5 16
t-85.5 27.5t-92.5 26t-84.5 11.5zM394 81q52 0 91.5 18t65.5 52t39 82t13 107q0 121 -55.5 189.5t-152.5 68.5q-44 0 -82.5 -15.5t-67 -47t-45.5 -80t-17 -115.5q0 -63 17 -111t46 -81t67 -50t81 -17z" />
    <glyph glyph-name="R" unicode="R" horiz-adv-x="602" 
d="M72 680h222q65 0 109 -15.5t71 -41t38.5 -59.5t11.5 -71q0 -36 -11 -66t-30.5 -54t-45 -40.5t-53.5 -24.5l209 -308h-163l-182 294h-43v-294h-133v680zM282 388h3q104 0 104 105q0 45 -23 70.5t-76 25.5h-3l-82 -1v-199z" />
    <glyph glyph-name="S" unicode="S" horiz-adv-x="539" 
d="M267 -13q-52 0 -91 10t-68.5 25t-49.5 32.5t-33 32.5l78 79q8 -14 21.5 -28.5t32.5 -26.5t44 -19.5t57 -7.5q22 0 43 6t37 18.5t25.5 31t9.5 43.5q0 37 -23 59t-58 39t-75.5 33.5t-75.5 41t-58 62t-23 97.5q0 45 17.5 78.5t46.5 56t66.5 33.5t78.5 11q42 0 75 -7.5
t58.5 -19.5t43.5 -25.5t30 -25.5l-82 -71q-5 8 -14.5 18t-23.5 19t-33.5 15t-44.5 6q-42 0 -69.5 -19.5t-27.5 -54.5q0 -33 24 -53.5t60.5 -36t79 -31.5t79 -41.5t60.5 -64t24 -99.5q0 -45 -15.5 -84t-46 -68.5t-75.5 -46.5t-104 -17z" />
    <glyph glyph-name="T" unicode="T" horiz-adv-x="538" 
d="M202 585h-192v95h518v-95h-192v-585h-134v585z" />
    <glyph glyph-name="U" unicode="U" horiz-adv-x="681" 
d="M338 -13q-57 0 -106.5 15t-86 45.5t-58 77.5t-21.5 111v444h134v-458q0 -60 37.5 -100.5t108.5 -40.5q43 0 72.5 11t48 30t27 45t8.5 57v456h113v-441q0 -67 -20 -115t-56.5 -78.5t-87.5 -44.5t-113 -14z" />
    <glyph glyph-name="V" unicode="V" horiz-adv-x="670" 
d="M10 680h153l191 -497h2l189 497h115l-279 -680h-92z" />
    <glyph glyph-name="W" unicode="W" horiz-adv-x="956" 
d="M12 680h153l138 -465h2l138 465h106l138 -465h2l137 465h118l-225 -680h-99l-142 461h-2l-138 -461h-101z" />
    <glyph glyph-name="X" unicode="X" horiz-adv-x="665" 
d="M253 352l-219 328h163l139 -224h2l146 224h125l-211 -307l250 -373h-164l-169 265h-2l-168 -265h-128z" />
    <glyph glyph-name="Y" unicode="Y" horiz-adv-x="634" 
d="M251 318l-243 362h162l168 -267h2l168 267h118l-241 -360v-320h-134v318z" />
    <glyph glyph-name="Z" unicode="Z" horiz-adv-x="626" 
d="M372 583v2h-293v95h504l-352 -580v-2h359v-98h-568z" />
    <glyph glyph-name="bracketleft" unicode="[" horiz-adv-x="286" 
d="M70 694h193v-67h-82v-693h82v-66h-193v826z" />
    <glyph glyph-name="backslash" unicode="\" horiz-adv-x="396" 
d="M10 665l95 37l278 -714l-94 -38z" />
    <glyph glyph-name="bracketright" unicode="]" horiz-adv-x="287" 
d="M23 -66h82v693h-82v67h194v-826h-194v66z" />
    <glyph glyph-name="asciicircum" unicode="^" horiz-adv-x="594" 
d="M249 689h97l201 -412h-121l-131 302h-2l-130 -302h-116z" />
    <glyph glyph-name="underscore" unicode="_" horiz-adv-x="465" 
d="M0 -74h465v-78h-465v78z" />
    <glyph glyph-name="grave" unicode="`" horiz-adv-x="530" 
d="M156 603l54 87l164 -122l-32 -52z" />
    <glyph glyph-name="a" unicode="a" horiz-adv-x="515" 
d="M191 -13q-29 0 -56.5 9t-49 27.5t-34.5 46.5t-13 66q0 36 14.5 63t41 44.5t62.5 26.5t79 11l93 3v13q0 38 -19 61t-67 23q-35 0 -57.5 -14.5t-33.5 -38.5l-76 52q28 38 70.5 58t111.5 20q91 0 144.5 -44.5t53.5 -132.5v-281h-125l-1 61h-2q-17 -29 -48.5 -51.5
t-87.5 -22.5zM223 78q39 0 66 17.5t39 40.5v80l-71 -4q-51 -3 -73 -21t-22 -46q0 -29 16 -48t45 -19z" />
    <glyph glyph-name="b" unicode="b" horiz-adv-x="556" 
d="M280 -13q-48 0 -87.5 9.5t-68.5 21.5q-33 13 -60 31v645h128v-290h2q21 25 55 39.5t74 14.5q36 0 70.5 -13t62.5 -40.5t45 -70.5t17 -102q0 -53 -18 -98t-50 -77.5t-75.5 -51t-94.5 -18.5zM277 71q24 0 44.5 10.5t36 30t24.5 48.5t9 66q0 72 -27.5 110t-73.5 38
q-36 0 -59.5 -16t-38.5 -39v-229q11 -6 30 -12.5t55 -6.5z" />
    <glyph glyph-name="c" unicode="c" horiz-adv-x="489" 
d="M277 -13q-51 0 -94.5 16t-76 47t-50.5 75.5t-18 101.5q0 54 17.5 96.5t49 72.5t75 46t94.5 16q72 0 117.5 -25t68.5 -56l-78 -60q-9 23 -32 41.5t-66 18.5q-53 0 -84.5 -39t-31.5 -113q0 -68 30 -110t90 -42q47 0 69.5 18.5t33.5 39.5l74 -53q-9 -14 -23 -30t-36 -29.5
t-54 -22.5t-75 -9z" />
    <glyph glyph-name="d" unicode="d" horiz-adv-x="570" 
d="M240 -13q-47 0 -84 20.5t-63.5 54t-40.5 76.5t-14 89q0 54 18 96.5t47 72.5t66.5 46t76.5 16q43 0 79 -16.5t52 -36.5h2v289h127v-694h-126l-1 58h-2q-17 -29 -50 -50t-87 -21zM276 79q68 0 103 63v176q-11 21 -36.5 38.5t-66.5 17.5q-27 0 -47 -11.5t-33.5 -31t-20 -46
t-6.5 -57.5q0 -73 31 -111t76 -38z" />
    <glyph glyph-name="e" unicode="e" horiz-adv-x="524" 
d="M280 -13q-57 0 -102 18.5t-76 50.5t-47.5 75.5t-16.5 93.5q0 52 17 95t48 73.5t72.5 47.5t91.5 17q63 0 105 -20.5t67.5 -54t36.5 -77.5t11 -91v-13h-316q1 -59 29.5 -95t85.5 -36q25 0 43.5 6t32 15t22.5 20t14 21l78 -50q-8 -14 -22.5 -30.5t-38.5 -31t-57 -24.5
t-78 -10zM363 279q0 44 -24.5 72t-70.5 28q-41 0 -65.5 -27t-29.5 -73h190z" />
    <glyph glyph-name="f" unicode="f" horiz-adv-x="352" 
d="M97 362h-70v83h70v81q0 34 8 64.5t26 53.5t47.5 36.5t71.5 13.5t69.5 -8.5t49.5 -21.5l-33 -77q-8 8 -23 13.5t-32 5.5q-26 0 -41.5 -16t-15.5 -49v-96h111v-83h-111v-362h-127v362z" />
    <glyph glyph-name="g" unicode="g" horiz-adv-x="561" 
d="M273 -218q-39 0 -70 5.5t-55.5 15.5t-44 24.5t-35.5 31.5l60 65q15 -21 49 -38.5t80 -17.5q53 0 83.5 28t30.5 95v59h-2q-15 -27 -46.5 -45t-85.5 -18q-41 0 -77.5 16t-63.5 46.5t-42.5 74.5t-15.5 99t19 98.5t53.5 74t83.5 46.5t108 16q60 0 107.5 -10t87.5 -23v-412
q0 -59 -15.5 -102.5t-45 -72t-71 -42.5t-92.5 -14zM274 75q19 0 35 5.5t28 14.5t20.5 19.5t13.5 20.5v236q-5 2 -23.5 5t-44.5 3q-65 0 -99 -40.5t-34 -115.5q0 -69 29 -108.5t75 -39.5z" />
    <glyph glyph-name="h" unicode="h" 
d="M64 694h128v-314h2q9 13 22.5 27t31.5 25.5t40 18.5t49 7q31 0 59.5 -8.5t50 -28t34.5 -51.5t13 -79v-291h-128v279q0 45 -15.5 66t-53.5 21q-34 0 -62 -20t-43 -43v-303h-128v694z" />
    <glyph glyph-name="i" unicode="i" horiz-adv-x="270" 
d="M71 445h128v-445h-128v445zM135 520q-31 0 -52 21.5t-21 51.5q0 31 21 52.5t52 21.5t52 -21.5t21 -52.5q0 -30 -21 -51.5t-52 -21.5z" />
    <glyph glyph-name="j" unicode="j" horiz-adv-x="282" 
d="M57 -221q-35 0 -61 4.5t-45 11.5l25 83q5 -3 18 -7t30 -4q32 0 45 21t13 72v485h128v-459q0 -96 -36.5 -151.5t-116.5 -55.5zM146 520q-30 0 -51.5 21.5t-21.5 51.5q0 31 21.5 52.5t51.5 21.5q31 0 52.5 -21.5t21.5 -52.5q0 -30 -21.5 -51.5t-52.5 -21.5z" />
    <glyph glyph-name="k" unicode="k" horiz-adv-x="521" 
d="M64 694h128v-410h3l185 161h123l-206 -177l217 -268h-154l-165 212h-3v-212h-128v694z" />
    <glyph glyph-name="l" unicode="l" horiz-adv-x="279" 
d="M183 -13q-36 0 -59.5 14t-37.5 37.5t-20 53.5t-6 62v540h128v-562q0 -54 32 -54q10 0 17.5 3.5t9.5 5.5l23 -85q-15 -5 -36.5 -10t-50.5 -5z" />
    <glyph glyph-name="m" unicode="m" horiz-adv-x="810" 
d="M64 445h127l-1 -64h2q20 36 55 56.5t80 20.5q49 0 81.5 -20.5t46.5 -57.5h2q17 29 51 53.5t84 24.5q81 0 120 -40.5t39 -124.5v-293h-128v282q0 17 -3 33t-10.5 29t-20.5 20.5t-34 7.5q-28 0 -51 -15.5t-35 -38.5q2 -6 2 -15.5v-15.5v-287h-129v281q0 16 -2 32t-9 29
t-19 21t-32 8q-26 0 -51.5 -18.5t-36.5 -47.5v-305h-128v445z" />
    <glyph glyph-name="n" unicode="n" 
d="M64 445h127l-1 -65h2q9 13 23 27t32 25.5t40.5 18.5t49.5 7q30 0 58.5 -8t50.5 -27t35 -51.5t13 -80.5v-291h-128v279q0 45 -15.5 66t-53.5 21q-30 0 -58.5 -18t-46.5 -45v-303h-128v445z" />
    <glyph glyph-name="o" unicode="o" 
d="M276 -13q-50 0 -93.5 17t-75.5 47.5t-50.5 73.5t-18.5 96q0 52 18.5 96t51 75t75.5 48.5t93 17.5t93.5 -16.5t76 -47t51.5 -74.5t19 -99q0 -53 -18.5 -96t-51 -74t-76 -47.5t-94.5 -16.5zM276 69q48 0 79 37t31 115q0 34 -7 63t-20.5 50t-34.5 33t-48 12
q-49 0 -78.5 -41.5t-29.5 -116.5q0 -31 7.5 -58.5t21 -48.5t33.5 -33t46 -12z" />
    <glyph glyph-name="p" unicode="p" horiz-adv-x="570" 
d="M64 445h127l-1 -58h2q21 29 56.5 50t85.5 21q43 0 79 -15.5t62.5 -45t41.5 -72.5t15 -98q0 -49 -14.5 -92.5t-41 -76.5t-63.5 -52t-81 -19q-45 0 -82 17t-57 41h-1v-253h-128v653zM291 79q45 0 77.5 36.5t32.5 112.5q0 65 -26 105.5t-80 40.5q-20 0 -37 -6t-29.5 -15.5
t-22 -20.5t-14.5 -21v-181q15 -24 41 -37.5t58 -13.5z" />
    <glyph glyph-name="q" unicode="q" horiz-adv-x="561" 
d="M237 -13q-41 0 -77.5 16t-63.5 46.5t-42.5 74.5t-15.5 99t19 98.5t53.5 74t83.5 46.5t108 16q60 0 107.5 -10t87.5 -23v-633h-126v258h-2q-14 -25 -46 -44t-86 -19zM273 75q19 0 35 5.5t28 14.5t21 19.5t14 20.5v236q-6 2 -23.5 5t-45.5 3q-65 0 -98.5 -40.5
t-33.5 -115.5q0 -69 28.5 -108.5t74.5 -39.5z" />
    <glyph glyph-name="r" unicode="r" horiz-adv-x="392" 
d="M64 445h127l-1 -63h2q6 13 16.5 26.5t24 24.5t30.5 18t37 7q36 0 57.5 -13t29.5 -23l-61 -98q-10 13 -25 22t-37 9q-23 0 -42 -13.5t-30 -38.5v-303h-128v445z" />
    <glyph glyph-name="s" unicode="s" horiz-adv-x="411" 
d="M209 -13q-69 0 -113.5 19.5t-73.5 50.5l65 65q15 -21 44 -36.5t65 -15.5q31 0 51 12.5t20 37.5q0 23 -16.5 36.5t-40.5 23t-53 18.5t-53 24.5t-40.5 40t-16.5 64.5q0 38 15.5 63.5t39.5 40.5t52 21t53 6q58 0 94.5 -15t62.5 -39l-64 -58q-15 20 -34.5 27t-41.5 7
q-33 0 -50 -11.5t-17 -28.5q0 -20 17 -31.5t42 -20.5t55 -18.5t55 -25t42 -41t17 -65.5t-15.5 -68.5t-40 -47t-56 -27t-64.5 -8.5z" />
    <glyph glyph-name="t" unicode="t" horiz-adv-x="372" 
d="M242 -13q-43 0 -71.5 11.5t-46 35.5t-24.5 60t-7 85v183h-73v83h73v70l126 66v-136h124v-83h-124v-207q0 -42 10.5 -60.5t38.5 -18.5q18 0 32.5 4t22.5 9l25 -86q-11 -4 -40.5 -10t-65.5 -6z" />
    <glyph glyph-name="u" unicode="u" horiz-adv-x="553" 
d="M216 -13q-32 0 -60 8t-49.5 27.5t-34 51.5t-12.5 79v292h129v-279q0 -25 5.5 -41t15 -25t23 -12.5t29.5 -3.5q35 0 60.5 17.5t39.5 40.5v303h127v-445h-124l-2 64h-2q-9 -14 -23 -27.5t-32 -24.5t-40.5 -18t-49.5 -7z" />
    <glyph glyph-name="v" unicode="v" horiz-adv-x="507" 
d="M7 445h148l115 -280h2l121 280h107l-209 -445h-81z" />
    <glyph glyph-name="w" unicode="w" horiz-adv-x="766" 
d="M7 445h149l99 -274h2l104 274h87l101 -273h2l100 273h108l-184 -445h-89l-102 260h-2l-105 -260h-87z" />
    <glyph glyph-name="x" unicode="x" horiz-adv-x="551" 
d="M202 226l-178 219h158l99 -132h2l109 132h115l-169 -198l203 -247h-162l-120 157h-2l-128 -157h-120z" />
    <glyph glyph-name="y" unicode="y" horiz-adv-x="518" 
d="M135 -218q-35 0 -53.5 3.5t-34.5 8.5l22 89q8 -5 22.5 -9.5t37.5 -4.5q30 0 42.5 16t23.5 42l25 61l-208 457h149l124 -299h2l117 299h107l-231 -545q-10 -24 -23 -45t-30.5 -37.5t-40 -26t-51.5 -9.5z" />
    <glyph glyph-name="z" unicode="z" horiz-adv-x="492" 
d="M258 359v2h-206v84h407l-234 -357v-1h239v-87h-442z" />
    <glyph glyph-name="braceleft" unicode="{" horiz-adv-x="345" 
d="M235 -132q-20 0 -41 7.5t-38 22.5t-27.5 36.5t-10.5 49.5v163q0 28 -7 52t-17.5 41t-23.5 27.5t-26 13.5q13 3 26 15.5t23.5 30.5t17.5 40.5t7 46.5v164q0 27 10.5 48.5t27.5 36.5t38.5 23t44.5 8h83v-63h-53q-20 0 -31.5 -17.5t-11.5 -52.5v-160q0 -30 -11.5 -51.5
t-27 -35.5t-31.5 -21.5t-25 -10.5v-2q9 -2 25 -8t31.5 -19.5t27 -36t11.5 -56.5v-160q0 -69 43 -69h53v-63h-87z" />
    <glyph glyph-name="bar" unicode="|" horiz-adv-x="240" 
d="M70 702h100v-919h-100v919z" />
    <glyph glyph-name="braceright" unicode="}" horiz-adv-x="346" 
d="M23 -132v63h53q43 0 43 69v160q0 34 11.5 56.5t27 36t31.5 19.5t25 8v2q-9 3 -25 10.5t-31.5 21.5t-27 35.5t-11.5 51.5v160q0 35 -11.5 52.5t-31.5 17.5h-53v63h83q23 0 44.5 -8t38.5 -23t27.5 -36.5t10.5 -48.5v-164q0 -24 7 -46.5t17.5 -40.5t24 -30.5t26.5 -15.5
q-13 -3 -26.5 -13.5t-24 -27.5t-17.5 -41t-7 -52v-163q0 -28 -10.5 -49.5t-27.5 -36.5t-38 -22.5t-41 -7.5h-87z" />
    <glyph glyph-name="asciitilde" unicode="~" horiz-adv-x="544" 
d="M50 262q10 18 23 35t29 31t34.5 22.5t39.5 8.5q22 0 47 -10t50.5 -21.5t51 -21.5t49.5 -10q29 0 45.5 15.5t27.5 39.5l47 -52q-7 -12 -18.5 -29t-27.5 -32.5t-36.5 -27t-44.5 -11.5q-27 0 -51 10t-47.5 22.5t-48 22.5t-51.5 10q-29 0 -47.5 -16.5t-29.5 -40.5z" />
    <glyph glyph-name="uni00A0" unicode="&#xa0;" horiz-adv-x="244" 
 />
    <glyph glyph-name="exclamdown" unicode="&#xa1;" horiz-adv-x="308" 
d="M154 458q32 0 55 -23t23 -55q0 -16 -6.5 -30.5t-17 -25t-24.5 -16.5t-30 -6t-30 6t-24.5 16.5t-17 25t-6.5 30.5q0 32 23 55t55 23zM216 237v-445h-125v445h125z" />
    <glyph glyph-name="cent" unicode="&#xa2;" horiz-adv-x="509" 
d="M253 375q-44 -9 -67.5 -47t-23.5 -103q0 -60 24 -100.5t67 -50.5v301zM253 -12q-43 5 -82 21t-68.5 45.5t-47 72t-17.5 100.5q0 54 16 95t44.5 69.5t68 45t86.5 20.5v62h65v-62q59 -7 99 -31t60 -51l-82 -59q-8 20 -25 37t-52 22v-301q35 4 57 21.5t32 36.5l78 -53
q-10 -14 -25.5 -29t-37 -28t-47.5 -22t-57 -12v-61h-65v61z" />
    <glyph glyph-name="sterling" unicode="&#xa3;" 
d="M55 98h88v208h-70v85h70v95q0 64 20 104.5t50.5 63.5t66.5 31.5t68 8.5q49 0 92.5 -16.5t69.5 -47.5l-63 -63q-9 15 -30.5 27.5t-56.5 12.5q-43 0 -66 -29.5t-23 -84.5v-102h134v-85h-134v-208h242v-98h-458v98z" />
    <glyph glyph-name="currency" unicode="&#xa4;" horiz-adv-x="639" 
d="M504 110l-66 65q-29 -18 -56 -27.5t-62 -9.5t-62.5 9.5t-56.5 27.5l-66 -65l-63 63l66 66q-18 27 -27 55.5t-9 61.5q0 34 9 62.5t28 56.5l-67 66l63 63l67 -66q26 17 55.5 27t62.5 10t62 -9.5t56 -27.5l65 66l63 -64l-65 -64q17 -28 27 -57.5t10 -62.5t-9.5 -62
t-27.5 -56l66 -66zM444 357q0 26 -9.5 48.5t-26.5 39.5t-39.5 27t-48.5 10t-49 -10t-40 -27t-26.5 -39.5t-9.5 -48.5t9.5 -48.5t26.5 -39.5t40 -27t49 -10t48.5 10t39.5 27t26.5 39.5t9.5 48.5z" />
    <glyph glyph-name="yen" unicode="&#xa5;" horiz-adv-x="638" 
d="M253 189h-148v78h148v51h-148v78h95v2l-190 282h162l169 -267h2l165 267h120l-189 -282v-2h96v-78h-148v-51h148v-78h-148v-189h-134v189z" />
    <glyph glyph-name="brokenbar" unicode="&#xa6;" horiz-adv-x="240" 
d="M70 155h100v-238h-100v238zM70 616h100v-234h-100v234z" />
    <glyph glyph-name="section" unicode="&#xa7;" horiz-adv-x="497" 
d="M235 -128q-41 0 -73.5 7t-58 17.5t-43 22.5t-26.5 23l61 69q17 -26 53 -42t78 -16q17 0 33.5 4.5t29 13t20.5 21.5t8 30q0 31 -21 49t-53 31t-68.5 25t-68.5 30.5t-53 47t-21 75.5q0 27 10.5 48t26.5 36.5t35.5 26t36.5 15.5q-32 18 -56.5 51.5t-24.5 76.5q0 45 20 73.5
t49 44.5t61.5 21.5t58.5 5.5q60 0 107 -16.5t79 -48.5l-64 -57q-14 21 -43 34.5t-64 13.5q-40 0 -63.5 -16t-23.5 -45q0 -25 21.5 -40.5t53.5 -28.5t70 -25.5t70 -32.5t53.5 -50t21.5 -77q0 -24 -9.5 -44.5t-24 -36.5t-31.5 -27t-32 -15q32 -18 52.5 -53t20.5 -73
q0 -44 -17.5 -76t-46.5 -52.5t-66.5 -30.5t-77.5 -10zM287 202q10 2 21.5 6.5t21 13t15.5 20.5t6 28q0 17 -5.5 30.5t-19.5 24.5t-37.5 22t-60.5 23q-11 -1 -25 -4.5t-26 -12t-20 -23t-8 -35.5q0 -23 15 -38t36.5 -25t45.5 -16.5t41 -13.5z" />
    <glyph glyph-name="dieresis" unicode="&#xa8;" horiz-adv-x="561" 
d="M183 524q-30 0 -51.5 20t-21.5 49t21 49.5t51 20.5q29 0 50 -20.5t21 -49.5t-20.5 -49t-49.5 -20zM380 524q-30 0 -51 20t-21 49t20.5 49.5t50.5 20.5q29 0 50.5 -20.5t21.5 -49.5t-21 -49t-50 -20z" />
    <glyph glyph-name="copyright" unicode="&#xa9;" horiz-adv-x="566" 
d="M284 242q-51 0 -95.5 18.5t-78 51.5t-53 78t-19.5 97t19.5 97t53 78t78 52t95.5 19q50 0 94.5 -19t77.5 -52t52.5 -78t19.5 -97t-19.5 -97t-52.5 -78t-77.5 -51.5t-94.5 -18.5zM284 286q40 0 75 15.5t61.5 42.5t41.5 63.5t15 79.5t-15 80t-41.5 64t-61.5 42.5t-75 15.5
q-41 0 -77 -15.5t-62.5 -42.5t-41.5 -64t-15 -80t15 -79.5t41.5 -63.5t62.5 -42.5t77 -15.5zM289 338q-34 0 -61.5 11.5t-47 32t-30 47.5t-10.5 58q0 37 12 65t32.5 47t47 28.5t56.5 9.5q44 0 69.5 -12.5t41.5 -29.5l-43 -35q-9 15 -24 23.5t-42 8.5q-37 0 -56.5 -30
t-19.5 -75q0 -48 22.5 -75t54.5 -27t48.5 13t24.5 26q11 -8 21.5 -16t21.5 -16q-14 -20 -41.5 -37t-76.5 -17z" />
    <glyph glyph-name="ordfeminine" unicode="&#xaa;" horiz-adv-x="400" 
d="M157 343q-22 0 -43 7t-37.5 20.5t-26.5 34t-10 47.5q0 54 40.5 78t105.5 27l66 4v7q0 60 -54 60q-25 0 -40.5 -13t-22.5 -27q-17 10 -33.5 19t-33.5 18q11 15 23 26.5t28 19.5t37.5 12.5t50.5 4.5q32 0 59 -7.5t46.5 -23.5t30 -41t10.5 -59v-205h-98l-1 41h-2
q-11 -20 -33 -35t-62 -15zM182 413q26 0 44 12.5t27 28.5v52l-46 -2q-38 -2 -53 -14.5t-15 -30.5q0 -20 11.5 -33t31.5 -13z" />
    <glyph glyph-name="guillemotleft" unicode="&#xab;" horiz-adv-x="502" 
d="M33 238l152 212l73 -50l-91 -160l91 -164l-73 -49zM233 238l153 212l73 -50l-91 -160l91 -164l-73 -49z" />
    <glyph glyph-name="logicalnot" unicode="&#xac;" horiz-adv-x="644" 
d="M52 383h534v-277h-107v184h-427v93z" />
    <glyph glyph-name="uni00AD" unicode="&#xad;" horiz-adv-x="370" 
d="M52 317h266v-91h-266v91z" />
    <glyph glyph-name="registered" unicode="&#xae;" horiz-adv-x="566" 
d="M284 242q-51 0 -95.5 19t-78 52t-53 77.5t-19.5 96.5t19.5 97t53 78t78 52t95.5 19q50 0 94.5 -19t77.5 -52t52.5 -78t19.5 -97t-19.5 -96.5t-52.5 -77.5t-77.5 -52t-94.5 -19zM284 286q40 0 75 15.5t61.5 42.5t41.5 63.5t15 79.5t-15 80.5t-41.5 64.5t-61.5 42.5
t-75 15.5q-41 0 -76.5 -15.5t-62 -42.5t-42 -64.5t-15.5 -80.5t15.5 -79.5t42 -63.5t62 -42.5t76.5 -15.5zM186 631h96q45 0 69 -21.5t24 -56.5q0 -30 -14.5 -47.5t-40.5 -26.5l84 -127h-73l-71 121h-12v-121h-62v279zM274 513q40 0 40 43q0 35 -37 35h-29v-78h26z" />
    <glyph glyph-name="macron" unicode="&#xaf;" horiz-adv-x="520" 
d="M124 624h272v-84h-272v84z" />
    <glyph glyph-name="degree" unicode="&#xb0;" horiz-adv-x="364" 
d="M181 405q-30 0 -55.5 11t-44.5 30t-30 45t-11 56t10.5 55.5t29.5 44.5t45 30t56 11t56 -11t45.5 -30t30.5 -44.5t11 -55.5t-11 -56t-30.5 -45t-45.5 -30t-56 -11zM181 468q18 0 31.5 7.5t22.5 18.5t13 25t4 28q0 13 -4 27t-12.5 25t-22 18.5t-32.5 7.5q-33 0 -51.5 -23
t-18.5 -55q0 -13 4.5 -27t13.5 -25.5t22 -19t30 -7.5z" />
    <glyph glyph-name="plusminus" unicode="&#xb1;" horiz-adv-x="553" 
d="M56 128h441v-88h-441v88zM224 311h-168v92h168v141h103v-141h170v-92h-170v-144h-103v144z" />
    <glyph glyph-name="twosuperior" unicode="&#xb2;" horiz-adv-x="386" 
d="M183 520q13 15 23 29t10 32q0 43 -47 43q-28 0 -40.5 -15.5t-17.5 -31.5l-64 31q8 15 19 29t27 25.5t37 18.5t50 7q27 0 51 -6t42 -18.5t29 -33t11 -50.5q0 -27 -12 -49t-24 -36l-67 -77v-1h126v-66h-304z" />
    <glyph glyph-name="threesuperior" unicode="&#xb3;" horiz-adv-x="340" 
d="M160 342q-51 0 -79 14.5t-45 28.5l46 50q9 -11 26.5 -19t37.5 -8q25 0 38 14t13 30q0 29 -19.5 36t-62.5 7v55q39 1 58 7.5t19 35.5q0 15 -10 24t-31 9q-20 0 -34.5 -12t-19.5 -24l-56 31q15 28 46 47.5t81 19.5q54 0 85.5 -21t31.5 -62q0 -32 -19 -50t-37 -23v-1
q11 -2 23.5 -7t23 -14t17.5 -23.5t7 -35.5q0 -27 -11 -47.5t-29.5 -34t-44 -20.5t-55.5 -7z" />
    <glyph glyph-name="acute" unicode="&#xb4;" horiz-adv-x="541" 
d="M162 566l167 123l50 -87l-185 -86z" />
    <glyph glyph-name="mu" unicode="&#xb5;" horiz-adv-x="557" 
d="M64 445h129v-273q0 -47 21.5 -70t56.5 -23q38 0 61 21t34 42v303h127v-445h-124l-2 64h-2q-16 -35 -40.5 -56t-66.5 -21q-26 0 -42 7.5t-21 12.5h-2v-215h-129v653z" />
    <glyph glyph-name="paragraph" unicode="&#xb6;" horiz-adv-x="619" 
d="M235 327q-41 0 -75.5 13t-59.5 35.5t-39 53t-14 66.5q0 92 56 138.5t150 46.5h296v-775h-111v714h-93v-714h-110v422z" />
    <glyph glyph-name="periodcentered" unicode="&#xb7;" horiz-adv-x="277" 
d="M139 216q-16 0 -30 6t-24.5 16.5t-17 25t-6.5 30.5t6 30t16.5 24.5t25 16.5t30.5 6q31 0 54 -22.5t23 -54.5q0 -16 -6.5 -30.5t-17 -25t-24.5 -16.5t-29 -6z" />
    <glyph glyph-name="cedilla" unicode="&#xb8;" horiz-adv-x="514" 
d="M248 -198q-35 0 -66 7.5t-49 17.5l21 53q11 -8 28 -15.5t40 -7.5q20 0 39.5 9.5t19.5 32.5q0 18 -14.5 23.5t-27.5 5.5q-17 0 -29 -3t-22 -8l20 46q14 2 33 4t45 2q19 0 36 -4.5t30 -13.5t21 -22.5t8 -32.5q0 -24 -12 -41.5t-31 -29.5t-43 -17.5t-47 -5.5z" />
    <glyph glyph-name="onesuperior" unicode="&#xb9;" horiz-adv-x="272" 
d="M101 578l-1 1l-46 -34l-37 54l111 81h74v-328h-101v226z" />
    <glyph glyph-name="ordmasculine" unicode="&#xba;" horiz-adv-x="440" 
d="M220 343q-38 0 -70.5 12.5t-57 35t-38.5 54.5t-14 70q0 39 14 70.5t38.5 54.5t57.5 35.5t70 12.5t70 -12.5t57.5 -35t38.5 -54t14 -70.5t-14 -70.5t-38.5 -54.5t-57.5 -35.5t-70 -12.5zM220 408q13 0 26.5 5.5t24.5 18t18 33.5t7 51q0 22 -4.5 42t-13.5 35.5t-23.5 24.5
t-34.5 9q-35 0 -57 -28t-22 -83q0 -47 22 -77.5t57 -30.5z" />
    <glyph glyph-name="guillemotright" unicode="&#xbb;" horiz-adv-x="502" 
d="M43 76l90 164l-90 160l72 50l153 -212l-153 -211zM244 76l90 164l-90 160l72 50l153 -212l-153 -211z" />
    <glyph glyph-name="onequarter" unicode="&#xbc;" horiz-adv-x="689" 
d="M496 74h-170l174 254h92v-192h51v-62h-51v-74h-96v74zM496 242h-2l-72 -106h74v106zM490 686l70 -40l-390 -676l-65 37zM117 578l-1 1l-46 -34l-38 54l112 81h74v-328h-101v226z" />
    <glyph glyph-name="onehalf" unicode="&#xbd;" horiz-adv-x="740" 
d="M485 686l70 -40l-389 -676l-66 37zM117 578l-1 1l-46 -34l-38 54l112 81h74v-328h-101v226zM535 169q13 15 23 29.5t10 32.5q0 42 -47 42q-27 0 -40 -15.5t-18 -31.5l-64 32q8 15 19 29t27 25.5t37.5 18.5t49.5 7q27 0 51 -6t42.5 -19t29 -33.5t10.5 -50.5q0 -27 -12 -49
t-23 -36l-68 -77v-1h126v-66h-304z" />
    <glyph glyph-name="threequarters" unicode="&#xbe;" horiz-adv-x="726" 
d="M144 7q97 171 192.5 339.5t192.5 339.5l70 -40q-98 -171 -194.5 -338.5t-195.5 -337.5q-16 10 -32 19t-33 18zM167 342q-51 0 -79.5 14.5t-44.5 28.5l45 50q9 -11 27 -19t38 -8q24 0 37.5 14t13.5 30q0 29 -19.5 36t-63.5 7v55q39 1 58 7.5t19 35.5q0 15 -10 24t-31 9
q-20 0 -34.5 -12t-19.5 -24l-56 31q15 28 46.5 47.5t80.5 19.5q55 0 86 -21t31 -62q0 -32 -18.5 -50t-37.5 -23v-1q11 -2 23.5 -7t23 -14t17.5 -23.5t7 -35.5q0 -27 -10.5 -47.5t-29.5 -34t-44 -20.5t-55 -7zM533 74h-170l175 254h92v-192h50v-62h-50v-74h-97v74zM533 242
h-2l-71 -106h73v106z" />
    <glyph glyph-name="questiondown" unicode="&#xbf;" horiz-adv-x="465" 
d="M248 458q32 0 54.5 -23t22.5 -55q0 -16 -6 -30.5t-16.5 -25t-24.5 -16.5t-30 -6q-32 0 -55 23t-23 55q0 16 6 30t16.5 24.5t25 17t30.5 6.5zM313 206q0 -40 -11.5 -67.5t-28.5 -48t-37.5 -36.5t-37.5 -32t-28.5 -34.5t-11.5 -44.5q0 -35 23.5 -53.5t68.5 -18.5
q35 0 65 14t49 55l86 -47q-32 -59 -84 -85t-123 -26q-57 0 -97 13.5t-66 36.5t-38 54t-12 66q0 37 11.5 63t29 45.5t38 35t38 32t29 36t11.5 47.5v42h126v-47z" />
    <glyph glyph-name="Agrave" unicode="&#xc0;" horiz-adv-x="677" 
d="M285 680h108l272 -680h-151l-68 180h-255l-69 -180h-110zM412 266l-90 247h-2l-95 -247h187zM238 817l55 87l163 -122l-32 -52z" />
    <glyph glyph-name="Aacute" unicode="&#xc1;" horiz-adv-x="677" 
d="M285 680h108l272 -680h-151l-68 180h-255l-69 -180h-110zM412 266l-90 247h-2l-95 -247h187zM225 780l167 123l50 -87l-184 -86z" />
    <glyph glyph-name="Acircumflex" unicode="&#xc2;" horiz-adv-x="677" 
d="M285 680h108l272 -680h-151l-68 180h-255l-69 -180h-110zM412 266l-90 247h-2l-95 -247h187zM191 776l145 131l144 -131l-39 -48l-105 69l-106 -69z" />
    <glyph glyph-name="Atilde" unicode="&#xc3;" horiz-adv-x="677" 
d="M285 680h108l272 -680h-151l-68 180h-255l-69 -180h-110zM412 266l-90 247h-2l-95 -247h187zM187 757q0 21 6 41t17.5 35.5t28.5 25.5t39 10q18 0 32.5 -5.5t27.5 -12t25 -12t26 -5.5q19 0 32.5 8.5t14.5 28.5l51 -19q-8 -49 -26.5 -79t-61.5 -30q-19 0 -34 6t-29 13
t-27.5 13t-28.5 6q-18 0 -31.5 -12t-13.5 -30z" />
    <glyph glyph-name="Adieresis" unicode="&#xc4;" horiz-adv-x="677" 
d="M285 680h108l272 -680h-151l-68 180h-255l-69 -180h-110zM412 266l-90 247h-2l-95 -247h187zM240 740q-29 0 -50.5 20t-21.5 49t21 49.5t51 20.5q29 0 50 -20.5t21 -49.5t-21 -49t-50 -20zM437 740q-30 0 -51 20t-21 49t20.5 49.5t50.5 20.5t51 -20.5t21 -49.5t-21 -49
t-50 -20z" />
    <glyph glyph-name="Aring" unicode="&#xc5;" horiz-adv-x="677" 
d="M285 680h108l272 -680h-151l-68 180h-255l-69 -180h-110zM412 266l-90 247h-2l-95 -247h187zM339 726q-23 0 -42.5 8.5t-33.5 22.5t-22 32.5t-8 39.5t8 39.5t22 32.5t33.5 22t42.5 8t42.5 -8t33.5 -22t21.5 -32.5t7.5 -39.5t-8 -39.5t-22 -32.5t-33 -22.5t-42 -8.5z
M339 780q20 0 33 13t13 36q0 20 -12.5 34.5t-33.5 14.5t-34 -14.5t-13 -34.5q0 -21 13.5 -35t33.5 -14z" />
    <glyph glyph-name="AE" unicode="&#xc6;" horiz-adv-x="907" 
d="M395 680h458v-95h-279v-179h245v-93h-245v-215h290v-98h-423v176h-214l-98 -176h-121zM441 267v286h-2l-162 -286h164z" />
    <glyph glyph-name="Ccedilla" unicode="&#xc7;" horiz-adv-x="696" 
d="M393 -13q-83 0 -148.5 28t-111 76.5t-69.5 112.5t-24 136q0 87 28.5 153t77 111t112 67.5t132.5 22.5q52 0 93.5 -8t73.5 -21t56 -31t43 -37l-97 -75q-9 15 -22.5 29t-33 25t-46 18t-61.5 7q-46 0 -84 -16.5t-65.5 -49t-42.5 -81.5t-15 -114q0 -57 15.5 -104t43 -81.5
t66.5 -53.5t86 -19q67 0 111 25.5t70 70.5l90 -69q-20 -24 -44 -46t-56.5 -39t-76 -27t-101.5 -10zM366 -198q-35 0 -66 7.5t-49 17.5l21 53q11 -8 28 -15.5t40 -7.5q20 0 39.5 9.5t19.5 32.5q0 18 -14.5 23.5t-27.5 5.5q-17 0 -29 -3t-22 -8l20 46q14 2 33 4t45 2
q19 0 36 -4.5t30 -13.5t21 -22.5t8 -32.5q0 -24 -12 -41.5t-31 -29.5t-43 -17.5t-47 -5.5z" />
    <glyph glyph-name="Egrave" unicode="&#xc8;" horiz-adv-x="540" 
d="M72 680h417v-95h-284v-179h248v-93h-248v-215h292v-98h-425v680zM169 817l55 87l163 -122l-32 -52z" />
    <glyph glyph-name="Eacute" unicode="&#xc9;" horiz-adv-x="540" 
d="M72 680h417v-95h-284v-179h248v-93h-248v-215h292v-98h-425v680zM177 780l167 123l50 -87l-184 -86z" />
    <glyph glyph-name="Ecircumflex" unicode="&#xca;" horiz-adv-x="540" 
d="M72 680h417v-95h-284v-179h248v-93h-248v-215h292v-98h-425v680zM141 776l145 131l144 -131l-39 -48l-105 69l-106 -69z" />
    <glyph glyph-name="Edieresis" unicode="&#xcb;" horiz-adv-x="540" 
d="M72 680h417v-95h-284v-179h248v-93h-248v-215h292v-98h-425v680zM184 740q-29 0 -50.5 20t-21.5 49t21 49.5t51 20.5q29 0 50 -20.5t21 -49.5t-21 -49t-50 -20zM381 740q-30 0 -51 20t-21 49t20.5 49.5t50.5 20.5t51 -20.5t21 -49.5t-21 -49t-50 -20z" />
    <glyph glyph-name="Igrave" unicode="&#xcc;" horiz-adv-x="279" 
d="M72 680h135v-680h-135v680zM35 817l55 87l163 -122l-32 -52z" />
    <glyph glyph-name="Iacute" unicode="&#xcd;" horiz-adv-x="279" 
d="M72 680h135v-680h-135v680zM30 780l167 123l50 -87l-184 -86z" />
    <glyph glyph-name="Icircumflex" unicode="&#xce;" horiz-adv-x="279" 
d="M72 680h135v-680h-135v680zM-4 776l145 131l144 -131l-39 -48l-105 69l-106 -69z" />
    <glyph glyph-name="Idieresis" unicode="&#xcf;" horiz-adv-x="279" 
d="M72 680h135v-680h-135v680zM43 740q-29 0 -50.5 20t-21.5 49t21 49.5t51 20.5q29 0 50 -20.5t21 -49.5t-21 -49t-50 -20zM240 740q-30 0 -51 20t-21 49t20.5 49.5t50.5 20.5t51 -20.5t21 -49.5t-21 -49t-50 -20z" />
    <glyph glyph-name="Eth" unicode="&#xd0;" horiz-adv-x="739" 
d="M100 309h-70v91h70v280h226q105 0 176.5 -27.5t115 -74t62.5 -106.5t19 -125q0 -86 -28 -151t-78.5 -108.5t-121 -65.5t-155.5 -22h-216v309zM315 97q56 0 100 13t75 42.5t47 77.5t16 117q0 52 -13.5 96.5t-42 76t-72.5 49.5t-106 18l-86 -1v-186h146v-91h-146v-211z" />
    <glyph glyph-name="Ntilde" unicode="&#xd1;" horiz-adv-x="692" 
d="M72 680h129l308 -461h2v461h109v-680h-118l-319 476h-2v-476h-109v680zM199 757q0 21 6 41t17.5 35.5t28.5 25.5t39 10q18 0 32.5 -5.5t27.5 -12t25 -12t26 -5.5q19 0 32.5 8.5t14.5 28.5l51 -19q-8 -49 -26.5 -79t-61.5 -30q-19 0 -34 6t-29 13t-27.5 13t-28.5 6
q-18 0 -31.5 -12t-13.5 -30z" />
    <glyph glyph-name="Ograve" unicode="&#xd2;" horiz-adv-x="786" 
d="M393 -13q-82 0 -147.5 29.5t-111 78.5t-70 112.5t-24.5 132.5q0 78 26.5 143t74 112t112 73t140.5 26q80 0 145 -26t111.5 -73t71.5 -112t25 -143q0 -77 -27 -141.5t-74 -111.5t-112 -73.5t-140 -26.5zM393 81q46 0 84.5 17t66.5 50t43 81.5t15 110.5q0 57 -15 105.5
t-42.5 83t-66 54t-85.5 19.5t-86 -18t-66.5 -52t-43 -82.5t-15.5 -109.5q0 -59 16 -107t44 -82t66.5 -52t84.5 -18zM283 817l55 87l163 -122l-32 -52z" />
    <glyph glyph-name="Oacute" unicode="&#xd3;" horiz-adv-x="786" 
d="M393 -13q-82 0 -147.5 29.5t-111 78.5t-70 112.5t-24.5 132.5q0 78 26.5 143t74 112t112 73t140.5 26q80 0 145 -26t111.5 -73t71.5 -112t25 -143q0 -77 -27 -141.5t-74 -111.5t-112 -73.5t-140 -26.5zM393 81q46 0 84.5 17t66.5 50t43 81.5t15 110.5q0 57 -15 105.5
t-42.5 83t-66 54t-85.5 19.5t-86 -18t-66.5 -52t-43 -82.5t-15.5 -109.5q0 -59 16 -107t44 -82t66.5 -52t84.5 -18zM287 780l167 123l50 -87l-184 -86z" />
    <glyph glyph-name="Ocircumflex" unicode="&#xd4;" horiz-adv-x="786" 
d="M393 -13q-82 0 -147.5 29.5t-111 78.5t-70 112.5t-24.5 132.5q0 78 26.5 143t74 112t112 73t140.5 26q80 0 145 -26t111.5 -73t71.5 -112t25 -143q0 -77 -27 -141.5t-74 -111.5t-112 -73.5t-140 -26.5zM393 81q46 0 84.5 17t66.5 50t43 81.5t15 110.5q0 57 -15 105.5
t-42.5 83t-66 54t-85.5 19.5t-86 -18t-66.5 -52t-43 -82.5t-15.5 -109.5q0 -59 16 -107t44 -82t66.5 -52t84.5 -18zM248 776l145 131l144 -131l-39 -48l-105 69l-106 -69z" />
    <glyph glyph-name="Otilde" unicode="&#xd5;" horiz-adv-x="786" 
d="M393 -13q-82 0 -147.5 29.5t-111 78.5t-70 112.5t-24.5 132.5q0 78 26.5 143t74 112t112 73t140.5 26q80 0 145 -26t111.5 -73t71.5 -112t25 -143q0 -77 -27 -141.5t-74 -111.5t-112 -73.5t-140 -26.5zM393 81q46 0 84.5 17t66.5 50t43 81.5t15 110.5q0 57 -15 105.5
t-42.5 83t-66 54t-85.5 19.5t-86 -18t-66.5 -52t-43 -82.5t-15.5 -109.5q0 -59 16 -107t44 -82t66.5 -52t84.5 -18zM242 757q0 21 6 41t17.5 35.5t28.5 25.5t39 10q18 0 32.5 -5.5t27.5 -12t25 -12t26 -5.5q19 0 32.5 8.5t14.5 28.5l51 -19q-8 -49 -26.5 -79t-61.5 -30
q-19 0 -34 6t-29 13t-27.5 13t-28.5 6q-18 0 -31.5 -12t-13.5 -30z" />
    <glyph glyph-name="Odieresis" unicode="&#xd6;" horiz-adv-x="786" 
d="M393 -13q-82 0 -147.5 29.5t-111 78.5t-70 112.5t-24.5 132.5q0 78 26.5 143t74 112t112 73t140.5 26q80 0 145 -26t111.5 -73t71.5 -112t25 -143q0 -77 -27 -141.5t-74 -111.5t-112 -73.5t-140 -26.5zM393 81q46 0 84.5 17t66.5 50t43 81.5t15 110.5q0 57 -15 105.5
t-42.5 83t-66 54t-85.5 19.5t-86 -18t-66.5 -52t-43 -82.5t-15.5 -109.5q0 -59 16 -107t44 -82t66.5 -52t84.5 -18zM296 740q-29 0 -50.5 20t-21.5 49t21 49.5t51 20.5q29 0 50 -20.5t21 -49.5t-21 -49t-50 -20zM493 740q-30 0 -51 20t-21 49t20.5 49.5t50.5 20.5t51 -20.5
t21 -49.5t-21 -49t-50 -20z" />
    <glyph glyph-name="multiply" unicode="&#xd7;" horiz-adv-x="491" 
d="M52 131l127 128l-127 128l65 67l129 -129l130 128l63 -64l-127 -128l127 -128l-66 -67l-129 129l-129 -129z" />
    <glyph glyph-name="Oslash" unicode="&#xd8;" horiz-adv-x="788" 
d="M392 -12q-63 0 -117.5 17.5t-98.5 50.5l-70 -76l-53 49l70 76q-41 48 -62 108t-21 127q0 77 26.5 142t73.5 112t111.5 73.5t140.5 26.5q63 0 117 -17.5t99 -49.5l68 74l56 -53l-67 -72q39 -46 61 -105.5t22 -130.5q0 -77 -27 -141.5t-75 -111t-113 -73t-141 -26.5z
M392 81q47 0 86 17.5t66.5 50.5t43 81t15.5 110q0 40 -7.5 75t-21.5 64l-319 -340q21 -23 52.5 -40.5t84.5 -17.5zM392 602q-45 0 -84 -18t-67.5 -52t-44.5 -82.5t-16 -109.5q0 -48 7 -80t23 -61l320 344q-23 24 -56.5 41.5t-81.5 17.5z" />
    <glyph glyph-name="Ugrave" unicode="&#xd9;" horiz-adv-x="681" 
d="M338 -13q-57 0 -106.5 15t-86 45.5t-58 77.5t-21.5 111v444h134v-458q0 -60 37.5 -100.5t108.5 -40.5q43 0 72.5 11t48 30t27 45t8.5 57v456h113v-441q0 -67 -20 -115t-56.5 -78.5t-87.5 -44.5t-113 -14zM233 817l55 87l163 -122l-32 -52z" />
    <glyph glyph-name="Uacute" unicode="&#xda;" horiz-adv-x="681" 
d="M338 -13q-57 0 -106.5 15t-86 45.5t-58 77.5t-21.5 111v444h134v-458q0 -60 37.5 -100.5t108.5 -40.5q43 0 72.5 11t48 30t27 45t8.5 57v456h113v-441q0 -67 -20 -115t-56.5 -78.5t-87.5 -44.5t-113 -14zM238 780l167 123l50 -87l-184 -86z" />
    <glyph glyph-name="Ucircumflex" unicode="&#xdb;" horiz-adv-x="681" 
d="M338 -13q-57 0 -106.5 15t-86 45.5t-58 77.5t-21.5 111v444h134v-458q0 -60 37.5 -100.5t108.5 -40.5q43 0 72.5 11t48 30t27 45t8.5 57v456h113v-441q0 -67 -20 -115t-56.5 -78.5t-87.5 -44.5t-113 -14zM203 776l145 131l144 -131l-39 -48l-105 69l-106 -69z" />
    <glyph glyph-name="Udieresis" unicode="&#xdc;" horiz-adv-x="681" 
d="M338 -13q-57 0 -106.5 15t-86 45.5t-58 77.5t-21.5 111v444h134v-458q0 -60 37.5 -100.5t108.5 -40.5q43 0 72.5 11t48 30t27 45t8.5 57v456h113v-441q0 -67 -20 -115t-56.5 -78.5t-87.5 -44.5t-113 -14zM251 740q-29 0 -50.5 20t-21.5 49t21 49.5t51 20.5q29 0 50 -20.5
t21 -49.5t-21 -49t-50 -20zM448 740q-30 0 -51 20t-21 49t20.5 49.5t50.5 20.5t51 -20.5t21 -49.5t-21 -49t-50 -20z" />
    <glyph glyph-name="Yacute" unicode="&#xdd;" horiz-adv-x="634" 
d="M251 318l-243 362h162l168 -267h2l168 267h118l-241 -360v-320h-134v318zM226 780l167 123l50 -87l-184 -86z" />
    <glyph glyph-name="Thorn" unicode="&#xde;" horiz-adv-x="557" 
d="M72 680h133v-136h100q64 0 106 -17t67 -44.5t35 -61.5t10 -68q0 -32 -12 -66.5t-38.5 -63t-67.5 -47.5t-98 -19h-101v-157h-134v680zM296 248q45 -1 70.5 25.5t25.5 79.5q0 43 -22.5 71.5t-71.5 27.5l-93 -1v-202z" />
    <glyph glyph-name="germandbls" unicode="&#xdf;" horiz-adv-x="584" 
d="M64 500q0 91 53.5 142t167.5 51q39 0 74 -9t61 -26t41.5 -43t15.5 -60q0 -47 -20 -73.5t-44 -44.5t-44 -35t-20 -45q0 -21 15.5 -33.5t38.5 -23t50.5 -21t50.5 -28t38.5 -43.5t15.5 -67q0 -39 -14 -68t-37 -48t-54 -28.5t-64 -9.5q-66 0 -105 17t-60 36l49 69
q15 -17 40 -31t67 -14q31 0 50 15.5t19 45.5q0 25 -15 39.5t-38 25t-49 20t-49 24.5t-38 38t-15 61q0 33 11 54t27.5 36t34 28t31.5 30q11 14 14 29t3 32q0 38 -22 58t-60 20q-41 0 -66.5 -25.5t-25.5 -73.5v-521h-128v500z" />
    <glyph glyph-name="agrave" unicode="&#xe0;" horiz-adv-x="515" 
d="M191 -13q-29 0 -56.5 9t-49 27.5t-34.5 46.5t-13 66q0 36 14.5 63t41 44.5t62.5 26.5t79 11l93 3v13q0 38 -19 61t-67 23q-35 0 -57.5 -14.5t-33.5 -38.5l-76 52q28 38 70.5 58t111.5 20q91 0 144.5 -44.5t53.5 -132.5v-281h-125l-1 61h-2q-17 -29 -48.5 -51.5
t-87.5 -22.5zM223 78q39 0 66 17.5t39 40.5v80l-71 -4q-51 -3 -73 -21t-22 -46q0 -29 16 -48t45 -19zM145 603l54 87l164 -122l-32 -52z" />
    <glyph glyph-name="aacute" unicode="&#xe1;" horiz-adv-x="515" 
d="M191 -13q-29 0 -56.5 9t-49 27.5t-34.5 46.5t-13 66q0 36 14.5 63t41 44.5t62.5 26.5t79 11l93 3v13q0 38 -19 61t-67 23q-35 0 -57.5 -14.5t-33.5 -38.5l-76 52q28 38 70.5 58t111.5 20q91 0 144.5 -44.5t53.5 -132.5v-281h-125l-1 61h-2q-17 -29 -48.5 -51.5
t-87.5 -22.5zM223 78q39 0 66 17.5t39 40.5v80l-71 -4q-51 -3 -73 -21t-22 -46q0 -29 16 -48t45 -19zM154 566l167 123l50 -87l-185 -86z" />
    <glyph glyph-name="acircumflex" unicode="&#xe2;" horiz-adv-x="515" 
d="M191 -13q-29 0 -56.5 9t-49 27.5t-34.5 46.5t-13 66q0 36 14.5 63t41 44.5t62.5 26.5t79 11l93 3v13q0 38 -19 61t-67 23q-35 0 -57.5 -14.5t-33.5 -38.5l-76 52q28 38 70.5 58t111.5 20q91 0 144.5 -44.5t53.5 -132.5v-281h-125l-1 61h-2q-17 -29 -48.5 -51.5
t-87.5 -22.5zM223 78q39 0 66 17.5t39 40.5v80l-71 -4q-51 -3 -73 -21t-22 -46q0 -29 16 -48t45 -19zM120 563l145 131l145 -131l-40 -47l-105 69l-105 -69z" />
    <glyph glyph-name="atilde" unicode="&#xe3;" horiz-adv-x="515" 
d="M191 -13q-29 0 -56.5 9t-49 27.5t-34.5 46.5t-13 66q0 36 14.5 63t41 44.5t62.5 26.5t79 11l93 3v13q0 38 -19 61t-67 23q-35 0 -57.5 -14.5t-33.5 -38.5l-76 52q28 38 70.5 58t111.5 20q91 0 144.5 -44.5t53.5 -132.5v-281h-125l-1 61h-2q-17 -29 -48.5 -51.5
t-87.5 -22.5zM223 78q39 0 66 17.5t39 40.5v80l-71 -4q-51 -3 -73 -21t-22 -46q0 -29 16 -48t45 -19zM113 546q0 21 6 41t17.5 35.5t28.5 25.5t39 10q18 0 33 -5.5t27.5 -12t25 -12t26.5 -5.5q19 0 32 8.5t14 28.5l52 -19q-9 -49 -27.5 -79t-60.5 -30q-19 0 -34.5 6t-29 13
t-27 13t-29.5 6q-17 0 -31 -12t-14 -30z" />
    <glyph glyph-name="adieresis" unicode="&#xe4;" horiz-adv-x="515" 
d="M191 -13q-29 0 -56.5 9t-49 27.5t-34.5 46.5t-13 66q0 36 14.5 63t41 44.5t62.5 26.5t79 11l93 3v13q0 38 -19 61t-67 23q-35 0 -57.5 -14.5t-33.5 -38.5l-76 52q28 38 70.5 58t111.5 20q91 0 144.5 -44.5t53.5 -132.5v-281h-125l-1 61h-2q-17 -29 -48.5 -51.5
t-87.5 -22.5zM223 78q39 0 66 17.5t39 40.5v80l-71 -4q-51 -3 -73 -21t-22 -46q0 -29 16 -48t45 -19zM162 524q-30 0 -51.5 20t-21.5 49t21 49.5t51 20.5q29 0 50 -20.5t21 -49.5t-20.5 -49t-49.5 -20zM359 524q-30 0 -51 20t-21 49t20.5 49.5t50.5 20.5q29 0 50.5 -20.5
t21.5 -49.5t-21 -49t-50 -20z" />
    <glyph glyph-name="aring" unicode="&#xe5;" horiz-adv-x="515" 
d="M191 -13q-29 0 -56.5 9t-49 27.5t-34.5 46.5t-13 66q0 36 14.5 63t41 44.5t62.5 26.5t79 11l93 3v13q0 38 -19 61t-67 23q-35 0 -57.5 -14.5t-33.5 -38.5l-76 52q28 38 70.5 58t111.5 20q91 0 144.5 -44.5t53.5 -132.5v-281h-125l-1 61h-2q-17 -29 -48.5 -51.5
t-87.5 -22.5zM223 78q39 0 66 17.5t39 40.5v80l-71 -4q-51 -3 -73 -21t-22 -46q0 -29 16 -48t45 -19zM259 507q-23 0 -42.5 8.5t-33.5 22.5t-22 32.5t-8 39.5q0 20 8 38.5t22 32.5t33.5 22.5t42.5 8.5t42.5 -8.5t33.5 -22.5t21.5 -32.5t7.5 -38.5q0 -21 -8 -39.5t-22 -32.5
t-33 -22.5t-42 -8.5zM259 561q20 0 33 13t13 36q0 19 -12.5 34t-33.5 15t-34 -14.5t-13 -34.5q0 -21 13.5 -35t33.5 -14z" />
    <glyph glyph-name="ae" unicode="&#xe6;" horiz-adv-x="801" 
d="M207 -13q-35 0 -66 10t-54 28.5t-36 46t-13 63.5q0 40 16 68t43 44.5t63.5 24t77.5 7.5h92v14q0 38 -20.5 62.5t-62.5 24.5q-38 0 -58.5 -16.5t-29.5 -35.5l-86 50q27 36 70 58t111 22q45 0 84 -17t63 -46h2q26 29 62.5 46t87.5 17q55 0 95 -18.5t66 -51t38 -76t12 -93.5
v-16h-307q0 -27 6 -50.5t18.5 -41.5t32.5 -28.5t48 -10.5q24 0 41 6t28.5 15.5t18 20.5t11.5 21l84 -48q-8 -15 -22 -32.5t-36.5 -32.5t-54 -25t-73.5 -10q-52 0 -93 22.5t-69 56.5h-2q-12 -15 -28 -29.5t-38.5 -25.5t-52.5 -17.5t-69 -6.5zM226 72q37 0 63.5 16t39.5 39v76
h-71q-52 0 -75.5 -18t-23.5 -47t17 -47.5t50 -18.5zM644 279q0 19 -4 36.5t-14.5 31.5t-28.5 22.5t-45 8.5q-23 0 -39.5 -9t-27.5 -23t-17.5 -31.5t-8.5 -35.5h185z" />
    <glyph glyph-name="ccedilla" unicode="&#xe7;" horiz-adv-x="489" 
d="M277 -13q-51 0 -94.5 16t-76 47t-50.5 75.5t-18 101.5q0 54 17.5 96.5t49 72.5t75 46t94.5 16q72 0 117.5 -25t68.5 -56l-78 -60q-9 23 -32 41.5t-66 18.5q-53 0 -84.5 -39t-31.5 -113q0 -68 30 -110t90 -42q47 0 69.5 18.5t33.5 39.5l74 -53q-9 -14 -23 -30t-36 -29.5
t-54 -22.5t-75 -9zM250 -198q-35 0 -66 7.5t-49 17.5l21 53q11 -8 28 -15.5t40 -7.5q20 0 39.5 9.5t19.5 32.5q0 18 -14.5 23.5t-27.5 5.5q-17 0 -29 -3t-22 -8l20 46q14 2 33 4t45 2q19 0 36 -4.5t30 -13.5t21 -22.5t8 -32.5q0 -24 -12 -41.5t-31 -29.5t-43 -17.5t-47 -5.5
z" />
    <glyph glyph-name="egrave" unicode="&#xe8;" horiz-adv-x="523" 
d="M280 -13q-57 0 -102 18.5t-76 50.5t-47.5 75.5t-16.5 93.5q0 52 17 95t48 73.5t72.5 47.5t91.5 17q63 0 105 -20.5t67.5 -54t36.5 -77.5t11 -91v-13h-316q1 -59 29.5 -95t85.5 -36q25 0 43.5 6t32 15t22.5 20t14 21l78 -50q-8 -14 -22.5 -30.5t-38.5 -31t-57 -24.5
t-78 -10zM363 279q0 44 -24.5 72t-70.5 28q-41 0 -65.5 -27t-29.5 -73h190zM158 603l54 87l164 -122l-32 -52z" />
    <glyph glyph-name="eacute" unicode="&#xe9;" horiz-adv-x="523" 
d="M280 -13q-57 0 -102 18.5t-76 50.5t-47.5 75.5t-16.5 93.5q0 52 17 95t48 73.5t72.5 47.5t91.5 17q63 0 105 -20.5t67.5 -54t36.5 -77.5t11 -91v-13h-316q1 -59 29.5 -95t85.5 -36q25 0 43.5 6t32 15t22.5 20t14 21l78 -50q-8 -14 -22.5 -30.5t-38.5 -31t-57 -24.5
t-78 -10zM363 279q0 44 -24.5 72t-70.5 28q-41 0 -65.5 -27t-29.5 -73h190zM160 566l167 123l50 -87l-185 -86z" />
    <glyph glyph-name="ecircumflex" unicode="&#xea;" horiz-adv-x="523" 
d="M280 -13q-57 0 -102 18.5t-76 50.5t-47.5 75.5t-16.5 93.5q0 52 17 95t48 73.5t72.5 47.5t91.5 17q63 0 105 -20.5t67.5 -54t36.5 -77.5t11 -91v-13h-316q1 -59 29.5 -95t85.5 -36q25 0 43.5 6t32 15t22.5 20t14 21l78 -50q-8 -14 -22.5 -30.5t-38.5 -31t-57 -24.5
t-78 -10zM363 279q0 44 -24.5 72t-70.5 28q-41 0 -65.5 -27t-29.5 -73h190zM125 563l145 131l145 -131l-40 -47l-105 69l-105 -69z" />
    <glyph glyph-name="edieresis" unicode="&#xeb;" horiz-adv-x="523" 
d="M280 -13q-57 0 -102 18.5t-76 50.5t-47.5 75.5t-16.5 93.5q0 52 17 95t48 73.5t72.5 47.5t91.5 17q63 0 105 -20.5t67.5 -54t36.5 -77.5t11 -91v-13h-316q1 -59 29.5 -95t85.5 -36q25 0 43.5 6t32 15t22.5 20t14 21l78 -50q-8 -14 -22.5 -30.5t-38.5 -31t-57 -24.5
t-78 -10zM363 279q0 44 -24.5 72t-70.5 28q-41 0 -65.5 -27t-29.5 -73h190zM171 524q-30 0 -51.5 20t-21.5 49t21 49.5t51 20.5q29 0 50 -20.5t21 -49.5t-20.5 -49t-49.5 -20zM368 524q-30 0 -51 20t-21 49t20.5 49.5t50.5 20.5q29 0 50.5 -20.5t21.5 -49.5t-21 -49t-50 -20
z" />
    <glyph glyph-name="igrave" unicode="&#xec;" horiz-adv-x="270" 
d="M71 445h128v-445h-128v445zM34 603l54 87l164 -122l-32 -52z" />
    <glyph glyph-name="iacute" unicode="&#xed;" horiz-adv-x="270" 
d="M71 445h128v-445h-128v445zM21 566l167 123l50 -87l-185 -86z" />
    <glyph glyph-name="icircumflex" unicode="&#xee;" horiz-adv-x="270" 
d="M71 445h128v-445h-128v445zM-9 563l145 131l145 -131l-40 -47l-105 69l-105 -69z" />
    <glyph glyph-name="idieresis" unicode="&#xef;" horiz-adv-x="270" 
d="M71 445h128v-445h-128v445zM39 524q-30 0 -51.5 20t-21.5 49t21 49.5t51 20.5q29 0 50 -20.5t21 -49.5t-20.5 -49t-49.5 -20zM236 524q-30 0 -51 20t-21 49t20.5 49.5t50.5 20.5q29 0 50.5 -20.5t21.5 -49.5t-21 -49t-50 -20z" />
    <glyph glyph-name="eth" unicode="&#xf0;" horiz-adv-x="555" 
d="M281 -13q-53 0 -97 16.5t-76 47t-50 74t-18 97.5q0 55 17 99t46 74.5t66.5 46.5t79.5 16q38 0 67.5 -13t46.5 -36h2q-19 45 -48.5 76t-61.5 56l-102 -52l-48 46l102 50q-18 16 -43.5 34t-48.5 32l86 47l94 -69l95 46l56 -39l-102 -46q48 -37 81 -75.5t53 -81t28.5 -90
t8.5 -101.5q0 -50 -15 -96t-45 -81t-73.5 -56.5t-100.5 -21.5zM275 69q48 0 79.5 38t31.5 114q0 32 -7.5 61t-22 50.5t-35 34t-46.5 12.5q-55 0 -81.5 -44.5t-26.5 -113.5q0 -32 7.5 -60t21.5 -48.5t34 -32t45 -11.5z" />
    <glyph glyph-name="ntilde" unicode="&#xf1;" 
d="M64 445h127l-1 -65h2q9 13 23 27t32 25.5t40.5 18.5t49.5 7q30 0 58.5 -8t50.5 -27t35 -51.5t13 -80.5v-291h-128v279q0 45 -15.5 66t-53.5 21q-30 0 -58.5 -18t-46.5 -45v-303h-128v445zM130 546q0 21 6 41t17.5 35.5t28.5 25.5t39 10q18 0 33 -5.5t27.5 -12t25 -12
t26.5 -5.5q19 0 32 8.5t14 28.5l52 -19q-9 -49 -27.5 -79t-60.5 -30q-19 0 -34.5 6t-29 13t-27 13t-29.5 6q-17 0 -31 -12t-14 -30z" />
    <glyph glyph-name="ograve" unicode="&#xf2;" 
d="M276 -13q-50 0 -93.5 17t-75.5 47.5t-50.5 73.5t-18.5 96q0 52 18.5 96t51 75t75.5 48.5t93 17.5t93.5 -16.5t76 -47t51.5 -74.5t19 -99q0 -53 -18.5 -96t-51 -74t-76 -47.5t-94.5 -16.5zM276 69q48 0 79 37t31 115q0 34 -7 63t-20.5 50t-34.5 33t-48 12
q-49 0 -78.5 -41.5t-29.5 -116.5q0 -31 7.5 -58.5t21 -48.5t33.5 -33t46 -12zM164 603l54 87l164 -122l-32 -52z" />
    <glyph glyph-name="oacute" unicode="&#xf3;" 
d="M276 -13q-50 0 -93.5 17t-75.5 47.5t-50.5 73.5t-18.5 96q0 52 18.5 96t51 75t75.5 48.5t93 17.5t93.5 -16.5t76 -47t51.5 -74.5t19 -99q0 -53 -18.5 -96t-51 -74t-76 -47.5t-94.5 -16.5zM276 69q48 0 79 37t31 115q0 34 -7 63t-20.5 50t-34.5 33t-48 12
q-49 0 -78.5 -41.5t-29.5 -116.5q0 -31 7.5 -58.5t21 -48.5t33.5 -33t46 -12zM163 566l167 123l50 -87l-185 -86z" />
    <glyph glyph-name="ocircumflex" unicode="&#xf4;" 
d="M276 -13q-50 0 -93.5 17t-75.5 47.5t-50.5 73.5t-18.5 96q0 52 18.5 96t51 75t75.5 48.5t93 17.5t93.5 -16.5t76 -47t51.5 -74.5t19 -99q0 -53 -18.5 -96t-51 -74t-76 -47.5t-94.5 -16.5zM276 69q48 0 79 37t31 115q0 34 -7 63t-20.5 50t-34.5 33t-48 12
q-49 0 -78.5 -41.5t-29.5 -116.5q0 -31 7.5 -58.5t21 -48.5t33.5 -33t46 -12zM132 563l145 131l145 -131l-40 -47l-105 69l-105 -69z" />
    <glyph glyph-name="otilde" unicode="&#xf5;" 
d="M276 -13q-50 0 -93.5 17t-75.5 47.5t-50.5 73.5t-18.5 96q0 52 18.5 96t51 75t75.5 48.5t93 17.5t93.5 -16.5t76 -47t51.5 -74.5t19 -99q0 -53 -18.5 -96t-51 -74t-76 -47.5t-94.5 -16.5zM276 69q48 0 79 37t31 115q0 34 -7 63t-20.5 50t-34.5 33t-48 12
q-49 0 -78.5 -41.5t-29.5 -116.5q0 -31 7.5 -58.5t21 -48.5t33.5 -33t46 -12zM124 546q0 21 6 41t17.5 35.5t28.5 25.5t39 10q18 0 33 -5.5t27.5 -12t25 -12t26.5 -5.5q19 0 32 8.5t14 28.5l52 -19q-9 -49 -27.5 -79t-60.5 -30q-19 0 -34.5 6t-29 13t-27 13t-29.5 6
q-17 0 -31 -12t-14 -30z" />
    <glyph glyph-name="odieresis" unicode="&#xf6;" 
d="M276 -13q-50 0 -93.5 17t-75.5 47.5t-50.5 73.5t-18.5 96q0 52 18.5 96t51 75t75.5 48.5t93 17.5t93.5 -16.5t76 -47t51.5 -74.5t19 -99q0 -53 -18.5 -96t-51 -74t-76 -47.5t-94.5 -16.5zM276 69q48 0 79 37t31 115q0 34 -7 63t-20.5 50t-34.5 33t-48 12
q-49 0 -78.5 -41.5t-29.5 -116.5q0 -31 7.5 -58.5t21 -48.5t33.5 -33t46 -12zM182 524q-30 0 -51.5 20t-21.5 49t21 49.5t51 20.5q29 0 50 -20.5t21 -49.5t-20.5 -49t-49.5 -20zM379 524q-30 0 -51 20t-21 49t20.5 49.5t50.5 20.5q29 0 50.5 -20.5t21.5 -49.5t-21 -49
t-50 -20z" />
    <glyph glyph-name="divide" unicode="&#xf7;" horiz-adv-x="545" 
d="M273 44q-30 0 -51 20t-21 49t21 49t50 20t50.5 -20t21.5 -49t-21 -49t-50 -20zM52 315h441v-89h-441v89zM273 358q-30 0 -51 20t-21 49t21 49.5t50 20.5t50.5 -20.5t21.5 -49.5t-21 -49t-50 -20z" />
    <glyph glyph-name="oslash" unicode="&#xf8;" horiz-adv-x="557" 
d="M276 -13q-79 0 -137 39l-47 -50l-45 43l45 47q-26 30 -40 69t-14 86q0 52 18.5 96t51 75t75.5 48.5t93 17.5q39 0 75.5 -10.5t66.5 -30.5l45 50l49 -47l-45 -48q24 -29 38 -66.5t14 -83.5q0 -53 -19 -96.5t-52 -74t-77.5 -47.5t-94.5 -17zM276 69q23 0 44 9.5t36.5 28
t24.5 47t9 67.5q0 31 -9 61l-174 -184q12 -13 28 -21t41 -8zM276 379q-50 0 -81 -41.5t-31 -116.5q0 -38 11 -67l176 191q-11 14 -28 24t-47 10z" />
    <glyph glyph-name="ugrave" unicode="&#xf9;" horiz-adv-x="553" 
d="M216 -13q-32 0 -60 8t-49.5 27.5t-34 51.5t-12.5 79v292h129v-279q0 -25 5.5 -41t15 -25t23 -12.5t29.5 -3.5q35 0 60.5 17.5t39.5 40.5v303h127v-445h-124l-2 64h-2q-9 -14 -23 -27.5t-32 -24.5t-40.5 -18t-49.5 -7zM165 603l54 87l164 -122l-32 -52z" />
    <glyph glyph-name="uacute" unicode="&#xfa;" horiz-adv-x="553" 
d="M216 -13q-32 0 -60 8t-49.5 27.5t-34 51.5t-12.5 79v292h129v-279q0 -25 5.5 -41t15 -25t23 -12.5t29.5 -3.5q35 0 60.5 17.5t39.5 40.5v303h127v-445h-124l-2 64h-2q-9 -14 -23 -27.5t-32 -24.5t-40.5 -18t-49.5 -7zM162 566l167 123l50 -87l-185 -86z" />
    <glyph glyph-name="ucircumflex" unicode="&#xfb;" horiz-adv-x="553" 
d="M216 -13q-32 0 -60 8t-49.5 27.5t-34 51.5t-12.5 79v292h129v-279q0 -25 5.5 -41t15 -25t23 -12.5t29.5 -3.5q35 0 60.5 17.5t39.5 40.5v303h127v-445h-124l-2 64h-2q-9 -14 -23 -27.5t-32 -24.5t-40.5 -18t-49.5 -7zM129 563l145 131l145 -131l-40 -47l-105 69l-105 -69
z" />
    <glyph glyph-name="udieresis" unicode="&#xfc;" horiz-adv-x="553" 
d="M216 -13q-32 0 -60 8t-49.5 27.5t-34 51.5t-12.5 79v292h129v-279q0 -25 5.5 -41t15 -25t23 -12.5t29.5 -3.5q35 0 60.5 17.5t39.5 40.5v303h127v-445h-124l-2 64h-2q-9 -14 -23 -27.5t-32 -24.5t-40.5 -18t-49.5 -7zM181 524q-30 0 -51.5 20t-21.5 49t21 49.5t51 20.5
q29 0 50 -20.5t21 -49.5t-20.5 -49t-49.5 -20zM378 524q-30 0 -51 20t-21 49t20.5 49.5t50.5 20.5q29 0 50.5 -20.5t21.5 -49.5t-21 -49t-50 -20z" />
    <glyph glyph-name="yacute" unicode="&#xfd;" horiz-adv-x="518" 
d="M135 -218q-35 0 -53.5 3.5t-34.5 8.5l22 89q8 -5 22.5 -9.5t37.5 -4.5q30 0 42.5 16t23.5 42l25 61l-208 457h149l124 -299h2l117 299h107l-231 -545q-10 -24 -23 -45t-30.5 -37.5t-40 -26t-51.5 -9.5zM162 566l167 123l50 -87l-185 -86z" />
    <glyph glyph-name="thorn" unicode="&#xfe;" horiz-adv-x="570" 
d="M64 694h128v-307h1q22 29 56.5 50t84.5 21q43 0 79 -15.5t62.5 -45t41.5 -72.5t15 -98q0 -49 -14.5 -92.5t-41 -76.5t-63.5 -52t-81 -19q-45 0 -81.5 16t-57.5 42h-1v-253h-128v902zM192 130q15 -24 41 -37.5t58 -13.5q45 0 77.5 36.5t32.5 112.5q0 65 -26 105.5
t-80 40.5q-20 0 -37 -6t-29.5 -15.5t-22 -20.5t-14.5 -21v-181z" />
    <glyph glyph-name="ydieresis" unicode="&#xff;" horiz-adv-x="518" 
d="M135 -218q-35 0 -53.5 3.5t-34.5 8.5l22 89q8 -5 22.5 -9.5t37.5 -4.5q30 0 42.5 16t23.5 42l25 61l-208 457h149l124 -299h2l117 299h107l-231 -545q-10 -24 -23 -45t-30.5 -37.5t-40 -26t-51.5 -9.5zM172 524q-30 0 -51.5 20t-21.5 49t21 49.5t51 20.5q29 0 50 -20.5
t21 -49.5t-20.5 -49t-49.5 -20zM369 524q-30 0 -51 20t-21 49t20.5 49.5t50.5 20.5q29 0 50.5 -20.5t21.5 -49.5t-21 -49t-50 -20z" />
    <glyph glyph-name="Amacron" unicode="&#x100;" horiz-adv-x="677" 
d="M285 680h108l272 -680h-151l-68 180h-255l-69 -180h-110zM412 266l-90 247h-2l-95 -247h187zM199 834h271v-83h-271v83z" />
    <glyph glyph-name="amacron" unicode="&#x101;" horiz-adv-x="515" 
d="M191 -13q-29 0 -56.5 9t-49 27.5t-34.5 46.5t-13 66q0 36 14.5 63t41 44.5t62.5 26.5t79 11l93 3v13q0 38 -19 61t-67 23q-35 0 -57.5 -14.5t-33.5 -38.5l-76 52q28 38 70.5 58t111.5 20q91 0 144.5 -44.5t53.5 -132.5v-281h-125l-1 61h-2q-17 -29 -48.5 -51.5
t-87.5 -22.5zM223 78q39 0 66 17.5t39 40.5v80l-71 -4q-51 -3 -73 -21t-22 -46q0 -29 16 -48t45 -19zM125 624h272v-84h-272v84z" />
    <glyph glyph-name="Abreve" unicode="&#x102;" horiz-adv-x="677" 
d="M285 680h108l272 -680h-151l-68 180h-255l-69 -180h-110zM412 266l-90 247h-2l-95 -247h187zM335 733q-67 0 -106 38.5t-41 100.5h77q5 -31 23.5 -48t46.5 -17q32 0 50 17t23 48h77q-2 -62 -42.5 -100.5t-107.5 -38.5z" />
    <glyph glyph-name="abreve" unicode="&#x103;" horiz-adv-x="515" 
d="M191 -13q-29 0 -56.5 9t-49 27.5t-34.5 46.5t-13 66q0 36 14.5 63t41 44.5t62.5 26.5t79 11l93 3v13q0 38 -19 61t-67 23q-35 0 -57.5 -14.5t-33.5 -38.5l-76 52q28 38 70.5 58t111.5 20q91 0 144.5 -44.5t53.5 -132.5v-281h-125l-1 61h-2q-17 -29 -48.5 -51.5
t-87.5 -22.5zM223 78q39 0 66 17.5t39 40.5v80l-71 -4q-51 -3 -73 -21t-22 -46q0 -29 16 -48t45 -19zM259 519q-67 0 -106.5 38.5t-41.5 101.5h77q5 -31 24 -48.5t47 -17.5q32 0 50 17t23 49h76q-2 -62 -42.5 -101t-106.5 -39z" />
    <glyph glyph-name="Aogonek" unicode="&#x104;" horiz-adv-x="677" 
d="M285 680h108l272 -680h-151l-68 180h-255l-69 -180h-110zM412 266l-90 247h-2l-95 -247h187zM558 -194q-40 0 -68.5 20t-28.5 62q0 28 13.5 51t33.5 39h73q-32 -29 -32 -64q0 -22 12 -30.5t29 -8.5q31 0 48 17l22 -48q-13 -11 -40 -24.5t-62 -13.5z" />
    <glyph glyph-name="aogonek" unicode="&#x105;" horiz-adv-x="515" 
d="M191 -13q-29 0 -56.5 9t-49 27.5t-34.5 46.5t-13 66q0 36 14.5 63t41 44.5t62.5 26.5t79 11l93 3v13q0 38 -19 61t-67 23q-35 0 -57.5 -14.5t-33.5 -38.5l-76 52q28 38 70.5 58t111.5 20q91 0 144.5 -44.5t53.5 -132.5v-281h-125l-1 61h-2q-17 -29 -48.5 -51.5
t-87.5 -22.5zM223 78q39 0 66 17.5t39 40.5v80l-71 -4q-51 -3 -73 -21t-22 -46q0 -29 16 -48t45 -19zM373 -194q-40 0 -68.5 20t-28.5 62q0 28 13.5 51t33.5 39h73q-32 -29 -32 -64q0 -22 12 -30.5t29 -8.5q31 0 48 17l22 -48q-13 -11 -40 -24.5t-62 -13.5z" />
    <glyph glyph-name="Cacute" unicode="&#x106;" horiz-adv-x="696" 
d="M393 -13q-83 0 -148.5 28t-111 76.5t-69.5 112.5t-24 136q0 87 28.5 153t77 111t112 67.5t132.5 22.5q52 0 93.5 -8t73.5 -21t56 -31t43 -37l-97 -75q-9 15 -22.5 29t-33 25t-46 18t-61.5 7q-46 0 -84 -16.5t-65.5 -49t-42.5 -81.5t-15 -114q0 -57 15.5 -104t43 -81.5
t66.5 -53.5t86 -19q67 0 111 25.5t70 70.5l90 -69q-20 -24 -44 -46t-56.5 -39t-76 -27t-101.5 -10zM281 780l167 123l50 -87l-184 -86z" />
    <glyph glyph-name="cacute" unicode="&#x107;" horiz-adv-x="489" 
d="M277 -13q-51 0 -94.5 16t-76 47t-50.5 75.5t-18 101.5q0 54 17.5 96.5t49 72.5t75 46t94.5 16q72 0 117.5 -25t68.5 -56l-78 -60q-9 23 -32 41.5t-66 18.5q-53 0 -84.5 -39t-31.5 -113q0 -68 30 -110t90 -42q47 0 69.5 18.5t33.5 39.5l74 -53q-9 -14 -23 -30t-36 -29.5
t-54 -22.5t-75 -9zM161 566l167 123l50 -87l-185 -86z" />
    <glyph glyph-name="Ccircumflex" unicode="&#x108;" horiz-adv-x="696" 
d="M393 -13q-83 0 -148.5 28t-111 76.5t-69.5 112.5t-24 136q0 87 28.5 153t77 111t112 67.5t132.5 22.5q52 0 93.5 -8t73.5 -21t56 -31t43 -37l-97 -75q-9 15 -22.5 29t-33 25t-46 18t-61.5 7q-46 0 -84 -16.5t-65.5 -49t-42.5 -81.5t-15 -114q0 -57 15.5 -104t43 -81.5
t66.5 -53.5t86 -19q67 0 111 25.5t70 70.5l90 -69q-20 -24 -44 -46t-56.5 -39t-76 -27t-101.5 -10zM246 776l145 131l144 -131l-39 -48l-105 69l-106 -69z" />
    <glyph glyph-name="ccircumflex" unicode="&#x109;" horiz-adv-x="489" 
d="M277 -13q-51 0 -94.5 16t-76 47t-50.5 75.5t-18 101.5q0 54 17.5 96.5t49 72.5t75 46t94.5 16q72 0 117.5 -25t68.5 -56l-78 -60q-9 23 -32 41.5t-66 18.5q-53 0 -84.5 -39t-31.5 -113q0 -68 30 -110t90 -42q47 0 69.5 18.5t33.5 39.5l74 -53q-9 -14 -23 -30t-36 -29.5
t-54 -22.5t-75 -9zM126 563l145 131l145 -131l-40 -47l-105 69l-105 -69z" />
    <glyph glyph-name="Cdotaccent" unicode="&#x10a;" horiz-adv-x="696" 
d="M393 -13q-83 0 -148.5 28t-111 76.5t-69.5 112.5t-24 136q0 87 28.5 153t77 111t112 67.5t132.5 22.5q52 0 93.5 -8t73.5 -21t56 -31t43 -37l-97 -75q-9 15 -22.5 29t-33 25t-46 18t-61.5 7q-46 0 -84 -16.5t-65.5 -49t-42.5 -81.5t-15 -114q0 -57 15.5 -104t43 -81.5
t66.5 -53.5t86 -19q67 0 111 25.5t70 70.5l90 -69q-20 -24 -44 -46t-56.5 -39t-76 -27t-101.5 -10zM388 740q-30 0 -51 21t-21 51q0 31 21 52.5t51 21.5q31 0 52 -21.5t21 -52.5q0 -30 -21 -51t-52 -21z" />
    <glyph glyph-name="cdotaccent" unicode="&#x10b;" horiz-adv-x="489" 
d="M277 -13q-51 0 -94.5 16t-76 47t-50.5 75.5t-18 101.5q0 54 17.5 96.5t49 72.5t75 46t94.5 16q72 0 117.5 -25t68.5 -56l-78 -60q-9 23 -32 41.5t-66 18.5q-53 0 -84.5 -39t-31.5 -113q0 -68 30 -110t90 -42q47 0 69.5 18.5t33.5 39.5l74 -53q-9 -14 -23 -30t-36 -29.5
t-54 -22.5t-75 -9zM271 524q-31 0 -51.5 21.5t-20.5 51.5q0 31 20.5 52t51.5 21t52 -21t21 -52q0 -30 -21 -51.5t-52 -21.5z" />
    <glyph glyph-name="Ccaron" unicode="&#x10c;" horiz-adv-x="696" 
d="M393 -13q-83 0 -148.5 28t-111 76.5t-69.5 112.5t-24 136q0 87 28.5 153t77 111t112 67.5t132.5 22.5q52 0 93.5 -8t73.5 -21t56 -31t43 -37l-97 -75q-9 15 -22.5 29t-33 25t-46 18t-61.5 7q-46 0 -84 -16.5t-65.5 -49t-42.5 -81.5t-15 -114q0 -57 15.5 -104t43 -81.5
t66.5 -53.5t86 -19q67 0 111 25.5t70 70.5l90 -69q-20 -24 -44 -46t-56.5 -39t-76 -27t-101.5 -10zM239 882h79l72 -67h2l72 67h78l-120 -148h-63z" />
    <glyph glyph-name="ccaron" unicode="&#x10d;" horiz-adv-x="489" 
d="M277 -13q-51 0 -94.5 16t-76 47t-50.5 75.5t-18 101.5q0 54 17.5 96.5t49 72.5t75 46t94.5 16q72 0 117.5 -25t68.5 -56l-78 -60q-9 23 -32 41.5t-66 18.5q-53 0 -84.5 -39t-31.5 -113q0 -68 30 -110t90 -42q47 0 69.5 18.5t33.5 39.5l74 -53q-9 -14 -23 -30t-36 -29.5
t-54 -22.5t-75 -9zM119 671h78l72 -67h2l72 67h78l-119 -148h-64z" />
    <glyph glyph-name="Dcaron" unicode="&#x10e;" horiz-adv-x="711" 
d="M72 680h226q105 0 176.5 -27.5t115 -74t62.5 -106.5t19 -125q0 -86 -28 -151t-78.5 -108.5t-121 -65.5t-155.5 -22h-216v680zM287 97q56 0 100 13t75 42.5t47 77.5t16 117q0 52 -13.5 96.5t-42 76t-72.5 49.5t-106 18l-85 -1v-488zM185 882h79l72 -67h2l72 67h78
l-120 -148h-63z" />
    <glyph glyph-name="dcaron" unicode="&#x10f;" horiz-adv-x="673" 
d="M240 -13q-47 0 -84 20.5t-63.5 54t-40.5 76.5t-14 89q0 54 18 96.5t47 72.5t66.5 46t76.5 16q43 0 79 -16.5t52 -36.5h2v289h127v-694h-126l-1 58h-2q-17 -29 -50 -50t-87 -21zM276 79q68 0 103 63v176q-11 21 -36.5 38.5t-66.5 17.5q-27 0 -47 -11.5t-33.5 -31t-20 -46
t-6.5 -57.5q0 -73 31 -111t76 -38zM620 541q-30 0 -50 20t-20 49q0 32 20 51t50 19q38 0 55.5 -25t17.5 -56q0 -19 -4 -37t-13 -37t-24 -41t-37 -49l-54 15q21 21 39 46t23 42z" />
    <glyph glyph-name="Dcroat" unicode="&#x110;" horiz-adv-x="739" 
d="M100 309h-70v91h70v280h226q105 0 176.5 -27.5t115 -74t62.5 -106.5t19 -125q0 -86 -28 -151t-78.5 -108.5t-121 -65.5t-155.5 -22h-216v309zM315 97q56 0 100 13t75 42.5t47 77.5t16 117q0 52 -13.5 96.5t-42 76t-72.5 49.5t-106 18l-86 -1v-186h126v-91h-126v-211z" />
    <glyph glyph-name="dcroat" unicode="&#x111;" horiz-adv-x="587" 
d="M240 -13q-47 0 -84 20.5t-63.5 54t-40.5 76.5t-14 89q0 54 18 96.5t47 72.5t66.5 46t76.5 16q43 0 79 -16.5t52 -36.5h2v94h-132v76h132v119h127v-119h61v-76h-61v-499h-126v58h-2q-17 -29 -50.5 -50t-87.5 -21zM276 79q68 0 103 63v176q-11 21 -36.5 38.5t-66.5 17.5
q-27 0 -47 -11.5t-33.5 -31t-20 -46t-6.5 -57.5q0 -73 31 -111t76 -38z" />
    <glyph glyph-name="Emacron" unicode="&#x112;" horiz-adv-x="540" 
d="M72 680h417v-95h-284v-179h248v-93h-248v-215h292v-98h-425v680zM156 834h271v-83h-271v83z" />
    <glyph glyph-name="emacron" unicode="&#x113;" horiz-adv-x="523" 
d="M280 -13q-57 0 -102 18.5t-76 50.5t-47.5 75.5t-16.5 93.5q0 52 17 95t48 73.5t72.5 47.5t91.5 17q63 0 105 -20.5t67.5 -54t36.5 -77.5t11 -91v-13h-316q1 -59 29.5 -95t85.5 -36q25 0 43.5 6t32 15t22.5 20t14 21l78 -50q-8 -14 -22.5 -30.5t-38.5 -31t-57 -24.5
t-78 -10zM363 279q0 44 -24.5 72t-70.5 28q-41 0 -65.5 -27t-29.5 -73h190zM132 624h272v-84h-272v84z" />
    <glyph glyph-name="Ebreve" unicode="&#x114;" horiz-adv-x="540" 
d="M72 680h417v-95h-284v-179h248v-93h-248v-215h292v-98h-425v680zM286 733q-67 0 -106 38.5t-41 100.5h77q5 -31 23.5 -48t46.5 -17q32 0 50 17t23 48h77q-2 -62 -42.5 -100.5t-107.5 -38.5z" />
    <glyph glyph-name="ebreve" unicode="&#x115;" horiz-adv-x="523" 
d="M280 -13q-57 0 -102 18.5t-76 50.5t-47.5 75.5t-16.5 93.5q0 52 17 95t48 73.5t72.5 47.5t91.5 17q63 0 105 -20.5t67.5 -54t36.5 -77.5t11 -91v-13h-316q1 -59 29.5 -95t85.5 -36q25 0 43.5 6t32 15t22.5 20t14 21l78 -50q-8 -14 -22.5 -30.5t-38.5 -31t-57 -24.5
t-78 -10zM363 279q0 44 -24.5 72t-70.5 28q-41 0 -65.5 -27t-29.5 -73h190zM268 519q-67 0 -106.5 38.5t-41.5 101.5h77q5 -31 24 -48.5t47 -17.5q32 0 50 17t23 49h76q-2 -62 -42.5 -101t-106.5 -39z" />
    <glyph glyph-name="Edotaccent" unicode="&#x116;" horiz-adv-x="540" 
d="M72 680h417v-95h-284v-179h248v-93h-248v-215h292v-98h-425v680zM289 740q-30 0 -51 21t-21 51q0 31 21 52.5t51 21.5q31 0 52 -21.5t21 -52.5q0 -30 -21 -51t-52 -21z" />
    <glyph glyph-name="edotaccent" unicode="&#x117;" horiz-adv-x="523" 
d="M280 -13q-57 0 -102 18.5t-76 50.5t-47.5 75.5t-16.5 93.5q0 52 17 95t48 73.5t72.5 47.5t91.5 17q63 0 105 -20.5t67.5 -54t36.5 -77.5t11 -91v-13h-316q1 -59 29.5 -95t85.5 -36q25 0 43.5 6t32 15t22.5 20t14 21l78 -50q-8 -14 -22.5 -30.5t-38.5 -31t-57 -24.5
t-78 -10zM363 279q0 44 -24.5 72t-70.5 28q-41 0 -65.5 -27t-29.5 -73h190zM266 524q-31 0 -51.5 21.5t-20.5 51.5q0 31 20.5 52t51.5 21t52 -21t21 -52q0 -30 -21 -51.5t-52 -21.5z" />
    <glyph glyph-name="Eogonek" unicode="&#x118;" horiz-adv-x="540" 
d="M72 680h417v-95h-284v-179h248v-93h-248v-215h292v-98h-425v680zM464 -194q-40 0 -68.5 20t-28.5 62q0 28 13.5 51t33.5 39h73q-32 -29 -32 -64q0 -22 12 -30.5t29 -8.5q31 0 48 17l22 -48q-13 -11 -40 -24.5t-62 -13.5z" />
    <glyph glyph-name="eogonek" unicode="&#x119;" horiz-adv-x="523" 
d="M280 -13q-57 0 -102 18.5t-76 50.5t-47.5 75.5t-16.5 93.5q0 52 17 95t48 73.5t72.5 47.5t91.5 17q63 0 105 -20.5t67.5 -54t36.5 -77.5t11 -91v-13h-316q1 -59 29.5 -95t85.5 -36q25 0 43.5 6t32 15t22.5 20t14 21l78 -50q-8 -14 -22.5 -30.5t-38.5 -31t-57 -24.5
t-78 -10zM363 279q0 44 -24.5 72t-70.5 28q-41 0 -65.5 -27t-29.5 -73h190zM287 -204q-40 0 -68.5 20t-28.5 62q0 28 13.5 51t33.5 39h73q-32 -29 -32 -64q0 -22 12 -30.5t29 -8.5q31 0 48 17l22 -48q-13 -11 -40 -24.5t-62 -13.5z" />
    <glyph glyph-name="Ecaron" unicode="&#x11a;" horiz-adv-x="540" 
d="M72 680h417v-95h-284v-179h248v-93h-248v-215h292v-98h-425v680zM141 882h79l72 -67h2l72 67h78l-120 -148h-63z" />
    <glyph glyph-name="ecaron" unicode="&#x11b;" horiz-adv-x="523" 
d="M280 -13q-57 0 -102 18.5t-76 50.5t-47.5 75.5t-16.5 93.5q0 52 17 95t48 73.5t72.5 47.5t91.5 17q63 0 105 -20.5t67.5 -54t36.5 -77.5t11 -91v-13h-316q1 -59 29.5 -95t85.5 -36q25 0 43.5 6t32 15t22.5 20t14 21l78 -50q-8 -14 -22.5 -30.5t-38.5 -31t-57 -24.5
t-78 -10zM363 279q0 44 -24.5 72t-70.5 28q-41 0 -65.5 -27t-29.5 -73h190zM119 671h78l72 -67h2l72 67h78l-119 -148h-64z" />
    <glyph glyph-name="Gcircumflex" unicode="&#x11c;" horiz-adv-x="715" 
d="M396 -13q-74 0 -139 24t-113 69.5t-76 111t-28 148.5q0 90 30 156.5t79.5 110.5t113.5 65.5t132 21.5q53 0 93.5 -8.5t72 -22t55.5 -30.5t44 -35l-102 -74q-6 9 -17 22.5t-29.5 26t-47 21t-69.5 8.5q-43 0 -81 -17t-66.5 -50t-45.5 -82t-17 -113q0 -60 16 -107.5
t45 -81.5t68.5 -52t86.5 -18q51 0 80.5 8t44.5 19v240h133v-288q-15 -11 -39 -23.5t-57 -23.5t-75 -18.5t-92 -7.5zM248 776l145 131l144 -131l-39 -48l-105 69l-106 -69z" />
    <glyph glyph-name="gcircumflex" unicode="&#x11d;" horiz-adv-x="561" 
d="M273 -218q-39 0 -70 5.5t-55.5 15.5t-44 24.5t-35.5 31.5l60 65q15 -21 49 -38.5t80 -17.5q53 0 83.5 28t30.5 95v59h-2q-15 -27 -46.5 -45t-85.5 -18q-41 0 -77.5 16t-63.5 46.5t-42.5 74.5t-15.5 99t19 98.5t53.5 74t83.5 46.5t108 16q60 0 107.5 -10t87.5 -23v-412
q0 -59 -15.5 -102.5t-45 -72t-71 -42.5t-92.5 -14zM274 75q19 0 35 5.5t28 14.5t20.5 19.5t13.5 20.5v236q-5 2 -23.5 5t-44.5 3q-65 0 -99 -40.5t-34 -115.5q0 -69 29 -108.5t75 -39.5zM151 563l145 131l145 -131l-40 -47l-105 69l-105 -69z" />
    <glyph glyph-name="Gbreve" unicode="&#x11e;" horiz-adv-x="715" 
d="M396 -13q-74 0 -139 24t-113 69.5t-76 111t-28 148.5q0 90 30 156.5t79.5 110.5t113.5 65.5t132 21.5q53 0 93.5 -8.5t72 -22t55.5 -30.5t44 -35l-102 -74q-6 9 -17 22.5t-29.5 26t-47 21t-69.5 8.5q-43 0 -81 -17t-66.5 -50t-45.5 -82t-17 -113q0 -60 16 -107.5
t45 -81.5t68.5 -52t86.5 -18q51 0 80.5 8t44.5 19v240h133v-288q-15 -11 -39 -23.5t-57 -23.5t-75 -18.5t-92 -7.5zM390 733q-67 0 -106 38.5t-41 100.5h77q5 -31 23.5 -48t46.5 -17q32 0 50 17t23 48h77q-2 -62 -42.5 -100.5t-107.5 -38.5z" />
    <glyph glyph-name="gbreve" unicode="&#x11f;" horiz-adv-x="561" 
d="M273 -218q-39 0 -70 5.5t-55.5 15.5t-44 24.5t-35.5 31.5l60 65q15 -21 49 -38.5t80 -17.5q53 0 83.5 28t30.5 95v59h-2q-15 -27 -46.5 -45t-85.5 -18q-41 0 -77.5 16t-63.5 46.5t-42.5 74.5t-15.5 99t19 98.5t53.5 74t83.5 46.5t108 16q60 0 107.5 -10t87.5 -23v-412
q0 -59 -15.5 -102.5t-45 -72t-71 -42.5t-92.5 -14zM274 75q19 0 35 5.5t28 14.5t20.5 19.5t13.5 20.5v236q-5 2 -23.5 5t-44.5 3q-65 0 -99 -40.5t-34 -115.5q0 -69 29 -108.5t75 -39.5zM295 519q-67 0 -106.5 38.5t-41.5 101.5h77q5 -31 24 -48.5t47 -17.5q32 0 50 17
t23 49h76q-2 -62 -42.5 -101t-106.5 -39z" />
    <glyph glyph-name="Gdotaccent" unicode="&#x120;" horiz-adv-x="715" 
d="M396 -13q-74 0 -139 24t-113 69.5t-76 111t-28 148.5q0 90 30 156.5t79.5 110.5t113.5 65.5t132 21.5q53 0 93.5 -8.5t72 -22t55.5 -30.5t44 -35l-102 -74q-6 9 -17 22.5t-29.5 26t-47 21t-69.5 8.5q-43 0 -81 -17t-66.5 -50t-45.5 -82t-17 -113q0 -60 16 -107.5
t45 -81.5t68.5 -52t86.5 -18q51 0 80.5 8t44.5 19v240h133v-288q-15 -11 -39 -23.5t-57 -23.5t-75 -18.5t-92 -7.5zM392 740q-30 0 -51 21t-21 51q0 31 21 52.5t51 21.5q31 0 52 -21.5t21 -52.5q0 -30 -21 -51t-52 -21z" />
    <glyph glyph-name="gdotaccent" unicode="&#x121;" horiz-adv-x="561" 
d="M273 -218q-39 0 -70 5.5t-55.5 15.5t-44 24.5t-35.5 31.5l60 65q15 -21 49 -38.5t80 -17.5q53 0 83.5 28t30.5 95v59h-2q-15 -27 -46.5 -45t-85.5 -18q-41 0 -77.5 16t-63.5 46.5t-42.5 74.5t-15.5 99t19 98.5t53.5 74t83.5 46.5t108 16q60 0 107.5 -10t87.5 -23v-412
q0 -59 -15.5 -102.5t-45 -72t-71 -42.5t-92.5 -14zM274 75q19 0 35 5.5t28 14.5t20.5 19.5t13.5 20.5v236q-5 2 -23.5 5t-44.5 3q-65 0 -99 -40.5t-34 -115.5q0 -69 29 -108.5t75 -39.5zM297 524q-31 0 -51.5 21.5t-20.5 51.5q0 31 20.5 52t51.5 21t52 -21t21 -52
q0 -30 -21 -51.5t-52 -21.5z" />
    <glyph glyph-name="Gcommaaccent" unicode="&#x122;" horiz-adv-x="715" 
d="M396 -13q-74 0 -139 24t-113 69.5t-76 111t-28 148.5q0 90 30 156.5t79.5 110.5t113.5 65.5t132 21.5q53 0 93.5 -8.5t72 -22t55.5 -30.5t44 -35l-102 -74q-6 9 -17 22.5t-29.5 26t-47 21t-69.5 8.5q-43 0 -81 -17t-66.5 -50t-45.5 -82t-17 -113q0 -60 16 -107.5
t45 -81.5t68.5 -52t86.5 -18q51 0 80.5 8t44.5 19v240h133v-288q-15 -11 -39 -23.5t-57 -23.5t-75 -18.5t-92 -7.5zM384 -145q-26 0 -42 16t-16 43q0 26 17 42.5t47 16.5q31 0 49.5 -19t18.5 -50q0 -35 -17.5 -65.5t-51.5 -68.5l-53 12q17 17 31.5 36t19.5 34z" />
    <glyph glyph-name="gcommaaccent" unicode="&#x123;" horiz-adv-x="561" 
d="M273 -218q-39 0 -70 5.5t-55.5 15.5t-44 24.5t-35.5 31.5l60 65q15 -21 49 -38.5t80 -17.5q53 0 83.5 28t30.5 95v59h-2q-15 -27 -46.5 -45t-85.5 -18q-41 0 -77.5 16t-63.5 46.5t-42.5 74.5t-15.5 99t19 98.5t53.5 74t83.5 46.5t108 16q60 0 107.5 -10t87.5 -23v-412
q0 -59 -15.5 -102.5t-45 -72t-71 -42.5t-92.5 -14zM274 75q19 0 35 5.5t28 14.5t20.5 19.5t13.5 20.5v236q-5 2 -23.5 5t-44.5 3q-65 0 -99 -40.5t-34 -115.5q0 -69 29 -108.5t75 -39.5zM306 641q26 0 42 -16t16 -43q0 -25 -17 -42t-46 -17q-32 0 -50 19.5t-18 49.5
q0 35 17.5 65t50.5 68l53 -12q-17 -16 -31 -35.5t-19 -33.5z" />
    <glyph glyph-name="Hcircumflex" unicode="&#x124;" horiz-adv-x="692" 
d="M72 680h134v-274h280v274h134v-680h-134v313h-280v-313h-134v680zM202 776l145 131l144 -131l-39 -48l-105 69l-106 -69z" />
    <glyph glyph-name="hcircumflex" unicode="&#x125;" 
d="M64 694h128v-314h2q9 13 22.5 27t31.5 25.5t40 18.5t49 7q31 0 59.5 -8.5t50 -28t34.5 -51.5t13 -79v-291h-128v279q0 45 -15.5 66t-53.5 21q-34 0 -62 -20t-43 -43v-303h-128v694zM156 776l145 131l144 -131l-39 -48l-105 69l-106 -69z" />
    <glyph glyph-name="Hbar" unicode="&#x126;" horiz-adv-x="692" 
d="M72 680h134v-141h280v141h134v-680h-134v313h-280v-313h-134v680zM486 406v51h-280v-51h280z" />
    <glyph glyph-name="hbar" unicode="&#x127;" horiz-adv-x="571" 
d="M81 499h-61v76h61v119h128v-119h141v-76h-141v-119h2q9 13 22.5 27t31.5 25.5t40 18.5t49 7q31 0 59.5 -8.5t50 -28t34.5 -51.5t13 -79v-291h-128v279q0 45 -15.5 66t-53.5 21q-34 0 -62 -20t-43 -43v-303h-128v499z" />
    <glyph glyph-name="Itilde" unicode="&#x128;" horiz-adv-x="279" 
d="M72 680h135v-680h-135v680zM-9 757q0 21 6 41t17.5 35.5t28.5 25.5t39 10q18 0 32.5 -5.5t27.5 -12t25 -12t26 -5.5q19 0 32.5 8.5t14.5 28.5l51 -19q-8 -49 -26.5 -79t-61.5 -30q-19 0 -34 6t-29 13t-27.5 13t-28.5 6q-18 0 -31.5 -12t-13.5 -30z" />
    <glyph glyph-name="itilde" unicode="&#x129;" horiz-adv-x="270" 
d="M71 445h128v-445h-128v445zM-15 546q0 21 6 41t17.5 35.5t28.5 25.5t39 10q18 0 33 -5.5t27.5 -12t25 -12t26.5 -5.5q19 0 32 8.5t14 28.5l52 -19q-9 -49 -27.5 -79t-60.5 -30q-19 0 -34.5 6t-29 13t-27 13t-29.5 6q-17 0 -31 -12t-14 -30z" />
    <glyph glyph-name="Imacron" unicode="&#x12a;" horiz-adv-x="279" 
d="M72 680h135v-680h-135v680zM5 834h271v-83h-271v83z" />
    <glyph glyph-name="imacron" unicode="&#x12b;" horiz-adv-x="270" 
d="M71 445h128v-445h-128v445zM0 624h272v-84h-272v84z" />
    <glyph glyph-name="Iogonek" unicode="&#x12e;" horiz-adv-x="279" 
d="M72 680h135v-680h-135v680zM163 -194q-40 0 -68.5 20t-28.5 62q0 28 13.5 51t33.5 39h73q-32 -29 -32 -64q0 -22 12 -30.5t29 -8.5q31 0 48 17l22 -48q-13 -11 -40 -24.5t-62 -13.5z" />
    <glyph glyph-name="iogonek" unicode="&#x12f;" horiz-adv-x="270" 
d="M71 445h128v-445h-128v445zM135 520q-31 0 -52 21.5t-21 51.5q0 31 21 52.5t52 21.5t52 -21.5t21 -52.5q0 -30 -21 -51.5t-52 -21.5zM156 -194q-40 0 -68.5 20t-28.5 62q0 28 13.5 51t33.5 39h73q-32 -29 -32 -64q0 -22 12 -30.5t29 -8.5q31 0 48 17l22 -48
q-13 -11 -40 -24.5t-62 -13.5z" />
    <glyph glyph-name="Idotaccent" unicode="&#x130;" horiz-adv-x="279" 
d="M72 680h135v-680h-135v680zM140 740q-30 0 -51 21t-21 51q0 31 21 52.5t51 21.5q31 0 52 -21.5t21 -52.5q0 -30 -21 -51t-52 -21z" />
    <glyph glyph-name="dotlessi" unicode="&#x131;" horiz-adv-x="270" 
d="M71 445h128v-445h-128v445z" />
    <glyph glyph-name="Jcircumflex" unicode="&#x134;" horiz-adv-x="307" 
d="M73 -145q-35 0 -63 5t-46 13l26 88q8 -4 21 -8.5t31 -4.5q31 0 45 24t14 83v625h134v-593q0 -43 -5.5 -84.5t-22.5 -74.5t-49 -53t-85 -20zM21 776l145 131l144 -131l-39 -48l-105 69l-106 -69z" />
    <glyph glyph-name="jcircumflex" unicode="&#x135;" horiz-adv-x="282" 
d="M57 -221q-35 0 -61 4.5t-45 11.5l25 83q5 -3 18 -7t30 -4q32 0 45 21t13 72v485h128v-459q0 -96 -36.5 -151.5t-116.5 -55.5zM-4 563l145 131l145 -131l-40 -47l-105 69l-105 -69z" />
    <glyph glyph-name="Kcommaaccent" unicode="&#x136;" horiz-adv-x="644" 
d="M72 680h134v-274h3l277 274h134l-303 -295l318 -385h-173l-253 322h-3v-322h-134v680zM316 -145q-26 0 -42 16t-16 43q0 26 17 42.5t47 16.5q31 0 49.5 -19t18.5 -50q0 -35 -17.5 -65.5t-51.5 -68.5l-53 12q17 17 31.5 36t19.5 34z" />
    <glyph glyph-name="kcommaaccent" unicode="&#x137;" horiz-adv-x="521" 
d="M64 694h128v-410h3l185 161h123l-206 -177l217 -268h-154l-165 212h-3v-212h-128v694zM262 -145q-26 0 -42 16t-16 43q0 26 17 42.5t47 16.5q31 0 49.5 -19t18.5 -50q0 -35 -17.5 -65.5t-51.5 -68.5l-53 12q17 17 31.5 36t19.5 34z" />
    <glyph glyph-name="Lacute" unicode="&#x139;" horiz-adv-x="509" 
d="M72 680h134v-582h284v-98h-418v680zM85 780l167 123l50 -87l-184 -86z" />
    <glyph glyph-name="lacute" unicode="&#x13a;" horiz-adv-x="279" 
d="M183 -13q-36 0 -59.5 14t-37.5 37.5t-20 53.5t-6 62v540h128v-562q0 -54 32 -54q10 0 17.5 3.5t9.5 5.5l23 -85q-15 -5 -36.5 -10t-50.5 -5zM29 780l167 123l50 -87l-184 -86z" />
    <glyph glyph-name="Lcommaaccent" unicode="&#x13b;" horiz-adv-x="509" 
d="M72 680h134v-582h284v-98h-418v680zM280 -145q-26 0 -42 16t-16 43q0 26 17 42.5t47 16.5q31 0 49.5 -19t18.5 -50q0 -35 -17.5 -65.5t-51.5 -68.5l-53 12q17 17 31.5 36t19.5 34z" />
    <glyph glyph-name="lcommaaccent" unicode="&#x13c;" horiz-adv-x="279" 
d="M183 -13q-36 0 -59.5 14t-37.5 37.5t-20 53.5t-6 62v540h128v-562q0 -54 32 -54q10 0 17.5 3.5t9.5 5.5l23 -85q-15 -5 -36.5 -10t-50.5 -5zM161 -145q-26 0 -42 16t-16 43q0 26 17 42.5t47 16.5q31 0 49.5 -19t18.5 -50q0 -35 -17.5 -65.5t-51.5 -68.5l-53 12
q17 17 31.5 36t19.5 34z" />
    <glyph glyph-name="Lcaron" unicode="&#x13d;" horiz-adv-x="509" 
d="M72 680h134v-582h284v-98h-418v680zM336 541q-30 0 -50 20t-20 49q0 32 20 51t50 19q38 0 55.5 -25t17.5 -56q0 -19 -4 -37t-13 -37t-24 -41t-37 -49l-54 15q21 21 39 46t23 42z" />
    <glyph glyph-name="lcaron" unicode="&#x13e;" horiz-adv-x="353" 
d="M183 -13q-36 0 -59.5 14t-37.5 37.5t-20 53.5t-6 62v540h128v-562q0 -54 32 -54q10 0 17.5 3.5t9.5 5.5l23 -85q-15 -5 -36.5 -10t-50.5 -5zM300 541q-30 0 -50 20t-20 49q0 32 20 51t50 19q38 0 55.5 -25t17.5 -56q0 -19 -4 -37t-13 -37t-24 -41t-37 -49l-54 15
q21 21 39 46t23 42z" />
    <glyph glyph-name="Ldot" unicode="&#x13f;" horiz-adv-x="509" 
d="M72 680h134v-582h284v-98h-418v680zM341 308q-31 0 -51.5 21.5t-20.5 51.5q0 31 20.5 52t51.5 21t52 -21t21 -52q0 -30 -21 -51.5t-52 -21.5z" />
    <glyph glyph-name="ldot" unicode="&#x140;" horiz-adv-x="389" 
d="M183 -13q-36 0 -59.5 14t-37.5 37.5t-20 53.5t-6 62v540h128v-562q0 -54 32 -54q10 0 17.5 3.5t9.5 5.5l23 -85q-15 -5 -36.5 -10t-50.5 -5zM309 251q-31 0 -51.5 21.5t-20.5 51.5q0 31 20.5 52t51.5 21t52 -21t21 -52q0 -30 -21 -51.5t-52 -21.5z" />
    <glyph glyph-name="Lslash" unicode="&#x141;" horiz-adv-x="543" 
d="M105 178l-47 -39l-56 72l103 83v386h134v-285l143 113l56 -72l-199 -157v-181h285v-98h-419v178z" />
    <glyph glyph-name="lslash" unicode="&#x142;" horiz-adv-x="361" 
d="M229 -13q-35 0 -58.5 14t-37.5 37.5t-19.5 53.5t-5.5 62v82l-56 -43l-55 68l111 90v343h126v-238l75 59l57 -68l-132 -105v-210q0 -54 33 -54q10 0 17 3.5t9 5.5l23 -85q-15 -5 -36 -10t-51 -5z" />
    <glyph glyph-name="Nacute" unicode="&#x143;" horiz-adv-x="692" 
d="M72 680h129l308 -461h2v461h109v-680h-118l-319 476h-2v-476h-109v680zM238 780l167 123l50 -87l-184 -86z" />
    <glyph glyph-name="nacute" unicode="&#x144;" 
d="M64 445h127l-1 -65h2q9 13 23 27t32 25.5t40.5 18.5t49.5 7q30 0 58.5 -8t50.5 -27t35 -51.5t13 -80.5v-291h-128v279q0 45 -15.5 66t-53.5 21q-30 0 -58.5 -18t-46.5 -45v-303h-128v445zM176 566l167 123l50 -87l-185 -86z" />
    <glyph glyph-name="Ncommaaccent" unicode="&#x145;" horiz-adv-x="692" 
d="M72 680h129l308 -461h2v461h109v-680h-118l-319 476h-2v-476h-109v680zM340 -145q-26 0 -42 16t-16 43q0 26 17 42.5t47 16.5q31 0 49.5 -19t18.5 -50q0 -35 -17.5 -65.5t-51.5 -68.5l-53 12q17 17 31.5 36t19.5 34z" />
    <glyph glyph-name="ncommaaccent" unicode="&#x146;" 
d="M64 445h127l-1 -65h2q9 13 23 27t32 25.5t40.5 18.5t49.5 7q30 0 58.5 -8t50.5 -27t35 -51.5t13 -80.5v-291h-128v279q0 45 -15.5 66t-53.5 21q-30 0 -58.5 -18t-46.5 -45v-303h-128v445zM274 -145q-26 0 -42 16t-16 43q0 26 17 42.5t47 16.5q31 0 49.5 -19t18.5 -50
q0 -35 -17.5 -65.5t-51.5 -68.5l-53 12q17 17 31.5 36t19.5 34z" />
    <glyph glyph-name="Ncaron" unicode="&#x147;" horiz-adv-x="692" 
d="M72 680h129l308 -461h2v461h109v-680h-118l-319 476h-2v-476h-109v680zM200 882h79l72 -67h2l72 67h78l-120 -148h-63z" />
    <glyph glyph-name="ncaron" unicode="&#x148;" 
d="M64 445h127l-1 -65h2q9 13 23 27t32 25.5t40.5 18.5t49.5 7q30 0 58.5 -8t50.5 -27t35 -51.5t13 -80.5v-291h-128v279q0 45 -15.5 66t-53.5 21q-30 0 -58.5 -18t-46.5 -45v-303h-128v445zM140 671h78l72 -67h2l72 67h78l-119 -148h-64z" />
    <glyph glyph-name="Omacron" unicode="&#x14c;" horiz-adv-x="786" 
d="M393 -13q-82 0 -147.5 29.5t-111 78.5t-70 112.5t-24.5 132.5q0 78 26.5 143t74 112t112 73t140.5 26q80 0 145 -26t111.5 -73t71.5 -112t25 -143q0 -77 -27 -141.5t-74 -111.5t-112 -73.5t-140 -26.5zM393 81q46 0 84.5 17t66.5 50t43 81.5t15 110.5q0 57 -15 105.5
t-42.5 83t-66 54t-85.5 19.5t-86 -18t-66.5 -52t-43 -82.5t-15.5 -109.5q0 -59 16 -107t44 -82t66.5 -52t84.5 -18zM258 834h271v-83h-271v83z" />
    <glyph glyph-name="omacron" unicode="&#x14d;" 
d="M276 -13q-50 0 -93.5 17t-75.5 47.5t-50.5 73.5t-18.5 96q0 52 18.5 96t51 75t75.5 48.5t93 17.5t93.5 -16.5t76 -47t51.5 -74.5t19 -99q0 -53 -18.5 -96t-51 -74t-76 -47.5t-94.5 -16.5zM276 69q48 0 79 37t31 115q0 34 -7 63t-20.5 50t-34.5 33t-48 12
q-49 0 -78.5 -41.5t-29.5 -116.5q0 -31 7.5 -58.5t21 -48.5t33.5 -33t46 -12zM139 624h272v-84h-272v84z" />
    <glyph glyph-name="Obreve" unicode="&#x14e;" horiz-adv-x="786" 
d="M393 -13q-82 0 -147.5 29.5t-111 78.5t-70 112.5t-24.5 132.5q0 78 26.5 143t74 112t112 73t140.5 26q80 0 145 -26t111.5 -73t71.5 -112t25 -143q0 -77 -27 -141.5t-74 -111.5t-112 -73.5t-140 -26.5zM393 81q46 0 84.5 17t66.5 50t43 81.5t15 110.5q0 57 -15 105.5
t-42.5 83t-66 54t-85.5 19.5t-86 -18t-66.5 -52t-43 -82.5t-15.5 -109.5q0 -59 16 -107t44 -82t66.5 -52t84.5 -18zM392 733q-67 0 -106 38.5t-41 100.5h77q5 -31 23.5 -48t46.5 -17q32 0 50 17t23 48h77q-2 -62 -42.5 -100.5t-107.5 -38.5z" />
    <glyph glyph-name="obreve" unicode="&#x14f;" 
d="M276 -13q-50 0 -93.5 17t-75.5 47.5t-50.5 73.5t-18.5 96q0 52 18.5 96t51 75t75.5 48.5t93 17.5t93.5 -16.5t76 -47t51.5 -74.5t19 -99q0 -53 -18.5 -96t-51 -74t-76 -47.5t-94.5 -16.5zM276 69q48 0 79 37t31 115q0 34 -7 63t-20.5 50t-34.5 33t-48 12
q-49 0 -78.5 -41.5t-29.5 -116.5q0 -31 7.5 -58.5t21 -48.5t33.5 -33t46 -12zM275 519q-67 0 -106.5 38.5t-41.5 101.5h77q5 -31 24 -48.5t47 -17.5q32 0 50 17t23 49h76q-2 -62 -42.5 -101t-106.5 -39z" />
    <glyph glyph-name="Ohungarumlaut" unicode="&#x150;" horiz-adv-x="786" 
d="M393 -13q-82 0 -147.5 29.5t-111 78.5t-70 112.5t-24.5 132.5q0 78 26.5 143t74 112t112 73t140.5 26q80 0 145 -26t111.5 -73t71.5 -112t25 -143q0 -77 -27 -141.5t-74 -111.5t-112 -73.5t-140 -26.5zM393 81q46 0 84.5 17t66.5 50t43 81.5t15 110.5q0 57 -15 105.5
t-42.5 83t-66 54t-85.5 19.5t-86 -18t-66.5 -52t-43 -82.5t-15.5 -109.5q0 -59 16 -107t44 -82t66.5 -52t84.5 -18zM376 885h114l-148 -149h-87zM539 885h114l-149 -149h-88z" />
    <glyph glyph-name="ohungarumlaut" unicode="&#x151;" 
d="M276 -13q-50 0 -93.5 17t-75.5 47.5t-50.5 73.5t-18.5 96q0 52 18.5 96t51 75t75.5 48.5t93 17.5t93.5 -16.5t76 -47t51.5 -74.5t19 -99q0 -53 -18.5 -96t-51 -74t-76 -47.5t-94.5 -16.5zM276 69q48 0 79 37t31 115q0 34 -7 63t-20.5 50t-34.5 33t-48 12
q-49 0 -78.5 -41.5t-29.5 -116.5q0 -31 7.5 -58.5t21 -48.5t33.5 -33t46 -12zM254 678h114l-148 -149h-87zM417 678h114l-149 -149h-88z" />
    <glyph glyph-name="OE" unicode="&#x152;" horiz-adv-x="940" 
d="M404 -14q-85 0 -152.5 28t-114.5 76.5t-72 113t-25 136.5q0 82 28.5 148t77.5 111.5t115.5 70t142.5 24.5q26 0 59 -4.5t58 -9.5h365v-95h-280v-179h245v-93h-245v-215h291v-98h-371q-27 -6 -60.5 -10t-61.5 -4zM404 82q17 0 36 2.5t33 7.5v496q-11 5 -32 7.5t-37 2.5
q-104 0 -163 -66t-59 -192q0 -61 16.5 -109t46 -81t70.5 -50.5t89 -17.5z" />
    <glyph glyph-name="oe" unicode="&#x153;" horiz-adv-x="856" 
d="M270 -13q-50 0 -92.5 17t-73.5 47.5t-48.5 73.5t-17.5 96q0 52 17.5 96t49 75t73.5 48.5t92 17.5q53 0 97.5 -21.5t71.5 -52.5h2q28 32 69.5 53t93.5 21q56 0 96.5 -18.5t67 -51t39 -76.5t12.5 -95v-15h-310q0 -27 6 -51t18.5 -41.5t32 -27.5t47.5 -10q45 0 69.5 20
t34.5 43l84 -48q-8 -15 -22.5 -32.5t-38 -32.5t-55.5 -25t-74 -10q-53 0 -95.5 21t-71.5 53h-2q-29 -33 -75 -53.5t-97 -20.5zM270 69q47 0 77.5 39t30.5 113q0 30 -5.5 58.5t-18 50.5t-33.5 35.5t-51 13.5q-49 0 -77 -41.5t-28 -116.5q0 -32 7.5 -60t21 -48.5t33 -32
t43.5 -11.5zM698 279q-2 44 -23.5 71.5t-70.5 27.5q-38 0 -62.5 -26.5t-30.5 -72.5h187z" />
    <glyph glyph-name="Racute" unicode="&#x154;" horiz-adv-x="602" 
d="M72 680h222q65 0 109 -15.5t71 -41t38.5 -59.5t11.5 -71q0 -36 -11 -66t-30.5 -54t-45 -40.5t-53.5 -24.5l209 -308h-163l-182 294h-43v-294h-133v680zM282 388h3q104 0 104 105q0 45 -23 70.5t-76 25.5h-3l-82 -1v-199zM180 780l167 123l50 -87l-184 -86z" />
    <glyph glyph-name="racute" unicode="&#x155;" horiz-adv-x="392" 
d="M64 445h127l-1 -63h2q6 13 16.5 26.5t24 24.5t30.5 18t37 7q36 0 57.5 -13t29.5 -23l-61 -98q-10 13 -25 22t-37 9q-23 0 -42 -13.5t-30 -38.5v-303h-128v445zM120 566l167 123l50 -87l-185 -86z" />
    <glyph glyph-name="Rcommaaccent" unicode="&#x156;" horiz-adv-x="602" 
d="M72 680h222q65 0 109 -15.5t71 -41t38.5 -59.5t11.5 -71q0 -36 -11 -66t-30.5 -54t-45 -40.5t-53.5 -24.5l209 -308h-163l-182 294h-43v-294h-133v680zM282 388h3q104 0 104 105q0 45 -23 70.5t-76 25.5h-3l-82 -1v-199zM307 -145q-26 0 -42 16t-16 43q0 26 17 42.5
t47 16.5q31 0 49.5 -19t18.5 -50q0 -35 -17.5 -65.5t-51.5 -68.5l-53 12q17 17 31.5 36t19.5 34z" />
    <glyph glyph-name="rcommaaccent" unicode="&#x157;" horiz-adv-x="392" 
d="M64 445h127l-1 -63h2q6 13 16.5 26.5t24 24.5t30.5 18t37 7q36 0 57.5 -13t29.5 -23l-61 -98q-10 13 -25 22t-37 9q-23 0 -42 -13.5t-30 -38.5v-303h-128v445zM123 -145q-26 0 -42 16t-16 43q0 26 17 42.5t47 16.5q31 0 49.5 -19t18.5 -50q0 -35 -17.5 -65.5t-51.5 -68.5
l-53 12q17 17 31.5 36t19.5 34z" />
    <glyph glyph-name="Rcaron" unicode="&#x158;" horiz-adv-x="602" 
d="M72 680h222q65 0 109 -15.5t71 -41t38.5 -59.5t11.5 -71q0 -36 -11 -66t-30.5 -54t-45 -40.5t-53.5 -24.5l209 -308h-163l-182 294h-43v-294h-133v680zM282 388h3q104 0 104 105q0 45 -23 70.5t-76 25.5h-3l-82 -1v-199zM140 882h79l72 -67h2l72 67h78l-120 -148h-63z
" />
    <glyph glyph-name="rcaron" unicode="&#x159;" horiz-adv-x="392" 
d="M64 445h127l-1 -63h2q6 13 16.5 26.5t24 24.5t30.5 18t37 7q36 0 57.5 -13t29.5 -23l-61 -98q-10 13 -25 22t-37 9q-23 0 -42 -13.5t-30 -38.5v-303h-128v445zM73 671h78l72 -67h2l72 67h78l-119 -148h-64z" />
    <glyph glyph-name="Sacute" unicode="&#x15a;" horiz-adv-x="539" 
d="M267 -13q-52 0 -91 10t-68.5 25t-49.5 32.5t-33 32.5l78 79q8 -14 21.5 -28.5t32.5 -26.5t44 -19.5t57 -7.5q22 0 43 6t37 18.5t25.5 31t9.5 43.5q0 37 -23 59t-58 39t-75.5 33.5t-75.5 41t-58 62t-23 97.5q0 45 17.5 78.5t46.5 56t66.5 33.5t78.5 11q42 0 75 -7.5
t58.5 -19.5t43.5 -25.5t30 -25.5l-82 -71q-5 8 -14.5 18t-23.5 19t-33.5 15t-44.5 6q-42 0 -69.5 -19.5t-27.5 -54.5q0 -33 24 -53.5t60.5 -36t79 -31.5t79 -41.5t60.5 -64t24 -99.5q0 -45 -15.5 -84t-46 -68.5t-75.5 -46.5t-104 -17zM167 780l167 123l50 -87l-184 -86z" />
    <glyph glyph-name="sacute" unicode="&#x15b;" horiz-adv-x="411" 
d="M209 -13q-69 0 -113.5 19.5t-73.5 50.5l65 65q15 -21 44 -36.5t65 -15.5q31 0 51 12.5t20 37.5q0 23 -16.5 36.5t-40.5 23t-53 18.5t-53 24.5t-40.5 40t-16.5 64.5q0 38 15.5 63.5t39.5 40.5t52 21t53 6q58 0 94.5 -15t62.5 -39l-64 -58q-15 20 -34.5 27t-41.5 7
q-33 0 -50 -11.5t-17 -28.5q0 -20 17 -31.5t42 -20.5t55 -18.5t55 -25t42 -41t17 -65.5t-15.5 -68.5t-40 -47t-56 -27t-64.5 -8.5zM99 566l167 123l50 -87l-185 -86z" />
    <glyph glyph-name="Scircumflex" unicode="&#x15c;" horiz-adv-x="539" 
d="M267 -13q-52 0 -91 10t-68.5 25t-49.5 32.5t-33 32.5l78 79q8 -14 21.5 -28.5t32.5 -26.5t44 -19.5t57 -7.5q22 0 43 6t37 18.5t25.5 31t9.5 43.5q0 37 -23 59t-58 39t-75.5 33.5t-75.5 41t-58 62t-23 97.5q0 45 17.5 78.5t46.5 56t66.5 33.5t78.5 11q42 0 75 -7.5
t58.5 -19.5t43.5 -25.5t30 -25.5l-82 -71q-5 8 -14.5 18t-23.5 19t-33.5 15t-44.5 6q-42 0 -69.5 -19.5t-27.5 -54.5q0 -33 24 -53.5t60.5 -36t79 -31.5t79 -41.5t60.5 -64t24 -99.5q0 -45 -15.5 -84t-46 -68.5t-75.5 -46.5t-104 -17zM129 776l145 131l144 -131l-39 -48
l-105 69l-106 -69z" />
    <glyph glyph-name="scircumflex" unicode="&#x15d;" horiz-adv-x="411" 
d="M209 -13q-69 0 -113.5 19.5t-73.5 50.5l65 65q15 -21 44 -36.5t65 -15.5q31 0 51 12.5t20 37.5q0 23 -16.5 36.5t-40.5 23t-53 18.5t-53 24.5t-40.5 40t-16.5 64.5q0 38 15.5 63.5t39.5 40.5t52 21t53 6q58 0 94.5 -15t62.5 -39l-64 -58q-15 20 -34.5 27t-41.5 7
q-33 0 -50 -11.5t-17 -28.5q0 -20 17 -31.5t42 -20.5t55 -18.5t55 -25t42 -41t17 -65.5t-15.5 -68.5t-40 -47t-56 -27t-64.5 -8.5zM65 563l145 131l145 -131l-40 -47l-105 69l-105 -69z" />
    <glyph glyph-name="Scedilla" unicode="&#x15e;" horiz-adv-x="539" 
d="M267 -13q-52 0 -91 10t-68.5 25t-49.5 32.5t-33 32.5l78 79q8 -14 21.5 -28.5t32.5 -26.5t44 -19.5t57 -7.5q22 0 43 6t37 18.5t25.5 31t9.5 43.5q0 37 -23 59t-58 39t-75.5 33.5t-75.5 41t-58 62t-23 97.5q0 45 17.5 78.5t46.5 56t66.5 33.5t78.5 11q42 0 75 -7.5
t58.5 -19.5t43.5 -25.5t30 -25.5l-82 -71q-5 8 -14.5 18t-23.5 19t-33.5 15t-44.5 6q-42 0 -69.5 -19.5t-27.5 -54.5q0 -33 24 -53.5t60.5 -36t79 -31.5t79 -41.5t60.5 -64t24 -99.5q0 -45 -15.5 -84t-46 -68.5t-75.5 -46.5t-104 -17zM258 -198q-35 0 -66 7.5t-49 17.5
l21 53q11 -8 28 -15.5t40 -7.5q20 0 39.5 9.5t19.5 32.5q0 18 -14.5 23.5t-27.5 5.5q-17 0 -29 -3t-22 -8l20 46q14 2 33 4t45 2q19 0 36 -4.5t30 -13.5t21 -22.5t8 -32.5q0 -24 -12 -41.5t-31 -29.5t-43 -17.5t-47 -5.5z" />
    <glyph glyph-name="scedilla" unicode="&#x15f;" horiz-adv-x="411" 
d="M209 -13q-69 0 -113.5 19.5t-73.5 50.5l65 65q15 -21 44 -36.5t65 -15.5q31 0 51 12.5t20 37.5q0 23 -16.5 36.5t-40.5 23t-53 18.5t-53 24.5t-40.5 40t-16.5 64.5q0 38 15.5 63.5t39.5 40.5t52 21t53 6q58 0 94.5 -15t62.5 -39l-64 -58q-15 20 -34.5 27t-41.5 7
q-33 0 -50 -11.5t-17 -28.5q0 -20 17 -31.5t42 -20.5t55 -18.5t55 -25t42 -41t17 -65.5t-15.5 -68.5t-40 -47t-56 -27t-64.5 -8.5zM190 -198q-35 0 -66 7.5t-49 17.5l21 53q11 -8 28 -15.5t40 -7.5q20 0 39.5 9.5t19.5 32.5q0 18 -14.5 23.5t-27.5 5.5q-17 0 -29 -3t-22 -8
l20 46q14 2 33 4t45 2q19 0 36 -4.5t30 -13.5t21 -22.5t8 -32.5q0 -24 -12 -41.5t-31 -29.5t-43 -17.5t-47 -5.5z" />
    <glyph glyph-name="Scaron" unicode="&#x160;" horiz-adv-x="539" 
d="M267 -13q-52 0 -91 10t-68.5 25t-49.5 32.5t-33 32.5l78 79q8 -14 21.5 -28.5t32.5 -26.5t44 -19.5t57 -7.5q22 0 43 6t37 18.5t25.5 31t9.5 43.5q0 37 -23 59t-58 39t-75.5 33.5t-75.5 41t-58 62t-23 97.5q0 45 17.5 78.5t46.5 56t66.5 33.5t78.5 11q42 0 75 -7.5
t58.5 -19.5t43.5 -25.5t30 -25.5l-82 -71q-5 8 -14.5 18t-23.5 19t-33.5 15t-44.5 6q-42 0 -69.5 -19.5t-27.5 -54.5q0 -33 24 -53.5t60.5 -36t79 -31.5t79 -41.5t60.5 -64t24 -99.5q0 -45 -15.5 -84t-46 -68.5t-75.5 -46.5t-104 -17zM125 882h79l72 -67h2l72 67h78
l-120 -148h-63z" />
    <glyph glyph-name="scaron" unicode="&#x161;" horiz-adv-x="411" 
d="M209 -13q-69 0 -113.5 19.5t-73.5 50.5l65 65q15 -21 44 -36.5t65 -15.5q31 0 51 12.5t20 37.5q0 23 -16.5 36.5t-40.5 23t-53 18.5t-53 24.5t-40.5 40t-16.5 64.5q0 38 15.5 63.5t39.5 40.5t52 21t53 6q58 0 94.5 -15t62.5 -39l-64 -58q-15 20 -34.5 27t-41.5 7
q-33 0 -50 -11.5t-17 -28.5q0 -20 17 -31.5t42 -20.5t55 -18.5t55 -25t42 -41t17 -65.5t-15.5 -68.5t-40 -47t-56 -27t-64.5 -8.5zM61 671h78l72 -67h2l72 67h78l-119 -148h-64z" />
    <glyph glyph-name="Tcommaaccent" unicode="&#x162;" horiz-adv-x="538" 
d="M202 585h-192v95h518v-95h-192v-585h-134v585zM263 -145q-26 0 -42 16t-16 43q0 26 17 42.5t47 16.5q31 0 49.5 -19t18.5 -50q0 -35 -17.5 -65.5t-51.5 -68.5l-53 12q17 17 31.5 36t19.5 34z" />
    <glyph glyph-name="tcommaaccent" unicode="&#x163;" horiz-adv-x="372" 
d="M242 -13q-43 0 -71.5 11.5t-46 35.5t-24.5 60t-7 85v183h-73v83h73v70l126 66v-136h124v-83h-124v-207q0 -42 10.5 -60.5t38.5 -18.5q18 0 32.5 4t22.5 9l25 -86q-11 -4 -40.5 -10t-65.5 -6zM222 -145q-26 0 -42 16t-16 43q0 26 17 42.5t47 16.5q31 0 49.5 -19t18.5 -50
q0 -35 -17.5 -65.5t-51.5 -68.5l-53 12q17 17 31.5 36t19.5 34z" />
    <glyph glyph-name="Tcaron" unicode="&#x164;" horiz-adv-x="538" 
d="M202 585h-192v95h518v-95h-192v-585h-134v585zM121 882h79l72 -67h2l72 67h78l-120 -148h-63z" />
    <glyph glyph-name="tcaron" unicode="&#x165;" horiz-adv-x="388" 
d="M242 -13q-43 0 -71.5 11.5t-46 35.5t-24.5 60t-7 85v183h-73v83h73v70l126 66v-136h124v-83h-124v-207q0 -42 10.5 -60.5t38.5 -18.5q18 0 32.5 4t22.5 9l25 -86q-11 -4 -40.5 -10t-65.5 -6zM322 571q-26 0 -42 16t-16 43q0 26 17 42.5t47 16.5q31 0 49.5 -19t18.5 -50
q0 -35 -17.5 -65.5t-51.5 -68.5l-53 12q17 17 31.5 36t19.5 34z" />
    <glyph glyph-name="Tbar" unicode="&#x166;" horiz-adv-x="538" 
d="M202 316h-92v82h92v187h-192v95h518v-95h-192v-187h92v-82h-92v-316h-134v316z" />
    <glyph glyph-name="tbar" unicode="&#x167;" horiz-adv-x="396" 
d="M255 -13q-43 0 -71.5 11.5t-46 35.5t-24.5 60t-7 85v48h-81v76h81v59h-73v83h73v70l126 66v-136h124v-83h-124v-59h133v-76h-133v-72q0 -42 10.5 -60.5t38.5 -18.5q18 0 32.5 4t22.5 9l25 -86q-11 -4 -40.5 -10t-65.5 -6z" />
    <glyph glyph-name="Utilde" unicode="&#x168;" horiz-adv-x="681" 
d="M338 -13q-57 0 -106.5 15t-86 45.5t-58 77.5t-21.5 111v444h134v-458q0 -60 37.5 -100.5t108.5 -40.5q43 0 72.5 11t48 30t27 45t8.5 57v456h113v-441q0 -67 -20 -115t-56.5 -78.5t-87.5 -44.5t-113 -14zM200 757q0 21 6 41t17.5 35.5t28.5 25.5t39 10q18 0 32.5 -5.5
t27.5 -12t25 -12t26 -5.5q19 0 32.5 8.5t14.5 28.5l51 -19q-8 -49 -26.5 -79t-61.5 -30q-19 0 -34 6t-29 13t-27.5 13t-28.5 6q-18 0 -31.5 -12t-13.5 -30z" />
    <glyph glyph-name="utilde" unicode="&#x169;" horiz-adv-x="553" 
d="M216 -13q-32 0 -60 8t-49.5 27.5t-34 51.5t-12.5 79v292h129v-279q0 -25 5.5 -41t15 -25t23 -12.5t29.5 -3.5q35 0 60.5 17.5t39.5 40.5v303h127v-445h-124l-2 64h-2q-9 -14 -23 -27.5t-32 -24.5t-40.5 -18t-49.5 -7zM133 546q0 21 6 41t17.5 35.5t28.5 25.5t39 10
q18 0 33 -5.5t27.5 -12t25 -12t26.5 -5.5q19 0 32 8.5t14 28.5l52 -19q-9 -49 -27.5 -79t-60.5 -30q-19 0 -34.5 6t-29 13t-27 13t-29.5 6q-17 0 -31 -12t-14 -30z" />
    <glyph glyph-name="Umacron" unicode="&#x16a;" horiz-adv-x="681" 
d="M338 -13q-57 0 -106.5 15t-86 45.5t-58 77.5t-21.5 111v444h134v-458q0 -60 37.5 -100.5t108.5 -40.5q43 0 72.5 11t48 30t27 45t8.5 57v456h113v-441q0 -67 -20 -115t-56.5 -78.5t-87.5 -44.5t-113 -14zM213 834h271v-83h-271v83z" />
    <glyph glyph-name="umacron" unicode="&#x16b;" horiz-adv-x="553" 
d="M216 -13q-32 0 -60 8t-49.5 27.5t-34 51.5t-12.5 79v292h129v-279q0 -25 5.5 -41t15 -25t23 -12.5t29.5 -3.5q35 0 60.5 17.5t39.5 40.5v303h127v-445h-124l-2 64h-2q-9 -14 -23 -27.5t-32 -24.5t-40.5 -18t-49.5 -7zM145 624h272v-84h-272v84z" />
    <glyph glyph-name="Ubreve" unicode="&#x16c;" horiz-adv-x="681" 
d="M338 -13q-57 0 -106.5 15t-86 45.5t-58 77.5t-21.5 111v444h134v-458q0 -60 37.5 -100.5t108.5 -40.5q43 0 72.5 11t48 30t27 45t8.5 57v456h113v-441q0 -67 -20 -115t-56.5 -78.5t-87.5 -44.5t-113 -14zM347 733q-67 0 -106 38.5t-41 100.5h77q5 -31 23.5 -48t46.5 -17
q32 0 50 17t23 48h77q-2 -62 -42.5 -100.5t-107.5 -38.5z" />
    <glyph glyph-name="ubreve" unicode="&#x16d;" horiz-adv-x="553" 
d="M216 -13q-32 0 -60 8t-49.5 27.5t-34 51.5t-12.5 79v292h129v-279q0 -25 5.5 -41t15 -25t23 -12.5t29.5 -3.5q35 0 60.5 17.5t39.5 40.5v303h127v-445h-124l-2 64h-2q-9 -14 -23 -27.5t-32 -24.5t-40.5 -18t-49.5 -7zM275 519q-67 0 -106.5 38.5t-41.5 101.5h77
q5 -31 24 -48.5t47 -17.5q32 0 50 17t23 49h76q-2 -62 -42.5 -101t-106.5 -39z" />
    <glyph glyph-name="Uring" unicode="&#x16e;" horiz-adv-x="681" 
d="M338 -13q-57 0 -106.5 15t-86 45.5t-58 77.5t-21.5 111v444h134v-458q0 -60 37.5 -100.5t108.5 -40.5q43 0 72.5 11t48 30t27 45t8.5 57v456h113v-441q0 -67 -20 -115t-56.5 -78.5t-87.5 -44.5t-113 -14zM347 726q-23 0 -42.5 8.5t-33.5 22.5t-22 32.5t-8 39.5t8 39.5
t22 32.5t33.5 22t42.5 8t42.5 -8t33.5 -22t21.5 -32.5t7.5 -39.5t-8 -39.5t-22 -32.5t-33 -22.5t-42 -8.5zM347 780q20 0 33 13t13 36q0 20 -12.5 34.5t-33.5 14.5t-34 -14.5t-13 -34.5q0 -21 13.5 -35t33.5 -14z" />
    <glyph glyph-name="uring" unicode="&#x16f;" horiz-adv-x="553" 
d="M216 -13q-32 0 -60 8t-49.5 27.5t-34 51.5t-12.5 79v292h129v-279q0 -25 5.5 -41t15 -25t23 -12.5t29.5 -3.5q35 0 60.5 17.5t39.5 40.5v303h127v-445h-124l-2 64h-2q-9 -14 -23 -27.5t-32 -24.5t-40.5 -18t-49.5 -7zM277 507q-23 0 -42.5 8.5t-33.5 22.5t-22 32.5
t-8 39.5q0 20 8 38.5t22 32.5t33.5 22.5t42.5 8.5t42.5 -8.5t33.5 -22.5t21.5 -32.5t7.5 -38.5q0 -21 -8 -39.5t-22 -32.5t-33 -22.5t-42 -8.5zM277 561q20 0 33 13t13 36q0 19 -12.5 34t-33.5 15t-34 -14.5t-13 -34.5q0 -21 13.5 -35t33.5 -14z" />
    <glyph glyph-name="Uhungarumlaut" unicode="&#x170;" horiz-adv-x="681" 
d="M338 -13q-57 0 -106.5 15t-86 45.5t-58 77.5t-21.5 111v444h134v-458q0 -60 37.5 -100.5t108.5 -40.5q43 0 72.5 11t48 30t27 45t8.5 57v456h113v-441q0 -67 -20 -115t-56.5 -78.5t-87.5 -44.5t-113 -14zM301 885h114l-148 -149h-87zM464 885h114l-149 -149h-88z" />
    <glyph glyph-name="uhungarumlaut" unicode="&#x171;" horiz-adv-x="553" 
d="M216 -13q-32 0 -60 8t-49.5 27.5t-34 51.5t-12.5 79v292h129v-279q0 -25 5.5 -41t15 -25t23 -12.5t29.5 -3.5q35 0 60.5 17.5t39.5 40.5v303h127v-445h-124l-2 64h-2q-9 -14 -23 -27.5t-32 -24.5t-40.5 -18t-49.5 -7zM249 678h114l-148 -149h-87zM412 678h114l-149 -149
h-88z" />
    <glyph glyph-name="Uogonek" unicode="&#x172;" horiz-adv-x="681" 
d="M338 -13q-57 0 -106.5 15t-86 45.5t-58 77.5t-21.5 111v444h134v-458q0 -60 37.5 -100.5t108.5 -40.5q43 0 72.5 11t48 30t27 45t8.5 57v456h113v-441q0 -67 -20 -115t-56.5 -78.5t-87.5 -44.5t-113 -14zM366 -204q-40 0 -68.5 20t-28.5 62q0 28 13.5 51t33.5 39h73
q-32 -29 -32 -64q0 -22 12 -30.5t29 -8.5q31 0 48 17l22 -48q-13 -11 -40 -24.5t-62 -13.5z" />
    <glyph glyph-name="uogonek" unicode="&#x173;" horiz-adv-x="553" 
d="M216 -13q-32 0 -60 8t-49.5 27.5t-34 51.5t-12.5 79v292h129v-279q0 -25 5.5 -41t15 -25t23 -12.5t29.5 -3.5q35 0 60.5 17.5t39.5 40.5v303h127v-445h-124l-2 64h-2q-9 -14 -23 -27.5t-32 -24.5t-40.5 -18t-49.5 -7zM408 -194q-40 0 -68.5 20t-28.5 62q0 28 13.5 51
t33.5 39h73q-32 -29 -32 -64q0 -22 12 -30.5t29 -8.5q31 0 48 17l22 -48q-13 -11 -40 -24.5t-62 -13.5z" />
    <glyph glyph-name="Wcircumflex" unicode="&#x174;" horiz-adv-x="956" 
d="M12 680h153l138 -465h2l138 465h106l138 -465h2l137 465h118l-225 -680h-99l-142 461h-2l-138 -461h-101zM347 776l145 131l144 -131l-39 -48l-105 69l-106 -69z" />
    <glyph glyph-name="wcircumflex" unicode="&#x175;" horiz-adv-x="766" 
d="M7 445h149l99 -274h2l104 274h87l101 -273h2l100 273h108l-184 -445h-89l-102 260h-2l-105 -260h-87zM254 563l145 131l145 -131l-40 -47l-105 69l-105 -69z" />
    <glyph glyph-name="Ycircumflex" unicode="&#x176;" horiz-adv-x="634" 
d="M251 318l-243 362h162l168 -267h2l168 267h118l-241 -360v-320h-134v318zM192 776l145 131l144 -131l-39 -48l-105 69l-106 -69z" />
    <glyph glyph-name="ycircumflex" unicode="&#x177;" horiz-adv-x="518" 
d="M135 -218q-35 0 -53.5 3.5t-34.5 8.5l22 89q8 -5 22.5 -9.5t37.5 -4.5q30 0 42.5 16t23.5 42l25 61l-208 457h149l124 -299h2l117 299h107l-231 -545q-10 -24 -23 -45t-30.5 -37.5t-40 -26t-51.5 -9.5zM132 563l145 131l145 -131l-40 -47l-105 69l-105 -69z" />
    <glyph glyph-name="Ydieresis" unicode="&#x178;" horiz-adv-x="634" 
d="M251 318l-243 362h162l168 -267h2l168 267h118l-241 -360v-320h-134v318zM234 740q-29 0 -50.5 20t-21.5 49t21 49.5t51 20.5q29 0 50 -20.5t21 -49.5t-21 -49t-50 -20zM431 740q-30 0 -51 20t-21 49t20.5 49.5t50.5 20.5t51 -20.5t21 -49.5t-21 -49t-50 -20z" />
    <glyph glyph-name="Zacute" unicode="&#x179;" horiz-adv-x="626" 
d="M372 583v2h-293v95h504l-352 -580v-2h359v-98h-568zM221 780l167 123l50 -87l-184 -86z" />
    <glyph glyph-name="zacute" unicode="&#x17a;" horiz-adv-x="492" 
d="M258 359v2h-206v84h407l-234 -357v-1h239v-87h-442zM149 566l167 123l50 -87l-185 -86z" />
    <glyph glyph-name="Zdotaccent" unicode="&#x17b;" horiz-adv-x="626" 
d="M372 583v2h-293v95h504l-352 -580v-2h359v-98h-568zM335 740q-30 0 -51 21t-21 51q0 31 21 52.5t51 21.5q31 0 52 -21.5t21 -52.5q0 -30 -21 -51t-52 -21z" />
    <glyph glyph-name="zdotaccent" unicode="&#x17c;" horiz-adv-x="492" 
d="M258 359v2h-206v84h407l-234 -357v-1h239v-87h-442zM261 524q-31 0 -51.5 21.5t-20.5 51.5q0 31 20.5 52t51.5 21t52 -21t21 -52q0 -30 -21 -51.5t-52 -21.5z" />
    <glyph glyph-name="Zcaron" unicode="&#x17d;" horiz-adv-x="626" 
d="M372 583v2h-293v95h504l-352 -580v-2h359v-98h-568zM188 882h79l72 -67h2l72 67h78l-120 -148h-63z" />
    <glyph glyph-name="zcaron" unicode="&#x17e;" horiz-adv-x="492" 
d="M258 359v2h-206v84h407l-234 -357v-1h239v-87h-442zM116 671h78l72 -67h2l72 67h78l-119 -148h-64z" />
    <glyph glyph-name="florin" unicode="&#x192;" horiz-adv-x="511" 
d="M71 -153q-37 0 -62.5 7t-43.5 15l35 84q6 -5 23 -9.5t34 -4.5q33 0 49 22.5t22 56.5l55 307h-101v82h115l22 119q5 31 17.5 61.5t34 54t53.5 38t77 14.5q39 0 71 -10.5t46 -21.5l-49 -74q-5 5 -16.5 11.5t-32.5 6.5q-33 0 -50.5 -22t-23.5 -57q-1 -5 -2 -10.5t-3.5 -18
t-6 -34t-9.5 -57.5h106v-82h-121l-52 -305q-6 -34 -18 -65t-34 -55t-55 -38.5t-80 -14.5z" />
    <glyph glyph-name="Scommaaccent" unicode="&#x218;" horiz-adv-x="539" 
d="M267 -13q-52 0 -91 10t-68.5 25t-49.5 32.5t-33 32.5l78 79q8 -14 21.5 -28.5t32.5 -26.5t44 -19.5t57 -7.5q22 0 43 6t37 18.5t25.5 31t9.5 43.5q0 37 -23 59t-58 39t-75.5 33.5t-75.5 41t-58 62t-23 97.5q0 45 17.5 78.5t46.5 56t66.5 33.5t78.5 11q42 0 75 -7.5
t58.5 -19.5t43.5 -25.5t30 -25.5l-82 -71q-5 8 -14.5 18t-23.5 19t-33.5 15t-44.5 6q-42 0 -69.5 -19.5t-27.5 -54.5q0 -33 24 -53.5t60.5 -36t79 -31.5t79 -41.5t60.5 -64t24 -99.5q0 -45 -15.5 -84t-46 -68.5t-75.5 -46.5t-104 -17zM265 -145q-26 0 -42 16t-16 43
q0 26 17 42.5t47 16.5q31 0 49.5 -19t18.5 -50q0 -35 -17.5 -65.5t-51.5 -68.5l-53 12q17 17 31.5 36t19.5 34z" />
    <glyph glyph-name="scommaaccent" unicode="&#x219;" horiz-adv-x="411" 
d="M209 -13q-69 0 -113.5 19.5t-73.5 50.5l65 65q15 -21 44 -36.5t65 -15.5q31 0 51 12.5t20 37.5q0 23 -16.5 36.5t-40.5 23t-53 18.5t-53 24.5t-40.5 40t-16.5 64.5q0 38 15.5 63.5t39.5 40.5t52 21t53 6q58 0 94.5 -15t62.5 -39l-64 -58q-15 20 -34.5 27t-41.5 7
q-33 0 -50 -11.5t-17 -28.5q0 -20 17 -31.5t42 -20.5t55 -18.5t55 -25t42 -41t17 -65.5t-15.5 -68.5t-40 -47t-56 -27t-64.5 -8.5zM209 -145q-26 0 -42 16t-16 43q0 26 17 42.5t47 16.5q31 0 49.5 -19t18.5 -50q0 -35 -17.5 -65.5t-51.5 -68.5l-53 12q17 17 31.5 36t19.5 34
z" />
    <glyph glyph-name="uni021A" unicode="&#x21a;" horiz-adv-x="538" 
d="M202 585h-192v95h518v-95h-192v-585h-134v585zM263 -145q-26 0 -42 16t-16 43q0 26 17 42.5t47 16.5q31 0 49.5 -19t18.5 -50q0 -35 -17.5 -65.5t-51.5 -68.5l-53 12q17 17 31.5 36t19.5 34z" />
    <glyph glyph-name="uni021B" unicode="&#x21b;" horiz-adv-x="372" 
d="M242 -13q-43 0 -71.5 11.5t-46 35.5t-24.5 60t-7 85v183h-73v83h73v70l126 66v-136h124v-83h-124v-207q0 -42 10.5 -60.5t38.5 -18.5q18 0 32.5 4t22.5 9l25 -86q-11 -4 -40.5 -10t-65.5 -6zM222 -145q-26 0 -42 16t-16 43q0 26 17 42.5t47 16.5q31 0 49.5 -19t18.5 -50
q0 -35 -17.5 -65.5t-51.5 -68.5l-53 12q17 17 31.5 36t19.5 34z" />
    <glyph glyph-name="dotlessj" unicode="&#x237;" horiz-adv-x="282" 
d="M57 -221q-35 0 -61 4.5t-45 11.5l25 83q5 -3 18 -7t30 -4q32 0 45 21t13 72v485h128v-459q0 -96 -36.5 -151.5t-116.5 -55.5z" />
    <glyph glyph-name="circumflex" unicode="&#x2c6;" horiz-adv-x="546" 
d="M128 563l145 131l145 -131l-40 -47l-105 69l-105 -69z" />
    <glyph glyph-name="caron" unicode="&#x2c7;" horiz-adv-x="538" 
d="M118 671h78l72 -67h2l72 67h78l-119 -148h-64z" />
    <glyph glyph-name="uni02C9" unicode="&#x2c9;" horiz-adv-x="456" 
d="M92 624h271v-84h-271v84z" />
    <glyph glyph-name="breve" unicode="&#x2d8;" horiz-adv-x="540" 
d="M269 519q-67 0 -106.5 38.5t-41.5 101.5h77q5 -31 24 -48.5t47 -17.5q32 0 50 17t23 49h76q-2 -62 -42.5 -101t-106.5 -39z" />
    <glyph glyph-name="dotaccent" unicode="&#x2d9;" horiz-adv-x="507" 
d="M253 524q-31 0 -51.5 21.5t-20.5 51.5q0 31 20.5 52t51.5 21t52 -21t21 -52q0 -30 -21 -51.5t-52 -21.5z" />
    <glyph glyph-name="ring" unicode="&#x2da;" horiz-adv-x="477" 
d="M239 507q-23 0 -42.5 8.5t-33.5 22.5t-22 32.5t-8 39.5q0 20 8 38.5t22 32.5t33.5 22.5t42.5 8.5t42.5 -8.5t33.5 -22.5t21.5 -32.5t7.5 -38.5q0 -21 -8 -39.5t-22 -32.5t-33 -22.5t-42 -8.5zM239 561q20 0 33 13t13 36q0 19 -12.5 34t-33.5 15t-34 -14.5t-13 -34.5
q0 -21 13.5 -35t33.5 -14z" />
    <glyph glyph-name="ogonek" unicode="&#x2db;" horiz-adv-x="485" 
d="M240 -204q-40 0 -68.5 20t-28.5 62q0 28 13.5 51t33.5 39h73q-32 -29 -32 -64q0 -22 12 -30.5t29 -8.5q31 0 48 17l22 -48q-13 -11 -40 -24.5t-62 -13.5z" />
    <glyph glyph-name="tilde" unicode="&#x2dc;" horiz-adv-x="549" 
d="M124 546q0 21 6 41t17.5 35.5t28.5 25.5t39 10q18 0 33 -5.5t27.5 -12t25 -12t26.5 -5.5q19 0 32 8.5t14 28.5l52 -19q-9 -49 -27.5 -79t-60.5 -30q-19 0 -34.5 6t-29 13t-27 13t-29.5 6q-17 0 -31 -12t-14 -30z" />
    <glyph glyph-name="hungarumlaut" unicode="&#x2dd;" horiz-adv-x="638" 
d="M241 678h114l-148 -149h-87zM404 678h114l-149 -149h-88z" />
    <glyph glyph-name="uni0394" unicode="&#x394;" horiz-adv-x="705" 
d="M352 708l341 -708h-681zM487 95l-153 330h-2l-148 -330h303z" />
    <glyph glyph-name="uni03A9" unicode="&#x3a9;" horiz-adv-x="799" 
d="M67 87h117v2q-24 14 -48 38t-44 57.5t-32.5 76t-12.5 92.5q0 75 27.5 137.5t75.5 108t113 70.5t140 25q69 0 132.5 -23.5t111.5 -67.5t76.5 -107t28.5 -143q0 -52 -13 -95t-33.5 -76.5t-45 -56.5t-48.5 -36v-2h120v-87h-275v94q66 14 108.5 80t42.5 176q0 47 -13.5 92.5
t-39.5 81.5t-64.5 58t-87.5 22t-88.5 -18.5t-67 -52t-42.5 -80.5t-15 -103q0 -54 12 -97.5t33 -76t48.5 -53.5t58.5 -29v-94h-275v87z" />
    <glyph glyph-name="uni03BC" unicode="&#x3bc;" horiz-adv-x="557" 
d="M64 445h129v-273q0 -47 21.5 -70t56.5 -23q38 0 61 21t34 42v303h127v-445h-124l-2 64h-2q-16 -35 -40.5 -56t-66.5 -21q-26 0 -42 7.5t-21 12.5h-2v-215h-129v653z" />
    <glyph glyph-name="pi" unicode="&#x3c0;" horiz-adv-x="673" 
d="M143 360h-103v85h588v-85h-110v-228q0 -54 33 -54q10 0 17.5 3.5t9.5 5.5l23 -85q-14 -6 -36 -10.5t-51 -4.5q-38 0 -62 16.5t-37.5 42.5t-18 59t-4.5 65v190h-122v-360h-127v360z" />
    <glyph glyph-name="endash" unicode="&#x2013;" horiz-adv-x="465" 
d="M0 317h465v-91h-465v91z" />
    <glyph glyph-name="emdash" unicode="&#x2014;" horiz-adv-x="930" 
d="M0 317h930v-91h-930v91z" />
    <glyph glyph-name="quoteleft" unicode="&#x2018;" horiz-adv-x="264" 
d="M133 584q34 0 56 -21.5t22 -55.5t-22 -55.5t-56 -21.5q-21 0 -36 7.5t-25 20t-14.5 29t-4.5 33.5q0 21 4 40.5t14 41t27 45.5t42 54l58 -16q-23 -23 -42 -50.5t-26 -47.5z" />
    <glyph glyph-name="quoteright" unicode="&#x2019;" horiz-adv-x="264" 
d="M131 540q-33 0 -55.5 22t-22.5 56q0 33 22.5 55t55.5 22q21 0 36 -7.5t25 -20.5t14.5 -29t4.5 -33q0 -21 -4 -41t-14 -41.5t-26.5 -45.5t-41.5 -54l-60 16q12 12 23 25t20 26.5t16 25.5t10 22z" />
    <glyph glyph-name="quotesinglbase" unicode="&#x201a;" horiz-adv-x="264" 
d="M131 -13q-33 0 -55.5 21.5t-22.5 54.5q0 34 22.5 55.5t55.5 21.5q21 0 36 -7.5t25 -20t14.5 -29t4.5 -33.5q0 -21 -4 -40.5t-14 -40.5t-26.5 -45t-41.5 -54l-60 16q23 23 43 50.5t26 47.5z" />
    <glyph glyph-name="quotedblleft" unicode="&#x201c;" horiz-adv-x="480" 
d="M133 584q35 0 56.5 -22t21.5 -55q0 -34 -22 -55.5t-56 -21.5q-21 0 -36 7.5t-25 20t-14.5 29t-4.5 33.5q0 21 4 40.5t14 41t27 45.5t42 54l58 -16q-23 -23 -42 -50.5t-26 -47.5zM349 584q33 0 55.5 -21.5t22.5 -55.5t-22.5 -55.5t-55.5 -21.5q-21 0 -36 7.5t-25 20
t-14.5 29t-4.5 33.5q0 21 4 40.5t14 41t26.5 45.5t41.5 54l59 -16q-23 -23 -42.5 -50.5t-25.5 -47.5z" />
    <glyph glyph-name="quotedblright" unicode="&#x201d;" horiz-adv-x="480" 
d="M131 540q-33 0 -55.5 22t-22.5 56q0 33 22.5 55t55.5 22q21 0 36 -7.5t25 -20.5t14.5 -29t4.5 -33q0 -21 -4 -41t-14 -41.5t-26.5 -45.5t-41.5 -54l-60 16q12 12 23 25t20 26.5t16 25.5t10 22zM347 540q-34 0 -56 22t-22 56q0 33 22 55t56 22q21 0 36 -7.5t25 -20.5
t14.5 -29t4.5 -33q0 -21 -4 -41t-14 -41.5t-27 -45.5t-42 -54l-59 16q23 23 42.5 51t26.5 48z" />
    <glyph glyph-name="quotedblbase" unicode="&#x201e;" horiz-adv-x="480" 
d="M131 -13q-33 0 -55.5 21.5t-22.5 54.5q0 34 22.5 55.5t55.5 21.5q21 0 36 -7.5t25 -20t14.5 -29t4.5 -33.5q0 -21 -4 -40.5t-14 -40.5t-26.5 -45t-41.5 -54l-60 16q23 23 43 50.5t26 47.5zM347 -13q-34 0 -56 21.5t-22 54.5q0 34 22 55.5t56 21.5q21 0 36 -7.5t25 -20
t14.5 -29t4.5 -33.5q0 -21 -4 -40.5t-14 -40.5t-27 -45t-42 -54l-59 16q23 23 42.5 50.5t26.5 47.5z" />
    <glyph glyph-name="dagger" unicode="&#x2020;" horiz-adv-x="567" 
d="M219 400h-179v92h179v188h129v-188h179v-92h-179v-506h-129v506z" />
    <glyph glyph-name="daggerdbl" unicode="&#x2021;" horiz-adv-x="576" 
d="M223 95h-178v92h178v213h-178v92h178v188h130v-188h178v-92h-178v-213h178v-92h-178v-201h-130v201z" />
    <glyph glyph-name="bullet" unicode="&#x2022;" horiz-adv-x="452" 
d="M226 165q-34 0 -64 13t-52.5 35t-35.5 52t-13 64t13 64t35.5 52.5t52.5 35.5t64 13t64 -13t52.5 -35.5t35.5 -52.5t13 -64t-13 -64t-35.5 -52t-52.5 -35t-64 -13z" />
    <glyph glyph-name="ellipsis" unicode="&#x2026;" horiz-adv-x="955" 
d="M169 -13q-32 0 -55.5 22.5t-23.5 55.5q0 32 23.5 55t55.5 23t55 -23t23 -55q0 -33 -23 -55.5t-55 -22.5zM477 -13q-32 0 -55 22.5t-23 55.5q0 16 6.5 30.5t17 25t24.5 16.5t30 6q33 0 55.5 -23t22.5 -55q0 -33 -22.5 -55.5t-55.5 -22.5zM787 -13q-33 0 -55.5 22.5
t-22.5 55.5q0 32 22.5 55t55.5 23q32 0 55 -23t23 -55q0 -33 -23 -55.5t-55 -22.5z" />
    <glyph glyph-name="perthousand" unicode="&#x2030;" horiz-adv-x="1137" 
d="M199 358q-36 0 -65 12.5t-50 34t-32.5 51.5t-11.5 66t11.5 66t32 52t50 34t65.5 12q75 0 117 -45t42 -119q0 -36 -11.5 -66t-32.5 -52t-50 -34t-65 -12zM199 423q31 0 44 24t13 75q0 101 -57 101q-32 0 -45 -25t-13 -76q0 -99 58 -99zM536 686l70 -40l-390 -676l-65 37z
M569 -11q-36 0 -65 12.5t-50 34t-32.5 51.5t-11.5 66t11.5 65.5t32 51.5t50 34t65.5 12q75 0 117 -45t42 -118q0 -36 -11.5 -66t-32.5 -52t-50 -34t-65 -12zM569 54q31 0 44 24t13 75q0 101 -57 101q-32 0 -44.5 -25t-12.5 -76q0 -99 57 -99zM932 -11q-36 0 -65 12.5t-50 34
t-32.5 51.5t-11.5 66t11.5 65.5t32 51.5t50 34t65.5 12q75 0 117 -45t42 -118q0 -36 -11.5 -66t-32.5 -52t-50 -34t-65 -12zM932 54q31 0 44 24t13 75q0 101 -57 101q-32 0 -45 -25t-13 -76q0 -99 58 -99z" />
    <glyph glyph-name="guilsinglleft" unicode="&#x2039;" horiz-adv-x="301" 
d="M33 238l152 212l73 -50l-91 -160l91 -164l-73 -49z" />
    <glyph glyph-name="guilsinglright" unicode="&#x203a;" horiz-adv-x="301" 
d="M43 76l90 164l-90 160l72 50l153 -212l-153 -211z" />
    <glyph glyph-name="fraction" unicode="&#x2044;" horiz-adv-x="157" 
d="M236 686l70 -40l-390 -676l-65 37z" />
    <glyph glyph-name="Euro" unicode="&#x20ac;" horiz-adv-x="672" 
d="M423 -13q-133 0 -212.5 68.5t-102.5 189.5h-81l31 78h42v17v17.5t1 16.5h-71l33 79h50q26 112 106.5 176.5t202.5 64.5q44 0 80 -8.5t64 -22.5t49 -31.5t36 -36.5l-80 -66q-20 33 -54.5 54.5t-89.5 21.5q-69 0 -109.5 -40t-57.5 -112h297l-33 -79h-274q-2 -8 -2 -30v-21
h255l-32 -78h-213q13 -79 55 -122.5t118 -43.5q29 0 52 6.5t40 16t28.5 20.5t18.5 21l66 -75q-35 -35 -85.5 -58t-127.5 -23z" />
    <glyph glyph-name="afii61289" unicode="&#x2113;" horiz-adv-x="498" 
d="M435 47q-68 -61 -150 -61q-68 0 -107 36.5t-39 100.5v78l-58 -55l-38 56l96 85v249q0 42 11.5 76t32 58t49 37.5t61.5 13.5q59 0 94.5 -37.5t35.5 -101.5q0 -75 -45 -151.5t-136 -160.5v-130q0 -23 6 -38t16 -24t22 -12.5t24 -3.5q40 0 88 39zM242 359q49 54 73 109.5
t24 106.5q0 33 -13 54.5t-33 21.5t-35.5 -24.5t-15.5 -72.5v-195z" />
    <glyph glyph-name="trademark" unicode="&#x2122;" horiz-adv-x="851" 
d="M136 635h-111v59h304v-59h-111v-341h-82v341zM405 694h88l100 -268l98 268h84l26 -400h-83l-16 256h-1l-91 -256h-49l-98 256l-12 -256h-68z" />
    <glyph glyph-name="Omega" unicode="&#x2126;" horiz-adv-x="799" 
d="M67 87h117v2q-24 14 -48 38t-44 57.5t-32.5 76t-12.5 92.5q0 75 27.5 137.5t75.5 108t113 70.5t140 25q69 0 132.5 -23.5t111.5 -67.5t76.5 -107t28.5 -143q0 -52 -13 -95t-33.5 -76.5t-45 -56.5t-48.5 -36v-2h120v-87h-275v94q66 14 108.5 80t42.5 176q0 47 -13.5 92.5
t-39.5 81.5t-64.5 58t-87.5 22t-88.5 -18.5t-67 -52t-42.5 -80.5t-15 -103q0 -54 12 -97.5t33 -76t48.5 -53.5t58.5 -29v-94h-275v87z" />
    <glyph glyph-name="estimated" unicode="&#x212e;" horiz-adv-x="661" 
d="M158 314v-214q70 -70 172 -70q74 0 129 33.5t100 108.5l41 -25q-27 -43 -55 -73t-60.5 -49.5t-70.5 -28.5t-84 -9q-70 0 -126.5 25.5t-96.5 70t-61.5 103.5t-21.5 128t21.5 129t61.5 103.5t96.5 69t126.5 25.5q69 0 125 -24t96.5 -67.5t63 -103.5t22.5 -132h-479z
M503 357v172q-75 71 -174 71q-100 0 -171 -71v-172h345z" />
    <glyph glyph-name="partialdiff" unicode="&#x2202;" horiz-adv-x="565" 
d="M258 -13q-65 0 -107 21.5t-67 54t-35 70t-10 69.5q0 63 20 106t50 69.5t67 38.5t72 12q32 0 56 -6t41.5 -15t29 -20t19.5 -21h2q1 9 1.5 17.5t0.5 17.5q0 44 -9 81.5t-32 64.5t-63.5 43t-103.5 16l7 83q78 -1 138.5 -23t102.5 -61t63.5 -92.5t21.5 -116.5q0 -81 -15 -155
t-47 -130.5t-82 -90t-121 -33.5zM257 76q22 0 41 8.5t34.5 30t28 58.5t21.5 94q-5 32 -32 53.5t-65 21.5q-51 0 -85.5 -37t-34.5 -102q0 -21 4 -43t14.5 -41t28.5 -31t45 -12z" />
    <glyph glyph-name="Delta" unicode="&#x2206;" horiz-adv-x="705" 
d="M352 708l341 -708h-681zM487 95l-153 330h-2l-148 -330h303z" />
    <glyph glyph-name="product" unicode="&#x220f;" horiz-adv-x="777" 
d="M131 585h-111v94h737v-94h-111v-793h-133v793h-248v-793h-134v793z" />
    <glyph glyph-name="summation" unicode="&#x2211;" horiz-adv-x="636" 
d="M339 244l-317 436h563v-95h-330l227 -313l-267 -382h404v-98h-602z" />
    <glyph glyph-name="minus" unicode="&#x2212;" horiz-adv-x="494" 
d="M52 317h390v-91h-390v91z" />
    <glyph glyph-name="uni2215" unicode="&#x2215;" horiz-adv-x="157" 
d="M236 686l70 -40l-390 -676l-65 37z" />
    <glyph glyph-name="uni2219" unicode="&#x2219;" horiz-adv-x="277" 
d="M139 216q-16 0 -30 6t-24.5 16.5t-17 25t-6.5 30.5t6 30t16.5 24.5t25 16.5t30.5 6q31 0 54 -22.5t23 -54.5q0 -16 -6.5 -30.5t-17 -25t-24.5 -16.5t-29 -6z" />
    <glyph glyph-name="radical" unicode="&#x221a;" horiz-adv-x="725" 
d="M50 409h186l122 -216h2l250 501h115l-344 -654h-78l-166 284h-87v85z" />
    <glyph glyph-name="infinity" unicode="&#x221e;" horiz-adv-x="799" 
d="M212 93q-42 0 -74 12t-54 33.5t-33 51t-11 64.5q0 72 45.5 114.5t126.5 42.5q30 0 57 -10t50.5 -25.5t43.5 -33.5t37 -33q16 15 36.5 33t44 33.5t51 25.5t57.5 10q37 0 68.5 -10t54 -29.5t35 -48.5t12.5 -67q0 -32 -11 -61.5t-33 -52t-54.5 -36t-75.5 -13.5
q-30 0 -56.5 9.5t-49.5 24.5t-43 32.5t-37 33.5q-17 -16 -36.5 -33.5t-42.5 -32.5t-50 -24.5t-58 -9.5zM215 182q17 0 33.5 7.5t31.5 18.5t27.5 23t21.5 21q-8 8 -21 20t-28.5 23.5t-33 19.5t-33.5 8q-34 0 -53.5 -19.5t-19.5 -51.5q0 -27 19.5 -48.5t55.5 -21.5zM585 182
q34 0 54 21t20 50t-17 49.5t-58 20.5q-16 0 -31.5 -7t-30 -17.5t-27.5 -23t-25 -22.5q10 -9 23.5 -21.5t28 -23.5t30.5 -18.5t33 -7.5z" />
    <glyph glyph-name="integral" unicode="&#x222b;" horiz-adv-x="382" 
d="M73 -218q-42 0 -70.5 9t-45.5 19l34 82q6 -5 20.5 -11.5t34.5 -6.5q61 0 61 80v564q0 34 7.5 66t25.5 56.5t47 39t73 14.5q43 0 70 -8t49 -22l-34 -78q-10 9 -24.5 15t-33.5 6q-20 0 -37 -16.5t-17 -49.5v-572q0 -41 -10 -75.5t-30 -59t-50 -38.5t-70 -14z" />
    <glyph glyph-name="approxequal" unicode="&#x2248;" horiz-adv-x="552" 
d="M54 336q10 17 23 34.5t29 31.5t34 22.5t39 8.5q22 0 47 -10t50.5 -22t51.5 -22t50 -10q29 0 45.5 16t27.5 39l47 -52q-7 -12 -18.5 -28.5t-27.5 -32.5t-36.5 -27t-44.5 -11q-27 0 -51.5 10t-48 22.5t-47.5 22.5t-51 10q-29 0 -47.5 -16.5t-29.5 -40.5zM54 166
q10 17 23 34.5t29 31t34 22t39 8.5q22 0 47 -10t50.5 -21.5t51.5 -21.5t50 -10q29 0 45.5 15.5t27.5 39.5l47 -52q-7 -12 -18.5 -29t-27.5 -32.5t-36.5 -27t-44.5 -11.5q-27 0 -51.5 10t-48 22.5t-47.5 22.5t-51 10q-29 0 -47.5 -16.5t-29.5 -39.5z" />
    <glyph glyph-name="notequal" unicode="&#x2260;" horiz-adv-x="553" 
d="M56 233h141l62 79h-203v87h267l76 101l63 -48l-40 -53h75v-87h-140l-60 -79h200v-88h-264l-85 -112l-62 48l48 64h-78v88z" />
    <glyph glyph-name="lessequal" unicode="&#x2264;" horiz-adv-x="627" 
d="M54 0v87h513v-87h-513zM54 284v91l496 166l27 -74l-363 -137v-3l363 -143l-28 -73z" />
    <glyph glyph-name="greaterequal" unicode="&#x2265;" horiz-adv-x="627" 
d="M61 87h512v-87h-512v87zM50 184l363 143v3l-363 137l27 74l496 -166v-91l-495 -173z" />
    <glyph glyph-name="lozenge" unicode="&#x25ca;" horiz-adv-x="630" 
d="M21 340l256 340h72l260 -340l-260 -340h-72zM320 116l154 224l-164 221h-2l-154 -221l163 -224h3z" />
    <glyph glyph-name="exclam.sc" unicode="&#xe000;" horiz-adv-x="308" 
d="M95 500h118v-316h-118v316zM154 -13q-16 0 -30 6t-24.5 16.5t-17 24.5t-6.5 30t6.5 30t17 24.5t24.5 16.5t30 6t30 -6t24.5 -16.5t17 -24.5t6.5 -30t-6.5 -30t-17 -24.5t-24.5 -16.5t-30 -6z" />
    <glyph glyph-name="dollar.sc" unicode="&#xe001;" horiz-adv-x="458" 
d="M207 -12q-67 4 -111.5 29.5t-66.5 51.5l70 67q4 -9 14 -19.5t24 -20t32 -16.5t38 -9v146q-27 10 -55 21.5t-50.5 29t-36.5 43.5t-14 65q0 32 13 56.5t34.5 42t50 27t58.5 11.5v50h47v-51q52 -6 88.5 -26t55.5 -39l-68 -54q-7 10 -27 23t-49 18v-118q28 -11 58 -23
t55 -30.5t40.5 -45t15.5 -64.5q0 -31 -11.5 -59t-33.5 -50t-53 -36.5t-71 -18.5v-53h-47v52zM307 135q0 23 -13.5 38t-39.5 29v-130q26 5 39.5 21t13.5 42zM158 386q0 -20 14 -32.5t35 -23.5v103q-49 -9 -49 -47z" />
    <glyph glyph-name="percent.sc" unicode="&#xe002;" horiz-adv-x="711" 
d="M489 528l56 -33l-324 -524l-52 31zM179 245q-62 0 -100.5 37.5t-38.5 96.5q0 29 10 53.5t28.5 42.5t44.5 28t57 10q62 0 100.5 -37t38.5 -97q0 -59 -38.5 -96.5t-101.5 -37.5zM179 302q22 0 35 16.5t13 60.5q0 42 -12.5 60.5t-35.5 18.5q-26 0 -37 -21.5t-11 -57.5
q0 -44 14 -60.5t34 -16.5zM531 -13q-31 0 -56.5 10t-44 27.5t-28.5 42t-10 53.5t10 53.5t28.5 42.5t44.5 28t57 10q62 0 100.5 -36.5t38.5 -96.5q0 -59 -38.5 -96.5t-101.5 -37.5zM531 43q22 0 35 17t13 60q0 42 -12.5 60.5t-35.5 18.5q-26 0 -37 -21t-11 -58
q0 -44 14 -60.5t34 -16.5z" />
    <glyph glyph-name="ampersand.sc" unicode="&#xe003;" horiz-adv-x="571" 
d="M272 -13q-51 0 -93.5 11t-73.5 33t-48 54.5t-17 75.5q0 54 31.5 93t81.5 47v2q-25 11 -41.5 35.5t-16.5 58.5q0 22 9.5 43t28 37t47 26t67.5 10q47 0 76 -10.5t50 -30.5l-54 -57q-7 12 -20 20.5t-40 8.5q-28 0 -42.5 -14.5t-14.5 -40.5q0 -29 12.5 -46.5t48.5 -19.5v-70
q-30 0 -49.5 -8t-31 -21.5t-16 -30.5t-4.5 -35q0 -28 9.5 -46.5t25 -30t35 -16.5t40.5 -5q52 0 81.5 29.5t29.5 94.5q0 39 -6 69h-75v70h244v-70h-56q3 -24 3 -53q0 -43 -13 -81.5t-40 -68t-69 -46.5t-99 -17z" />
    <glyph glyph-name="question.sc" unicode="&#xe004;" horiz-adv-x="460" 
d="M107 390q-16 11 -31.5 23t-30.5 23q26 35 68 56t107 21q49 0 83.5 -10t56 -26.5t31 -38.5t9.5 -46q0 -28 -9 -47t-23 -32t-30 -22.5t-30 -19.5t-23 -22.5t-9 -31.5v-33h-119v36q0 28 10 47t24.5 32.5t32 23t32 20t24.5 22.5t10 30q0 23 -21 36t-59 13q-40 0 -65.5 -17
t-37.5 -37zM218 -13q-16 0 -30 6t-24.5 16.5t-17 24.5t-6.5 30t6.5 30t17 24.5t24.5 16.5t30 6t30 -6t24.5 -16.5t17 -24.5t6.5 -30t-6.5 -30t-17 -24.5t-24.5 -16.5t-30 -6z" />
    <glyph glyph-name="a.sc" unicode="&#xe005;" horiz-adv-x="535" 
d="M218 503h101l205 -503h-134l-48 122h-184l-48 -122h-99zM314 198l-62 172h-2l-65 -172h129z" />
    <glyph glyph-name="b.sc" unicode="&#xe006;" horiz-adv-x="497" 
d="M71 500h178q88 0 133 -30t45 -96q0 -32 -15 -60t-41 -40q13 -5 27 -14.5t25.5 -24.5t18.5 -35t7 -44q0 -41 -14 -70t-39.5 -48.5t-61 -28.5t-77.5 -9h-186v500zM253 83q39 -1 58.5 20t19.5 54q0 36 -19 54t-61 18h-60v-145zM244 302q40 0 54.5 17.5t14.5 48.5
q0 24 -16 39.5t-48 14.5l-58 -1v-119h53z" />
    <glyph glyph-name="c.sc" unicode="&#xe007;" horiz-adv-x="562" 
d="M312 -13q-65 0 -115 21t-84.5 57t-52.5 83.5t-18 100.5q0 64 21.5 113.5t58 83t85 50.5t103.5 17q40 0 72 -7t57.5 -18.5t45.5 -26.5t37 -32l-92 -67q-14 24 -40 44t-74 20q-61 0 -100 -43.5t-39 -133.5q0 -38 9.5 -70t27.5 -55.5t44 -37t59 -13.5q25 0 46 7t37.5 18.5
t28 26t17.5 28.5l86 -65q-17 -19 -36.5 -37t-45.5 -32.5t-59.5 -23t-78.5 -8.5z" />
    <glyph glyph-name="d.sc" unicode="&#xe008;" horiz-adv-x="580" 
d="M71 500h179q78 0 132.5 -18.5t89 -51t50.5 -77.5t16 -99q0 -63 -20.5 -110.5t-59 -79.5t-93 -48t-122.5 -16h-172v500zM245 88q46 -1 77 11.5t49.5 35t26.5 54t8 67.5q0 30 -7.5 59t-26 51t-49 35.5t-76.5 12.5l-55 -1v-324z" />
    <glyph glyph-name="e.sc" unicode="&#xe009;" horiz-adv-x="461" 
d="M71 500h333v-87h-212v-108h184v-85h-184v-131h217v-89h-338v500z" />
    <glyph glyph-name="f.sc" unicode="&#xe00a;" horiz-adv-x="444" 
d="M71 500h335v-87h-214v-111h185v-84h-185v-218h-121v500z" />
    <glyph glyph-name="g.sc" unicode="&#xe00b;" horiz-adv-x="577" 
d="M315 -13q-58 0 -108 18t-86.5 52t-57.5 82.5t-21 109.5q0 66 22.5 115.5t60.5 82.5t87.5 49.5t102.5 16.5q79 0 129.5 -25t79.5 -55l-92 -66q-4 7 -12.5 17.5t-22.5 20t-34.5 16.5t-47.5 7q-29 0 -55 -11.5t-45 -34.5t-30 -56.5t-11 -76.5q0 -41 11 -73.5t31 -55.5
t47.5 -35.5t59.5 -12.5q30 0 50 4.5t28 9.5v178h120v-222q-12 -8 -31 -18t-45 -18t-58.5 -13.5t-71.5 -5.5z" />
    <glyph glyph-name="h.sc" unicode="&#xe00c;" horiz-adv-x="573" 
d="M71 500h122v-195h187v195h122v-500h-122v220h-187v-220h-122v500z" />
    <glyph glyph-name="i.sc" unicode="&#xe00d;" horiz-adv-x="264" 
d="M71 500h122v-500h-122v500z" />
    <glyph glyph-name="j.sc" unicode="&#xe00e;" horiz-adv-x="281" 
d="M7 -13q4 -2 15 -6t27 -4q18 0 29 14.5t11 53.5v455h122v-438q0 -46 -11 -78.5t-29.5 -52.5t-43 -29.5t-50.5 -9.5q-34 0 -58.5 6t-35.5 11z" />
    <glyph glyph-name="k.sc" unicode="&#xe00f;" horiz-adv-x="534" 
d="M71 500h122v-189h3l196 189h120l-232 -218l246 -282h-156l-174 215h-3v-215h-122v500z" />
    <glyph glyph-name="l.sc" unicode="&#xe010;" horiz-adv-x="427" 
d="M71 500h122v-411h211v-89h-333v500z" />
    <glyph glyph-name="m.sc" unicode="&#xe011;" horiz-adv-x="673" 
d="M92 500h129l115 -320h2l112 320h126l36 -500h-120l-19 318h-2l-111 -318h-68l-117 318h-2l-14 -318h-98z" />
    <glyph glyph-name="n.sc" unicode="&#xe012;" horiz-adv-x="571" 
d="M71 500h112l217 -311h2v311h98v-500h-106l-223 322h-2v-322h-98v500z" />
    <glyph glyph-name="o.sc" unicode="&#xe013;" horiz-adv-x="625" 
d="M313 -13q-64 0 -114.5 22t-85 58t-53 83.5t-18.5 98.5q0 57 20 105.5t55.5 83.5t85.5 55t110 20q62 0 112 -19.5t85 -54.5t54 -83.5t19 -106.5q0 -56 -20 -104t-56 -83t-85.5 -55t-108.5 -20zM313 72q64 0 102 46.5t38 130.5q0 38 -9.5 71t-27.5 57t-44 37.5t-59 13.5
q-65 0 -103 -47t-38 -132q0 -43 11 -76t30 -55.5t44.5 -34t55.5 -11.5z" />
    <glyph glyph-name="p.sc" unicode="&#xe014;" horiz-adv-x="460" 
d="M71 500h180q50 0 84 -11.5t54.5 -32t29 -47t8.5 -56.5t-11 -57.5t-32.5 -49t-53.5 -34.5t-75 -13h-64v-199h-120v500zM244 280q35 -1 51.5 21t16.5 53q0 13 -3 25.5t-10.5 22t-20 14.5t-32.5 5l-56 -1v-139z" />
    <glyph glyph-name="q.sc" unicode="&#xe015;" horiz-adv-x="634" 
d="M315 -13q-60 0 -110 19.5t-86.5 54t-56.5 82.5t-20 106q0 63 22 112t59.5 82.5t86.5 51.5t103 18q52 0 100.5 -17t86 -50t60 -82.5t22.5 -114.5q0 -44 -12 -79.5t-30 -63t-39.5 -45.5t-40.5 -27v-1q28 -7 65 -17t69 -14l-28 -75q-30 6 -62 16.5t-64 20t-64 16.5t-61 7z
M313 72q35 0 61 13t43.5 36.5t26.5 56t9 71.5q0 82 -37.5 129t-102.5 47q-30 0 -55.5 -10.5t-45 -32t-30.5 -55t-11 -78.5q0 -42 11 -75t30 -55.5t45 -34.5t56 -12z" />
    <glyph glyph-name="r.sc" unicode="&#xe016;" horiz-adv-x="492" 
d="M71 500h176q51 0 85.5 -12t56 -31.5t30.5 -45.5t9 -54q0 -27 -8.5 -50.5t-22.5 -41.5t-31 -30t-33 -18l145 -217h-136l-122 203h-29v-203h-120v500zM239 280q35 -1 53 21t18 54q0 27 -16 47t-51 19l-52 -1v-139z" />
    <glyph glyph-name="s.sc" unicode="&#xe017;" horiz-adv-x="447" 
d="M220 -13q-37 0 -67 7.5t-54 19.5t-41 26.5t-29 28.5l70 66q5 -9 15 -20t24.5 -21t33 -16.5t41.5 -6.5q30 0 53.5 16t23.5 48q0 26 -17.5 41.5t-44 27.5t-57 23.5t-57 29.5t-44 46t-17.5 73q0 34 14 60t37.5 43t54 25.5t62.5 8.5t58.5 -6.5t47.5 -16t36.5 -21.5t26.5 -23
l-69 -53q-7 11 -27 26t-58 15q-29 0 -50 -12t-21 -35q0 -22 18.5 -36t45.5 -25.5t59.5 -23.5t59.5 -31t45.5 -47t18.5 -71q0 -34 -12.5 -64t-37 -52.5t-60.5 -36t-82 -13.5z" />
    <glyph glyph-name="t.sc" unicode="&#xe018;" horiz-adv-x="442" 
d="M160 413h-143v87h408v-87h-143v-413h-122v413z" />
    <glyph glyph-name="u.sc" unicode="&#xe019;" horiz-adv-x="564" 
d="M280 -13q-38 0 -76.5 10.5t-69 33t-49.5 58t-19 85.5v326h123v-335q0 -25 10 -42.5t25 -29t32 -16.5t31 -5q48 0 78 24t30 70v334h103v-323q0 -56 -19 -92.5t-50 -58.5t-70 -30.5t-79 -8.5z" />
    <glyph glyph-name="v.sc" unicode="&#xe01a;" horiz-adv-x="539" 
d="M14 500h138l133 -345h2l135 345h103l-212 -500h-88z" />
    <glyph glyph-name="w.sc" unicode="&#xe01b;" horiz-adv-x="760" 
d="M17 500h132l102 -322h2l102 322h82l102 -322h1l102 322h101l-173 -500h-87l-103 306h-1l-98 -306h-91z" />
    <glyph glyph-name="x.sc" unicode="&#xe01c;" horiz-adv-x="542" 
d="M207 257l-175 243h144l102 -152h2l103 152h112l-167 -225l196 -275h-145l-120 178h-2l-123 -178h-115z" />
    <glyph glyph-name="y.sc" unicode="&#xe01d;" horiz-adv-x="524" 
d="M202 229l-189 271h142l127 -191h2l121 191h106l-186 -270v-230h-123v229z" />
    <glyph glyph-name="z.sc" unicode="&#xe01e;" horiz-adv-x="513" 
d="M280 411v2h-211v87h404l-256 -409v-2h257v-89h-449z" />
    <glyph glyph-name="agrave.sc" unicode="&#xe01f;" horiz-adv-x="535" 
d="M218 503h101l205 -503h-134l-48 122h-184l-48 -122h-99zM314 198l-62 172h-2l-65 -172h129zM163 631l54 86l164 -121l-32 -53z" />
    <glyph glyph-name="aacute.sc" unicode="&#xe020;" horiz-adv-x="535" 
d="M218 503h101l205 -503h-134l-48 122h-184l-48 -122h-99zM314 198l-62 172h-2l-65 -172h129zM152 594l167 123l50 -87l-185 -87z" />
    <glyph glyph-name="acircumflex.sc" unicode="&#xe021;" horiz-adv-x="535" 
d="M218 503h101l205 -503h-134l-48 122h-184l-48 -122h-99zM314 198l-62 172h-2l-65 -172h129zM119 590l145 132l145 -132l-40 -47l-105 69l-105 -69z" />
    <glyph glyph-name="atilde.sc" unicode="&#xe022;" horiz-adv-x="535" 
d="M218 503h101l205 -503h-134l-48 122h-184l-48 -122h-99zM314 198l-62 172h-2l-65 -172h129zM113 573q0 21 6 41t17.5 36t28.5 26t39 10q18 0 33 -5.5t27.5 -12t25 -12t26.5 -5.5q19 0 32 8t14 28l52 -19q-9 -49 -27.5 -79t-60.5 -30q-19 0 -34.5 6t-29 13.5t-27 13.5
t-29.5 6q-17 0 -31 -12t-14 -30z" />
    <glyph glyph-name="adieresis.sc" unicode="&#xe023;" horiz-adv-x="535" 
d="M218 503h101l205 -503h-134l-48 122h-184l-48 -122h-99zM314 198l-62 172h-2l-65 -172h129zM166 554q-30 0 -51.5 20t-21.5 49t21 50t51 21q29 0 50 -21t21 -50t-20.5 -49t-49.5 -20zM363 554q-30 0 -51 20t-21 49t20.5 50t50.5 21q29 0 50.5 -21t21.5 -50t-21 -49
t-50 -20z" />
    <glyph glyph-name="aring.sc" unicode="&#xe024;" horiz-adv-x="535" 
d="M218 503h101l205 -503h-134l-48 122h-184l-48 -122h-99zM314 198l-62 172h-2l-65 -172h129zM264 536q-23 0 -42.5 8.5t-33.5 22.5t-22 32.5t-8 39.5q0 20 8 38.5t22 32.5t33.5 22.5t42.5 8.5t42.5 -8.5t33.5 -22.5t21.5 -32.5t7.5 -38.5q0 -21 -8 -39.5t-22 -32.5
t-33 -22.5t-42 -8.5zM264 590q20 0 33 13t13 36q0 19 -12.5 34t-33.5 15t-34 -14.5t-13 -34.5q0 -21 13.5 -35t33.5 -14z" />
    <glyph glyph-name="amacron.sc" unicode="&#xe025;" horiz-adv-x="535" 
d="M218 503h101l205 -503h-134l-48 122h-184l-48 -122h-99zM314 198l-62 172h-2l-65 -172h129zM128 651h272v-83h-272v83z" />
    <glyph glyph-name="abreve.sc" unicode="&#xe026;" horiz-adv-x="535" 
d="M218 503h101l205 -503h-134l-48 122h-184l-48 -122h-99zM314 198l-62 172h-2l-65 -172h129zM267 547q-67 0 -106.5 38.5t-41.5 100.5h77q5 -31 24 -48t47 -17q62 0 73 65h76q-1 -31 -12 -56.5t-30.5 -44t-46.5 -28.5t-60 -10z" />
    <glyph glyph-name="aogonek.sc" unicode="&#xe027;" horiz-adv-x="535" 
d="M218 503h101l205 -503h-134l-48 122h-184l-48 -122h-99zM314 198l-62 172h-2l-65 -172h129zM435 -194q-40 0 -68.5 20t-28.5 62q0 28 13.5 51t33.5 39h73q-32 -29 -32 -64q0 -22 12 -30.5t29 -8.5q31 0 48 17l22 -48q-13 -11 -40 -24.5t-62 -13.5z" />
    <glyph glyph-name="ae.sc" unicode="&#xe028;" horiz-adv-x="733" 
d="M314 500h358v-87h-206v-108h180v-85h-180v-131h215v-89h-335v125h-156l-74 -125h-107zM346 203v180h-2l-108 -180h110z" />
    <glyph glyph-name="cacute.sc" unicode="&#xe029;" horiz-adv-x="562" 
d="M312 -13q-65 0 -115 21t-84.5 57t-52.5 83.5t-18 100.5q0 64 21.5 113.5t58 83t85 50.5t103.5 17q40 0 72 -7t57.5 -18.5t45.5 -26.5t37 -32l-92 -67q-14 24 -40 44t-74 20q-61 0 -100 -43.5t-39 -133.5q0 -38 9.5 -70t27.5 -55.5t44 -37t59 -13.5q25 0 46 7t37.5 18.5
t28 26t17.5 28.5l86 -65q-17 -19 -36.5 -37t-45.5 -32.5t-59.5 -23t-78.5 -8.5zM199 594l167 123l50 -87l-185 -87z" />
    <glyph glyph-name="ccircumflex.sc" unicode="&#xe02a;" horiz-adv-x="562" 
d="M312 -13q-65 0 -115 21t-84.5 57t-52.5 83.5t-18 100.5q0 64 21.5 113.5t58 83t85 50.5t103.5 17q40 0 72 -7t57.5 -18.5t45.5 -26.5t37 -32l-92 -67q-14 24 -40 44t-74 20q-61 0 -100 -43.5t-39 -133.5q0 -38 9.5 -70t27.5 -55.5t44 -37t59 -13.5q25 0 46 7t37.5 18.5
t28 26t17.5 28.5l86 -65q-17 -19 -36.5 -37t-45.5 -32.5t-59.5 -23t-78.5 -8.5zM163 590l145 132l145 -132l-40 -47l-105 69l-105 -69z" />
    <glyph glyph-name="ccaron.sc" unicode="&#xe02b;" horiz-adv-x="562" 
d="M312 -13q-65 0 -115 21t-84.5 57t-52.5 83.5t-18 100.5q0 64 21.5 113.5t58 83t85 50.5t103.5 17q40 0 72 -7t57.5 -18.5t45.5 -26.5t37 -32l-92 -67q-14 24 -40 44t-74 20q-61 0 -100 -43.5t-39 -133.5q0 -38 9.5 -70t27.5 -55.5t44 -37t59 -13.5q25 0 46 7t37.5 18.5
t28 26t17.5 28.5l86 -65q-17 -19 -36.5 -37t-45.5 -32.5t-59.5 -23t-78.5 -8.5zM157 699h78l72 -67h2l72 67h78l-119 -148h-64z" />
    <glyph glyph-name="cdotaccent.sc" unicode="&#xe02c;" horiz-adv-x="562" 
d="M312 -13q-65 0 -115 21t-84.5 57t-52.5 83.5t-18 100.5q0 64 21.5 113.5t58 83t85 50.5t103.5 17q40 0 72 -7t57.5 -18.5t45.5 -26.5t37 -32l-92 -67q-14 24 -40 44t-74 20q-61 0 -100 -43.5t-39 -133.5q0 -38 9.5 -70t27.5 -55.5t44 -37t59 -13.5q25 0 46 7t37.5 18.5
t28 26t17.5 28.5l86 -65q-17 -19 -36.5 -37t-45.5 -32.5t-59.5 -23t-78.5 -8.5zM308 554q-31 0 -51.5 21.5t-20.5 51.5q0 31 20.5 52.5t51.5 21.5t52 -21.5t21 -52.5q0 -30 -21 -51.5t-52 -21.5z" />
    <glyph glyph-name="ccedilla.sc" unicode="&#xe02d;" horiz-adv-x="562" 
d="M312 -13q-65 0 -115 21t-84.5 57t-52.5 83.5t-18 100.5q0 64 21.5 113.5t58 83t85 50.5t103.5 17q40 0 72 -7t57.5 -18.5t45.5 -26.5t37 -32l-92 -67q-14 24 -40 44t-74 20q-61 0 -100 -43.5t-39 -133.5q0 -38 9.5 -70t27.5 -55.5t44 -37t59 -13.5q25 0 46 7t37.5 18.5
t28 26t17.5 28.5l86 -65q-17 -19 -36.5 -37t-45.5 -32.5t-59.5 -23t-78.5 -8.5zM283 -198q-35 0 -66 7.5t-49 17.5l21 53q11 -8 28 -15.5t40 -7.5q20 0 39.5 9.5t19.5 32.5q0 18 -14.5 23.5t-27.5 5.5q-17 0 -29 -3t-22 -8l20 46q14 2 33 4t45 2q19 0 36 -4.5t30 -13.5
t21 -22.5t8 -32.5q0 -24 -12 -41.5t-31 -29.5t-43 -17.5t-47 -5.5z" />
    <glyph glyph-name="dcaron.sc" unicode="&#xe02e;" horiz-adv-x="580" 
d="M71 500h179q78 0 132.5 -18.5t89 -51t50.5 -77.5t16 -99q0 -63 -20.5 -110.5t-59 -79.5t-93 -48t-122.5 -16h-172v500zM245 88q46 -1 77 11.5t49.5 35t26.5 54t8 67.5q0 30 -7.5 59t-26 51t-49 35.5t-76.5 12.5l-55 -1v-324zM131 699h78l72 -67h2l72 67h78l-119 -148h-64
z" />
    <glyph glyph-name="dcroat.sc" unicode="&#xe02f;" horiz-adv-x="590" 
d="M34 301h47v199h179q78 0 132.5 -18.5t89 -51t50.5 -77.5t16 -99q0 -63 -20.5 -110.5t-59 -79.5t-93 -48t-122.5 -16h-172v219h-47v82zM255 88q46 -1 77 11.5t49.5 35t26.5 54t8 67.5q0 30 -7.5 59t-26 51t-49 35.5t-76.5 12.5l-55 -1v-112h71v-82h-71v-130z" />
    <glyph glyph-name="eth.sc" unicode="&#xe030;" horiz-adv-x="590" 
d="M34 301h47v199h179q78 0 132.5 -18.5t89 -51t50.5 -77.5t16 -99q0 -63 -20.5 -110.5t-59 -79.5t-93 -48t-122.5 -16h-172v219h-47v82zM255 88q46 -1 77 11.5t49.5 35t26.5 54t8 67.5q0 30 -7.5 59t-26 51t-49 35.5t-76.5 12.5l-55 -1v-112h91v-82h-91v-130z" />
    <glyph glyph-name="egrave.sc" unicode="&#xe031;" horiz-adv-x="461" 
d="M71 500h333v-87h-212v-108h184v-85h-184v-131h217v-89h-338v500zM131 631l54 86l164 -121l-32 -53z" />
    <glyph glyph-name="eacute.sc" unicode="&#xe032;" horiz-adv-x="461" 
d="M71 500h333v-87h-212v-108h184v-85h-184v-131h217v-89h-338v500zM132 594l167 123l50 -87l-185 -87z" />
    <glyph glyph-name="ecircumflex.sc" unicode="&#xe033;" horiz-adv-x="461" 
d="M71 500h333v-87h-212v-108h184v-85h-184v-131h217v-89h-338v500zM94 590l145 132l145 -132l-40 -47l-105 69l-105 -69z" />
    <glyph glyph-name="ecaron.sc" unicode="&#xe034;" horiz-adv-x="461" 
d="M71 500h333v-87h-212v-108h184v-85h-184v-131h217v-89h-338v500zM89 699h78l72 -67h2l72 67h78l-119 -148h-64z" />
    <glyph glyph-name="edieresis.sc" unicode="&#xe035;" horiz-adv-x="461" 
d="M71 500h333v-87h-212v-108h184v-85h-184v-131h217v-89h-338v500zM142 554q-30 0 -51.5 20t-21.5 49t21 50t51 21q29 0 50 -21t21 -50t-20.5 -49t-49.5 -20zM339 554q-30 0 -51 20t-21 49t20.5 50t50.5 21q29 0 50.5 -21t21.5 -50t-21 -49t-50 -20z" />
    <glyph glyph-name="edotaccent.sc" unicode="&#xe036;" horiz-adv-x="461" 
d="M71 500h333v-87h-212v-108h184v-85h-184v-131h217v-89h-338v500zM241 554q-31 0 -51.5 21.5t-20.5 51.5q0 31 20.5 52.5t51.5 21.5t52 -21.5t21 -52.5q0 -30 -21 -51.5t-52 -21.5z" />
    <glyph glyph-name="emacron.sc" unicode="&#xe037;" horiz-adv-x="461" 
d="M71 500h333v-87h-212v-108h184v-85h-184v-131h217v-89h-338v500zM103 651h272v-83h-272v83z" />
    <glyph glyph-name="ebreve.sc" unicode="&#xe038;" horiz-adv-x="461" 
d="M71 500h333v-87h-212v-108h184v-85h-184v-131h217v-89h-338v500zM239 547q-67 0 -106.5 38.5t-41.5 100.5h77q5 -31 24 -48t47 -17q62 0 73 65h76q-1 -31 -12 -56.5t-30.5 -44t-46.5 -28.5t-60 -10z" />
    <glyph glyph-name="eogonek.sc" unicode="&#xe039;" horiz-adv-x="461" 
d="M71 500h333v-87h-212v-108h184v-85h-184v-131h217v-89h-338v500zM377 -194q-40 0 -68.5 20t-28.5 62q0 28 13.5 51t33.5 39h73q-32 -29 -32 -64q0 -22 12 -30.5t29 -8.5q31 0 48 17l22 -48q-13 -11 -40 -24.5t-62 -13.5z" />
    <glyph glyph-name="gcircumflex.sc" unicode="&#xe03a;" horiz-adv-x="577" 
d="M315 -13q-58 0 -108 18t-86.5 52t-57.5 82.5t-21 109.5q0 66 22.5 115.5t60.5 82.5t87.5 49.5t102.5 16.5q79 0 129.5 -25t79.5 -55l-92 -66q-4 7 -12.5 17.5t-22.5 20t-34.5 16.5t-47.5 7q-29 0 -55 -11.5t-45 -34.5t-30 -56.5t-11 -76.5q0 -41 11 -73.5t31 -55.5
t47.5 -35.5t59.5 -12.5q30 0 50 4.5t28 9.5v178h120v-222q-12 -8 -31 -18t-45 -18t-58.5 -13.5t-71.5 -5.5zM164 590l145 132l145 -132l-40 -47l-105 69l-105 -69z" />
    <glyph glyph-name="gdotaccent.sc" unicode="&#xe03b;" horiz-adv-x="577" 
d="M315 -13q-58 0 -108 18t-86.5 52t-57.5 82.5t-21 109.5q0 66 22.5 115.5t60.5 82.5t87.5 49.5t102.5 16.5q79 0 129.5 -25t79.5 -55l-92 -66q-4 7 -12.5 17.5t-22.5 20t-34.5 16.5t-47.5 7q-29 0 -55 -11.5t-45 -34.5t-30 -56.5t-11 -76.5q0 -41 11 -73.5t31 -55.5
t47.5 -35.5t59.5 -12.5q30 0 50 4.5t28 9.5v178h120v-222q-12 -8 -31 -18t-45 -18t-58.5 -13.5t-71.5 -5.5zM312 554q-31 0 -51.5 21.5t-20.5 51.5q0 31 20.5 52.5t51.5 21.5t52 -21.5t21 -52.5q0 -30 -21 -51.5t-52 -21.5z" />
    <glyph glyph-name="gbreve.sc" unicode="&#xe03c;" horiz-adv-x="577" 
d="M315 -13q-58 0 -108 18t-86.5 52t-57.5 82.5t-21 109.5q0 66 22.5 115.5t60.5 82.5t87.5 49.5t102.5 16.5q79 0 129.5 -25t79.5 -55l-92 -66q-4 7 -12.5 17.5t-22.5 20t-34.5 16.5t-47.5 7q-29 0 -55 -11.5t-45 -34.5t-30 -56.5t-11 -76.5q0 -41 11 -73.5t31 -55.5
t47.5 -35.5t59.5 -12.5q30 0 50 4.5t28 9.5v178h120v-222q-12 -8 -31 -18t-45 -18t-58.5 -13.5t-71.5 -5.5zM310 547q-67 0 -106.5 38.5t-41.5 100.5h77q5 -31 24 -48t47 -17q62 0 73 65h76q-1 -31 -12 -56.5t-30.5 -44t-46.5 -28.5t-60 -10z" />
    <glyph glyph-name="gcommaaccent.sc" unicode="&#xe03d;" horiz-adv-x="577" 
d="M315 -13q-58 0 -108 18t-86.5 52t-57.5 82.5t-21 109.5q0 66 22.5 115.5t60.5 82.5t87.5 49.5t102.5 16.5q79 0 129.5 -25t79.5 -55l-92 -66q-4 7 -12.5 17.5t-22.5 20t-34.5 16.5t-47.5 7q-29 0 -55 -11.5t-45 -34.5t-30 -56.5t-11 -76.5q0 -41 11 -73.5t31 -55.5
t47.5 -35.5t59.5 -12.5q30 0 50 4.5t28 9.5v178h120v-222q-12 -8 -31 -18t-45 -18t-58.5 -13.5t-71.5 -5.5zM309 -145q-26 0 -42 16t-16 43q0 26 17 42.5t47 16.5q31 0 49.5 -19t18.5 -50q0 -35 -17.5 -65.5t-51.5 -68.5l-53 12q17 17 31.5 36t19.5 34z" />
    <glyph glyph-name="hcircumflex.sc" unicode="&#xe03e;" horiz-adv-x="573" 
d="M71 500h122v-195h187v195h122v-500h-122v220h-187v-220h-122v500zM141 590l145 132l145 -132l-40 -47l-105 69l-105 -69z" />
    <glyph glyph-name="hbar.sc" unicode="&#xe03f;" horiz-adv-x="573" 
d="M71 500h122v-83h187v83h122v-500h-122v220h-187v-220h-122v500zM380 305v37h-187v-37h187z" />
    <glyph glyph-name="igrave.sc" unicode="&#xe040;" horiz-adv-x="264" 
d="M71 500h122v-500h-122v500zM27 631l54 86l164 -121l-32 -53z" />
    <glyph glyph-name="iacute.sc" unicode="&#xe041;" horiz-adv-x="264" 
d="M71 500h122v-500h-122v500zM20 594l167 123l50 -87l-185 -87z" />
    <glyph glyph-name="icircumflex.sc" unicode="&#xe042;" horiz-adv-x="264" 
d="M71 500h122v-500h-122v500zM-12 590l145 132l145 -132l-40 -47l-105 69l-105 -69z" />
    <glyph glyph-name="itilde.sc" unicode="&#xe043;" horiz-adv-x="264" 
d="M71 500h122v-500h-122v500zM-17 573q0 21 6 41t17.5 36t28.5 26t39 10q18 0 33 -5.5t27.5 -12t25 -12t26.5 -5.5q19 0 32 8t14 28l52 -19q-9 -49 -27.5 -79t-60.5 -30q-19 0 -34.5 6t-29 13.5t-27 13.5t-29.5 6q-17 0 -31 -12t-14 -30z" />
    <glyph glyph-name="idieresis.sc" unicode="&#xe044;" horiz-adv-x="264" 
d="M71 500h122v-500h-122v500zM36 554q-30 0 -51.5 20t-21.5 49t21 50t51 21q29 0 50 -21t21 -50t-20.5 -49t-49.5 -20zM233 554q-30 0 -51 20t-21 49t20.5 50t50.5 21q29 0 50.5 -21t21.5 -50t-21 -49t-50 -20z" />
    <glyph glyph-name="imacron.sc" unicode="&#xe045;" horiz-adv-x="264" 
d="M71 500h122v-500h-122v500zM-3 651h272v-83h-272v83z" />
    <glyph glyph-name="idotaccent.sc" unicode="&#xe046;" horiz-adv-x="264" 
d="M71 500h122v-500h-122v500zM132 554q-31 0 -51.5 21.5t-20.5 51.5q0 31 20.5 52.5t51.5 21.5t52 -21.5t21 -52.5q0 -30 -21 -51.5t-52 -21.5z" />
    <glyph glyph-name="iogonek.sc" unicode="&#xe047;" horiz-adv-x="264" 
d="M71 500h122v-500h-122v500zM152 -194q-40 0 -68.5 20t-28.5 62q0 28 13.5 51t33.5 39h73q-32 -29 -32 -64q0 -22 12 -30.5t29 -8.5q31 0 48 17l22 -48q-13 -11 -40 -24.5t-62 -13.5z" />
    <glyph glyph-name="jcircumflex.sc" unicode="&#xe048;" horiz-adv-x="281" 
d="M7 -13q4 -2 15 -6t27 -4q18 0 29 14.5t11 53.5v455h122v-438q0 -46 -11 -78.5t-29.5 -52.5t-43 -29.5t-50.5 -9.5q-34 0 -58.5 6t-35.5 11zM0 590l145 132l145 -132l-40 -47l-105 69l-105 -69z" />
    <glyph glyph-name="kcommaaccent.sc" unicode="&#xe049;" horiz-adv-x="534" 
d="M71 500h122v-189h3l196 189h120l-232 -218l246 -282h-156l-174 215h-3v-215h-122v500zM275 -145q-26 0 -42 16t-16 43q0 26 17 42.5t47 16.5q31 0 49.5 -19t18.5 -50q0 -35 -17.5 -65.5t-51.5 -68.5l-53 12q17 17 31.5 36t19.5 34z" />
    <glyph glyph-name="lacute.sc" unicode="&#xe04a;" horiz-adv-x="427" 
d="M71 500h122v-411h211v-89h-333v500zM82 594l167 123l50 -87l-185 -87z" />
    <glyph glyph-name="lcaron.sc" unicode="&#xe04b;" horiz-adv-x="427" 
d="M71 500h122v-411h211v-89h-333v500zM305.533 379.366q-26.6436 0 -44.4062 17.7949q-17.7617 17.7959 -17.7617 43.5986q0 28.4727 17.7617 45.3789q17.7627 16.9053 44.4062 16.9053q33.749 0 49.291 -22.2441t15.542 -49.8271q0 -16.9062 -3.55273 -32.9219
q-3.55176 -16.0156 -11.5449 -32.9209q-7.99316 -16.9062 -21.3154 -36.4814q-13.3213 -19.5742 -32.8604 -43.5986l-47.959 13.3467q18.6514 18.6855 34.6367 40.9297q15.9863 22.2441 20.4268 37.3701z" />
    <glyph glyph-name="lcommaaccent.sc" unicode="&#xe04c;" horiz-adv-x="427" 
d="M71 500h122v-411h211v-89h-333v500zM237 -145q-26 0 -42 16t-16 43q0 26 17 42.5t47 16.5q31 0 49.5 -19t18.5 -50q0 -35 -17.5 -65.5t-51.5 -68.5l-53 12q17 17 31.5 36t19.5 34z" />
    <glyph glyph-name="ldot.sc" unicode="&#xe04d;" horiz-adv-x="427" 
d="M71 500h122v-411h211v-89h-333v500zM312 214q-31 0 -51.5 21.5t-20.5 51.5q0 31 20.5 52t51.5 21t52 -21t21 -52q0 -30 -21 -51.5t-52 -21.5z" />
    <glyph glyph-name="lslash.sc" unicode="&#xe04e;" horiz-adv-x="455" 
d="M98 115l-31 -23l-47 63l78 61v284h121v-191l98 77l50 -63l-148 -115v-119h213v-89h-334v115z" />
    <glyph glyph-name="nacute.sc" unicode="&#xe04f;" horiz-adv-x="571" 
d="M71 500h112l217 -311h2v311h98v-500h-106l-223 322h-2v-322h-98v500zM182 594l167 123l50 -87l-185 -87z" />
    <glyph glyph-name="ncaron.sc" unicode="&#xe050;" horiz-adv-x="571" 
d="M71 500h112l217 -311h2v311h98v-500h-106l-223 322h-2v-322h-98v500zM140 699h78l72 -67h2l72 67h78l-119 -148h-64z" />
    <glyph glyph-name="ntilde.sc" unicode="&#xe051;" horiz-adv-x="571" 
d="M71 500h112l217 -311h2v311h98v-500h-106l-223 322h-2v-322h-98v500zM137 573q0 21 6 41t17.5 36t28.5 26t39 10q18 0 33 -5.5t27.5 -12t25 -12t26.5 -5.5q19 0 32 8t14 28l52 -19q-9 -49 -27.5 -79t-60.5 -30q-19 0 -34.5 6t-29 13.5t-27 13.5t-29.5 6q-17 0 -31 -12
t-14 -30z" />
    <glyph glyph-name="ncommaaccent.sc" unicode="&#xe052;" horiz-adv-x="571" 
d="M71 500h112l217 -311h2v311h98v-500h-106l-223 322h-2v-322h-98v500zM280 -145q-26 0 -42 16t-16 43q0 26 17 42.5t47 16.5q31 0 49.5 -19t18.5 -50q0 -35 -17.5 -65.5t-51.5 -68.5l-53 12q17 17 31.5 36t19.5 34z" />
    <glyph glyph-name="ograve.sc" unicode="&#xe054;" horiz-adv-x="625" 
d="M313 -13q-64 0 -114.5 22t-85 58t-53 83.5t-18.5 98.5q0 57 20 105.5t55.5 83.5t85.5 55t110 20q62 0 112 -19.5t85 -54.5t54 -83.5t19 -106.5q0 -56 -20 -104t-56 -83t-85.5 -55t-108.5 -20zM313 72q64 0 102 46.5t38 130.5q0 38 -9.5 71t-27.5 57t-44 37.5t-59 13.5
q-65 0 -103 -47t-38 -132q0 -43 11 -76t30 -55.5t44.5 -34t55.5 -11.5zM207 631l54 86l164 -121l-32 -53z" />
    <glyph glyph-name="oacute.sc" unicode="&#xe055;" horiz-adv-x="625" 
d="M313 -13q-64 0 -114.5 22t-85 58t-53 83.5t-18.5 98.5q0 57 20 105.5t55.5 83.5t85.5 55t110 20q62 0 112 -19.5t85 -54.5t54 -83.5t19 -106.5q0 -56 -20 -104t-56 -83t-85.5 -55t-108.5 -20zM313 72q64 0 102 46.5t38 130.5q0 38 -9.5 71t-27.5 57t-44 37.5t-59 13.5
q-65 0 -103 -47t-38 -132q0 -43 11 -76t30 -55.5t44.5 -34t55.5 -11.5zM202 594l167 123l50 -87l-185 -87z" />
    <glyph glyph-name="ocircumflex.sc" unicode="&#xe056;" horiz-adv-x="625" 
d="M313 -13q-64 0 -114.5 22t-85 58t-53 83.5t-18.5 98.5q0 57 20 105.5t55.5 83.5t85.5 55t110 20q62 0 112 -19.5t85 -54.5t54 -83.5t19 -106.5q0 -56 -20 -104t-56 -83t-85.5 -55t-108.5 -20zM313 72q64 0 102 46.5t38 130.5q0 38 -9.5 71t-27.5 57t-44 37.5t-59 13.5
q-65 0 -103 -47t-38 -132q0 -43 11 -76t30 -55.5t44.5 -34t55.5 -11.5zM168 590l145 132l145 -132l-40 -47l-105 69l-105 -69z" />
    <glyph glyph-name="otilde.sc" unicode="&#xe057;" horiz-adv-x="625" 
d="M313 -13q-64 0 -114.5 22t-85 58t-53 83.5t-18.5 98.5q0 57 20 105.5t55.5 83.5t85.5 55t110 20q62 0 112 -19.5t85 -54.5t54 -83.5t19 -106.5q0 -56 -20 -104t-56 -83t-85.5 -55t-108.5 -20zM313 72q64 0 102 46.5t38 130.5q0 38 -9.5 71t-27.5 57t-44 37.5t-59 13.5
q-65 0 -103 -47t-38 -132q0 -43 11 -76t30 -55.5t44.5 -34t55.5 -11.5zM163 573q0 21 6 41t17.5 36t28.5 26t39 10q18 0 33 -5.5t27.5 -12t25 -12t26.5 -5.5q19 0 32 8t14 28l52 -19q-9 -49 -27.5 -79t-60.5 -30q-19 0 -34.5 6t-29 13.5t-27 13.5t-29.5 6q-17 0 -31 -12
t-14 -30z" />
    <glyph glyph-name="odieresis.sc" unicode="&#xe058;" horiz-adv-x="625" 
d="M313 -13q-64 0 -114.5 22t-85 58t-53 83.5t-18.5 98.5q0 57 20 105.5t55.5 83.5t85.5 55t110 20q62 0 112 -19.5t85 -54.5t54 -83.5t19 -106.5q0 -56 -20 -104t-56 -83t-85.5 -55t-108.5 -20zM313 72q64 0 102 46.5t38 130.5q0 38 -9.5 71t-27.5 57t-44 37.5t-59 13.5
q-65 0 -103 -47t-38 -132q0 -43 11 -76t30 -55.5t44.5 -34t55.5 -11.5zM216 554q-30 0 -51.5 20t-21.5 49t21 50t51 21q29 0 50 -21t21 -50t-20.5 -49t-49.5 -20zM413 554q-30 0 -51 20t-21 49t20.5 50t50.5 21q29 0 50.5 -21t21.5 -50t-21 -49t-50 -20z" />
    <glyph glyph-name="omacron.sc" unicode="&#xe059;" horiz-adv-x="625" 
d="M313 -13q-64 0 -114.5 22t-85 58t-53 83.5t-18.5 98.5q0 57 20 105.5t55.5 83.5t85.5 55t110 20q62 0 112 -19.5t85 -54.5t54 -83.5t19 -106.5q0 -56 -20 -104t-56 -83t-85.5 -55t-108.5 -20zM313 72q64 0 102 46.5t38 130.5q0 38 -9.5 71t-27.5 57t-44 37.5t-59 13.5
q-65 0 -103 -47t-38 -132q0 -43 11 -76t30 -55.5t44.5 -34t55.5 -11.5zM177 651h272v-83h-272v83z" />
    <glyph glyph-name="obreve.sc" unicode="&#xe05a;" horiz-adv-x="625" 
d="M313 -13q-64 0 -114.5 22t-85 58t-53 83.5t-18.5 98.5q0 57 20 105.5t55.5 83.5t85.5 55t110 20q62 0 112 -19.5t85 -54.5t54 -83.5t19 -106.5q0 -56 -20 -104t-56 -83t-85.5 -55t-108.5 -20zM313 72q64 0 102 46.5t38 130.5q0 38 -9.5 71t-27.5 57t-44 37.5t-59 13.5
q-65 0 -103 -47t-38 -132q0 -43 11 -76t30 -55.5t44.5 -34t55.5 -11.5zM313 547q-67 0 -106.5 38.5t-41.5 100.5h77q5 -31 24 -48t47 -17q62 0 73 65h76q-1 -31 -12 -56.5t-30.5 -44t-46.5 -28.5t-60 -10z" />
    <glyph glyph-name="ohungarumlaut.sc" unicode="&#xe05b;" horiz-adv-x="625" 
d="M313 -13q-64 0 -114.5 22t-85 58t-53 83.5t-18.5 98.5q0 57 20 105.5t55.5 83.5t85.5 55t110 20q62 0 112 -19.5t85 -54.5t54 -83.5t19 -106.5q0 -56 -20 -104t-56 -83t-85.5 -55t-108.5 -20zM313 72q64 0 102 46.5t38 130.5q0 38 -9.5 71t-27.5 57t-44 37.5t-59 13.5
q-65 0 -103 -47t-38 -132q0 -43 11 -76t30 -55.5t44.5 -34t55.5 -11.5zM286 705h114l-148 -149h-87zM449 705h114l-149 -149h-88z" />
    <glyph glyph-name="oslash.sc" unicode="&#xe05c;" horiz-adv-x="624" 
d="M313 -13q-48 0 -88 12.5t-72 33.5l-53 -55l-50 46l52 55q-29 35 -44.5 78.5t-15.5 91.5q0 57 19.5 105t55.5 83.5t86 55.5t110 20q46 0 85.5 -12.5t70.5 -33.5l49 54l54 -50l-49 -51q29 -34 44 -77t15 -94q0 -56 -20 -104t-55.5 -83t-85 -55t-108.5 -20zM313 71
q65 0 102.5 48t37.5 130q0 25 -4 46t-11 36l-215 -225q14 -16 39 -25.5t51 -9.5zM313 429q-63 0 -102 -47.5t-39 -132.5q0 -45 14 -81l213 226q-12 13 -33.5 24t-52.5 11z" />
    <glyph glyph-name="oe.sc" unicode="&#xe05d;" horiz-adv-x="751" 
d="M319 -13q-68 0 -119.5 20.5t-86.5 56.5t-53 83.5t-18 101.5q0 66 22 115.5t59.5 82.5t88 49.5t107.5 16.5q24 0 49.5 -4t42.5 -9h280v-87h-205v-108h179v-85h-179v-131h213v-89h-286q-20 -5 -45.5 -9t-48.5 -4zM322 72q13 0 24 1.5t19 5.5v344q-8 2 -20 4t-23 2
q-74 0 -114.5 -46t-40.5 -134q0 -86 42.5 -131.5t112.5 -45.5z" />
    <glyph glyph-name="racute.sc" unicode="&#xe05e;" horiz-adv-x="492" 
d="M71 500h176q51 0 85.5 -12t56 -31.5t30.5 -45.5t9 -54q0 -27 -8.5 -50.5t-22.5 -41.5t-31 -30t-33 -18l145 -217h-136l-122 203h-29v-203h-120v500zM239 280q35 -1 53 21t18 54q0 27 -16 47t-51 19l-52 -1v-139zM133 594l167 123l50 -87l-185 -87z" />
    <glyph glyph-name="rcommaaccent.sc" unicode="&#xe05f;" horiz-adv-x="492" 
d="M71 500h176q51 0 85.5 -12t56 -31.5t30.5 -45.5t9 -54q0 -27 -8.5 -50.5t-22.5 -41.5t-31 -30t-33 -18l145 -217h-136l-122 203h-29v-203h-120v500zM239 280q35 -1 53 21t18 54q0 27 -16 47t-51 19l-52 -1v-139zM257 -145q-26 0 -42 16t-16 43q0 26 17 42.5t47 16.5
q31 0 49.5 -19t18.5 -50q0 -35 -17.5 -65.5t-51.5 -68.5l-53 12q17 17 31.5 36t19.5 34z" />
    <glyph glyph-name="rcaron.sc" unicode="&#xe060;" horiz-adv-x="492" 
d="M71 500h176q51 0 85.5 -12t56 -31.5t30.5 -45.5t9 -54q0 -27 -8.5 -50.5t-22.5 -41.5t-31 -30t-33 -18l145 -217h-136l-122 203h-29v-203h-120v500zM239 280q35 -1 53 21t18 54q0 27 -16 47t-51 19l-52 -1v-139zM94 699h78l72 -67h2l72 67h78l-119 -148h-64z" />
    <glyph glyph-name="sacute.sc" unicode="&#xe061;" horiz-adv-x="447" 
d="M220 -13q-37 0 -67 7.5t-54 19.5t-41 26.5t-29 28.5l70 66q5 -9 15 -20t24.5 -21t33 -16.5t41.5 -6.5q30 0 53.5 16t23.5 48q0 26 -17.5 41.5t-44 27.5t-57 23.5t-57 29.5t-44 46t-17.5 73q0 34 14 60t37.5 43t54 25.5t62.5 8.5t58.5 -6.5t47.5 -16t36.5 -21.5t26.5 -23
l-69 -53q-7 11 -27 26t-58 15q-29 0 -50 -12t-21 -35q0 -22 18.5 -36t45.5 -25.5t59.5 -23.5t59.5 -31t45.5 -47t18.5 -71q0 -34 -12.5 -64t-37 -52.5t-60.5 -36t-82 -13.5zM116 594l167 123l50 -87l-185 -87z" />
    <glyph glyph-name="scircumflex.sc" unicode="&#xe062;" horiz-adv-x="447" 
d="M220 -13q-37 0 -67 7.5t-54 19.5t-41 26.5t-29 28.5l70 66q5 -9 15 -20t24.5 -21t33 -16.5t41.5 -6.5q30 0 53.5 16t23.5 48q0 26 -17.5 41.5t-44 27.5t-57 23.5t-57 29.5t-44 46t-17.5 73q0 34 14 60t37.5 43t54 25.5t62.5 8.5t58.5 -6.5t47.5 -16t36.5 -21.5t26.5 -23
l-69 -53q-7 11 -27 26t-58 15q-29 0 -50 -12t-21 -35q0 -22 18.5 -36t45.5 -25.5t59.5 -23.5t59.5 -31t45.5 -47t18.5 -71q0 -34 -12.5 -64t-37 -52.5t-60.5 -36t-82 -13.5zM80 590l145 132l145 -132l-40 -47l-105 69l-105 -69z" />
    <glyph glyph-name="scaron.sc" unicode="&#xe063;" horiz-adv-x="447" 
d="M220 -13q-37 0 -67 7.5t-54 19.5t-41 26.5t-29 28.5l70 66q5 -9 15 -20t24.5 -21t33 -16.5t41.5 -6.5q30 0 53.5 16t23.5 48q0 26 -17.5 41.5t-44 27.5t-57 23.5t-57 29.5t-44 46t-17.5 73q0 34 14 60t37.5 43t54 25.5t62.5 8.5t58.5 -6.5t47.5 -16t36.5 -21.5t26.5 -23
l-69 -53q-7 11 -27 26t-58 15q-29 0 -50 -12t-21 -35q0 -22 18.5 -36t45.5 -25.5t59.5 -23.5t59.5 -31t45.5 -47t18.5 -71q0 -34 -12.5 -64t-37 -52.5t-60.5 -36t-82 -13.5zM77 699h78l72 -67h2l72 67h78l-119 -148h-64z" />
    <glyph glyph-name="scedilla.sc" unicode="&#xe064;" horiz-adv-x="447" 
d="M220 -13q-37 0 -67 7.5t-54 19.5t-41 26.5t-29 28.5l70 66q5 -9 15 -20t24.5 -21t33 -16.5t41.5 -6.5q30 0 53.5 16t23.5 48q0 26 -17.5 41.5t-44 27.5t-57 23.5t-57 29.5t-44 46t-17.5 73q0 34 14 60t37.5 43t54 25.5t62.5 8.5t58.5 -6.5t47.5 -16t36.5 -21.5t26.5 -23
l-69 -53q-7 11 -27 26t-58 15q-29 0 -50 -12t-21 -35q0 -22 18.5 -36t45.5 -25.5t59.5 -23.5t59.5 -31t45.5 -47t18.5 -71q0 -34 -12.5 -64t-37 -52.5t-60.5 -36t-82 -13.5zM207 -198q-35 0 -66 7.5t-49 17.5l21 53q11 -8 28 -15.5t40 -7.5q20 0 39.5 9.5t19.5 32.5
q0 18 -14.5 23.5t-27.5 5.5q-17 0 -29 -3t-22 -8l20 46q14 2 33 4t45 2q19 0 36 -4.5t30 -13.5t21 -22.5t8 -32.5q0 -24 -12 -41.5t-31 -29.5t-43 -17.5t-47 -5.5z" />
    <glyph glyph-name="scommaaccent.sc" unicode="&#xe065;" horiz-adv-x="447" 
d="M220 -13q-37 0 -67 7.5t-54 19.5t-41 26.5t-29 28.5l70 66q5 -9 15 -20t24.5 -21t33 -16.5t41.5 -6.5q30 0 53.5 16t23.5 48q0 26 -17.5 41.5t-44 27.5t-57 23.5t-57 29.5t-44 46t-17.5 73q0 34 14 60t37.5 43t54 25.5t62.5 8.5t58.5 -6.5t47.5 -16t36.5 -21.5t26.5 -23
l-69 -53q-7 11 -27 26t-58 15q-29 0 -50 -12t-21 -35q0 -22 18.5 -36t45.5 -25.5t59.5 -23.5t59.5 -31t45.5 -47t18.5 -71q0 -34 -12.5 -64t-37 -52.5t-60.5 -36t-82 -13.5zM221 -145q-26 0 -42 16t-16 43q0 26 17 42.5t47 16.5q31 0 49.5 -19t18.5 -50q0 -35 -17.5 -65.5
t-51.5 -68.5l-53 12q17 17 31.5 36t19.5 34z" />
    <glyph glyph-name="germandbls.sc" unicode="&#xe066;" horiz-adv-x="894" 
d="M220 -13q-37 0 -67 7.5t-54 19.5t-41 26.5t-29 28.5l70 66q5 -9 15 -20t24.5 -21t33 -16.5t41.5 -6.5q30 0 53.5 16t23.5 48q0 26 -17.5 41.5t-44 27.5t-57 23.5t-57 29.5t-44 46t-17.5 73q0 34 14 60t37.5 43t54 25.5t62.5 8.5t58.5 -6.5t47.5 -16t36.5 -21.5t26.5 -23
l-69 -53q-7 11 -27 26t-58 15q-29 0 -50 -12t-21 -35q0 -22 18.5 -36t45.5 -25.5t59.5 -23.5t59.5 -31t45.5 -47t18.5 -71q0 -34 -12.5 -64t-37 -52.5t-60.5 -36t-82 -13.5zM667 -13q-37 0 -67 7.5t-54 19.5t-41 26.5t-29 28.5l70 66q5 -9 15 -20t24.5 -21t33 -16.5
t41.5 -6.5q30 0 53.5 16t23.5 48q0 26 -17.5 41.5t-44 27.5t-57 23.5t-57 29.5t-44 46t-17.5 73q0 34 14 60t37.5 43t54 25.5t62.5 8.5t58.5 -6.5t47.5 -16t36.5 -21.5t26.5 -23l-69 -53q-7 11 -27 26t-58 15q-29 0 -50 -12t-21 -35q0 -22 18.5 -36t45.5 -25.5t59.5 -23.5
t59.5 -31t45.5 -47t18.5 -71q0 -34 -12.5 -64t-37 -52.5t-60.5 -36t-82 -13.5z" />
    <glyph glyph-name="tcaron.sc" unicode="&#xe067;" horiz-adv-x="442" 
d="M160 413h-143v87h408v-87h-143v-413h-122v413zM72 699h78l72 -67h2l72 67h78l-119 -148h-64z" />
    <glyph glyph-name="tcommaaccent.sc" unicode="&#xe068;" horiz-adv-x="442" 
d="M160 413h-143v87h408v-87h-143v-413h-122v413zM216 -145q-26 0 -42 16t-16 43q0 26 17 42.5t47 16.5q31 0 49.5 -19t18.5 -50q0 -35 -17.5 -65.5t-51.5 -68.5l-53 12q17 17 31.5 36t19.5 34z" />
    <glyph glyph-name="tbar.sc" unicode="&#xe069;" horiz-adv-x="442" 
d="M160 211h-84v75h84v127h-143v87h408v-87h-143v-127h84v-75h-84v-211h-122v211z" />
    <glyph glyph-name="thorn.sc" unicode="&#xe06a;" horiz-adv-x="460" 
d="M71 500h120v-65h60q50 0 84 -11.5t54.5 -32t29 -47t8.5 -56.5t-11 -57.5t-32.5 -49t-53.5 -34.5t-75 -13h-64v-134h-120v500zM244 215q35 -1 51.5 21t16.5 53q0 13 -3 25.5t-10.5 22t-20 14.5t-32.5 5l-55 -1v-139z" />
    <glyph glyph-name="ugrave.sc" unicode="&#xe06b;" horiz-adv-x="564" 
d="M280 -13q-38 0 -76.5 10.5t-69 33t-49.5 58t-19 85.5v326h123v-335q0 -25 10 -42.5t25 -29t32 -16.5t31 -5q48 0 78 24t30 70v334h103v-323q0 -56 -19 -92.5t-50 -58.5t-70 -30.5t-79 -8.5zM176 631l54 86l164 -121l-32 -53z" />
    <glyph glyph-name="uacute.sc" unicode="&#xe06c;" horiz-adv-x="564" 
d="M280 -13q-38 0 -76.5 10.5t-69 33t-49.5 58t-19 85.5v326h123v-335q0 -25 10 -42.5t25 -29t32 -16.5t31 -5q48 0 78 24t30 70v334h103v-323q0 -56 -19 -92.5t-50 -58.5t-70 -30.5t-79 -8.5zM170 594l167 123l50 -87l-185 -87z" />
    <glyph glyph-name="ucircumflex.sc" unicode="&#xe06d;" horiz-adv-x="564" 
d="M280 -13q-38 0 -76.5 10.5t-69 33t-49.5 58t-19 85.5v326h123v-335q0 -25 10 -42.5t25 -29t32 -16.5t31 -5q48 0 78 24t30 70v334h103v-323q0 -56 -19 -92.5t-50 -58.5t-70 -30.5t-79 -8.5zM145 590l145 132l145 -132l-40 -47l-105 69l-105 -69z" />
    <glyph glyph-name="utilde.sc" unicode="&#xe06e;" horiz-adv-x="564" 
d="M280 -13q-38 0 -76.5 10.5t-69 33t-49.5 58t-19 85.5v326h123v-335q0 -25 10 -42.5t25 -29t32 -16.5t31 -5q48 0 78 24t30 70v334h103v-323q0 -56 -19 -92.5t-50 -58.5t-70 -30.5t-79 -8.5zM135 573q0 21 6 41t17.5 36t28.5 26t39 10q18 0 33 -5.5t27.5 -12t25 -12
t26.5 -5.5q19 0 32 8t14 28l52 -19q-9 -49 -27.5 -79t-60.5 -30q-19 0 -34.5 6t-29 13.5t-27 13.5t-29.5 6q-17 0 -31 -12t-14 -30z" />
    <glyph glyph-name="udieresis.sc" unicode="&#xe06f;" horiz-adv-x="564" 
d="M280 -13q-38 0 -76.5 10.5t-69 33t-49.5 58t-19 85.5v326h123v-335q0 -25 10 -42.5t25 -29t32 -16.5t31 -5q48 0 78 24t30 70v334h103v-323q0 -56 -19 -92.5t-50 -58.5t-70 -30.5t-79 -8.5zM187 554q-30 0 -51.5 20t-21.5 49t21 50t51 21q29 0 50 -21t21 -50t-20.5 -49
t-49.5 -20zM384 554q-30 0 -51 20t-21 49t20.5 50t50.5 21q29 0 50.5 -21t21.5 -50t-21 -49t-50 -20z" />
    <glyph glyph-name="umacron.sc" unicode="&#xe070;" horiz-adv-x="564" 
d="M280 -13q-38 0 -76.5 10.5t-69 33t-49.5 58t-19 85.5v326h123v-335q0 -25 10 -42.5t25 -29t32 -16.5t31 -5q48 0 78 24t30 70v334h103v-323q0 -56 -19 -92.5t-50 -58.5t-70 -30.5t-79 -8.5zM154 651h272v-83h-272v83z" />
    <glyph glyph-name="ubreve.sc" unicode="&#xe071;" horiz-adv-x="564" 
d="M280 -13q-38 0 -76.5 10.5t-69 33t-49.5 58t-19 85.5v326h123v-335q0 -25 10 -42.5t25 -29t32 -16.5t31 -5q48 0 78 24t30 70v334h103v-323q0 -56 -19 -92.5t-50 -58.5t-70 -30.5t-79 -8.5zM287 547q-67 0 -106.5 38.5t-41.5 100.5h77q5 -31 24 -48t47 -17q62 0 73 65h76
q-1 -31 -12 -56.5t-30.5 -44t-46.5 -28.5t-60 -10z" />
    <glyph glyph-name="uring.sc" unicode="&#xe072;" horiz-adv-x="564" 
d="M280 -13q-38 0 -76.5 10.5t-69 33t-49.5 58t-19 85.5v326h123v-335q0 -25 10 -42.5t25 -29t32 -16.5t31 -5q48 0 78 24t30 70v334h103v-323q0 -56 -19 -92.5t-50 -58.5t-70 -30.5t-79 -8.5zM286 536q-23 0 -42.5 8.5t-33.5 22.5t-22 32.5t-8 39.5q0 20 8 38.5t22 32.5
t33.5 22.5t42.5 8.5t42.5 -8.5t33.5 -22.5t21.5 -32.5t7.5 -38.5q0 -21 -8 -39.5t-22 -32.5t-33 -22.5t-42 -8.5zM286 590q20 0 33 13t13 36q0 19 -12.5 34t-33.5 15t-34 -14.5t-13 -34.5q0 -21 13.5 -35t33.5 -14z" />
    <glyph glyph-name="uhungarumlaut.sc" unicode="&#xe073;" horiz-adv-x="564" 
d="M280 -13q-38 0 -76.5 10.5t-69 33t-49.5 58t-19 85.5v326h123v-335q0 -25 10 -42.5t25 -29t32 -16.5t31 -5q48 0 78 24t30 70v334h103v-323q0 -56 -19 -92.5t-50 -58.5t-70 -30.5t-79 -8.5zM250 705h114l-148 -149h-87zM413 705h114l-149 -149h-88z" />
    <glyph glyph-name="uogonek.sc" unicode="&#xe074;" horiz-adv-x="564" 
d="M280 -13q-38 0 -76.5 10.5t-69 33t-49.5 58t-19 85.5v326h123v-335q0 -25 10 -42.5t25 -29t32 -16.5t31 -5q48 0 78 24t30 70v334h103v-323q0 -56 -19 -92.5t-50 -58.5t-70 -30.5t-79 -8.5zM310 -204q-40 0 -68.5 20t-28.5 62q0 28 13.5 51t33.5 39h73q-32 -29 -32 -64
q0 -22 12 -30.5t29 -8.5q31 0 48 17l22 -48q-13 -11 -40 -24.5t-62 -13.5z" />
    <glyph glyph-name="wcircumflex.sc" unicode="&#xe075;" horiz-adv-x="760" 
d="M17 500h132l102 -322h2l102 322h82l102 -322h1l102 322h101l-173 -500h-87l-103 306h-1l-98 -306h-91zM247 590l145 132l145 -132l-40 -47l-105 69l-105 -69z" />
    <glyph glyph-name="yacute.sc" unicode="&#xe076;" horiz-adv-x="524" 
d="M202 229l-189 271h142l127 -191h2l121 191h106l-186 -270v-230h-123v229zM163 594l167 123l50 -87l-185 -87z" />
    <glyph glyph-name="ycircumflex.sc" unicode="&#xe077;" horiz-adv-x="524" 
d="M202 229l-189 271h142l127 -191h2l121 191h106l-186 -270v-230h-123v229zM130 590l145 132l145 -132l-40 -47l-105 69l-105 -69z" />
    <glyph glyph-name="ydieresis.sc" unicode="&#xe078;" horiz-adv-x="524" 
d="M202 229l-189 271h142l127 -191h2l121 191h106l-186 -270v-230h-123v229zM173 554q-30 0 -51.5 20t-21.5 49t21 50t51 21q29 0 50 -21t21 -50t-20.5 -49t-49.5 -20zM370 554q-30 0 -51 20t-21 49t20.5 50t50.5 21q29 0 50.5 -21t21.5 -50t-21 -49t-50 -20z" />
    <glyph glyph-name="zacute.sc" unicode="&#xe079;" horiz-adv-x="513" 
d="M280 411v2h-211v87h404l-256 -409v-2h257v-89h-449zM168 594l167 123l50 -87l-185 -87z" />
    <glyph glyph-name="zcaron.sc" unicode="&#xe07a;" horiz-adv-x="513" 
d="M280 411v2h-211v87h404l-256 -409v-2h257v-89h-449zM120 699h78l72 -67h2l72 67h78l-119 -148h-64z" />
    <glyph glyph-name="zdotaccent.sc" unicode="&#xe07b;" horiz-adv-x="513" 
d="M280 411v2h-211v87h404l-256 -409v-2h257v-89h-449zM272 554q-31 0 -51.5 21.5t-20.5 51.5q0 31 20.5 52.5t51.5 21.5t52 -21.5t21 -52.5q0 -30 -21 -51.5t-52 -21.5z" />
    <glyph glyph-name="fi.sc" unicode="&#xe07c;" horiz-adv-x="708" 
d="M71 500h335v-87h-214v-111h185v-84h-185v-218h-121v500zM515 500h122v-500h-122v500z" />
    <glyph glyph-name="fl.sc" unicode="&#xe07d;" horiz-adv-x="871" 
d="M71 500h335v-87h-214v-111h185v-84h-185v-218h-121v500zM515 500h122v-411h211v-89h-333v500z" />
    <glyph glyph-name="ij.sc" unicode="&#xe07e;" horiz-adv-x="512" 
d="M71 500h122v-500h-122v500zM237 -13q4 -2 15 -6t27 -4q18 0 29 14.5t11 53.5v455h122v-438q0 -46 -11 -78.5t-29.5 -52.5t-43 -29.5t-50.5 -9.5q-34 0 -58.5 6t-35.5 11z" />
    <glyph glyph-name="exclamdown.sc" unicode="&#xe07f;" horiz-adv-x="308" 
d="M95 170h118v-316h-118v316zM154 214q-16 0 -30 6t-24.5 16.5t-17 24.5t-6.5 30t6.5 30t17 24.5t24.5 16.5t30 6t30 -6t24.5 -16.5t17 -24.5t6.5 -30t-6.5 -30t-17 -24.5t-24.5 -16.5t-30 -6z" />
    <glyph glyph-name="questiondown.sc" unicode="&#xe080;" horiz-adv-x="438" 
d="M233 -159q-50 0 -84.5 10t-55.5 26.5t-30.5 38.5t-9.5 46q0 28 9 47t23 32t29.5 22.5t29.5 19.5t23 22.5t9 31.5v33h120v-37q0 -28 -10 -47t-24.5 -32t-32 -23t-32 -20t-24.5 -22t-10 -30q0 -23 20.5 -35.5t58.5 -12.5q41 0 66 16.5t38 37.5l62 -47q-26 -35 -68.5 -56
t-106.5 -21zM235 214q-16 0 -30 6t-24.5 16.5t-17 24.5t-6.5 30t6.5 30t17 24.5t24.5 16.5t30 6t30 -6t24.5 -16.5t17 -24.5t6.5 -30t-6.5 -30t-17 -24.5t-24.5 -16.5t-30 -6z" />
    <glyph glyph-name="Euro.sc" unicode="&#xe081;" horiz-adv-x="564" 
d="M351 -13q-46 0 -88 10t-76 32.5t-58 58.5t-34 87h-67l26 61h35v36h-59l28 61h38q9 40 30 73t53.5 57t75 37t94.5 13q37 0 66.5 -6.5t52 -17t39 -23.5t28.5 -26l-67 -57q-14 22 -40 36.5t-72 14.5q-56 0 -88.5 -27.5t-41.5 -73.5h226l-28 -61h-206v-36h191l-28 -61h-157
q8 -54 42 -81.5t92 -27.5q40 0 67.5 13.5t41.5 30.5l58 -63q-29 -26 -69.5 -43t-104.5 -17z" />
    <glyph glyph-name="cent.sc" unicode="&#xe082;" horiz-adv-x="561" 
d="M289 -12q-60 4 -106 26t-77.5 57.5t-47.5 81.5t-16 97q0 61 19 108.5t52.5 81t78.5 52t97 21.5v50h48v-50q68 -5 111 -29t73 -55l-92 -64q-12 20 -33.5 39t-58.5 24v-357q43 6 70 30t38 49l86 -61q-15 -18 -33 -35t-41 -30.5t-52.5 -23t-67.5 -12.5v-52h-48v52zM289 428
q-51 -8 -82 -53t-31 -125q0 -69 29 -118.5t84 -60.5v357z" />
    <glyph glyph-name="sterling.sc" unicode="&#xe083;" horiz-adv-x="488" 
d="M52 89h75v136h-61v67h61v66q0 41 13.5 70.5t37.5 48t56.5 27.5t70.5 9q47 0 83 -14.5t57 -34.5l-55 -62q-8 13 -23.5 24.5t-44.5 11.5q-33 0 -53.5 -18t-20.5 -61v-67h112v-67h-112v-136h201v-89h-397v89z" />
    <glyph glyph-name="florin.sc" unicode="&#xe084;" horiz-adv-x="460" 
d="M62 -136q-33 0 -53 4.5t-37 11.5l33 71q6 -5 18 -9.5t29 -4.5q25 0 36.5 13t18.5 44l51 235h-94v65h107l20 89q6 25 16 48.5t28.5 41.5t46.5 29t69 11q37 0 63 -8t37 -16l-47 -63q-4 5 -13.5 10.5t-25.5 5.5q-26 0 -39.5 -19.5t-18.5 -45.5l-17 -83h96v-65h-111l-50 -241
q-5 -23 -15 -45.5t-28.5 -40t-47.5 -28t-72 -10.5z" />
    <glyph glyph-name="yen.sc" unicode="&#xe085;" horiz-adv-x="528" 
d="M204 135h-112v59h112v36h-112v58h72l-149 212h144l125 -191h2l122 191h105l-146 -212h72v-58h-112v-36h112v-59h-112v-135h-123v135z" />
    <glyph glyph-name="ordfeminine.sc" unicode="&#xe086;" horiz-adv-x="400" 
d="M157 343q-22 0 -43 7t-37.5 20.5t-26.5 34t-10 47.5q0 54 40.5 78t105.5 27l66 4v7q0 60 -54 60q-25 0 -40.5 -13t-22.5 -27q-17 10 -33.5 19t-33.5 18q11 15 23 26.5t28 19.5t37.5 12.5t50.5 4.5q32 0 59 -7.5t46.5 -23.5t30 -41t10.5 -59v-205h-98l-1 41h-2
q-11 -20 -33 -35t-62 -15zM182 413q26 0 44 12.5t27 28.5v52l-46 -2q-38 -2 -53 -14.5t-15 -30.5q0 -20 11.5 -33t31.5 -13z" />
    <glyph glyph-name="perthousand.sc" unicode="&#xe087;" horiz-adv-x="1033" 
d="M489 528l56 -33l-324 -524l-52 31zM179 245q-62 0 -100.5 37.5t-38.5 96.5q0 29 10 53.5t28.5 42.5t44.5 28t57 10q62 0 100.5 -37t38.5 -97q0 -59 -38.5 -96.5t-101.5 -37.5zM179 302q22 0 35 16.5t13 60.5q0 42 -12.5 60.5t-35.5 18.5q-26 0 -37 -21.5t-11 -57.5
q0 -44 14 -60.5t34 -16.5zM531 -13q-31 0 -56.5 10t-44 27.5t-28.5 42t-10 53.5t10 53.5t28.5 42.5t44.5 28t57 10q62 0 100.5 -36.5t38.5 -96.5q0 -59 -38.5 -96.5t-101.5 -37.5zM531 43q22 0 35 17t13 60q0 42 -12.5 60.5t-35.5 18.5q-26 0 -37 -21t-11 -58
q0 -44 14 -60.5t34 -16.5zM853 -13q-31 0 -56.5 10t-44 27.5t-28.5 42t-10 53.5t10 53.5t28.5 42.5t44 28t56.5 10q63 0 101.5 -36.5t38.5 -96.5q0 -59 -38.5 -96.5t-101.5 -37.5zM853 43q22 0 35 17t13 60q0 42 -12.5 60.5t-35.5 18.5q-26 0 -37 -21t-11 -58
q0 -44 14 -60.5t34 -16.5z" />
    <glyph glyph-name="zero.onum" unicode="&#xe100;" horiz-adv-x="527" 
d="M263 -13q-51 0 -92 17.5t-70.5 48.5t-45 74t-15.5 94q0 52 16 95.5t45 75t70.5 49t91.5 17.5q52 0 93.5 -17.5t70.5 -49t44.5 -75t15.5 -95.5q0 -51 -15.5 -94t-45 -74t-71 -48.5t-92.5 -17.5zM263 76q48 0 69.5 36.5t21.5 108.5q0 71 -23 110t-68 39q-47 0 -69 -38.5
t-22 -110.5t24.5 -108.5t66.5 -36.5z" />
    <glyph glyph-name="one.onum" unicode="&#xe101;" horiz-adv-x="333" 
d="M133 315l-2 1l-60 -42l-47 71l145 100h91v-445h-127v315z" />
    <glyph glyph-name="two.onum" unicode="&#xe102;" horiz-adv-x="465" 
d="M224 228q20 22 32.5 41t12.5 48q0 26 -16.5 40t-45.5 14q-18 0 -32 -6t-24.5 -15.5t-17 -21t-9.5 -22.5l-87 44q11 20 26.5 39.5t37 34.5t51 24.5t68.5 9.5q35 0 67 -8t57 -25.5t39.5 -45.5t14.5 -68q0 -36 -15.5 -67.5t-34.5 -51.5l-93 -103v-2h174v-87h-411z" />
    <glyph glyph-name="three.onum" unicode="&#xe103;" horiz-adv-x="437" 
d="M182 -218q-54 0 -94 14.5t-63 28.5l47 82q14 -15 42.5 -25t57.5 -10q22 0 40 6t31 19.5t20.5 36.5t7.5 56q0 32 -9.5 53t-29.5 33t-50.5 17t-72.5 5v82q34 0 62 5.5t47 18.5t29.5 33.5t10.5 51.5q0 40 -17 61.5t-52 21.5q-33 0 -53.5 -21.5t-24.5 -43.5l-88 43
q10 22 25 42t36.5 34.5t50 23t66.5 8.5q49 0 83 -13t55 -35.5t30.5 -51.5t9.5 -61q0 -25 -8.5 -48.5t-22.5 -42.5t-31.5 -32.5t-36.5 -19.5v-1q22 -5 44 -16t40 -30t29 -47t11 -66q0 -47 -14.5 -86t-42.5 -67t-69.5 -43.5t-95.5 -15.5z" />
    <glyph glyph-name="four.onum" unicode="&#xe104;" horiz-adv-x="530" 
d="M301 0h-300l303 444h127v-361h90v-83h-90v-208h-130v208zM301 294h-1l-139 -211h140v211z" />
    <glyph glyph-name="five.onum" unicode="&#xe105;" horiz-adv-x="442" 
d="M194 -218q-58 0 -96 13t-63 30l48 83q15 -17 42 -26.5t59 -9.5q45 0 72 33t27 96q0 34 -9 56t-26.5 34.5t-43.5 17.5t-60 6l-84 2l19 328h297v-87h-175l-10 -165h46q38 0 71 -10.5t57.5 -32.5t38.5 -57t14 -83q0 -51 -16 -93t-45.5 -72t-70.5 -46.5t-92 -16.5z" />
    <glyph glyph-name="six.onum" unicode="&#xe106;" horiz-adv-x="513" 
d="M269 -13q-59 0 -102 25t-70.5 66.5t-40.5 96t-13 113.5q0 72 12.5 136t42 112t77.5 76.5t120 28.5q54 0 89.5 -16t56.5 -36l-55 -73q-10 14 -28.5 26.5t-59.5 12.5q-35 0 -58 -15.5t-36.5 -40.5t-20 -56.5t-7.5 -64.5h2q17 23 49 39t68 16q29 0 60 -8.5t57 -32t43 -65
t17 -106.5q0 -56 -16 -99.5t-43.5 -73.5t-64.5 -45.5t-79 -15.5zM266 75q38 0 58.5 38t20.5 107q0 61 -18.5 94.5t-64.5 33.5q-32 0 -54 -17.5t-33 -40.5q0 -63 5.5 -104.5t16.5 -66t28 -34.5t41 -10z" />
    <glyph glyph-name="seven.onum" unicode="&#xe107;" horiz-adv-x="432" 
d="M252 353h-236v92h406l-237 -653h-136z" />
    <glyph glyph-name="eight.onum" unicode="&#xe108;" horiz-adv-x="516" 
d="M258 -13q-55 0 -95.5 17t-67.5 44.5t-40 62t-13 69.5q0 33 10 59t26.5 46t36 34.5t39.5 23.5v2q-37 23 -59 58t-22 81q0 34 13.5 63t38 50t58 32.5t74.5 11.5q36 0 68.5 -9t57 -27.5t39.5 -48t15 -70.5q0 -25 -7 -45t-18 -35.5t-25.5 -28t-30.5 -21.5v-2
q25 -13 47.5 -28.5t38.5 -36t25.5 -47t9.5 -61.5q0 -42 -16 -78t-45.5 -61.5t-69.5 -40t-88 -14.5zM257 69q50 0 71.5 30t21.5 70q0 26 -11.5 45.5t-29 33.5t-37.5 24t-37 18q-23 -13 -38.5 -25t-25.5 -25.5t-14 -30t-4 -37.5q0 -11 4 -28.5t15.5 -34t32 -28.5t52.5 -12z
M271 398q29 17 46 37.5t17 51.5q0 29 -17.5 52.5t-56.5 23.5q-35 0 -54 -20t-19 -51q0 -18 8 -32.5t20.5 -25.5t27.5 -20t28 -16z" />
    <glyph glyph-name="nine.onum" unicode="&#xe109;" horiz-adv-x="512" 
d="M216 -218q-51 0 -91 13.5t-60 27.5l47 81q14 -13 40.5 -23t64.5 -10q55 0 87 45.5t33 142.5h-2q-16 -26 -47.5 -41t-66.5 -15q-31 0 -63 10.5t-58 36t-42.5 68t-16.5 106.5q0 54 16.5 97.5t45 73.5t66 46.5t79.5 16.5q57 0 99 -23t69 -64t40 -97t13 -122q0 -75 -13 -142
t-42.5 -117.5t-78 -80.5t-119.5 -30zM251 87q32 0 54 19t33 42q0 118 -19.5 169t-71.5 51q-40 0 -60.5 -37t-20.5 -105q0 -139 85 -139z" />
    <glyph glyph-name="zero.sc" unicode="&#xe10a;" horiz-adv-x="532" 
d="M266 -13q-51 0 -92.5 20.5t-71.5 55.5t-46 83t-16 104q0 49 13 96t40.5 84t70.5 60t102 23t102 -21.5t70.5 -58t40.5 -84t13 -98.5q0 -52 -12.5 -100t-40 -84.5t-70.5 -58t-103 -21.5zM266 77q47 0 71.5 42t24.5 131q0 88 -25.5 132.5t-70.5 44.5q-50 0 -73 -46.5
t-23 -130.5q0 -35 6 -66.5t18 -55t30 -37.5t42 -14z" />
    <glyph glyph-name="one.sc" unicode="&#xe10b;" horiz-adv-x="329" 
d="M134 372l-2 1l-67 -45l-47 71l152 101h87v-500h-123v372z" />
    <glyph glyph-name="two.sc" unicode="&#xe10c;" horiz-adv-x="464" 
d="M222 263q12 15 27.5 41t15.5 54q0 29 -14.5 49.5t-49.5 20.5q-18 0 -31.5 -6t-23.5 -15.5t-16.5 -21t-9.5 -22.5l-87 43q10 19 25.5 38t38 34.5t52.5 25t70 9.5q81 0 128.5 -42t47.5 -114q0 -38 -17 -72.5t-38 -60.5l-103 -133v-2h188v-89h-414z" />
    <glyph glyph-name="three.sc" unicode="&#xe10d;" horiz-adv-x="433" 
d="M188 -13q-33 0 -59 4.5t-46 11t-35.5 15t-27.5 16.5l51 79q13 -12 41.5 -26t67.5 -14q43 0 63.5 19.5t20.5 54.5q0 18 -5.5 31.5t-20.5 22.5t-42 13.5t-70 4.5v79q25 0 48 3t39.5 11.5t26.5 23t10 38.5q0 25 -15 41t-50 16t-53.5 -15.5t-26.5 -41.5l-84 42q10 18 25 35.5
t36.5 31t50.5 22t66 8.5q48 0 81.5 -11.5t54 -29.5t29.5 -40.5t9 -45.5q0 -38 -21 -70t-61 -43v-1q19 -4 38 -13t34 -24t24.5 -36.5t9.5 -50.5q0 -41 -15.5 -71t-43.5 -50t-66 -30t-84 -10z" />
    <glyph glyph-name="four.sc" unicode="&#xe10e;" horiz-adv-x="500" 
d="M261 103h-265l277 397h109v-313h90v-84h-90v-103h-121v103zM261 354h-1l-115 -167h116v167z" />
    <glyph glyph-name="five.sc" unicode="&#xe10f;" horiz-adv-x="435" 
d="M197 -13q-36 0 -63 4.5t-47.5 11.5t-35.5 15t-27 16l51 79q14 -14 43 -27t66 -13q48 0 67 25.5t19 60.5q0 36 -26.5 55.5t-83.5 21.5l-102 3l17 261h286v-84h-177l-6 -102h52q46 0 78.5 -11.5t53.5 -32t30.5 -47.5t9.5 -57q0 -85 -51.5 -132t-153.5 -47z" />
    <glyph glyph-name="six.sc" unicode="&#xe110;" horiz-adv-x="486" 
d="M256 -13q-55 0 -95 19.5t-66.5 53.5t-39.5 78.5t-13 95.5q0 134 59.5 206.5t170.5 72.5q60 0 96.5 -18t53.5 -35l-57 -63q-6 9 -26.5 22.5t-58.5 13.5q-32 0 -52.5 -10.5t-32.5 -29t-17 -43.5t-6 -53h2q4 7 13.5 16.5t23.5 18.5t32.5 15t42.5 6q75 0 120 -43.5t45 -131.5
q0 -34 -11.5 -68t-35.5 -61.5t-60.5 -44.5t-87.5 -17zM256 73q32 0 53 25.5t21 75.5q0 42 -18 68t-58 26q-33 0 -53 -18t-30 -40v-3q0 -74 23.5 -104t61.5 -30z" />
    <glyph glyph-name="seven.sc" unicode="&#xe111;" horiz-adv-x="411" 
d="M247 413h-238v87h411l-215 -500h-138z" />
    <glyph glyph-name="eight.sc" unicode="&#xe112;" horiz-adv-x="471" 
d="M235 -13q-48 0 -85.5 12.5t-63 34.5t-39 50.5t-13.5 60.5q0 48 29.5 79.5t70.5 45.5v2q-32 17 -51 45t-19 66q0 25 10.5 48.5t32 41.5t53.5 29t74 11q80 0 124 -33t44 -90q0 -37 -18.5 -60.5t-50.5 -38.5v-2q47 -20 75.5 -52t28.5 -88q0 -37 -14.5 -67t-41 -51t-64 -32.5
t-82.5 -11.5zM232 70q37 0 60.5 18.5t23.5 52.5q0 21 -10.5 35.5t-26.5 24t-34 16t-34 11.5q-37 -16 -54 -34.5t-17 -50.5q0 -27 22 -50t70 -23zM252 324q26 12 40.5 25t14.5 36q0 20 -15.5 36.5t-51.5 16.5q-39 0 -52.5 -16.5t-13.5 -32.5t8.5 -27.5t21 -19t26 -11.5
t22.5 -7z" />
    <glyph glyph-name="nine.sc" unicode="&#xe113;" horiz-adv-x="485" 
d="M217 -13q-34 0 -59.5 5t-44 12t-31 15t-19.5 13l50 75q8 -8 33.5 -21.5t62.5 -13.5q53 0 78 31.5t28 104.5h-2q-5 -7 -14 -16.5t-23 -18t-32.5 -14.5t-41.5 -6q-36 0 -66.5 11.5t-53 33.5t-35 54.5t-12.5 74.5q0 36 12 69.5t37 59.5t62 41.5t87 15.5q55 0 95 -19t66 -52
t38.5 -78t12.5 -96q0 -134 -58 -207.5t-170 -73.5zM233 238q32 0 52.5 18.5t30.5 39.5v4q0 73 -21.5 101.5t-61.5 28.5q-34 0 -56 -25.5t-22 -73.5q0 -42 19.5 -67.5t58.5 -25.5z" />
    <glyph glyph-name="grave.cap" unicode="&#xe300;" horiz-adv-x="682" 
d="M232 817l55 87l163 -122l-32 -52z" />
    <glyph glyph-name="acute.cap" unicode="&#xe301;" horiz-adv-x="693" 
d="M238 780l167 123l50 -87l-184 -86z" />
    <glyph glyph-name="circumflex.cap" unicode="&#xe302;" horiz-adv-x="733" 
d="M222 776l145 131l144 -131l-39 -48l-105 69l-106 -69z" />
    <glyph glyph-name="caron.cap" unicode="&#xe303;" horiz-adv-x="725" 
d="M211 882h79l72 -67h2l72 67h78l-120 -148h-63z" />
    <glyph glyph-name="tilde.cap" unicode="&#xe304;" horiz-adv-x="704" 
d="M202 757q0 21 6 41t17.5 35.5t28.5 25.5t39 10q18 0 32.5 -5.5t27.5 -12t25 -12t26 -5.5q19 0 32.5 8.5t14.5 28.5l51 -19q-8 -49 -26.5 -79t-61.5 -30q-19 0 -34 6t-29 13t-27.5 13t-28.5 6q-18 0 -31.5 -12t-13.5 -30z" />
    <glyph glyph-name="dieresis.cap" unicode="&#xe305;" horiz-adv-x="716" 
d="M260 740q-29 0 -50.5 20t-21.5 49t21 49.5t51 20.5q29 0 50 -20.5t21 -49.5t-21 -49t-50 -20zM457 740q-30 0 -51 20t-21 49t20.5 49.5t50.5 20.5t51 -20.5t21 -49.5t-21 -49t-50 -20z" />
    <glyph glyph-name="macron.cap" unicode="&#xe306;" horiz-adv-x="675" 
d="M202 834h271v-83h-271v83z" />
    <glyph glyph-name="breve.cap" unicode="&#xe307;" horiz-adv-x="689" 
d="M343 733q-67 0 -106 38.5t-41 100.5h77q5 -31 23.5 -48t46.5 -17q32 0 50 17t23 48h77q-2 -62 -42.5 -100.5t-107.5 -38.5z" />
    <glyph glyph-name="ring.cap" unicode="&#xe308;" horiz-adv-x="653" 
d="M327 726q-23 0 -42.5 8.5t-33.5 22.5t-22 32.5t-8 39.5t8 39.5t22 32.5t33.5 22t42.5 8t42.5 -8t33.5 -22t21.5 -32.5t7.5 -39.5t-8 -39.5t-22 -32.5t-33 -22.5t-42 -8.5zM327 780q20 0 33 13t13 36q0 20 -12.5 34.5t-33.5 14.5t-34 -14.5t-13 -34.5q0 -21 13.5 -35
t33.5 -14z" />
    <glyph glyph-name="hungarumlaut.cap" unicode="&#xe309;" horiz-adv-x="790" 
d="M360 885h114l-148 -149h-87zM523 885h114l-149 -149h-88z" />
    <glyph glyph-name="dotaccent.cap" unicode="&#xe30a;" horiz-adv-x="686" 
d="M342 740q-30 0 -51 21t-21 51q0 31 21 52.5t51 21.5q31 0 52 -21.5t21 -52.5q0 -30 -21 -51t-52 -21z" />
    <glyph glyph-name="caron.alt" unicode="&#xe30b;" horiz-adv-x="354" 
d="M174 541q-30 0 -50 20t-20 49q0 32 20 51t50 19q38 0 55.5 -25t17.5 -56q0 -19 -4 -37t-13 -37t-24 -41t-37 -49l-54 15q21 21 39 46t23 42z" />
    <glyph glyph-name="commaaccent" unicode="&#xe30c;" horiz-adv-x="472" 
d="M228 -145q-26 0 -42 16t-16 43q0 26 17 42.5t47 16.5q31 0 49.5 -19t18.5 -50q0 -35 -17.5 -65.5t-51.5 -68.5l-53 12q17 17 31.5 36t19.5 34z" />
    <glyph glyph-name="commaaccent.alt" unicode="&#xe30d;" horiz-adv-x="472" 
d="M244 641q26 0 42 -16t16 -43q0 -25 -17 -42t-46 -17q-32 0 -50 19.5t-18 49.5q0 35 17.5 65t50.5 68l53 -12q-17 -16 -31 -35.5t-19 -33.5z" />
    <glyph glyph-name="grave.sc" unicode="&#xe320;" horiz-adv-x="530" 
d="M156 631l54 86l164 -121l-32 -53z" />
    <glyph glyph-name="acute.sc" unicode="&#xe321;" horiz-adv-x="541" 
d="M162 594l167 123l50 -87l-185 -87z" />
    <glyph glyph-name="circumflex.sc" unicode="&#xe322;" horiz-adv-x="546" 
d="M128 590l145 132l145 -132l-40 -47l-105 69l-105 -69z" />
    <glyph glyph-name="caron.sc" unicode="&#xe323;" horiz-adv-x="538" 
d="M118 699h78l72 -67h2l72 67h78l-119 -148h-64z" />
    <glyph glyph-name="tilde.sc" unicode="&#xe324;" horiz-adv-x="549" 
d="M124 573q0 21 6 41t17.5 36t28.5 26t39 10q18 0 33 -5.5t27.5 -12t25 -12t26.5 -5.5q19 0 32 8t14 28l52 -19q-9 -49 -27.5 -79t-60.5 -30q-19 0 -34.5 6t-29 13.5t-27 13.5t-29.5 6q-17 0 -31 -12t-14 -30z" />
    <glyph glyph-name="dieresis.sc" unicode="&#xe325;" horiz-adv-x="561" 
d="M183 554q-30 0 -51.5 20t-21.5 49t21 50t51 21q29 0 50 -21t21 -50t-20.5 -49t-49.5 -20zM380 554q-30 0 -51 20t-21 49t20.5 50t50.5 21q29 0 50.5 -21t21.5 -50t-21 -49t-50 -20z" />
    <glyph glyph-name="macron.sc" unicode="&#xe326;" horiz-adv-x="520" 
d="M124 651h272v-83h-272v83z" />
    <glyph glyph-name="breve.sc" unicode="&#xe327;" horiz-adv-x="540" 
d="M269 547q-67 0 -106.5 38.5t-41.5 100.5h77q5 -31 24 -48t47 -17q62 0 73 65h76q-1 -31 -12 -56.5t-30.5 -44t-46.5 -28.5t-60 -10z" />
    <glyph glyph-name="ring.sc" unicode="&#xe328;" horiz-adv-x="477" 
d="M239 536q-23 0 -42.5 8.5t-33.5 22.5t-22 32.5t-8 39.5q0 20 8 38.5t22 32.5t33.5 22.5t42.5 8.5t42.5 -8.5t33.5 -22.5t21.5 -32.5t7.5 -38.5q0 -21 -8 -39.5t-22 -32.5t-33 -22.5t-42 -8.5zM239 590q20 0 33 13t13 36q0 19 -12.5 34t-33.5 15t-34 -14.5t-13 -34.5
q0 -21 13.5 -35t33.5 -14z" />
    <glyph glyph-name="hungarumlaut.sc" unicode="&#xe329;" horiz-adv-x="638" 
d="M241 705h114l-148 -149h-87zM404 705h114l-149 -149h-88z" />
    <glyph glyph-name="dotaccent.sc" unicode="&#xe32a;" horiz-adv-x="507" 
d="M253 554q-31 0 -51.5 21.5t-20.5 51.5q0 31 20.5 52.5t51.5 21.5t52 -21.5t21 -52.5q0 -30 -21 -51.5t-52 -21.5z" />
    <glyph glyph-name="uniF8FF" unicode="&#xf8ff;" horiz-adv-x="512" 
d="M222 117v67h56v-67h-56zM225 234l-2 17q0 56 13 81q7 13 18 27.5t28 31.5q16 15 26 26.5t15 21t7 18t2 17.5q0 36 -22.5 60.5t-53.5 24.5t-53.5 -22t-28.5 -73l-50 8q7 72 44 104.5t91 32.5t89 -35.5t35 -95.5q0 -32 -12.5 -58.5t-50.5 -61.5q-37 -33 -43 -52
q-6 -20 -6 -72h-46zM462 50v617h-412v-617h412zM512 718v-718h-512v718h512z" />
    </font>
</defs>
</svg>
