<?xml version="1.0" standalone="no"?>
<!DOCTYPE svg PUBLIC "-//W3C//DTD SVG 1.1//EN" "http://www.w3.org/Graphics/SVG/1.1/DTD/svg11.dtd" >
<svg>
<metadata>
Created by FontForge 20110222 at Thu Mar 13 09:57:53 2014
 By Orthosie Webhosting
Copyright (c) 2005 - 2006 Linotype GmbH, www.linotype.com. All rights reserved. This font software may not be reproduced, modified, disclosed or transferred without the express written approval of Linotype GmbH. Diverda is a trademark of Heidelberger Druckmaschinen AG, exclusively licensed through Linotype GmbH, and may be registered in certain jurisdictions. This typeface is original artwork of Daniel Lanz. The design may be protected in certain jurisdictions. 
</metadata>
<defs>
<font id="DiverdaSansComLight" horiz-adv-x="531" >
  <font-face 
    font-family="DiverdaSansComLight"
    font-weight="300"
    font-stretch="normal"
    units-per-em="1000"
    panose-1="2 0 3 3 6 0 0 2 0 3"
    ascent="694"
    descent="-306"
    x-height="434"
    cap-height="680"
    bbox="-149 -218 1036 902"
    underline-thickness="50"
    underline-position="-50"
    unicode-range="U+000D-FB04"
  />
<missing-glyph horiz-adv-x="512" 
d="M222 117v67h56v-67h-56zM225 234l-2 17q0 56 13 81q7 13 18 27.5t28 31.5q16 15 26 26.5t15 21t7 18t2 17.5q0 36 -22.5 60.5t-53.5 24.5t-53.5 -22t-28.5 -73l-50 8q7 72 44 104.5t91 32.5t89 -35.5t35 -95.5q0 -32 -12.5 -58.5t-50.5 -61.5q-37 -33 -43 -52
q-6 -20 -6 -72h-46zM462 50v617h-412v-617h412zM512 718v-718h-512v718h512z" />
    <glyph glyph-name="IJ" unicode="IJ" horiz-adv-x="515" 
d="M88 680h79v-680h-79v680zM285 -115q-26 0 -48 5q-11 2 -21 5l11 52q6 -3 14 -5q15 -5 39 -5q34 0 51 25.5t17 93.5v624h79v-606q0 -55 -10 -91.5t-28 -58t-44.5 -30.5t-59.5 -9z" />
    <glyph glyph-name="ij" unicode="ij" horiz-adv-x="504" 
d="M87 434h77v-434h-77v434zM127 533q-22 0 -37.5 15t-15.5 36q0 22 15.5 37t36.5 15t36.5 -15t15.5 -37q0 -21 -15.5 -36t-35.5 -15zM278 -218q-28 0 -48 5q-11 3 -20 6l12 50q6 -3 14 -5q15 -5 38 -5q33 0 49.5 26t16.5 94v481h76v-462q0 -55 -9 -91.5t-26.5 -58.5
t-43.5 -31t-59 -9zM379 533q-22 0 -37 15t-15 36q0 22 15 37t36 15q22 0 37 -15t15 -37q0 -21 -15 -36t-36 -15z" />
    <glyph glyph-name="napostrophe" unicode="&#x22;n" horiz-adv-x="538" 
d="M81 434h76v-60h2q26 33 64.5 53t87.5 20q22 0 49.5 -6t51.5 -22.5t40 -46.5t16 -79v-293h-78v284q0 63 -25 87.5t-78 24.5q-23 0 -43.5 -7t-37 -19t-29 -27t-19.5 -30v-313h-77v434zM102 576q-23 0 -37.5 14.5t-14.5 37.5t14.5 37.5t37.5 14.5q29 0 42 -19t13 -42
q0 -29 -14 -58t-48 -69l-39 10q17 19 30 39t18 33z" />
    <glyph glyph-name="f_t" unicode="ft" horiz-adv-x="615" 
d="M107 387h-74v47h74v130q0 56 33 93t95 37q29 0 52 -5.5t40 -13.5l-17 -49q-11 6 -27 10.5t-33 4.5q-34 0 -50.5 -19t-16.5 -50v-138h190v79l76 42v-121h129v-47h-129v-245q0 -31 2.5 -51t9 -32t17.5 -16.5t28 -4.5q24 0 39 5q8 2 15 5l11 -51q-11 -3 -22 -5
q-22 -5 -49 -5q-37 0 -61.5 9t-39 30t-20.5 54t-6 81v226h-190v-387h-76v387z" />
    <glyph glyph-name="f_h" unicode="fh" horiz-adv-x="849" 
d="M107 387h-74v47h74v92q0 49 15 81.5t40.5 51.5t60 27t74.5 8q24 0 49 -3t48 -8.5t42.5 -11.5t31.5 -12v-285h2q26 33 64 53t87 20q22 0 49.5 -6t51.5 -22.5t40.5 -46.5t16.5 -79v-293h-79v284q0 63 -25 87.5t-78 24.5q-23 0 -43.5 -7t-37 -19t-29 -27t-19.5 -30v-313h-76
v631q-13 5 -38 9.5t-44 4.5q-66 0 -96.5 -27.5t-30.5 -95.5v-88h130v-47h-130v-387h-76v387z" />
    <glyph glyph-name="f_j" unicode="fj" horiz-adv-x="528" 
d="M107 387h-74v47h74v90q0 52 17 85t43.5 52t59.5 26t65 7q48 0 90.5 -12.5t63.5 -25.5l-24 -48q-17 12 -47.5 23t-67.5 11q-24 0 -46.5 -4t-40 -16.5t-27.5 -36.5t-10 -63v-88h271v-462q0 -55 -9 -91.5t-26.5 -58.5t-43.5 -31t-59 -9q-28 0 -48 5q-11 3 -20 6l12 50
q6 -3 14 -5q15 -5 38 -5q33 0 49.5 26t16.5 94v434h-195v-387h-76v387z" />
    <glyph glyph-name="f_b" unicode="fb" horiz-adv-x="851" 
d="M107 387h-74v47h74v92q0 49 14.5 81.5t40 51.5t59.5 27t74 8q24 0 48.5 -3t47.5 -8.5t42 -11.5t31 -12v-278h2q23 29 60.5 47.5t79.5 18.5q38 0 74 -13t63.5 -40.5t44 -70t16.5 -100.5q0 -50 -16.5 -93t-45.5 -75t-69.5 -50t-88.5 -18q-46 0 -81.5 8t-61.5 18
q-30 11 -53 27v591q-13 5 -37 9.5t-43 4.5q-66 0 -95.5 -27.5t-29.5 -95.5v-88h130v-47h-130v-387h-76v387zM584 30q32 0 58 13.5t44.5 38.5t28.5 60t10 78q0 91 -34 134.5t-94 43.5q-45 0 -79 -21.5t-54 -54.5v-260q11 -9 28 -16q14 -6 37 -11t55 -5z" />
    <glyph glyph-name="f_k" unicode="fk" horiz-adv-x="775" 
d="M107 387h-74v47h74v92q0 49 15 81.5t40.5 51.5t60 27t74.5 8q24 0 49 -3t48 -8.5t42.5 -11.5t31.5 -12v-397h3l203 172h78l-220 -180l233 -254h-99l-195 220h-3v-220h-76v631q-13 5 -38 9.5t-44 4.5q-66 0 -96.5 -27.5t-30.5 -95.5v-88h130v-47h-130v-387h-76v387z" />
    <glyph glyph-name="f_f" unicode="ff" horiz-adv-x="603" 
d="M107 387h-74v47h74v90q0 52 17 85t43.5 52t59.5 26t65 7q38 0 73 -9t64 -23q14 14 38 23t51 9q35 0 56.5 -5.5t37.5 -13.5l-18 -49q-8 5 -22 10t-39 5q-30 0 -47.5 -18t-17.5 -49v-140h117v-47h-117v-387h-76v387h-209v-387h-76v387zM392 434v130q0 17 1.5 30.5t6.5 24.5
q-7 4 -33 13.5t-60 9.5q-24 0 -46.5 -4t-40 -16.5t-27.5 -36.5t-10 -63v-88h209z" />
    <glyph glyph-name="fi" unicode="fi" horiz-adv-x="528" 
d="M107 387h-74v47h74v90q0 52 17 85t43.5 52t59.5 26t65 7q48 0 90.5 -12.5t63.5 -25.5l-24 -48q-17 12 -47.5 23t-67.5 11q-24 0 -46.5 -4t-40 -16.5t-27.5 -36.5t-10 -63v-88h271v-434h-76v387h-195v-387h-76v387z" />
    <glyph glyph-name="fl" unicode="fl" horiz-adv-x="558" 
d="M107 387h-74v47h74v92q0 49 14.5 81.5t40 51.5t59.5 27t74 8q25 0 50.5 -3.5t48 -8.5t40.5 -11t30 -12v-553q0 -13 1 -25t4 -21.5t10 -15.5t19 -6q11 0 21 4l8 4l12 -46q-5 -3 -21.5 -8t-37.5 -5q-49 0 -70.5 34.5t-21.5 102.5v507q-13 5 -37 9.5t-43 4.5
q-66 0 -95.5 -27.5t-29.5 -95.5v-88h130v-47h-130v-387h-76v387z" />
    <glyph glyph-name="f_f_i" unicode="ffi" horiz-adv-x="820" 
d="M107 387h-74v47h74v90q0 52 17 85t43.5 52t59.5 26t65 7q48 0 89.5 -13.5t63.5 -26.5q28 23 63 31.5t70 8.5q48 0 90 -12.5t64 -25.5l-24 -48q-17 12 -47.5 23t-67.5 11q-25 0 -47.5 -4t-39.5 -16.5t-27 -36.5t-10 -63v-88h271v-434h-77v387h-194v-387h-76v387h-210v-387
h-76v387zM393 434v90q0 54 18 89q-17 11 -44.5 20t-59.5 9q-24 0 -46.5 -4t-40 -16.5t-27.5 -36.5t-10 -63v-88h210z" />
    <glyph glyph-name="f_f_l" unicode="ffl" horiz-adv-x="843" 
d="M393 434v90q0 54 18 89q-17 11 -44.5 20t-59.5 9q-24 0 -46.5 -4t-40 -16.5t-27.5 -36.5t-10 -63v-88h210zM107 387h-74v47h74v90q0 52 17 85t43.5 52t59.5 26t65 7q48 0 89.5 -13.5t63.5 -26.5q28 23 64.5 31.5t70.5 8.5q26 0 52 -3.5t49 -9t41 -11.5t28 -11v-553
q0 -26 5 -47t28 -21q12 0 22 4l8 4l11 -46q-5 -3 -21.5 -8t-36.5 -5q-50 0 -71.5 34.5t-21.5 102.5v507q-10 4 -32.5 9t-46.5 5q-62 0 -93.5 -27.5t-31.5 -95.5v-88h129v-47h-129v-387h-76v387h-210v-387h-76v387z" />
    <glyph glyph-name=".notdef" horiz-adv-x="512" 
d="M222 117v67h56v-67h-56zM225 234l-2 17q0 56 13 81q7 13 18 27.5t28 31.5q16 15 26 26.5t15 21t7 18t2 17.5q0 36 -22.5 60.5t-53.5 24.5t-53.5 -22t-28.5 -73l-50 8q7 72 44 104.5t91 32.5t89 -35.5t35 -95.5q0 -32 -12.5 -58.5t-50.5 -61.5q-37 -33 -43 -52
q-6 -20 -6 -72h-46zM462 50v617h-412v-617h412zM512 718v-718h-512v718h512z" />
    <glyph glyph-name=".null" horiz-adv-x="500" 
 />
    <glyph glyph-name="nonmarkingreturn" unicode="&#xd;" horiz-adv-x="0" 
 />
    <glyph glyph-name="space" unicode=" " horiz-adv-x="205" 
 />
    <glyph glyph-name="exclam" unicode="!" horiz-adv-x="272" 
d="M136 -13q-24 0 -40.5 16.5t-16.5 40.5q0 23 16.5 39.5t40.5 16.5q23 0 40 -16.5t17 -39.5q0 -24 -17 -40.5t-40 -16.5zM98 680h76v-511h-76v511z" />
    <glyph glyph-name="quotedbl" unicode="&#x22;" horiz-adv-x="299" 
d="M47 680h70l-10 -223h-52zM181 680h71l-9 -223h-52z" />
    <glyph glyph-name="numbersign" unicode="#" horiz-adv-x="564" 
d="M147 226h-91v55h100l19 148h-91v55h100l28 196h62l-27 -196h117l28 196h62l-28 -196h91v-55h-99l-20 -148h91v-55h-100l-29 -226h-63l30 226h-118l-30 -226h-63zM336 281l19 148h-117l-19 -148h117z" />
    <glyph glyph-name="dollar" unicode="$" horiz-adv-x="540" 
d="M248 -12q-42 2 -76 13.5t-59.5 26.5t-42 30t-23.5 25l43 40q3 -5 14.5 -17.5t31.5 -26t48 -25t64 -14.5v290q-32 15 -63.5 31.5t-56.5 39.5t-40 54.5t-15 75.5q0 37 14.5 66.5t38.5 49.5t55.5 31.5t66.5 14.5v54h44v-54q33 -3 59.5 -10.5t46.5 -17.5t33 -19t19 -15
l-44 -38q-19 18 -44 33t-70 18v-238q35 -15 70.5 -31.5t63.5 -41t45.5 -59t17.5 -83.5q0 -36 -12.5 -70.5t-37.5 -62.5t-62 -46.5t-85 -22.5v-62h-44v61zM410 172q0 27 -9.5 47.5t-25.5 37t-37.5 29.5t-45.5 25v-270q56 7 87 42t31 89zM140 547q0 -23 8.5 -41t23 -32.5
t34 -26t42.5 -21.5v217q-20 -3 -39.5 -9.5t-34.5 -18.5t-24.5 -29t-9.5 -39z" />
    <glyph glyph-name="percent" unicode="%" horiz-adv-x="735" 
d="M539 682l51 -30l-404 -682l-51 30zM193 348q-33 0 -60 12t-46 33.5t-29.5 52t-10.5 67.5q0 76 40 121.5t106 45.5t106.5 -45.5t40.5 -120.5t-40.5 -120.5t-106.5 -45.5zM192 391q47 0 62.5 32t15.5 90q0 56 -16.5 90t-60.5 34q-48 0 -63 -33t-15 -91q0 -54 16.5 -88
t60.5 -34zM541 -13q-33 0 -59.5 12t-46 33.5t-30 52t-10.5 68.5q0 75 40.5 120t106.5 45t106 -45t40 -120t-40 -120.5t-107 -45.5zM540 30q48 0 63.5 31.5t15.5 91.5q0 54 -17 88t-61 34q-47 0 -62 -32.5t-15 -89.5q0 -56 16 -89.5t60 -33.5z" />
    <glyph glyph-name="ampersand" unicode="&#x26;" horiz-adv-x="620" 
d="M293 -13q-52 0 -96 14t-75.5 41.5t-49.5 67t-18 90.5q0 33 12.5 63.5t33 53.5t46.5 37.5t53 16.5v2q-14 4 -29 14.5t-27.5 26.5t-20.5 37.5t-8 48.5q0 34 12.5 60.5t34 44.5t50.5 27.5t62 9.5q51 0 80.5 -14.5t44.5 -34.5l-38 -36q-14 23 -35 32t-49 9q-45 0 -68 -26
t-23 -72q0 -20 4.5 -39t15.5 -34.5t29.5 -25.5t45.5 -12v-46q-72 0 -107.5 -39.5t-35.5 -103.5q0 -44 13.5 -75t36 -51t50 -29t56.5 -9q73 0 116.5 47t43.5 147q0 35 -3 61.5t-8 51.5h-106v46h257v-46h-71q3 -23 5 -45t2 -51q0 -54 -14.5 -101.5t-44 -83t-73.5 -55.5
t-104 -20z" />
    <glyph glyph-name="quotesingle" unicode="'" horiz-adv-x="164" 
d="M47 680h70l-9 -223h-52z" />
    <glyph glyph-name="parenleft" unicode="(" horiz-adv-x="259" 
d="M187 -145q-66 92 -101 194t-35 210q0 115 35.5 215t100.5 188l44 -33q-27 -37 -46 -82t-30.5 -93.5t-17 -98.5t-5.5 -96q0 -103 23 -197.5t75 -175.5z" />
    <glyph glyph-name="parenright" unicode=")" horiz-adv-x="259" 
d="M29 -114q52 81 75 175.5t23 197.5q0 46 -5.5 96t-17 98.5t-30.5 93.5t-46 82l44 33q64 -88 99.5 -188t35.5 -215q0 -108 -34.5 -210t-100.5 -194z" />
    <glyph glyph-name="asterisk" unicode="*" horiz-adv-x="448" 
d="M252 541l132 45l18 -54l-131 -45l82 -110l-45 -36l-84 115l-81 -115l-46 36l81 110l-131 45l17 54l132 -45v139h56v-139z" />
    <glyph glyph-name="plus" unicode="+" horiz-adv-x="521" 
d="M231 233h-184v55h184v185h59v-185h184v-55h-184v-190h-59v190z" />
    <glyph glyph-name="comma" unicode="," horiz-adv-x="211" 
d="M105 -13q-25 0 -41.5 16t-16.5 42q0 25 16.5 41t41.5 16q32 0 46 -20.5t14 -46.5q0 -32 -15 -64t-53 -77l-43 11q19 21 33.5 43.5t19.5 36.5z" />
    <glyph glyph-name="hyphen" unicode="-" horiz-adv-x="340" 
d="M47 288h246v-55h-246v55z" />
    <glyph glyph-name="period" unicode="." horiz-adv-x="210" 
d="M105 -13q-25 0 -41.5 16.5t-16.5 42.5q0 25 16.5 41.5t41.5 16.5q26 0 42.5 -16.5t16.5 -41.5q0 -26 -16.5 -42.5t-42.5 -16.5z" />
    <glyph glyph-name="slash" unicode="/" horiz-adv-x="366" 
d="M299 679l58 -22l-280 -697l-58 23z" />
    <glyph glyph-name="zero" unicode="0" horiz-adv-x="512" 
d="M256 -13q-45 0 -82.5 17t-64.5 56t-42.5 101t-15.5 152q0 88 16.5 150.5t44.5 102t65.5 57.5t79.5 18q37 0 73.5 -15t65.5 -52.5t47.5 -100.5t18.5 -159q0 -89 -15 -151t-42 -101t-65 -57t-84 -18zM255 36q31 0 54.5 12t39 42.5t23 84.5t7.5 138q0 76 -8.5 129
t-24.5 86.5t-39 48.5t-51 15q-59 0 -90.5 -67t-31.5 -212q0 -78 9 -131.5t25 -85.5t38.5 -46t48.5 -14z" />
    <glyph glyph-name="one" unicode="1" horiz-adv-x="512" 
d="M130 48h111v501l-2 1l-119 -85l-29 43l169 120h57v-580h104v-48h-291v48z" />
    <glyph glyph-name="two" unicode="2" horiz-adv-x="512" 
d="M288 369q18 29 32.5 59t14.5 66q0 20 -5 38t-16.5 32t-29 22.5t-42.5 8.5q-27 0 -46 -9t-32 -20.5t-20 -23.5t-10 -18l-49 24q7 13 19.5 29.5t32 30.5t46.5 23.5t64 9.5q75 0 119 -38t44 -107q0 -47 -15 -80.5t-35 -65.5l-182 -298v-2h261v-50h-379z" />
    <glyph glyph-name="three" unicode="3" horiz-adv-x="512" 
d="M209 -13q-52 0 -81.5 8t-46.5 18l23 46q15 -11 42 -18.5t63 -7.5q62 0 97.5 39.5t35.5 112.5q0 37 -13.5 62.5t-38 41t-59 22t-77.5 6.5v45q39 0 71 12.5t54.5 31.5t35 43t12.5 48q0 45 -23 71.5t-71 26.5q-25 0 -43.5 -7.5t-31.5 -18.5t-21 -23.5t-12 -21.5l-50 24
q7 13 19 29.5t31.5 30.5t46.5 23.5t65 9.5q82 0 123 -38t41 -104q0 -29 -11.5 -54t-29.5 -45t-40.5 -33t-43.5 -17v-2q29 -1 56 -13.5t47.5 -33.5t33 -50t12.5 -62q0 -94 -56.5 -148t-159.5 -54z" />
    <glyph glyph-name="four" unicode="4" horiz-adv-x="512" 
d="M297 195h-278l287 433h70v-382h95v-51h-95v-195h-79v195zM297 514h-2l-180 -268h182v268z" />
    <glyph glyph-name="five" unicode="5" horiz-adv-x="512" 
d="M214 -13q-56 0 -85.5 9t-42.5 17l23 46q15 -11 43.5 -18.5t61.5 -7.5q34 0 59.5 14.5t42 38.5t25 54t8.5 61q0 59 -39.5 94t-120.5 37l-90 2l19 294h272v-48h-197l-13 -206h82q37 0 68 -10t54 -31t36 -53.5t13 -76.5q0 -59 -19.5 -100.5t-50.5 -67t-70.5 -37t-78.5 -11.5
z" />
    <glyph glyph-name="six" unicode="6" horiz-adv-x="512" 
d="M270 -13q-54 0 -92.5 23.5t-63.5 64.5t-37 96t-12 118q0 70 11.5 134t39 112.5t73.5 77t115 28.5q43 0 73.5 -13t41.5 -22l-27 -40q-9 9 -29.5 20.5t-59.5 11.5q-51 0 -81.5 -25.5t-46 -62t-20.5 -76.5t-5 -69h2q18 26 54.5 42t72.5 16q33 0 64.5 -9.5t56 -33.5t40 -64
t15.5 -101q0 -56 -15.5 -99t-41 -71.5t-59 -43t-69.5 -14.5zM269 33q27 0 47 14.5t33.5 39t20 57.5t6.5 71q0 33 -5.5 61.5t-18 49.5t-34 33.5t-52.5 12.5q-40 0 -72 -18t-46 -53v-1q0 -40 2.5 -87t14.5 -87t36 -66.5t68 -26.5z" />
    <glyph glyph-name="seven" unicode="7" horiz-adv-x="512" 
d="M345 573h-266v55h371l-230 -628h-84z" />
    <glyph glyph-name="eight" unicode="8" horiz-adv-x="512" 
d="M267 383q18 10 33.5 20t27.5 23t19 30.5t7 42.5q0 45 -24.5 71t-74.5 26q-47 0 -73 -25.5t-26 -67.5q0 -23 11.5 -41.5t28.5 -33t36.5 -26t34.5 -19.5zM252 33q33 0 56.5 11t38.5 29t22.5 42.5t7.5 51.5q0 30 -11.5 51.5t-31.5 39t-46 32.5t-56 30q-31 -17 -52 -32
t-34 -32t-19 -37.5t-6 -48.5q0 -11 4.5 -34t18.5 -46t39.5 -40t68.5 -17zM252 -13q-55 0 -92 19t-59 47t-31.5 60t-9.5 58q0 38 11.5 66.5t29 49t39.5 34.5t43 24v2q-46 26 -68.5 64.5t-22.5 88.5q0 28 11 54t31.5 45t50 30.5t67.5 11.5q30 0 58.5 -8t51 -24.5t36.5 -43
t14 -63.5q0 -52 -25.5 -85t-67.5 -57v-2q71 -35 102 -76t31 -108q0 -38 -14 -72t-40 -59.5t-63 -40.5t-83 -15z" />
    <glyph glyph-name="nine" unicode="9" horiz-adv-x="512" 
d="M250 249q39 0 69.5 20.5t45.5 57.5q0 49 -2 97t-13.5 86t-35.5 61t-67 23q-29 0 -50 -13.5t-34 -36.5t-19 -55.5t-6 -69.5q0 -91 31.5 -130.5t80.5 -39.5zM208 -13q-45 0 -74.5 10t-39.5 16l23 46q12 -9 36.5 -17.5t57.5 -8.5q42 0 70.5 17t46 47t26 71t10.5 89h-2
q-8 -14 -21 -25t-29 -19t-33.5 -12.5t-33.5 -4.5q-38 0 -71.5 13t-59 40.5t-40.5 69.5t-15 100q0 49 14 89.5t39.5 70t60.5 46t76 16.5q45 0 81.5 -17t62 -53t39.5 -92t14 -134q0 -81 -12 -147t-39.5 -113t-73.5 -72.5t-113 -25.5z" />
    <glyph glyph-name="colon" unicode=":" horiz-adv-x="247" 
d="M124 -13q-26 0 -42.5 16.5t-16.5 42.5q0 25 16.5 41.5t42.5 16.5q25 0 41.5 -16.5t16.5 -41.5q0 -26 -16.5 -42.5t-41.5 -16.5zM124 330q-26 0 -42.5 16.5t-16.5 42.5q0 25 16.5 41.5t42.5 16.5q25 0 41.5 -16.5t16.5 -41.5q0 -26 -16.5 -42.5t-41.5 -16.5z" />
    <glyph glyph-name="semicolon" unicode=";" horiz-adv-x="248" 
d="M124 -13q-26 0 -42.5 16t-16.5 42q0 25 16.5 41t42.5 16q32 0 45.5 -20.5t13.5 -46.5q0 -32 -15 -64t-53 -77l-42 11q19 21 33.5 43.5t19.5 36.5zM124 330q-26 0 -42.5 16.5t-16.5 42.5q0 25 16.5 41.5t42.5 16.5q25 0 41.5 -16.5t16.5 -41.5q0 -26 -16.5 -42.5
t-41.5 -16.5z" />
    <glyph glyph-name="less" unicode="&#x3c;" horiz-adv-x="619" 
d="M46 233v63l485 212l23 -48l-402 -192v-3l402 -198l-23 -47z" />
    <glyph glyph-name="equal" unicode="=" horiz-adv-x="540" 
d="M56 212h428v-54h-428v54zM56 358h428v-54h-428v54z" />
    <glyph glyph-name="greater" unicode="&#x3e;" horiz-adv-x="620" 
d="M65 67l403 198v3l-403 192l23 48l486 -212v-63l-486 -213z" />
    <glyph glyph-name="question" unicode="?" horiz-adv-x="465" 
d="M219 -12q-24 0 -40.5 17t-16.5 40t16.5 40t40.5 17q23 0 39.5 -17t16.5 -40t-16.5 -40t-39.5 -17zM176 231q0 40 12.5 69.5t31 53t40 43.5t40 41t31 45t12.5 57q0 54 -31.5 79.5t-79.5 25.5q-32 0 -55 -8t-39 -20t-26 -26.5t-16 -27.5l-48 30q23 45 67.5 73t116.5 28
q40 0 73.5 -10t57.5 -30t37.5 -50t13.5 -71q0 -38 -11.5 -67t-29 -52.5t-38 -43.5t-38 -40t-29 -43t-11.5 -51v-67h-81v62z" />
    <glyph glyph-name="at" unicode="@" horiz-adv-x="863" 
d="M452 -198q-85 0 -159 31.5t-128.5 85.5t-86 127.5t-31.5 157.5t32 157.5t87 128t129 86t157 31.5q74 0 140 -24.5t116 -68t79.5 -104t29.5 -133.5q0 -72 -20 -126.5t-52 -91t-72 -54.5t-80 -18q-35 0 -60 19.5t-30 53.5h-2q-15 -28 -48 -50.5t-74 -22.5q-30 0 -59 10.5
t-51 31.5t-35.5 53t-13.5 75q0 53 18.5 105t52.5 93t82 66.5t108 25.5q45 0 77 -7.5t67 -18.5q-6 -38 -15 -94.5t-17 -109.5q-10 -62 -19 -128q-1 -5 -1.5 -8.5t-0.5 -7.5q0 -17 9 -29t28 -12q28 0 54 20t46 53.5t32 77t12 90.5q0 65 -25.5 118t-67.5 90.5t-96 57.5t-112 20
q-72 0 -134.5 -29t-108.5 -77.5t-72.5 -113t-26.5 -135.5q0 -75 27.5 -138.5t74.5 -110.5t109 -73.5t131 -26.5q91 0 161.5 32.5t119.5 89.5l37 -37q-119 -138 -318 -138zM393 42q25 0 43 8t31 20t21 26.5t13 26.5l44 270q-8 5 -24 9t-45 4q-38 0 -69.5 -20.5t-54 -54.5
t-35.5 -77t-13 -89q0 -69 23 -96t66 -27z" />
    <glyph glyph-name="A" unicode="A" horiz-adv-x="626" 
d="M287 680h50l270 -680h-90l-78 207h-278l-80 -207h-62zM420 256l-120 312h-1l-119 -312h240z" />
    <glyph glyph-name="B" unicode="B" horiz-adv-x="556" 
d="M88 680h199q54 0 91.5 -12.5t60.5 -34.5t33.5 -50.5t10.5 -61.5q0 -30 -9 -54.5t-23 -44t-32 -32.5t-37 -19v-2q21 -5 43.5 -17t41.5 -32.5t31 -51t12 -72.5q0 -91 -57 -143.5t-163 -52.5h-202v680zM281 51q42 0 70.5 12t46 32.5t25 46.5t7.5 54q0 39 -10 65.5t-29 43
t-45 23.5t-59 7l-120 -1v-282zM274 385q64 0 97.5 33t33.5 103q0 48 -30.5 80t-96.5 32l-111 -1v-247h107z" />
    <glyph glyph-name="C" unicode="C" horiz-adv-x="662" 
d="M373 -13q-75 0 -135 29t-102.5 77.5t-65.5 112.5t-23 134q0 92 28.5 158.5t75 110t105.5 64.5t119 21q50 0 87 -7.5t64 -19.5t45.5 -27t33.5 -29l-53 -43q-7 10 -20.5 23.5t-34.5 24.5t-50 19t-67 8q-51 0 -95.5 -19.5t-77 -57.5t-51.5 -94.5t-19 -131.5q0 -66 17.5 -121
t49 -95t76.5 -62.5t100 -22.5q43 0 75.5 9.5t56.5 23.5t39 29t23 26l46 -39q-17 -18 -38 -36t-50 -32.5t-68 -23.5t-91 -9z" />
    <glyph glyph-name="D" unicode="D" horiz-adv-x="695" 
d="M88 680h205q99 0 167 -29t110 -75.5t60 -106.5t18 -121q0 -78 -23.5 -142t-69.5 -109.5t-114 -71t-157 -25.5h-196v680zM274 54q79 0 133.5 22t88.5 61.5t49.5 93.5t15.5 117q0 53 -15.5 104t-48.5 90.5t-85.5 63.5t-127.5 24l-117 -1v-574z" />
    <glyph glyph-name="E" unicode="E" horiz-adv-x="524" 
d="M88 680h369v-53h-290v-242h253v-53h-253v-277h301v-55h-380v680z" />
    <glyph glyph-name="F" unicode="F" horiz-adv-x="491" 
d="M88 680h371v-53h-292v-242h256v-53h-256v-332h-79v680z" />
    <glyph glyph-name="G" unicode="G" horiz-adv-x="692" 
d="M386 -13q-69 0 -130.5 24t-108 69.5t-73.5 111t-27 148.5q0 89 28.5 155.5t75 110.5t107 66t124.5 22q55 0 93.5 -8.5t66 -21t45.5 -26.5t32 -26l-54 -43q-3 3 -14.5 15t-33.5 25t-55.5 23.5t-79.5 10.5q-50 0 -94.5 -21t-77.5 -60t-52.5 -95.5t-19.5 -126.5
q0 -68 19 -123.5t52.5 -95t79.5 -61t99 -21.5q68 0 106 13.5t48 22.5v258h80v-281q-10 -8 -30 -19t-50 -21.5t-69 -17.5t-87 -7z" />
    <glyph glyph-name="H" unicode="H" horiz-adv-x="670" 
d="M88 680h79v-295h336v295h79v-680h-79v332h-336v-332h-79v680z" />
    <glyph glyph-name="I" unicode="I" horiz-adv-x="255" 
d="M88 680h79v-680h-79v680z" />
    <glyph glyph-name="J" unicode="J" horiz-adv-x="286" 
d="M56 -115q-26 0 -48 5q-11 2 -21 5l11 52q6 -3 14 -5q15 -5 39 -5q34 0 51 25.5t17 93.5v624h79v-606q0 -55 -10 -91.5t-28 -58t-44.5 -30.5t-59.5 -9z" />
    <glyph glyph-name="K" unicode="K" horiz-adv-x="589" 
d="M88 680h79v-295h3l296 295h79l-310 -303l340 -377h-109l-296 340h-3v-340h-79v680z" />
    <glyph glyph-name="L" unicode="L" horiz-adv-x="476" 
d="M88 680h79v-625h291v-55h-370v680z" />
    <glyph glyph-name="M" unicode="M" horiz-adv-x="809" 
d="M117 680h98l187 -542h2l188 542h93l43 -680h-80l-32 577h-2l-200 -577h-43l-202 577h-2l-27 -577h-59z" />
    <glyph glyph-name="N" unicode="N" horiz-adv-x="669" 
d="M88 680h86l344 -553h2v553h61v-680h-74l-356 570h-2v-570h-61v680z" />
    <glyph glyph-name="O" unicode="O" horiz-adv-x="763" 
d="M381 -13q-76 0 -137.5 29t-105 77.5t-67.5 112.5t-24 134q0 80 25.5 145.5t70.5 112t106 71.5t132 25q75 0 137 -26t106 -72.5t68 -111.5t24 -144t-26 -144t-71.5 -111.5t-106.5 -72t-131 -25.5zM381 40q54 0 99.5 20.5t78.5 59.5t51.5 94.5t18.5 125.5q0 66 -18.5 121.5
t-51.5 95.5t-78.5 62.5t-99.5 22.5t-99.5 -21t-78 -60t-51 -95t-18.5 -126q0 -68 19 -123.5t52 -94.5t78 -60.5t98 -21.5z" />
    <glyph glyph-name="P" unicode="P" horiz-adv-x="530" 
d="M88 680h194q61 0 100.5 -16t62.5 -41.5t31.5 -57.5t8.5 -63q0 -30 -11.5 -63.5t-36 -61.5t-62 -46t-88.5 -18h-120v-313h-79v680zM277 366q36 0 60.5 11.5t39.5 30.5t22 43t7 50q0 27 -6 51t-21 42t-40.5 28.5t-65.5 10.5l-106 -1v-265z" />
    <glyph glyph-name="Q" unicode="Q" horiz-adv-x="767" 
d="M394 -13q-73 0 -136.5 25t-110 71t-73.5 111t-27 146q0 90 29.5 156.5t77 110.5t107 65.5t120.5 21.5q64 0 124.5 -22t107 -66t75 -110.5t28.5 -155.5q0 -83 -24.5 -141t-57 -94.5t-65.5 -55.5t-49 -24v-2q41 -9 77 -16q31 -6 62 -11t48 -5l-17 -51q-9 1 -40.5 8.5
t-74 16t-91 15.5t-90.5 7zM384 40q56 0 101.5 20.5t77.5 59.5t49 94.5t17 125.5q0 69 -18 124.5t-51 95t-78.5 61t-100.5 21.5q-50 0 -95 -18.5t-79 -56t-53.5 -94.5t-19.5 -133q0 -73 19 -129t52.5 -94t79 -57.5t99.5 -19.5z" />
    <glyph glyph-name="R" unicode="R" horiz-adv-x="582" 
d="M88 680h195q63 0 101.5 -17t60 -43t28.5 -56t7 -55q0 -38 -12 -69t-32 -54.5t-47 -38.5t-58 -20l223 -327h-100l-208 322h-79v-322h-79v680zM268 372h2q56 0 94 33t38 104q0 55 -29.5 89.5t-99.5 34.5l-106 -1v-259z" />
    <glyph glyph-name="S" unicode="S" 
d="M259 -13q-45 0 -81 11t-62.5 26.5t-44 32t-24.5 26.5l43 40q3 -5 15.5 -18.5t33.5 -27.5t51.5 -25.5t69.5 -11.5q68 0 104.5 35.5t36.5 96.5q0 45 -24.5 73.5t-60.5 49t-79 39t-79 43t-60.5 61t-24.5 93.5q0 40 16 71t42.5 51t61 30.5t72.5 10.5q39 0 68.5 -7.5t51 -17.5
t35.5 -21t21 -17l-45 -38q-4 4 -14.5 13t-27 17.5t-38.5 15t-48 6.5q-23 0 -46 -5.5t-41 -17.5t-29.5 -30.5t-11.5 -44.5q0 -42 25 -67.5t63 -45t82 -37t82 -43t63 -64t25 -99.5q0 -39 -14 -75.5t-41.5 -65t-69 -46t-96.5 -17.5z" />
    <glyph glyph-name="T" unicode="T" horiz-adv-x="495" 
d="M208 627h-199v53h477v-53h-199v-627h-79v627z" />
    <glyph glyph-name="U" unicode="U" horiz-adv-x="651" 
d="M323 -13q-46 0 -89.5 12.5t-78 41t-55.5 74t-21 110.5v455h79v-473q0 -50 17.5 -82.5t43 -51.5t54.5 -26.5t53 -7.5q37 0 70.5 9.5t58.5 30.5t39.5 53t14.5 77v471h63v-452q0 -72 -21 -118.5t-56 -73.5t-80 -38t-92 -11z" />
    <glyph glyph-name="V" unicode="V" horiz-adv-x="620" 
d="M19 680h89l213 -565h2l217 565h62l-267 -680h-49z" />
    <glyph glyph-name="W" unicode="W" horiz-adv-x="904" 
d="M19 680h90l157 -555h2l165 555h64l157 -555h3l163 555h66l-213 -680h-59l-161 551h-2l-165 -551h-57z" />
    <glyph glyph-name="X" unicode="X" horiz-adv-x="596" 
d="M250 352l-212 328h98l164 -263h2l169 263h69l-206 -310l239 -370h-98l-189 301h-3l-194 -301h-66z" />
    <glyph glyph-name="Y" unicode="Y" horiz-adv-x="571" 
d="M247 323l-228 357h92l186 -303h2l190 303h64l-227 -352v-328h-79v323z" />
    <glyph glyph-name="Z" unicode="Z" horiz-adv-x="580" 
d="M403 625v2h-316v53h441l-374 -622v-2h384v-56h-505z" />
    <glyph glyph-name="bracketleft" unicode="[" horiz-adv-x="260" 
d="M79 694h154v-51h-82v-724h82v-51h-154v826z" />
    <glyph glyph-name="backslash" unicode="\" horiz-adv-x="366" 
d="M9 657l59 22l280 -696l-59 -23z" />
    <glyph glyph-name="bracketright" unicode="]" horiz-adv-x="260" 
d="M28 -81h82v724h-82v51h153v-826h-153v51z" />
    <glyph glyph-name="asciicircum" unicode="^" horiz-adv-x="564" 
d="M254 680h56l207 -403h-77l-157 343h-2l-157 -343h-77z" />
    <glyph glyph-name="underscore" unicode="_" horiz-adv-x="465" 
d="M0 -74h465v-52h-465v52z" />
    <glyph glyph-name="grave" unicode="`" horiz-adv-x="514" 
d="M170 610l44 56l130 -111l-24 -31z" />
    <glyph glyph-name="a" unicode="a" horiz-adv-x="488" 
d="M198 -13q-67 0 -109 36t-42 105q0 27 10 50.5t31 41.5t54 29t78 13l121 5v15q0 65 -24.5 92t-80.5 27q-40 0 -63 -18.5t-34 -41.5l-50 36q23 30 57.5 50t96.5 20q85 0 130 -39.5t45 -120.5v-287h-74l-2 61h-2q-10 -13 -25 -26.5t-33 -24t-39.5 -17t-44.5 -6.5zM209 39
q28 0 50 7.5t38.5 19.5t27 26.5t16.5 28.5v101l-93 -4q-26 -2 -48 -6.5t-38.5 -15t-26 -27.5t-9.5 -42q0 -39 20.5 -63.5t62.5 -24.5z" />
    <glyph glyph-name="b" unicode="b" horiz-adv-x="537" 
d="M271 -13q-46 0 -82 8t-62 18q-30 11 -53 27v654h77v-313h2q23 29 60.5 47.5t79.5 18.5q38 0 73.5 -13t63 -40.5t44 -70t16.5 -100.5q0 -50 -16.5 -93t-45.5 -75t-69 -50t-88 -18zM271 30q31 0 57 13.5t44.5 38.5t28.5 60t10 78q0 91 -33.5 134.5t-93.5 43.5
q-46 0 -79.5 -21.5t-53.5 -54.5v-260q10 -9 27 -16q14 -6 37 -11t56 -5z" />
    <glyph glyph-name="c" unicode="c" horiz-adv-x="477" 
d="M262 -13q-45 0 -84 17t-68 47.5t-46 72.5t-17 93q0 54 16.5 97t45.5 72.5t68.5 45t86.5 15.5q31 0 57.5 -7t47.5 -17.5t36 -24t23 -25.5l-48 -40q-3 6 -10.5 17.5t-21 23t-33.5 19.5t-48 8q-66 0 -102 -49.5t-36 -134.5q0 -35 7.5 -67.5t24.5 -57.5t43.5 -40.5
t64.5 -15.5q50 0 78.5 19t42.5 45l41 -29q-20 -35 -61.5 -59.5t-107.5 -24.5z" />
    <glyph glyph-name="d" unicode="d" horiz-adv-x="553" 
d="M252 -13q-44 0 -81.5 18t-65 49.5t-43 74t-15.5 91.5q0 48 15 89t42.5 72t65.5 48.5t85 17.5q48 0 85.5 -18t55.5 -44h2v309h76v-694h-73l-2 61h-2q-22 -32 -61 -53t-84 -21zM268 37q43 0 75.5 19.5t54.5 64.5v202q-7 15 -18.5 29t-28 25t-38 18t-47.5 7q-65 0 -102 -49
t-37 -132q0 -41 10.5 -75t29 -58t44.5 -37.5t57 -13.5z" />
    <glyph glyph-name="e" unicode="e" horiz-adv-x="507" 
d="M268 -13q-48 0 -89 17.5t-70 48t-45.5 73t-16.5 93.5q0 53 17 95.5t46.5 72t68 45t80.5 15.5q43 0 80 -15.5t64 -43.5t42 -67.5t15 -86.5v-20h-331q0 -39 10.5 -72t28.5 -56.5t42.5 -36.5t53.5 -13q37 0 62 9.5t40 21.5t21 22.5t7 13.5l44 -27q-3 -7 -13.5 -21.5
t-31 -29.5t-51.5 -26.5t-74 -11.5zM380 263q0 28 -7.5 53t-22.5 43.5t-38 29.5t-53 11q-29 0 -51.5 -12t-38 -31.5t-24.5 -44t-11 -49.5h246z" />
    <glyph glyph-name="f" unicode="f" horiz-adv-x="300" 
d="M98 387h-65v47h65v130q0 56 30 93t92 37q35 0 53.5 -5.5t35.5 -13.5l-18 -49q-8 5 -23 10t-35 5q-5 0 -15 -2t-19.5 -9t-17 -20.5t-7.5 -35.5v-140h108v-47h-108v-387h-76v387z" />
    <glyph glyph-name="g" unicode="g" horiz-adv-x="538" 
d="M256 -218q-60 0 -105 20.5t-68 54.5l39 38q20 -29 55 -45.5t76 -16.5q28 0 52.5 5t42.5 20t28.5 42.5t10.5 72.5v84h-2q-16 -25 -50.5 -47.5t-87.5 -22.5q-45 0 -81.5 16.5t-63 47.5t-41 73.5t-14.5 95.5q0 52 17 94t48.5 71.5t76.5 45.5t101 16q60 0 104 -9t69 -18v-438
q0 -200 -207 -200zM260 39q51 0 83 24.5t44 54.5v275q-3 0 -8 1.5t-15.5 4t-28 4t-44.5 1.5q-81 0 -121.5 -48t-40.5 -136q0 -38 8.5 -71t25 -57.5t41 -38.5t56.5 -14z" />
    <glyph glyph-name="h" unicode="h" 
d="M74 694h77v-320h2q26 33 64 53t87 20q22 0 49.5 -6t51.5 -22.5t40 -46.5t16 -79v-293h-78v284q0 63 -25 87.5t-78 24.5q-23 0 -43.5 -7t-37 -19t-29 -27t-19.5 -30v-313h-77v694z" />
    <glyph glyph-name="i" unicode="i" horiz-adv-x="248" 
d="M85 434h77v-434h-77v434zM125 533q-22 0 -37.5 15t-15.5 36q0 22 15.5 37t36.5 15t36.5 -15t15.5 -37q0 -21 -15.5 -36t-35.5 -15z" />
    <glyph glyph-name="j" unicode="j" horiz-adv-x="256" 
d="M32 -218q-28 0 -48 5q-11 3 -20 6l12 50q6 -3 14 -5q15 -5 38 -5q33 0 49.5 26t16.5 94v481h76v-462q0 -55 -9 -91.5t-26.5 -58.5t-43.5 -31t-59 -9zM133 533q-22 0 -37 15t-15 36q0 22 15 37t36 15q22 0 37 -15t15 -37q0 -21 -15 -36t-36 -15z" />
    <glyph glyph-name="k" unicode="k" horiz-adv-x="457" 
d="M74 694h77v-432h2l204 172h77l-219 -180l232 -254h-98l-196 220h-2v-220h-77v694z" />
    <glyph glyph-name="l" unicode="l" horiz-adv-x="244" 
d="M167 -13q-50 0 -71.5 34.5t-21.5 102.5v570h77v-588q0 -26 5 -47t28 -21q12 0 22 4l8 4l11 -46q-5 -3 -21.5 -8t-36.5 -5z" />
    <glyph glyph-name="m" unicode="m" horiz-adv-x="779" 
d="M74 434h76v-60h2q18 31 52 52t74 21q104 0 134 -74h2q19 34 57.5 54t81.5 20q78 0 117 -39.5t39 -114.5v-293h-78v282q0 63 -24.5 89t-71.5 26q-42 0 -69.5 -19.5t-39.5 -45.5q2 -7 3 -19.5t1 -21.5v-291h-78v282q0 60 -20 88.5t-71 28.5q-20 0 -37.5 -7.5t-32 -19.5
t-24.5 -27.5t-16 -31.5v-313h-77v434z" />
    <glyph glyph-name="n" unicode="n" 
d="M74 434h76v-60h2q26 33 64.5 53t87.5 20q22 0 49.5 -6t51.5 -22.5t40 -46.5t16 -79v-293h-78v284q0 63 -25 87.5t-78 24.5q-23 0 -43.5 -7t-37 -19t-29 -27t-19.5 -30v-313h-77v434z" />
    <glyph glyph-name="o" unicode="o" horiz-adv-x="537" 
d="M268 -13q-46 0 -86 16.5t-70 46.5t-47.5 72.5t-17.5 94.5t17.5 94.5t47.5 72.5t70.5 46.5t86.5 16.5t86 -16.5t70 -46.5t47.5 -72t17.5 -94q0 -53 -17.5 -95.5t-47.5 -72.5t-70.5 -46.5t-86.5 -16.5zM267 33q33 0 59 13.5t44.5 38t28.5 58t10 74.5q0 38 -10.5 71.5
t-29.5 58.5t-44.5 39.5t-56.5 14.5q-33 0 -59 -14t-44.5 -38.5t-28 -58t-9.5 -73.5q0 -38 10.5 -71.5t29 -58.5t44 -39.5t56.5 -14.5z" />
    <glyph glyph-name="p" unicode="p" horiz-adv-x="549" 
d="M74 434h76v-54h2q18 26 57.5 46.5t88.5 20.5q46 0 84 -16t64.5 -46t41 -72t14.5 -93q0 -49 -15.5 -91.5t-42.5 -74t-64.5 -49.5t-81.5 -18q-45 0 -83.5 17.5t-61.5 46.5h-2v-259h-77v642zM281 37q62 0 101.5 45.5t39.5 138.5q0 83 -35 132t-100 49q-26 0 -48 -7.5
t-39.5 -19.5t-30 -27t-18.5 -30v-207q21 -36 55 -55t75 -19z" />
    <glyph glyph-name="q" unicode="q" horiz-adv-x="538" 
d="M247 -13q-45 0 -81.5 16.5t-63 47.5t-41 73.5t-14.5 95.5q0 52 17 94t48.5 71.5t76.5 45.5t101 16q60 0 104 -9t69 -18v-628h-76v265h-2q-16 -25 -50.5 -47.5t-87.5 -22.5zM260 39q51 0 83 24.5t44 54.5v275q-3 0 -8 1.5t-15.5 4t-28 4t-44.5 1.5q-81 0 -121.5 -48
t-40.5 -136q0 -38 8.5 -71t25 -57.5t41 -38.5t56.5 -14z" />
    <glyph glyph-name="r" unicode="r" horiz-adv-x="349" 
d="M74 434h76v-62h2q17 31 45 53t67 22q29 0 48 -6t28 -13l-36 -60q-7 8 -22 12.5t-32 4.5q-33 0 -59 -20.5t-40 -54.5v-310h-77v434z" />
    <glyph glyph-name="s" unicode="s" horiz-adv-x="388" 
d="M195 -13q-65 0 -103.5 22.5t-56.5 47.5l38 35q4 -9 14 -19.5t25 -19t35 -14.5t44 -6q37 0 63 18t26 56q0 28 -16.5 45.5t-41.5 30.5t-54.5 24.5t-54.5 27.5t-41.5 39t-16.5 59q0 31 13 53t33.5 35.5t45 19.5t48.5 6q51 0 82.5 -13.5t51.5 -31.5l-40 -36q-9 15 -32 26
t-58 11t-55.5 -14.5t-20.5 -39.5t17 -40.5t42 -27t55 -22.5t55 -27.5t42 -41.5t17 -64q0 -38 -14.5 -64.5t-37 -43t-50 -24t-54.5 -7.5z" />
    <glyph glyph-name="t" unicode="t" horiz-adv-x="345" 
d="M230 -13q-37 0 -61.5 9t-39 30t-20.5 54t-6 81v226h-75v47h75v79l77 42v-121h128v-47h-128v-245q0 -31 2.5 -51t9 -32t17 -16.5t27.5 -4.5q24 0 39 5q8 2 15 5l11 -51q-11 -3 -22 -5q-22 -5 -49 -5z" />
    <glyph glyph-name="u" unicode="u" 
d="M227 -13q-23 0 -50 6t-51 22.5t-40 46.5t-16 79v293h78v-281q0 -64 25 -89t78 -25q23 0 43.5 7t37.5 19t29 27t19 31v311h77v-434h-74l-2 61h-1q-26 -32 -65 -53t-88 -21z" />
    <glyph glyph-name="v" unicode="v" horiz-adv-x="447" 
d="M9 434h88l133 -340h2l145 340h60l-191 -434h-52z" />
    <glyph glyph-name="w" unicode="w" horiz-adv-x="710" 
d="M9 434h85l118 -340h2l129 340h53l119 -340h2l123 340h60l-168 -434h-52l-121 325h-2l-129 -325h-51z" />
    <glyph glyph-name="x" unicode="x" horiz-adv-x="473" 
d="M194 226l-162 208h93l114 -154h2l120 154h67l-158 -194l190 -240h-96l-136 187h-2l-145 -187h-67z" />
    <glyph glyph-name="y" unicode="y" horiz-adv-x="456" 
d="M114 -218q-16 0 -28 1t-20 3q-10 2 -18 4l11 51q5 -2 12 -4q6 -2 15.5 -3t23.5 -1q17 0 28 8t21 31l48 116l-198 446h91l148 -351h2l138 351h60l-224 -547q-8 -19 -16.5 -38t-20.5 -34t-29.5 -24t-43.5 -9z" />
    <glyph glyph-name="z" unicode="z" horiz-adv-x="454" 
d="M290 383v2h-231v49h357l-262 -381v-2h263v-51h-384z" />
    <glyph glyph-name="braceleft" unicode="{" horiz-adv-x="308" 
d="M215 -132q-18 0 -35.5 7.5t-31.5 22.5t-22.5 36.5t-8.5 49.5v163q0 28 -7.5 52t-19 41t-25.5 27.5t-28 13.5q14 4 28 16.5t25.5 30.5t19 40.5t7.5 45.5v164q0 28 9 49.5t23.5 36.5t31.5 22.5t34 7.5h65v-47h-50q-15 0 -24 -7.5t-14 -19.5t-6.5 -26.5t-1.5 -28.5v-164
q0 -32 -9 -53.5t-21 -35.5t-24.5 -21t-20.5 -9v-2q8 -1 20.5 -7t24.5 -19.5t21 -36.5t9 -57v-163q0 -14 1.5 -28.5t6.5 -26.5t14 -20t24 -8h50v-46h-65z" />
    <glyph glyph-name="bar" unicode="|" horiz-adv-x="220" 
d="M79 694h61v-902h-61v902z" />
    <glyph glyph-name="braceright" unicode="}" horiz-adv-x="308" 
d="M28 -132v46h50q15 0 24 8t14 20t6.5 26.5t1.5 28.5v163q0 34 9 57t21 36.5t24.5 19.5t20.5 7v2q-8 2 -20.5 9t-24.5 21t-21 35.5t-9 53.5v164q0 14 -1.5 28.5t-6.5 26.5t-14 19.5t-24 7.5h-50v47h65q16 0 33.5 -7.5t32 -22.5t23.5 -36.5t9 -49.5v-164q0 -23 7 -45.5
t18.5 -40.5t26 -30.5t28.5 -16.5q-14 -3 -28.5 -13.5t-26 -27.5t-18.5 -41t-7 -52v-163q0 -28 -8.5 -49.5t-22.5 -36.5t-31.5 -22.5t-35.5 -7.5h-65z" />
    <glyph glyph-name="asciitilde" unicode="~" horiz-adv-x="522" 
d="M47 252q6 12 16.5 26.5t25 27t33 21.5t41.5 9q27 0 51.5 -10.5t49 -23t49.5 -23t52 -10.5q31 0 47 16t28 41l35 -35q-4 -7 -13.5 -21t-24.5 -28.5t-35 -25.5t-45 -11q-28 0 -53.5 11t-50 23.5t-48.5 23.5t-49 11q-31 0 -49 -17.5t-29 -42.5z" />
    <glyph glyph-name="uni00A0" unicode="&#xa0;" horiz-adv-x="205" 
 />
    <glyph glyph-name="exclamdown" unicode="&#xa1;" horiz-adv-x="272" 
d="M174 266v-474h-76v474h76zM136 447q23 0 40 -16.5t17 -39.5q0 -24 -17 -40.5t-40 -16.5q-24 0 -40.5 16.5t-16.5 40.5q0 23 16.5 39.5t40.5 16.5z" />
    <glyph glyph-name="cent" unicode="&#xa2;" horiz-adv-x="480" 
d="M243 397q-60 -8 -87 -55t-27 -125q0 -31 7 -61t21.5 -54.5t35.5 -41.5t50 -22v359zM243 -12q-44 3 -80.5 20.5t-62 47.5t-39.5 70.5t-14 90.5q0 103 51 163t145 66v61h44v-61q34 -3 59 -13t43 -22.5t28.5 -25.5t15.5 -21l-57 -32q-2 3 -7 12.5t-15.5 19.5t-26.5 19.5
t-40 12.5v-359q29 4 49 13.5t32 20t17.5 20t7.5 13.5l45 -26q-2 -3 -11.5 -16.5t-27.5 -28.5t-46 -28t-66 -17v-61h-44v61z" />
    <glyph glyph-name="sterling" unicode="&#xa3;" horiz-adv-x="547" 
d="M65 56h82v262h-71v49h71v116q0 56 15.5 96t42.5 65.5t63.5 37.5t77.5 12q19 0 40 -3.5t41 -10.5t38 -18t32 -26l-40 -36q-11 18 -39.5 32.5t-73.5 14.5q-35 0 -57.5 -11.5t-36.5 -32.5t-19.5 -50t-5.5 -63v-123h151v-49h-151v-262h275v-56h-435v56z" />
    <glyph glyph-name="currency" unicode="&#xa4;" horiz-adv-x="616" 
d="M501 128l-64 64q-29 -23 -59.5 -34t-68.5 -11t-69 11t-60 34l-65 -64l-36 37l64 65q-45 57 -45 127q0 37 11.5 68.5t33.5 60.5l-65 65l36 36l66 -65q28 22 60.5 34t67.5 12q37 0 68.5 -12t60.5 -34l64 65l36 -37l-64 -64q22 -29 34 -61t12 -68t-12 -67.5t-34 -60.5
l65 -65zM465 357q0 33 -12.5 61.5t-33.5 49.5t-49.5 33.5t-61.5 12.5q-32 0 -60.5 -12.5t-49.5 -33.5t-33.5 -49.5t-12.5 -61.5q0 -32 12.5 -60.5t33.5 -49.5t49.5 -33t60.5 -12q33 0 61.5 12t49.5 33t33.5 49.5t12.5 60.5z" />
    <glyph glyph-name="yen" unicode="&#xa5;" horiz-adv-x="571" 
d="M247 208h-158v51h158v64h-158v50h126v2l-196 305h92l186 -303h2l190 303h64l-198 -305v-2h129v-50h-158v-64h158v-51h-158v-208h-79v208z" />
    <glyph glyph-name="brokenbar" unicode="&#xa6;" horiz-adv-x="220" 
d="M79 155h61v-239h-61v239zM79 616h61v-234h-61v234z" />
    <glyph glyph-name="section" unicode="&#xa7;" horiz-adv-x="486" 
d="M233 -128q-37 0 -65.5 7t-49.5 18t-36 25.5t-26 28.5l41 35q6 -12 17.5 -24t28.5 -21.5t39.5 -16t50.5 -6.5q21 0 40 5t33.5 16t23 29.5t8.5 44.5q0 36 -21 58t-52 37t-68 27.5t-68 30t-52 44.5t-21 71q0 32 11.5 54.5t28.5 37t36.5 22.5t36.5 11q-42 23 -67 58.5
t-25 81.5q0 36 16.5 61t41.5 41t55 23.5t56 7.5q59 0 95.5 -17.5t63.5 -45.5l-42 -35q-12 20 -40 37t-73 17q-41 0 -71 -20t-30 -61q0 -34 21 -53.5t53 -33.5t69 -26.5t69 -31t53 -46.5t21 -74q0 -28 -10.5 -48.5t-26 -35.5t-34.5 -25.5t-36 -16.5q36 -17 60.5 -50.5
t24.5 -79.5q0 -41 -14.5 -71t-39 -50t-57.5 -30t-69 -10zM280 185q32 8 56.5 29t24.5 56q0 22 -7 37t-22.5 27t-40.5 22.5t-62 23.5q-20 -2 -38.5 -8t-32.5 -17t-23 -27.5t-9 -38.5q0 -24 17.5 -41t42.5 -29t51 -20t43 -14z" />
    <glyph glyph-name="dieresis" unicode="&#xa8;" horiz-adv-x="555" 
d="M185 536q-21 0 -35.5 14.5t-14.5 35.5q0 20 14.5 35t35.5 15t35.5 -15t14.5 -35q0 -21 -14.5 -35.5t-35.5 -14.5zM369 536q-21 0 -35.5 14.5t-14.5 35.5q0 20 14.5 35t35.5 15t36 -15t15 -35q0 -21 -15 -35.5t-36 -14.5z" />
    <glyph glyph-name="copyright" unicode="&#xa9;" horiz-adv-x="548" 
d="M274 251q-48 0 -91.5 18t-75.5 49.5t-51 75t-19 93.5q0 51 19 94.5t51 75.5t75.5 50t91.5 18t91.5 -18t75.5 -50t51 -75.5t19 -94.5q0 -50 -19 -93.5t-51 -75t-75.5 -49.5t-91.5 -18zM274 286q40 0 76 15.5t62.5 42.5t42 63.5t15.5 79.5t-15.5 80t-42 64t-62.5 42.5
t-76 15.5q-41 0 -76.5 -15.5t-62 -42.5t-41.5 -64t-15 -80t15 -79.5t41.5 -63.5t62 -42.5t76.5 -15.5zM281 340q-27 0 -52.5 10t-45 29t-31.5 46t-12 62t11.5 63t30.5 47.5t44.5 29.5t54.5 10q39 0 62 -14.5t36 -25.5l-31 -28q-7 13 -22.5 22.5t-44.5 9.5q-35 0 -58.5 -30.5
t-23.5 -83.5q0 -51 23 -80.5t59 -29.5q29 0 48.5 12t27.5 27l29 -26q-15 -23 -42 -36.5t-63 -13.5z" />
    <glyph glyph-name="ordfeminine" unicode="&#xaa;" horiz-adv-x="388" 
d="M175 348q-58 0 -93 27.5t-35 83.5q0 42 31.5 68.5t103.5 28.5l86 4q0 45 -17 68t-58 23q-19 0 -32.5 -7.5t-22.5 -15.5q-11 -11 -19 -23l-49 24q8 11 17.5 22.5t24.5 21t36.5 15.5t53.5 6q60 0 99.5 -30.5t39.5 -96.5v-210h-73v33q-12 -15 -38 -28.5t-55 -13.5zM176 393
q16 0 30.5 5.5t26 14t20.5 18t15 18.5v72l-63 -4q-39 -2 -62 -16t-23 -43q0 -24 15 -44.5t41 -20.5z" />
    <glyph glyph-name="guillemotleft" unicode="&#xab;" horiz-adv-x="465" 
d="M65 223l133 199l38 -26l-86 -171l86 -175l-38 -26zM238 223l133 199l38 -26l-89 -171l89 -175l-38 -26z" />
    <glyph glyph-name="logicalnot" unicode="&#xac;" horiz-adv-x="620" 
d="M67 385h486v-258h-62v197h-424v61z" />
    <glyph glyph-name="uni00AD" unicode="&#xad;" horiz-adv-x="340" 
d="M47 288h246v-55h-246v55z" />
    <glyph glyph-name="registered" unicode="&#xae;" horiz-adv-x="548" 
d="M274 251q-49 0 -92 18t-75.5 49.5t-51 75t-18.5 93.5q0 51 18.5 94.5t51 75.5t75.5 50t92 18q48 0 91.5 -18t75.5 -50t51 -75.5t19 -94.5q0 -50 -19 -93.5t-51 -75t-75.5 -49.5t-91.5 -18zM274 286q40 0 75.5 15.5t62 42.5t42 63.5t15.5 79.5t-15.5 80.5t-42 64.5
t-62 42.5t-75.5 15.5q-41 0 -76.5 -15.5t-61.5 -42.5t-41.5 -64.5t-15.5 -80.5t15.5 -79.5t41.5 -63.5t61.5 -42.5t76.5 -15.5zM188 631h95q20 0 34.5 -7t23.5 -18t13.5 -25t4.5 -28q0 -26 -16.5 -48t-42.5 -24l88 -129h-55l-83 127h-17v-127h-45v279zM272 509q25 0 33 13
t8 35q0 23 -11.5 34t-25.5 11h-43v-93h39z" />
    <glyph glyph-name="macron" unicode="&#xaf;" horiz-adv-x="527" 
d="M135 609h257v-49h-257v49z" />
    <glyph glyph-name="degree" unicode="&#xb0;" horiz-adv-x="359" 
d="M180 414q-28 0 -52.5 10.5t-42.5 28.5t-28 42t-10 52t10 52t28 42t42.5 28.5t52.5 10.5t52 -10.5t42 -28.5t28.5 -42t10.5 -52t-10.5 -52t-28.5 -42t-42 -28.5t-52 -10.5zM180 461q18 0 33 7.5t25.5 19.5t16 27.5t5.5 31.5q0 14 -5 29.5t-15.5 28t-25.5 20.5t-34 8
q-34 0 -57 -25t-23 -61q0 -35 22 -60.5t58 -25.5z" />
    <glyph glyph-name="plusminus" unicode="&#xb1;" horiz-adv-x="540" 
d="M56 114h428v-55h-428v55zM240 323h-184v57h184v156h60v-156h184v-57h-184v-161h-60v161z" />
    <glyph glyph-name="twosuperior" unicode="&#xb2;" horiz-adv-x="343" 
d="M173 506q15 16 28 36t13 46q0 29 -14.5 45.5t-46.5 16.5q-20 0 -32.5 -7.5t-20 -16.5t-10.5 -17.5t-3 -10.5l-40 20q3 7 10 19t20 23t34 19.5t51 8.5q118 0 118 -102q0 -34 -12 -55t-23 -34l-92 -104v-2h153v-43h-278z" />
    <glyph glyph-name="threesuperior" unicode="&#xb3;" horiz-adv-x="305" 
d="M135 342q-42 0 -67 12.5t-40 24.5l26 39q8 -9 28 -21t46 -12q37 0 50.5 19.5t13.5 45.5q0 21 -9.5 32.5t-23.5 16.5t-30 6t-29 1v41q26 0 42 5t24.5 13.5t11.5 19.5t3 23q0 17 -13 28.5t-36 11.5q-17 0 -28 -7t-18 -15q-8 -10 -12 -21l-41 19q2 8 9.5 19t20.5 21t32.5 17
t46.5 7q48 0 75 -22t27 -55q0 -20 -6.5 -34t-16 -23.5t-20.5 -14t-21 -5.5v-3q13 0 27.5 -4.5t27 -14t20.5 -24.5t8 -37q0 -29 -10 -50t-27.5 -34t-40.5 -19t-50 -6z" />
    <glyph glyph-name="acute" unicode="&#xb4;" horiz-adv-x="546" 
d="M190 555l126 109l40 -57l-144 -83z" />
    <glyph glyph-name="mu" unicode="&#xb5;" 
d="M70 434h78v-272q0 -57 27.5 -90.5t89.5 -33.5q39 0 69 24.5t46 60.5v311h77v-434h-74l-2 61h-1q-23 -32 -52 -53t-78 -21q-29 0 -56.5 10.5t-42.5 27.5h-2v-233h-79v642z" />
    <glyph glyph-name="paragraph" unicode="&#xb6;" horiz-adv-x="541" 
d="M222 353q-39 0 -71 12t-55.5 33t-36 50t-12.5 63q0 47 14.5 79t40.5 52t61 29t77 9h222v-775h-70v714h-100v-714h-70v448z" />
    <glyph glyph-name="periodcentered" unicode="&#xb7;" horiz-adv-x="260" 
d="M130 232q-22 0 -39 16t-17 39t16.5 39.5t39.5 16.5t39.5 -16.5t16.5 -39.5t-17 -39t-39 -16z" />
    <glyph glyph-name="cedilla" unicode="&#xb8;" horiz-adv-x="487" 
d="M232 -180q-49 0 -92 20l13 32q32 -16 70 -16q18 0 37 9.5t19 32.5q0 20 -16 29t-32 9q-13 0 -24 -2.5t-19 -5.5l16 39q13 2 26.5 3.5t35.5 1.5q16 0 30.5 -4t25.5 -12.5t18 -21.5t7 -32q0 -22 -11 -37.5t-28 -25.5t-37 -14.5t-39 -4.5z" />
    <glyph glyph-name="onesuperior" unicode="&#xb9;" horiz-adv-x="260" 
d="M112 604l-2 2l-56 -44l-31 35l100 83h57v-328h-68v252z" />
    <glyph glyph-name="ordmasculine" unicode="&#xba;" horiz-adv-x="449" 
d="M225 348q-37 0 -69.5 12.5t-56.5 35t-38 54t-14 70.5t14 71.5t38.5 55t57 35t69.5 12.5t69 -12.5t56 -35t38 -54.5t14 -71t-14 -71t-38 -54.5t-56.5 -35t-69.5 -12.5zM223 394q48 0 76 36.5t28 91.5q0 25 -7 48t-20.5 41t-32.5 28.5t-42 10.5q-21 0 -40 -8.5t-33.5 -25
t-23 -40.5t-8.5 -54q0 -56 29.5 -92t73.5 -36z" />
    <glyph glyph-name="guillemotright" unicode="&#xbb;" horiz-adv-x="465" 
d="M56 50l89 175l-89 171l38 26l133 -199l-133 -199zM229 50l86 175l-86 171l38 26l133 -199l-133 -199z" />
    <glyph glyph-name="onequarter" unicode="&#xbc;" horiz-adv-x="676" 
d="M510 682l51 -30l-404 -682l-51 30zM135 604l-2 2l-56 -44l-30 35l99 83h58v-328h-69v252zM493 86h-159l164 243h64v-202h49v-41h-49v-86h-69v86zM493 247h-1l-78 -120h79v120z" />
    <glyph glyph-name="onehalf" unicode="&#xbd;" horiz-adv-x="718" 
d="M494 682l51 -30l-404 -682l-51 30zM135 604l-2 2l-56 -44l-30 35l99 83h58v-328h-69v252zM520 158q15 17 28 36.5t13 45.5q0 29 -14.5 45.5t-46.5 16.5q-20 0 -32.5 -7.5t-20 -16.5t-10.5 -17.5t-3 -10.5l-41 20q3 7 10.5 19t20.5 23t34 19.5t51 8.5q118 0 118 -102
q0 -34 -12 -54.5t-23 -34.5l-92 -104v-2h153v-43h-278z" />
    <glyph glyph-name="threequarters" unicode="&#xbe;" horiz-adv-x="695" 
d="M534 682l51 -30l-404 -682l-51 30zM163 342q-42 0 -67 12.5t-40 24.5l26 39q8 -9 28 -21t46 -12q37 0 50.5 19.5t13.5 45.5q0 21 -9.5 32.5t-24 16.5t-30.5 6t-29 1v41q27 0 43 5t24.5 13.5t11.5 19.5t3 23q0 17 -13 28.5t-36 11.5q-17 0 -28 -7t-18 -15q-8 -10 -12 -21
l-42 19q3 8 10.5 19t20.5 21t32.5 17t46.5 7q48 0 75 -22t27 -55q0 -20 -6.5 -34t-16 -23.5t-21 -14t-20.5 -5.5v-3q13 0 27.5 -4.5t27 -14t20.5 -24.5t8 -37q0 -29 -10 -50t-27.5 -34t-41 -19t-49.5 -6zM512 86h-159l163 243h64v-202h50v-41h-50v-86h-68v86zM512 247h-1
l-78 -120h79v120z" />
    <glyph glyph-name="questiondown" unicode="&#xbf;" horiz-adv-x="455" 
d="M242 447q23 0 40 -16.5t17 -39.5q0 -24 -17 -41t-40 -17t-40 17t-17 41q0 23 17 39.5t40 16.5zM285 236q0 -40 -12.5 -68.5t-31 -51t-40.5 -41t-40.5 -38.5t-31 -44t-12.5 -56q0 -52 32 -80t80 -28q57 0 88 21t49 55l40 -30q-23 -42 -63.5 -67.5t-109.5 -25.5
q-42 0 -76 10.5t-58.5 31t-38 50.5t-13.5 70q0 38 11.5 66t29 50.5t38 41t38 38t29 41t11.5 50.5v42h81v-37z" />
    <glyph glyph-name="Agrave" unicode="&#xc0;" horiz-adv-x="626" 
d="M287 680h50l270 -680h-90l-78 207h-278l-80 -207h-62zM420 256l-120 312h-1l-119 -312h240zM235 823l44 56l130 -111l-24 -31z" />
    <glyph glyph-name="Aacute" unicode="&#xc1;" horiz-adv-x="626" 
d="M287 680h50l270 -680h-90l-78 207h-278l-80 -207h-62zM420 256l-120 312h-1l-119 -312h240zM225 768l126 109l40 -57l-144 -83z" />
    <glyph glyph-name="Acircumflex" unicode="&#xc2;" horiz-adv-x="626" 
d="M287 680h50l270 -680h-90l-78 207h-278l-80 -207h-62zM420 256l-120 312h-1l-119 -312h240zM188 761l124 128l123 -128l-27 -29l-96 71l-97 -71z" />
    <glyph glyph-name="Atilde" unicode="&#xc3;" horiz-adv-x="626" 
d="M287 680h50l270 -680h-90l-78 207h-278l-80 -207h-62zM420 256l-120 312h-1l-119 -312h240zM169 742q0 16 6 32.5t17 29t27 20.5t36 8q18 0 32.5 -5.5t27.5 -12t24.5 -12t25.5 -5.5q19 0 32 9.5t13 31.5l39 -11q-3 -18 -8.5 -34.5t-14.5 -28.5t-23 -19.5t-35 -7.5
q-19 0 -34 6t-28.5 12.5t-26.5 12.5t-29 6q-17 0 -30 -12t-13 -30z" />
    <glyph glyph-name="Adieresis" unicode="&#xc4;" horiz-adv-x="626" 
d="M287 680h50l270 -680h-90l-78 207h-278l-80 -207h-62zM420 256l-120 312h-1l-119 -312h240zM227 736q-21 0 -35.5 14.5t-14.5 35.5q0 20 14.5 35t35.5 15t35.5 -15t14.5 -35q0 -21 -14.5 -35.5t-35.5 -14.5zM411 736q-21 0 -35.5 14.5t-14.5 35.5q0 20 14.5 35t35.5 15
t36 -15t15 -35q0 -21 -15 -35.5t-36 -14.5z" />
    <glyph glyph-name="Aring" unicode="&#xc5;" horiz-adv-x="626" 
d="M287 680h50l270 -680h-90l-78 207h-278l-80 -207h-62zM420 256l-120 312h-1l-119 -312h240zM313 717q-20 0 -37 7.5t-29 20t-19 29.5t-7 36q0 37 26 64.5t66 27.5q41 0 66.5 -27.5t25.5 -64.5q0 -19 -7 -36t-19 -29.5t-29 -20t-37 -7.5zM313 754q25 0 38.5 15.5
t13.5 40.5q0 20 -13 37.5t-39 17.5q-24 0 -38 -16.5t-14 -38.5q0 -21 14 -38.5t38 -17.5z" />
    <glyph glyph-name="AE" unicode="&#xc6;" horiz-adv-x="877" 
d="M418 680h391v-53h-283v-241h249v-53h-249v-277h295v-56h-374v206h-249l-121 -206h-67zM447 256v364h-1l-218 -364h219z" />
    <glyph glyph-name="Ccedilla" unicode="&#xc7;" horiz-adv-x="662" 
d="M373 -13q-75 0 -135 29t-102.5 77.5t-65.5 112.5t-23 134q0 92 28.5 158.5t75 110t105.5 64.5t119 21q50 0 87 -7.5t64 -19.5t45.5 -27t33.5 -29l-53 -43q-7 10 -20.5 23.5t-34.5 24.5t-50 19t-67 8q-51 0 -95.5 -19.5t-77 -57.5t-51.5 -94.5t-19 -131.5q0 -66 17.5 -121
t49 -95t76.5 -62.5t100 -22.5q43 0 75.5 9.5t56.5 23.5t39 29t23 26l46 -39q-17 -18 -38 -36t-50 -32.5t-68 -23.5t-91 -9zM347 -180q-49 0 -92 20l13 32q32 -16 70 -16q18 0 37 9.5t19 32.5q0 20 -16 29t-32 9q-13 0 -24 -2.5t-19 -5.5l16 39q13 2 26.5 3.5t35.5 1.5
q16 0 30.5 -4t25.5 -12.5t18 -21.5t7 -32q0 -22 -11 -37.5t-28 -25.5t-37 -14.5t-39 -4.5z" />
    <glyph glyph-name="Egrave" unicode="&#xc8;" horiz-adv-x="524" 
d="M88 680h369v-53h-290v-242h253v-53h-253v-277h301v-55h-380v680zM178 824l44 56l130 -111l-24 -31z" />
    <glyph glyph-name="Eacute" unicode="&#xc9;" horiz-adv-x="524" 
d="M88 680h369v-53h-290v-242h253v-53h-253v-277h301v-55h-380v680zM205 769l126 109l40 -57l-144 -83z" />
    <glyph glyph-name="Ecircumflex" unicode="&#xca;" horiz-adv-x="524" 
d="M88 680h369v-53h-290v-242h253v-53h-253v-277h301v-55h-380v680zM155 761l124 128l123 -128l-27 -29l-96 71l-97 -71z" />
    <glyph glyph-name="Edieresis" unicode="&#xcb;" horiz-adv-x="524" 
d="M88 680h369v-53h-290v-242h253v-53h-253v-277h301v-55h-380v680zM184 739q-21 0 -35.5 14.5t-14.5 35.5q0 20 14.5 35t35.5 15t35.5 -15t14.5 -35q0 -21 -14.5 -35.5t-35.5 -14.5zM368 739q-21 0 -35.5 14.5t-14.5 35.5q0 20 14.5 35t35.5 15t36 -15t15 -35
q0 -21 -15 -35.5t-36 -14.5z" />
    <glyph glyph-name="Igrave" unicode="&#xcc;" horiz-adv-x="255" 
d="M88 680h79v-680h-79v680zM43 824l44 56l130 -111l-24 -31z" />
    <glyph glyph-name="Iacute" unicode="&#xcd;" horiz-adv-x="255" 
d="M88 680h79v-680h-79v680zM46 769l126 109l40 -57l-144 -83z" />
    <glyph glyph-name="Icircumflex" unicode="&#xce;" horiz-adv-x="255" 
d="M88 680h79v-680h-79v680zM4 761l124 128l123 -128l-27 -29l-96 71l-97 -71z" />
    <glyph glyph-name="Idieresis" unicode="&#xcf;" horiz-adv-x="255" 
d="M88 680h79v-680h-79v680zM35 736q-21 0 -35.5 14.5t-14.5 35.5q0 20 14.5 35t35.5 15t35.5 -15t14.5 -35q0 -21 -14.5 -35.5t-35.5 -14.5zM219 736q-21 0 -35.5 14.5t-14.5 35.5q0 20 14.5 35t35.5 15t36 -15t15 -35q0 -21 -15 -35.5t-36 -14.5z" />
    <glyph glyph-name="Eth" unicode="&#xd0;" horiz-adv-x="707" 
d="M100 322h-70v53h70v305h205q99 0 167 -29t110 -75.5t60 -106.5t18 -121q0 -78 -23.5 -142t-69.5 -109.5t-114.5 -71t-157.5 -25.5h-195v322zM286 54q78 0 133 22t89 61.5t49.5 93.5t15.5 117q0 53 -15.5 104t-49 90.5t-86 63.5t-127.5 24l-117 -1v-254h175v-53h-175v-267
z" />
    <glyph glyph-name="Ntilde" unicode="&#xd1;" horiz-adv-x="669" 
d="M88 680h86l344 -553h2v553h60v-680h-73l-356 570h-2v-570h-61v680zM195 742q0 16 6 32.5t17 29t27 20.5t36 8q18 0 32.5 -5.5t27.5 -12t24.5 -12t25.5 -5.5q19 0 32 9.5t13 31.5l39 -11q-3 -18 -8.5 -34.5t-14.5 -28.5t-23 -19.5t-35 -7.5q-19 0 -34 6t-28.5 12.5
t-26.5 12.5t-29 6q-17 0 -30 -12t-13 -30z" />
    <glyph glyph-name="Ograve" unicode="&#xd2;" horiz-adv-x="763" 
d="M381 -13q-76 0 -137.5 29t-105 77.5t-67.5 112.5t-24 134q0 80 25.5 145.5t70.5 112t106 71.5t132 25q75 0 137 -26t106 -72.5t68 -111.5t24 -144t-26 -144t-71.5 -111.5t-106.5 -72t-131 -25.5zM381 40q54 0 99.5 20.5t78.5 59.5t51.5 94.5t18.5 125.5q0 66 -18.5 121.5
t-51.5 95.5t-78.5 62.5t-99.5 22.5t-99.5 -21t-78 -60t-51 -95t-18.5 -126q0 -68 19 -123.5t52 -94.5t78 -60.5t98 -21.5zM288 824l44 56l130 -111l-24 -31z" />
    <glyph glyph-name="Oacute" unicode="&#xd3;" horiz-adv-x="763" 
d="M381 -13q-76 0 -137.5 29t-105 77.5t-67.5 112.5t-24 134q0 80 25.5 145.5t70.5 112t106 71.5t132 25q75 0 137 -26t106 -72.5t68 -111.5t24 -144t-26 -144t-71.5 -111.5t-106.5 -72t-131 -25.5zM381 40q54 0 99.5 20.5t78.5 59.5t51.5 94.5t18.5 125.5q0 66 -18.5 121.5
t-51.5 95.5t-78.5 62.5t-99.5 22.5t-99.5 -21t-78 -60t-51 -95t-18.5 -126q0 -68 19 -123.5t52 -94.5t78 -60.5t98 -21.5zM307 769l126 109l40 -57l-144 -83z" />
    <glyph glyph-name="Ocircumflex" unicode="&#xd4;" horiz-adv-x="763" 
d="M381 -13q-76 0 -137.5 29t-105 77.5t-67.5 112.5t-24 134q0 80 25.5 145.5t70.5 112t106 71.5t132 25q75 0 137 -26t106 -72.5t68 -111.5t24 -144t-26 -144t-71.5 -111.5t-106.5 -72t-131 -25.5zM381 40q54 0 99.5 20.5t78.5 59.5t51.5 94.5t18.5 125.5q0 66 -18.5 121.5
t-51.5 95.5t-78.5 62.5t-99.5 22.5t-99.5 -21t-78 -60t-51 -95t-18.5 -126q0 -68 19 -123.5t52 -94.5t78 -60.5t98 -21.5zM258 761l124 128l123 -128l-27 -29l-96 71l-97 -71z" />
    <glyph glyph-name="Otilde" unicode="&#xd5;" horiz-adv-x="763" 
d="M381 -13q-76 0 -137.5 29t-105 77.5t-67.5 112.5t-24 134q0 80 25.5 145.5t70.5 112t106 71.5t132 25q75 0 137 -26t106 -72.5t68 -111.5t24 -144t-26 -144t-71.5 -111.5t-106.5 -72t-131 -25.5zM381 40q54 0 99.5 20.5t78.5 59.5t51.5 94.5t18.5 125.5q0 66 -18.5 121.5
t-51.5 95.5t-78.5 62.5t-99.5 22.5t-99.5 -21t-78 -60t-51 -95t-18.5 -126q0 -68 19 -123.5t52 -94.5t78 -60.5t98 -21.5zM240 742q0 16 6 32.5t17 29t27 20.5t36 8q18 0 32.5 -5.5t27.5 -12t24.5 -12t25.5 -5.5q19 0 32 9.5t13 31.5l39 -11q-3 -18 -8.5 -34.5t-14.5 -28.5
t-23 -19.5t-35 -7.5q-19 0 -34 6t-28.5 12.5t-26.5 12.5t-29 6q-17 0 -30 -12t-13 -30z" />
    <glyph glyph-name="Odieresis" unicode="&#xd6;" horiz-adv-x="763" 
d="M381 -13q-76 0 -137.5 29t-105 77.5t-67.5 112.5t-24 134q0 80 25.5 145.5t70.5 112t106 71.5t132 25q75 0 137 -26t106 -72.5t68 -111.5t24 -144t-26 -144t-71.5 -111.5t-106.5 -72t-131 -25.5zM381 40q54 0 99.5 20.5t78.5 59.5t51.5 94.5t18.5 125.5q0 66 -18.5 121.5
t-51.5 95.5t-78.5 62.5t-99.5 22.5t-99.5 -21t-78 -60t-51 -95t-18.5 -126q0 -68 19 -123.5t52 -94.5t78 -60.5t98 -21.5zM296 739q-21 0 -35.5 14.5t-14.5 35.5q0 20 14.5 35t35.5 15t35.5 -15t14.5 -35q0 -21 -14.5 -35.5t-35.5 -14.5zM480 739q-21 0 -35.5 14.5
t-14.5 35.5q0 20 14.5 35t35.5 15t36 -15t15 -35q0 -21 -15 -35.5t-36 -14.5z" />
    <glyph glyph-name="multiply" unicode="&#xd7;" horiz-adv-x="438" 
d="M47 105l130 130l-130 131l41 41l131 -130l130 130l42 -41l-131 -131l131 -130l-42 -42l-130 130l-131 -130z" />
    <glyph glyph-name="Oslash" unicode="&#xd8;" horiz-adv-x="760" 
d="M380 -12q-64 0 -120 21t-101 60l-76 -81l-34 34l77 81q-38 45 -58.5 105t-20.5 132q0 78 24.5 143t69 112t105.5 73t134 26q64 0 121.5 -21.5t102.5 -63.5l68 73l35 -33l-71 -75q36 -45 56.5 -103.5t20.5 -130.5q0 -79 -26 -144t-71 -111t-105.5 -71.5t-130.5 -25.5z
M380 40q55 0 100 21.5t76.5 61t49 95t17.5 122.5q0 51 -11.5 95t-31.5 80l-372 -394q32 -38 76 -59.5t96 -21.5zM380 642q-50 0 -94.5 -21t-77.5 -60t-52.5 -95t-19.5 -126q0 -51 11.5 -96.5t32.5 -82.5l373 395q-32 41 -77 63.5t-96 22.5z" />
    <glyph glyph-name="Ugrave" unicode="&#xd9;" horiz-adv-x="651" 
d="M323 -13q-46 0 -89.5 12.5t-78 41t-55.5 74t-21 110.5v455h79v-473q0 -50 17.5 -82.5t43 -51.5t54.5 -26.5t53 -7.5q37 0 70.5 9.5t58.5 30.5t39.5 53t14.5 77v471h63v-452q0 -72 -21 -118.5t-56 -73.5t-80 -38t-92 -11zM231 824l44 56l130 -111l-24 -31z" />
    <glyph glyph-name="Uacute" unicode="&#xda;" horiz-adv-x="651" 
d="M323 -13q-46 0 -89.5 12.5t-78 41t-55.5 74t-21 110.5v455h79v-473q0 -50 17.5 -82.5t43 -51.5t54.5 -26.5t53 -7.5q37 0 70.5 9.5t58.5 30.5t39.5 53t14.5 77v471h63v-452q0 -72 -21 -118.5t-56 -73.5t-80 -38t-92 -11zM249 769l126 109l40 -57l-144 -83z" />
    <glyph glyph-name="Ucircumflex" unicode="&#xdb;" horiz-adv-x="651" 
d="M323 -13q-46 0 -89.5 12.5t-78 41t-55.5 74t-21 110.5v455h79v-473q0 -50 17.5 -82.5t43 -51.5t54.5 -26.5t53 -7.5q37 0 70.5 9.5t58.5 30.5t39.5 53t14.5 77v471h63v-452q0 -72 -21 -118.5t-56 -73.5t-80 -38t-92 -11zM205 761l124 128l123 -128l-27 -29l-96 71
l-97 -71z" />
    <glyph glyph-name="Udieresis" unicode="&#xdc;" horiz-adv-x="651" 
d="M323 -13q-46 0 -89.5 12.5t-78 41t-55.5 74t-21 110.5v455h79v-473q0 -50 17.5 -82.5t43 -51.5t54.5 -26.5t53 -7.5q37 0 70.5 9.5t58.5 30.5t39.5 53t14.5 77v471h63v-452q0 -72 -21 -118.5t-56 -73.5t-80 -38t-92 -11zM240 739q-21 0 -35.5 14.5t-14.5 35.5
q0 20 14.5 35t35.5 15t35.5 -15t14.5 -35q0 -21 -14.5 -35.5t-35.5 -14.5zM424 739q-21 0 -35.5 14.5t-14.5 35.5q0 20 14.5 35t35.5 15t36 -15t15 -35q0 -21 -15 -35.5t-36 -14.5z" />
    <glyph glyph-name="Yacute" unicode="&#xdd;" horiz-adv-x="571" 
d="M247 323l-228 357h92l186 -303h2l190 303h64l-227 -352v-328h-79v323zM208 769l126 109l40 -57l-144 -83z" />
    <glyph glyph-name="Thorn" unicode="&#xde;" horiz-adv-x="523" 
d="M79 680h78v-149h139q49 0 83.5 -15.5t56.5 -41t32 -57t10 -64.5q0 -27 -11 -59t-34 -59.5t-58.5 -46t-83.5 -18.5h-134v-170h-78v680zM291 224q55 0 81.5 34.5t26.5 94.5q0 57 -29 90t-74 33h-139v-252h134z" />
    <glyph glyph-name="germandbls" unicode="&#xdf;" horiz-adv-x="536" 
d="M74 513q0 87 42.5 134t138.5 47q27 0 56 -7.5t53 -24t39 -41.5t15 -59q0 -37 -10 -61t-25 -40.5t-32 -28t-32 -23t-25 -25.5t-10 -35q0 -22 16 -36.5t40 -26t51.5 -23t51.5 -28.5t40 -41.5t16 -62.5q0 -36 -12 -63t-32.5 -45t-47.5 -27t-56 -9q-59 0 -92 16t-55 42l36 33
q9 -13 34 -29.5t73 -16.5q43 0 64 23t21 55q0 29 -16 47t-39.5 30.5t-51 23.5t-51 26.5t-39.5 39.5t-16 62q0 30 12.5 50.5t29.5 36t36 29t32 31.5q10 13 14.5 30t4.5 35q0 45 -22.5 74.5t-75.5 29.5q-14 0 -31 -4.5t-32 -17.5t-25.5 -35.5t-10.5 -58.5v-539h-77v513z" />
    <glyph glyph-name="agrave" unicode="&#xe0;" horiz-adv-x="483" 
d="M198 -13q-67 0 -109 36t-42 105q0 27 10 50.5t31 41.5t54 29t78 13l121 5v15q0 65 -24.5 92t-80.5 27q-40 0 -63 -18.5t-34 -41.5l-50 36q23 30 57.5 50t96.5 20q85 0 130 -39.5t45 -120.5v-287h-74l-2 61h-2q-10 -13 -25 -26.5t-33 -24t-39.5 -17t-44.5 -6.5zM209 39
q28 0 50 7.5t38.5 19.5t27 26.5t16.5 28.5v101l-93 -4q-26 -2 -48 -6.5t-38.5 -15t-26 -27.5t-9.5 -42q0 -39 20.5 -63.5t62.5 -24.5zM127 610l44 56l130 -111l-24 -31z" />
    <glyph glyph-name="aacute" unicode="&#xe1;" horiz-adv-x="483" 
d="M198 -13q-67 0 -109 36t-42 105q0 27 10 50.5t31 41.5t54 29t78 13l121 5v15q0 65 -24.5 92t-80.5 27q-40 0 -63 -18.5t-34 -41.5l-50 36q23 30 57.5 50t96.5 20q85 0 130 -39.5t45 -120.5v-287h-74l-2 61h-2q-10 -13 -25 -26.5t-33 -24t-39.5 -17t-44.5 -6.5zM209 39
q28 0 50 7.5t38.5 19.5t27 26.5t16.5 28.5v101l-93 -4q-26 -2 -48 -6.5t-38.5 -15t-26 -27.5t-9.5 -42q0 -39 20.5 -63.5t62.5 -24.5zM161 555l126 109l40 -57l-144 -83z" />
    <glyph glyph-name="acircumflex" unicode="&#xe2;" horiz-adv-x="483" 
d="M198 -13q-67 0 -109 36t-42 105q0 27 10 50.5t31 41.5t54 29t78 13l121 5v15q0 65 -24.5 92t-80.5 27q-40 0 -63 -18.5t-34 -41.5l-50 36q23 30 57.5 50t96.5 20q85 0 130 -39.5t45 -120.5v-287h-74l-2 61h-2q-10 -13 -25 -26.5t-33 -24t-39.5 -17t-44.5 -6.5zM209 39
q28 0 50 7.5t38.5 19.5t27 26.5t16.5 28.5v101l-93 -4q-26 -2 -48 -6.5t-38.5 -15t-26 -27.5t-9.5 -42q0 -39 20.5 -63.5t62.5 -24.5zM119 544l124 128l123 -128l-27 -29l-96 71l-97 -71z" />
    <glyph glyph-name="atilde" unicode="&#xe3;" horiz-adv-x="483" 
d="M198 -13q-67 0 -109 36t-42 105q0 27 10 50.5t31 41.5t54 29t78 13l121 5v15q0 65 -24.5 92t-80.5 27q-40 0 -63 -18.5t-34 -41.5l-50 36q23 30 57.5 50t96.5 20q85 0 130 -39.5t45 -120.5v-287h-74l-2 61h-2q-10 -13 -25 -26.5t-33 -24t-39.5 -17t-44.5 -6.5zM209 39
q28 0 50 7.5t38.5 19.5t27 26.5t16.5 28.5v101l-93 -4q-26 -2 -48 -6.5t-38.5 -15t-26 -27.5t-9.5 -42q0 -39 20.5 -63.5t62.5 -24.5zM96 545q0 16 6 32.5t17 29t27 20.5t36 8q18 0 32.5 -5.5t27.5 -12t24.5 -12t25.5 -5.5q19 0 32 9.5t13 31.5l39 -11q-3 -18 -8.5 -34.5
t-14.5 -28.5t-23 -19.5t-35 -7.5q-19 0 -34 6t-28.5 12.5t-26.5 12.5t-29 6q-17 0 -30 -12t-13 -30z" />
    <glyph glyph-name="adieresis" unicode="&#xe4;" horiz-adv-x="483" 
d="M198 -13q-67 0 -109 36t-42 105q0 27 10 50.5t31 41.5t54 29t78 13l121 5v15q0 65 -24.5 92t-80.5 27q-40 0 -63 -18.5t-34 -41.5l-50 36q23 30 57.5 50t96.5 20q85 0 130 -39.5t45 -120.5v-287h-74l-2 61h-2q-10 -13 -25 -26.5t-33 -24t-39.5 -17t-44.5 -6.5zM209 39
q28 0 50 7.5t38.5 19.5t27 26.5t16.5 28.5v101l-93 -4q-26 -2 -48 -6.5t-38.5 -15t-26 -27.5t-9.5 -42q0 -39 20.5 -63.5t62.5 -24.5zM148 536q-21 0 -35.5 14.5t-14.5 35.5q0 20 14.5 35t35.5 15t35.5 -15t14.5 -35q0 -21 -14.5 -35.5t-35.5 -14.5zM332 536
q-21 0 -35.5 14.5t-14.5 35.5q0 20 14.5 35t35.5 15t36 -15t15 -35q0 -21 -15 -35.5t-36 -14.5z" />
    <glyph glyph-name="aring" unicode="&#xe5;" horiz-adv-x="483" 
d="M198 -13q-67 0 -109 36t-42 105q0 27 10 50.5t31 41.5t54 29t78 13l121 5v15q0 65 -24.5 92t-80.5 27q-40 0 -63 -18.5t-34 -41.5l-50 36q23 30 57.5 50t96.5 20q85 0 130 -39.5t45 -120.5v-287h-74l-2 61h-2q-10 -13 -25 -26.5t-33 -24t-39.5 -17t-44.5 -6.5zM209 39
q28 0 50 7.5t38.5 19.5t27 26.5t16.5 28.5v101l-93 -4q-26 -2 -48 -6.5t-38.5 -15t-26 -27.5t-9.5 -42q0 -39 20.5 -63.5t62.5 -24.5zM242 500q-20 0 -37 7.5t-29 20t-19 29.5t-7 36q0 37 26 64.5t66 27.5q41 0 66.5 -27.5t25.5 -64.5q0 -19 -7 -36t-19 -29.5t-29 -20
t-37 -7.5zM242 537q25 0 38.5 15.5t13.5 40.5q0 20 -13 37.5t-39 17.5q-24 0 -38 -16.5t-14 -38.5q0 -21 14 -38.5t38 -17.5z" />
    <glyph glyph-name="ae" unicode="&#xe6;" horiz-adv-x="788" 
d="M209 -13q-33 0 -62.5 9t-51.5 26.5t-35 44t-13 61.5q0 27 9.5 51t30 42.5t53 29.5t78.5 11l124 1v19q0 115 -110 115q-30 0 -48.5 -8t-29.5 -17q-12 -11 -18 -25l-55 29q6 9 17.5 21t30 23.5t46 19t66.5 7.5q51 0 91.5 -20.5t60.5 -58.5h2q24 37 62.5 58t87.5 21
q47 0 83.5 -16t61.5 -44.5t38 -67.5t13 -85v-18h-315q0 -38 7.5 -71.5t23.5 -58t40.5 -38.5t57.5 -14q36 0 59 9.5t36 21.5t18 23.5t6 15.5l47 -24q-3 -7 -13 -22.5t-29 -31t-49.5 -27.5t-73.5 -12q-60 0 -100.5 27t-66.5 72h-2q-25 -46 -73 -72.5t-105 -26.5zM210 33
q24 0 45 7.5t38 19t29 25.5t20 28v103l-96 -1q-57 -1 -90.5 -19t-33.5 -69q0 -39 23 -66.5t65 -27.5zM665 263q0 19 -3.5 43t-16 45t-36 35t-63.5 14q-30 0 -50.5 -13t-33.5 -33.5t-20.5 -44.5t-10.5 -46h234z" />
    <glyph glyph-name="ccedilla" unicode="&#xe7;" horiz-adv-x="477" 
d="M262 -13q-45 0 -84 17t-68 47.5t-46 72.5t-17 93q0 54 16.5 97t45.5 72.5t68.5 45t86.5 15.5q31 0 57.5 -7t47.5 -17.5t36 -24t23 -25.5l-48 -40q-3 6 -10.5 17.5t-21 23t-33.5 19.5t-48 8q-66 0 -102 -49.5t-36 -134.5q0 -35 7.5 -67.5t24.5 -57.5t43.5 -40.5
t64.5 -15.5q50 0 78.5 19t42.5 45l41 -29q-20 -35 -61.5 -59.5t-107.5 -24.5zM234 -180q-49 0 -92 20l13 32q32 -16 70 -16q18 0 37 9.5t19 32.5q0 20 -16 29t-32 9q-13 0 -24 -2.5t-19 -5.5l16 39q13 2 26.5 3.5t35.5 1.5q16 0 30.5 -4t25.5 -12.5t18 -21.5t7 -32
q0 -22 -11 -37.5t-28 -25.5t-37 -14.5t-39 -4.5z" />
    <glyph glyph-name="egrave" unicode="&#xe8;" horiz-adv-x="507" 
d="M268 -13q-48 0 -89 17.5t-70 48t-45.5 73t-16.5 93.5q0 53 17 95.5t46.5 72t68 45t80.5 15.5q43 0 80 -15.5t64 -43.5t42 -67.5t15 -86.5v-20h-331q0 -39 10.5 -72t28.5 -56.5t42.5 -36.5t53.5 -13q37 0 62 9.5t40 21.5t21 22.5t7 13.5l44 -27q-3 -7 -13.5 -21.5
t-31 -29.5t-51.5 -26.5t-74 -11.5zM380 263q0 28 -7.5 53t-22.5 43.5t-38 29.5t-53 11q-29 0 -51.5 -12t-38 -31.5t-24.5 -44t-11 -49.5h246zM170 610l44 56l130 -111l-24 -31z" />
    <glyph glyph-name="eacute" unicode="&#xe9;" horiz-adv-x="507" 
d="M268 -13q-48 0 -89 17.5t-70 48t-45.5 73t-16.5 93.5q0 53 17 95.5t46.5 72t68 45t80.5 15.5q43 0 80 -15.5t64 -43.5t42 -67.5t15 -86.5v-20h-331q0 -39 10.5 -72t28.5 -56.5t42.5 -36.5t53.5 -13q37 0 62 9.5t40 21.5t21 22.5t7 13.5l44 -27q-3 -7 -13.5 -21.5
t-31 -29.5t-51.5 -26.5t-74 -11.5zM380 263q0 28 -7.5 53t-22.5 43.5t-38 29.5t-53 11q-29 0 -51.5 -12t-38 -31.5t-24.5 -44t-11 -49.5h246zM169 555l126 109l40 -57l-144 -83z" />
    <glyph glyph-name="ecircumflex" unicode="&#xea;" horiz-adv-x="507" 
d="M268 -13q-48 0 -89 17.5t-70 48t-45.5 73t-16.5 93.5q0 53 17 95.5t46.5 72t68 45t80.5 15.5q43 0 80 -15.5t64 -43.5t42 -67.5t15 -86.5v-20h-331q0 -39 10.5 -72t28.5 -56.5t42.5 -36.5t53.5 -13q37 0 62 9.5t40 21.5t21 22.5t7 13.5l44 -27q-3 -7 -13.5 -21.5
t-31 -29.5t-51.5 -26.5t-74 -11.5zM380 263q0 28 -7.5 53t-22.5 43.5t-38 29.5t-53 11q-29 0 -51.5 -12t-38 -31.5t-24.5 -44t-11 -49.5h246zM134 544l124 128l123 -128l-27 -29l-96 71l-97 -71z" />
    <glyph glyph-name="edieresis" unicode="&#xeb;" horiz-adv-x="507" 
d="M268 -13q-48 0 -89 17.5t-70 48t-45.5 73t-16.5 93.5q0 53 17 95.5t46.5 72t68 45t80.5 15.5q43 0 80 -15.5t64 -43.5t42 -67.5t15 -86.5v-20h-331q0 -39 10.5 -72t28.5 -56.5t42.5 -36.5t53.5 -13q37 0 62 9.5t40 21.5t21 22.5t7 13.5l44 -27q-3 -7 -13.5 -21.5
t-31 -29.5t-51.5 -26.5t-74 -11.5zM380 263q0 28 -7.5 53t-22.5 43.5t-38 29.5t-53 11q-29 0 -51.5 -12t-38 -31.5t-24.5 -44t-11 -49.5h246zM165 536q-21 0 -35.5 14.5t-14.5 35.5q0 20 14.5 35t35.5 15t35.5 -15t14.5 -35q0 -21 -14.5 -35.5t-35.5 -14.5zM349 536
q-21 0 -35.5 14.5t-14.5 35.5q0 20 14.5 35t35.5 15t36 -15t15 -35q0 -21 -15 -35.5t-36 -14.5z" />
    <glyph glyph-name="igrave" unicode="&#xec;" horiz-adv-x="253" 
d="M88 434h77v-434h-77v434zM48 610l44 56l130 -111l-24 -31z" />
    <glyph glyph-name="iacute" unicode="&#xed;" horiz-adv-x="253" 
d="M88 434h77v-434h-77v434zM44 555l126 109l40 -57l-144 -83z" />
    <glyph glyph-name="icircumflex" unicode="&#xee;" horiz-adv-x="253" 
d="M88 434h77v-434h-77v434zM3 544l124 128l123 -128l-27 -29l-96 71l-97 -71z" />
    <glyph glyph-name="idieresis" unicode="&#xef;" horiz-adv-x="252" 
d="M87 434h77v-434h-77v434zM33 536q-21 0 -35.5 14.5t-14.5 35.5q0 20 14.5 35t35.5 15t35.5 -15t14.5 -35q0 -21 -14.5 -35.5t-35.5 -14.5zM217 536q-21 0 -35.5 14.5t-14.5 35.5q0 20 14.5 35t35.5 15t36 -15t15 -35q0 -21 -15 -35.5t-36 -14.5z" />
    <glyph glyph-name="eth" unicode="&#xf0;" horiz-adv-x="538" 
d="M269 -13q-50 0 -91 17t-70 47.5t-45 73t-16 93.5t14.5 93t42.5 72t68 47t90 17q75 0 117 -45h1q-11 27 -27.5 51t-35 45t-36.5 37.5t-33 27.5l-101 -54l-35 31l104 53q-20 18 -44.5 35.5t-44.5 33.5l59 32q20 -17 44 -36.5t44 -36.5l103 52l39 -29l-106 -53
q53 -42 88 -85t55.5 -87t29 -89.5t8.5 -92.5q0 -51 -14 -96.5t-42 -79.5t-69.5 -54t-96.5 -20zM269 33q36 0 63 15t44.5 40.5t26.5 59t9 70.5q0 34 -9 67t-27 59t-45 42t-62 16t-62 -15t-45 -40.5t-27.5 -59t-9.5 -69.5q0 -34 9.5 -67t27.5 -59.5t45 -42.5t62 -16z" />
    <glyph glyph-name="ntilde" unicode="&#xf1;" 
d="M74 434h76v-60h2q26 33 64.5 53t87.5 20q22 0 49.5 -6t51.5 -22.5t40 -46.5t16 -79v-293h-78v284q0 63 -25 87.5t-78 24.5q-23 0 -43.5 -7t-37 -19t-29 -27t-19.5 -30v-313h-77v434zM137 545q0 16 6 32.5t17 29t27 20.5t36 8q18 0 32.5 -5.5t27.5 -12t24.5 -12t25.5 -5.5
q19 0 32 9.5t13 31.5l39 -11q-3 -18 -8.5 -34.5t-14.5 -28.5t-23 -19.5t-35 -7.5q-19 0 -34 6t-28.5 12.5t-26.5 12.5t-29 6q-17 0 -30 -12t-13 -30z" />
    <glyph glyph-name="ograve" unicode="&#xf2;" horiz-adv-x="537" 
d="M268 -13q-46 0 -86 16.5t-70 46.5t-47.5 72.5t-17.5 94.5t17.5 94.5t47.5 72.5t70.5 46.5t86.5 16.5t86 -16.5t70 -46.5t47.5 -72t17.5 -94q0 -53 -17.5 -95.5t-47.5 -72.5t-70.5 -46.5t-86.5 -16.5zM267 33q33 0 59 13.5t44.5 38t28.5 58t10 74.5q0 38 -10.5 71.5
t-29.5 58.5t-44.5 39.5t-56.5 14.5q-33 0 -59 -14t-44.5 -38.5t-28 -58t-9.5 -73.5q0 -38 10.5 -71.5t29 -58.5t44 -39.5t56.5 -14.5zM174 610l44 56l130 -111l-24 -31z" />
    <glyph glyph-name="oacute" unicode="&#xf3;" horiz-adv-x="537" 
d="M268 -13q-46 0 -86 16.5t-70 46.5t-47.5 72.5t-17.5 94.5t17.5 94.5t47.5 72.5t70.5 46.5t86.5 16.5t86 -16.5t70 -46.5t47.5 -72t17.5 -94q0 -53 -17.5 -95.5t-47.5 -72.5t-70.5 -46.5t-86.5 -16.5zM267 33q33 0 59 13.5t44.5 38t28.5 58t10 74.5q0 38 -10.5 71.5
t-29.5 58.5t-44.5 39.5t-56.5 14.5q-33 0 -59 -14t-44.5 -38.5t-28 -58t-9.5 -73.5q0 -38 10.5 -71.5t29 -58.5t44 -39.5t56.5 -14.5zM195 555l126 109l40 -57l-144 -83z" />
    <glyph glyph-name="ocircumflex" unicode="&#xf4;" horiz-adv-x="537" 
d="M268 -13q-46 0 -86 16.5t-70 46.5t-47.5 72.5t-17.5 94.5t17.5 94.5t47.5 72.5t70.5 46.5t86.5 16.5t86 -16.5t70 -46.5t47.5 -72t17.5 -94q0 -53 -17.5 -95.5t-47.5 -72.5t-70.5 -46.5t-86.5 -16.5zM267 33q33 0 59 13.5t44.5 38t28.5 58t10 74.5q0 38 -10.5 71.5
t-29.5 58.5t-44.5 39.5t-56.5 14.5q-33 0 -59 -14t-44.5 -38.5t-28 -58t-9.5 -73.5q0 -38 10.5 -71.5t29 -58.5t44 -39.5t56.5 -14.5zM145 544l124 128l123 -128l-27 -29l-96 71l-97 -71z" />
    <glyph glyph-name="otilde" unicode="&#xf5;" horiz-adv-x="537" 
d="M268 -13q-46 0 -86 16.5t-70 46.5t-47.5 72.5t-17.5 94.5t17.5 94.5t47.5 72.5t70.5 46.5t86.5 16.5t86 -16.5t70 -46.5t47.5 -72t17.5 -94q0 -53 -17.5 -95.5t-47.5 -72.5t-70.5 -46.5t-86.5 -16.5zM267 33q33 0 59 13.5t44.5 38t28.5 58t10 74.5q0 38 -10.5 71.5
t-29.5 58.5t-44.5 39.5t-56.5 14.5q-33 0 -59 -14t-44.5 -38.5t-28 -58t-9.5 -73.5q0 -38 10.5 -71.5t29 -58.5t44 -39.5t56.5 -14.5zM135 545q0 16 6 32.5t17 29t27 20.5t36 8q18 0 32.5 -5.5t27.5 -12t24.5 -12t25.5 -5.5q19 0 32 9.5t13 31.5l39 -11q-3 -18 -8.5 -34.5
t-14.5 -28.5t-23 -19.5t-35 -7.5q-19 0 -34 6t-28.5 12.5t-26.5 12.5t-29 6q-17 0 -30 -12t-13 -30z" />
    <glyph glyph-name="odieresis" unicode="&#xf6;" horiz-adv-x="537" 
d="M268 -13q-46 0 -86 16.5t-70 46.5t-47.5 72.5t-17.5 94.5t17.5 94.5t47.5 72.5t70.5 46.5t86.5 16.5t86 -16.5t70 -46.5t47.5 -72t17.5 -94q0 -53 -17.5 -95.5t-47.5 -72.5t-70.5 -46.5t-86.5 -16.5zM267 33q33 0 59 13.5t44.5 38t28.5 58t10 74.5q0 38 -10.5 71.5
t-29.5 58.5t-44.5 39.5t-56.5 14.5q-33 0 -59 -14t-44.5 -38.5t-28 -58t-9.5 -73.5q0 -38 10.5 -71.5t29 -58.5t44 -39.5t56.5 -14.5zM184 536q-21 0 -35.5 14.5t-14.5 35.5q0 20 14.5 35t35.5 15t35.5 -15t14.5 -35q0 -21 -14.5 -35.5t-35.5 -14.5zM368 536
q-21 0 -35.5 14.5t-14.5 35.5q0 20 14.5 35t35.5 15t36 -15t15 -35q0 -21 -15 -35.5t-36 -14.5z" />
    <glyph glyph-name="divide" unicode="&#xf7;" horiz-adv-x="522" 
d="M262 57q-22 0 -37.5 15.5t-15.5 37.5q0 23 15.5 38t37.5 15t37.5 -15.5t15.5 -37.5q0 -23 -15.5 -38t-37.5 -15zM47 288h428v-55h-428v55zM262 360q-22 0 -37.5 15.5t-15.5 37.5q0 23 15.5 38t37.5 15t37.5 -15.5t15.5 -37.5q0 -23 -15.5 -38t-37.5 -15z" />
    <glyph glyph-name="oslash" unicode="&#xf8;" horiz-adv-x="536" 
d="M268 -13q-38 0 -72 11.5t-62 32.5l-49 -53l-31 34l46 49q-25 30 -39 69t-14 87q0 52 17.5 94.5t47.5 72.5t70.5 46.5t86.5 16.5q85 0 145 -52l48 52l34 -33l-50 -53q20 -29 32 -65t12 -78q0 -53 -17.5 -95.5t-47.5 -72.5t-70.5 -46.5t-86.5 -16.5zM267 33q33 0 59 13.5
t44.5 38t28.5 58t10 74.5q0 49 -16 87l-217 -230q38 -41 91 -41zM268 401q-33 0 -59.5 -14t-45 -38.5t-28.5 -58t-10 -73.5q0 -29 6 -55.5t18 -48.5l219 235q-19 24 -44 38.5t-56 14.5z" />
    <glyph glyph-name="ugrave" unicode="&#xf9;" 
d="M227 -13q-23 0 -50 6t-51 22.5t-40 46.5t-16 79v293h78v-281q0 -64 25 -89t78 -25q23 0 43.5 7t37.5 19t29 27t19 31v311h77v-434h-74l-2 61h-1q-26 -32 -65 -53t-88 -21zM164 610l44 56l130 -111l-24 -31z" />
    <glyph glyph-name="uacute" unicode="&#xfa;" 
d="M227 -13q-23 0 -50 6t-51 22.5t-40 46.5t-16 79v293h78v-281q0 -64 25 -89t78 -25q23 0 43.5 7t37.5 19t29 27t19 31v311h77v-434h-74l-2 61h-1q-26 -32 -65 -53t-88 -21zM184 555l126 109l40 -57l-144 -83z" />
    <glyph glyph-name="ucircumflex" unicode="&#xfb;" 
d="M227 -13q-23 0 -50 6t-51 22.5t-40 46.5t-16 79v293h78v-281q0 -64 25 -89t78 -25q23 0 43.5 7t37.5 19t29 27t19 31v311h77v-434h-74l-2 61h-1q-26 -32 -65 -53t-88 -21zM139 544l124 128l123 -128l-27 -29l-96 71l-97 -71z" />
    <glyph glyph-name="udieresis" unicode="&#xfc;" 
d="M227 -13q-23 0 -50 6t-51 22.5t-40 46.5t-16 79v293h78v-281q0 -64 25 -89t78 -25q23 0 43.5 7t37.5 19t29 27t19 31v311h77v-434h-74l-2 61h-1q-26 -32 -65 -53t-88 -21zM174 536q-21 0 -35.5 14.5t-14.5 35.5q0 20 14.5 35t35.5 15t35.5 -15t14.5 -35
q0 -21 -14.5 -35.5t-35.5 -14.5zM358 536q-21 0 -35.5 14.5t-14.5 35.5q0 20 14.5 35t35.5 15t36 -15t15 -35q0 -21 -15 -35.5t-36 -14.5z" />
    <glyph glyph-name="yacute" unicode="&#xfd;" horiz-adv-x="456" 
d="M114 -218q-16 0 -28 1t-20 3q-10 2 -18 4l11 51q5 -2 12 -4q6 -2 15.5 -3t23.5 -1q17 0 28 8t21 31l48 116l-198 446h91l148 -351h2l138 351h60l-224 -547l-16 -38t-20.5 -34t-30 -24t-43.5 -9zM161 555l126 109l40 -57l-144 -83z" />
    <glyph glyph-name="thorn" unicode="&#xfe;" horiz-adv-x="549" 
d="M74 694h77v-314h2q18 26 57 46.5t88 20.5q46 0 84 -16t64.5 -46t41 -72t14.5 -93q0 -49 -15.5 -91.5t-42.5 -74t-64.5 -49.5t-81.5 -18q-45 0 -83.5 17.5t-61.5 46.5h-2v-259h-77v902zM151 111q21 -36 55 -55t75 -19q62 0 101.5 45.5t39.5 138.5q0 83 -35 132t-100 49
q-26 0 -48 -7.5t-39.5 -19.5t-30 -27t-18.5 -30v-207z" />
    <glyph glyph-name="ydieresis" unicode="&#xff;" horiz-adv-x="456" 
d="M114 -218q-16 0 -28 1t-20 3q-10 2 -18 4l11 51q5 -2 12 -4q6 -2 15.5 -3t23.5 -1q17 0 28 8t21 31l48 116l-198 446h91l148 -351h2l138 351h60l-224 -547l-16 -38t-20.5 -34t-30 -24t-43.5 -9zM143 536q-21 0 -35.5 14.5t-14.5 35.5q0 20 14.5 35t35.5 15t35.5 -15
t14.5 -35q0 -21 -14.5 -35.5t-35.5 -14.5zM327 536q-21 0 -35.5 14.5t-14.5 35.5q0 20 14.5 35t35.5 15t36 -15t15 -35q0 -21 -15 -35.5t-36 -14.5z" />
    <glyph glyph-name="Amacron" unicode="&#x100;" horiz-adv-x="626" 
d="M287 680h50l270 -680h-90l-78 207h-278l-80 -207h-62zM420 256l-120 312h-1l-119 -312h240zM184 803h257v-49h-257v49z" />
    <glyph glyph-name="amacron" unicode="&#x101;" horiz-adv-x="483" 
d="M198 -13q-67 0 -109 36t-42 105q0 27 10 50.5t31 41.5t54 29t78 13l121 5v15q0 65 -24.5 92t-80.5 27q-40 0 -63 -18.5t-34 -41.5l-50 36q23 30 57.5 50t96.5 20q85 0 130 -39.5t45 -120.5v-287h-74l-2 61h-2q-10 -13 -25 -26.5t-33 -24t-39.5 -17t-44.5 -6.5zM209 39
q28 0 50 7.5t38.5 19.5t27 26.5t16.5 28.5v101l-93 -4q-26 -2 -48 -6.5t-38.5 -15t-26 -27.5t-9.5 -42q0 -39 20.5 -63.5t62.5 -24.5zM123 609h257v-49h-257v49z" />
    <glyph glyph-name="Abreve" unicode="&#x102;" horiz-adv-x="626" 
d="M287 680h50l270 -680h-90l-78 207h-278l-80 -207h-62zM420 256l-120 312h-1l-119 -312h240zM308 729q-50 0 -84 33t-38 90h42q7 -36 27.5 -55t52.5 -19q39 0 58 19.5t26 54.5h41q-1 -54 -36 -88.5t-89 -34.5z" />
    <glyph glyph-name="abreve" unicode="&#x103;" horiz-adv-x="483" 
d="M198 -13q-67 0 -109 36t-42 105q0 27 10 50.5t31 41.5t54 29t78 13l121 5v15q0 65 -24.5 92t-80.5 27q-40 0 -63 -18.5t-34 -41.5l-50 36q23 30 57.5 50t96.5 20q85 0 130 -39.5t45 -120.5v-287h-74l-2 61h-2q-10 -13 -25 -26.5t-33 -24t-39.5 -17t-44.5 -6.5zM209 39
q28 0 50 7.5t38.5 19.5t27 26.5t16.5 28.5v101l-93 -4q-26 -2 -48 -6.5t-38.5 -15t-26 -27.5t-9.5 -42q0 -39 20.5 -63.5t62.5 -24.5zM245 523q-50 0 -84 33t-38 90h42q7 -36 27.5 -55t52.5 -19q39 0 58 19.5t26 54.5h41q-1 -54 -36 -88.5t-89 -34.5z" />
    <glyph glyph-name="Aogonek" unicode="&#x104;" horiz-adv-x="626" 
d="M287 680h50l270 -680h-90l-78 207h-278l-80 -207h-62zM420 256l-120 312h-1l-119 -312h240zM543 -192q-36 0 -61 20t-25 59q0 28 13 53.5t33 41.5h52q-16 -14 -25.5 -34.5t-9.5 -37.5q0 -16 5 -25t12 -13t14.5 -4.5t12.5 -0.5q27 0 45 16l20 -39q-18 -17 -39 -26.5
t-47 -9.5z" />
    <glyph glyph-name="aogonek" unicode="&#x105;" horiz-adv-x="483" 
d="M198 -13q-67 0 -109 36t-42 105q0 27 10 50.5t31 41.5t54 29t78 13l121 5v15q0 65 -24.5 92t-80.5 27q-40 0 -63 -18.5t-34 -41.5l-50 36q23 30 57.5 50t96.5 20q85 0 130 -39.5t45 -120.5v-287h-74l-2 61h-2q-10 -13 -25 -26.5t-33 -24t-39.5 -17t-44.5 -6.5zM209 39
q28 0 50 7.5t38.5 19.5t27 26.5t16.5 28.5v101l-93 -4q-26 -2 -48 -6.5t-38.5 -15t-26 -27.5t-9.5 -42q0 -39 20.5 -63.5t62.5 -24.5zM375 -192q-36 0 -61 20t-25 59q0 28 13 53.5t33 41.5h52q-16 -14 -25.5 -34.5t-9.5 -37.5q0 -16 5 -25t12 -13t14.5 -4.5t12.5 -0.5
q27 0 45 16l20 -39q-18 -17 -39 -26.5t-47 -9.5z" />
    <glyph glyph-name="Cacute" unicode="&#x106;" horiz-adv-x="662" 
d="M373 -13q-75 0 -135 29t-102.5 77.5t-65.5 112.5t-23 134q0 92 28.5 158.5t75 110t105.5 64.5t119 21q50 0 87 -7.5t64 -19.5t45.5 -27t33.5 -29l-53 -43q-7 10 -20.5 23.5t-34.5 24.5t-50 19t-67 8q-51 0 -95.5 -19.5t-77 -57.5t-51.5 -94.5t-19 -131.5q0 -66 17.5 -121
t49 -95t76.5 -62.5t100 -22.5q43 0 75.5 9.5t56.5 23.5t39 29t23 26l46 -39q-17 -18 -38 -36t-50 -32.5t-68 -23.5t-91 -9zM296 769l126 109l40 -57l-144 -83z" />
    <glyph glyph-name="cacute" unicode="&#x107;" horiz-adv-x="477" 
d="M262 -13q-45 0 -84 17t-68 47.5t-46 72.5t-17 93q0 54 16.5 97t45.5 72.5t68.5 45t86.5 15.5q31 0 57.5 -7t47.5 -17.5t36 -24t23 -25.5l-48 -40q-3 6 -10.5 17.5t-21 23t-33.5 19.5t-48 8q-66 0 -102 -49.5t-36 -134.5q0 -35 7.5 -67.5t24.5 -57.5t43.5 -40.5
t64.5 -15.5q50 0 78.5 19t42.5 45l41 -29q-20 -35 -61.5 -59.5t-107.5 -24.5zM185 555l126 109l40 -57l-144 -83z" />
    <glyph glyph-name="Ccircumflex" unicode="&#x108;" horiz-adv-x="662" 
d="M373 -13q-75 0 -135 29t-102.5 77.5t-65.5 112.5t-23 134q0 92 28.5 158.5t75 110t105.5 64.5t119 21q50 0 87 -7.5t64 -19.5t45.5 -27t33.5 -29l-53 -43q-7 10 -20.5 23.5t-34.5 24.5t-50 19t-67 8q-51 0 -95.5 -19.5t-77 -57.5t-51.5 -94.5t-19 -131.5q0 -66 17.5 -121
t49 -95t76.5 -62.5t100 -22.5q43 0 75.5 9.5t56.5 23.5t39 29t23 26l46 -39q-17 -18 -38 -36t-50 -32.5t-68 -23.5t-91 -9zM250 761l124 128l123 -128l-27 -29l-96 71l-97 -71z" />
    <glyph glyph-name="ccircumflex" unicode="&#x109;" horiz-adv-x="477" 
d="M262 -13q-45 0 -84 17t-68 47.5t-46 72.5t-17 93q0 54 16.5 97t45.5 72.5t68.5 45t86.5 15.5q31 0 57.5 -7t47.5 -17.5t36 -24t23 -25.5l-48 -40q-3 6 -10.5 17.5t-21 23t-33.5 19.5t-48 8q-66 0 -102 -49.5t-36 -134.5q0 -35 7.5 -67.5t24.5 -57.5t43.5 -40.5
t64.5 -15.5q50 0 78.5 19t42.5 45l41 -29q-20 -35 -61.5 -59.5t-107.5 -24.5zM142 544l124 128l123 -128l-27 -29l-96 71l-97 -71z" />
    <glyph glyph-name="Cdotaccent" unicode="&#x10a;" horiz-adv-x="662" 
d="M373 -13q-75 0 -135 29t-102.5 77.5t-65.5 112.5t-23 134q0 92 28.5 158.5t75 110t105.5 64.5t119 21q50 0 87 -7.5t64 -19.5t45.5 -27t33.5 -29l-53 -43q-7 10 -20.5 23.5t-34.5 24.5t-50 19t-67 8q-51 0 -95.5 -19.5t-77 -57.5t-51.5 -94.5t-19 -131.5q0 -66 17.5 -121
t49 -95t76.5 -62.5t100 -22.5q43 0 75.5 9.5t56.5 23.5t39 29t23 26l46 -39q-17 -18 -38 -36t-50 -32.5t-68 -23.5t-91 -9zM370 739q-22 0 -36 14.5t-14 35.5q0 20 14.5 35t35.5 15t35.5 -15t14.5 -35q0 -21 -14.5 -35.5t-35.5 -14.5z" />
    <glyph glyph-name="cdotaccent" unicode="&#x10b;" horiz-adv-x="477" 
d="M262 -13q-45 0 -84 17t-68 47.5t-46 72.5t-17 93q0 54 16.5 97t45.5 72.5t68.5 45t86.5 15.5q31 0 57.5 -7t47.5 -17.5t36 -24t23 -25.5l-48 -40q-3 6 -10.5 17.5t-21 23t-33.5 19.5t-48 8q-66 0 -102 -49.5t-36 -134.5q0 -35 7.5 -67.5t24.5 -57.5t43.5 -40.5
t64.5 -15.5q50 0 78.5 19t42.5 45l41 -29q-20 -35 -61.5 -59.5t-107.5 -24.5zM266 536q-22 0 -36 14.5t-14 35.5q0 20 14.5 35t35.5 15t35.5 -15t14.5 -35q0 -21 -14.5 -35.5t-35.5 -14.5z" />
    <glyph glyph-name="Ccaron" unicode="&#x10c;" horiz-adv-x="662" 
d="M373 -13q-75 0 -135 29t-102.5 77.5t-65.5 112.5t-23 134q0 92 28.5 158.5t75 110t105.5 64.5t119 21q50 0 87 -7.5t64 -19.5t45.5 -27t33.5 -29l-53 -43q-7 10 -20.5 23.5t-34.5 24.5t-50 19t-67 8q-51 0 -95.5 -19.5t-77 -57.5t-51.5 -94.5t-19 -131.5q0 -66 17.5 -121
t49 -95t76.5 -62.5t100 -22.5q43 0 75.5 9.5t56.5 23.5t39 29t23 26l46 -39q-17 -18 -38 -36t-50 -32.5t-68 -23.5t-91 -9zM249 869h55l72 -74h2l70 74h55l-102 -134h-48z" />
    <glyph glyph-name="ccaron" unicode="&#x10d;" horiz-adv-x="477" 
d="M262 -13q-45 0 -84 17t-68 47.5t-46 72.5t-17 93q0 54 16.5 97t45.5 72.5t68.5 45t86.5 15.5q31 0 57.5 -7t47.5 -17.5t36 -24t23 -25.5l-48 -40q-3 6 -10.5 17.5t-21 23t-33.5 19.5t-48 8q-66 0 -102 -49.5t-36 -134.5q0 -35 7.5 -67.5t24.5 -57.5t43.5 -40.5
t64.5 -15.5q50 0 78.5 19t42.5 45l41 -29q-20 -35 -61.5 -59.5t-107.5 -24.5zM135 655h55l72 -74h2l70 74h55l-102 -134h-48z" />
    <glyph glyph-name="Dcaron" unicode="&#x10e;" horiz-adv-x="695" 
d="M88 680h205q99 0 167 -29t110 -75.5t60 -106.5t18 -121q0 -78 -23.5 -142t-69.5 -109.5t-114 -71t-157 -25.5h-196v680zM274 54q79 0 133.5 22t88.5 61.5t49.5 93.5t15.5 117q0 53 -15.5 104t-48.5 90.5t-85.5 63.5t-127.5 24l-117 -1v-574zM206 869h55l72 -74h2l70 74
h55l-102 -134h-48z" />
    <glyph glyph-name="dcaron" unicode="&#x10f;" horiz-adv-x="612" 
d="M252 -13q-44 0 -81.5 18t-65 49.5t-43 74t-15.5 91.5q0 48 15 89t42.5 72t65.5 48.5t85 17.5q48 0 85.5 -18t55.5 -44h2v309h76v-694h-73l-2 61h-2q-22 -32 -61 -53t-84 -21zM268 37q43 0 75.5 19.5t54.5 64.5v202q-7 15 -18.5 29t-28 25t-38 18t-47.5 7q-65 0 -102 -49
t-37 -132q0 -41 10.5 -75t29 -58t44.5 -37.5t57 -13.5zM576 576q-23 0 -37.5 14.5t-14.5 37.5t14.5 37.5t37.5 14.5q29 0 42 -19t13 -42q0 -29 -14 -58t-48 -69l-39 10q17 19 30 39t18 33z" />
    <glyph glyph-name="Dcroat" unicode="&#x110;" horiz-adv-x="707" 
d="M100 322h-70v53h70v305h205q99 0 167 -29t110 -75.5t60 -106.5t18 -121q0 -78 -23.5 -142t-69.5 -109.5t-114.5 -71t-157.5 -25.5h-195v322zM286 54q78 0 133 22t89 61.5t49.5 93.5t15.5 117q0 53 -15.5 104t-49 90.5t-86 63.5t-127.5 24l-117 -1v-254h155v-53h-155v-267
z" />
    <glyph glyph-name="dcroat" unicode="&#x111;" horiz-adv-x="560" 
d="M252 -13q-44 0 -81.5 18t-65 49.5t-43 74t-15.5 91.5q0 48 15 89t42.5 72t65.5 48.5t85 17.5q48 0 85.5 -18t55.5 -44h2v107h-138v49h138v153h76v-153h60v-49h-60v-492h-73l-2 61h-2q-22 -32 -61 -53t-84 -21zM268 37q43 0 75.5 19.5t54.5 64.5v202q-7 15 -18.5 29
t-28 25t-38 18t-47.5 7q-65 0 -102 -49t-37 -132q0 -41 10.5 -75t29 -58t44.5 -37.5t57 -13.5z" />
    <glyph glyph-name="Emacron" unicode="&#x112;" horiz-adv-x="524" 
d="M88 680h369v-53h-290v-242h253v-53h-253v-277h301v-55h-380v680zM151 803h257v-49h-257v49z" />
    <glyph glyph-name="emacron" unicode="&#x113;" horiz-adv-x="507" 
d="M268 -13q-48 0 -89 17.5t-70 48t-45.5 73t-16.5 93.5q0 53 17 95.5t46.5 72t68 45t80.5 15.5q43 0 80 -15.5t64 -43.5t42 -67.5t15 -86.5v-20h-331q0 -39 10.5 -72t28.5 -56.5t42.5 -36.5t53.5 -13q37 0 62 9.5t40 21.5t21 22.5t7 13.5l44 -27q-3 -7 -13.5 -21.5
t-31 -29.5t-51.5 -26.5t-74 -11.5zM380 263q0 28 -7.5 53t-22.5 43.5t-38 29.5t-53 11q-29 0 -51.5 -12t-38 -31.5t-24.5 -44t-11 -49.5h246zM132 609h257v-49h-257v49z" />
    <glyph glyph-name="Ebreve" unicode="&#x114;" horiz-adv-x="524" 
d="M88 680h369v-53h-290v-242h253v-53h-253v-277h301v-55h-380v680zM274 729q-50 0 -84 33t-38 90h42q7 -36 27.5 -55t52.5 -19q39 0 58 19.5t26 54.5h41q-1 -54 -36 -88.5t-89 -34.5z" />
    <glyph glyph-name="ebreve" unicode="&#x115;" horiz-adv-x="507" 
d="M268 -13q-48 0 -89 17.5t-70 48t-45.5 73t-16.5 93.5q0 53 17 95.5t46.5 72t68 45t80.5 15.5q43 0 80 -15.5t64 -43.5t42 -67.5t15 -86.5v-20h-331q0 -39 10.5 -72t28.5 -56.5t42.5 -36.5t53.5 -13q37 0 62 9.5t40 21.5t21 22.5t7 13.5l44 -27q-3 -7 -13.5 -21.5
t-31 -29.5t-51.5 -26.5t-74 -11.5zM380 263q0 28 -7.5 53t-22.5 43.5t-38 29.5t-53 11q-29 0 -51.5 -12t-38 -31.5t-24.5 -44t-11 -49.5h246zM256 523q-50 0 -84 33t-38 90h42q7 -36 27.5 -55t52.5 -19q39 0 58 19.5t26 54.5h41q-1 -54 -36 -88.5t-89 -34.5z" />
    <glyph glyph-name="Edotaccent" unicode="&#x116;" horiz-adv-x="524" 
d="M88 680h369v-53h-290v-242h253v-53h-253v-277h301v-55h-380v680zM281 739q-22 0 -36 14.5t-14 35.5q0 20 14.5 35t35.5 15t35.5 -15t14.5 -35q0 -21 -14.5 -35.5t-35.5 -14.5z" />
    <glyph glyph-name="edotaccent" unicode="&#x117;" horiz-adv-x="507" 
d="M268 -13q-48 0 -89 17.5t-70 48t-45.5 73t-16.5 93.5q0 53 17 95.5t46.5 72t68 45t80.5 15.5q43 0 80 -15.5t64 -43.5t42 -67.5t15 -86.5v-20h-331q0 -39 10.5 -72t28.5 -56.5t42.5 -36.5t53.5 -13q37 0 62 9.5t40 21.5t21 22.5t7 13.5l44 -27q-3 -7 -13.5 -21.5
t-31 -29.5t-51.5 -26.5t-74 -11.5zM380 263q0 28 -7.5 53t-22.5 43.5t-38 29.5t-53 11q-29 0 -51.5 -12t-38 -31.5t-24.5 -44t-11 -49.5h246zM262 536q-22 0 -36 14.5t-14 35.5q0 20 14.5 35t35.5 15t35.5 -15t14.5 -35q0 -21 -14.5 -35.5t-35.5 -14.5z" />
    <glyph glyph-name="Eogonek" unicode="&#x118;" horiz-adv-x="524" 
d="M88 680h369v-53h-290v-242h253v-53h-253v-277h301v-55h-380v680zM440 -192q-36 0 -61 20t-25 59q0 28 13 53.5t33 41.5h52q-16 -14 -25.5 -34.5t-9.5 -37.5q0 -16 5 -25t12 -13t14.5 -4.5t12.5 -0.5q27 0 45 16l20 -39q-18 -17 -39 -26.5t-47 -9.5z" />
    <glyph glyph-name="eogonek" unicode="&#x119;" horiz-adv-x="507" 
d="M268 -13q-48 0 -89 17.5t-70 48t-45.5 73t-16.5 93.5q0 53 17 95.5t46.5 72t68 45t80.5 15.5q43 0 80 -15.5t64 -43.5t42 -67.5t15 -86.5v-20h-331q0 -39 10.5 -72t28.5 -56.5t42.5 -36.5t53.5 -13q37 0 62 9.5t40 21.5t21 22.5t7 13.5l44 -27q-3 -7 -13.5 -21.5
t-31 -29.5t-51.5 -26.5t-74 -11.5zM380 263q0 28 -7.5 53t-22.5 43.5t-38 29.5t-53 11q-29 0 -51.5 -12t-38 -31.5t-24.5 -44t-11 -49.5h246zM279 -202q-36 0 -61 20t-25 59q0 28 13 53.5t33 41.5h52q-16 -14 -25.5 -34.5t-9.5 -37.5q0 -16 5 -25t12 -13t14.5 -4.5
t12.5 -0.5q27 0 45 16l20 -39q-18 -17 -39 -26.5t-47 -9.5z" />
    <glyph glyph-name="Ecaron" unicode="&#x11a;" horiz-adv-x="524" 
d="M88 680h369v-53h-290v-242h253v-53h-253v-277h301v-55h-380v680zM159 869h55l72 -74h2l70 74h55l-102 -134h-48z" />
    <glyph glyph-name="ecaron" unicode="&#x11b;" horiz-adv-x="507" 
d="M268 -13q-48 0 -89 17.5t-70 48t-45.5 73t-16.5 93.5q0 53 17 95.5t46.5 72t68 45t80.5 15.5q43 0 80 -15.5t64 -43.5t42 -67.5t15 -86.5v-20h-331q0 -39 10.5 -72t28.5 -56.5t42.5 -36.5t53.5 -13q37 0 62 9.5t40 21.5t21 22.5t7 13.5l44 -27q-3 -7 -13.5 -21.5
t-31 -29.5t-51.5 -26.5t-74 -11.5zM380 263q0 28 -7.5 53t-22.5 43.5t-38 29.5t-53 11q-29 0 -51.5 -12t-38 -31.5t-24.5 -44t-11 -49.5h246zM131 655h55l72 -74h2l70 74h55l-102 -134h-48z" />
    <glyph glyph-name="Gcircumflex" unicode="&#x11c;" horiz-adv-x="692" 
d="M386 -13q-69 0 -130.5 24t-108 69.5t-73.5 111t-27 148.5q0 89 28.5 155.5t75 110.5t107 66t124.5 22q55 0 93.5 -8.5t66 -21t45.5 -26.5t32 -26l-54 -43q-3 3 -14.5 15t-33.5 25t-55.5 23.5t-79.5 10.5q-50 0 -94.5 -21t-77.5 -60t-52.5 -95.5t-19.5 -126.5
q0 -68 19 -123.5t52.5 -95t79.5 -61t99 -21.5q68 0 106 13.5t48 22.5v258h80v-281q-10 -8 -30 -19t-50 -21.5t-69 -17.5t-87 -7zM252 761l124 128l123 -128l-27 -29l-96 71l-97 -71z" />
    <glyph glyph-name="gcircumflex" unicode="&#x11d;" horiz-adv-x="538" 
d="M256 -218q-60 0 -105 20.5t-68 54.5l39 38q20 -29 55 -45.5t76 -16.5q28 0 52.5 5t42.5 20t28.5 42.5t10.5 72.5v84h-2q-16 -25 -50.5 -47.5t-87.5 -22.5q-45 0 -81.5 16.5t-63 47.5t-41 73.5t-14.5 95.5q0 52 17 94t48.5 71.5t76.5 45.5t101 16q60 0 104 -9t69 -18v-438
q0 -200 -207 -200zM260 39q51 0 83 24.5t44 54.5v275q-3 0 -8 1.5t-15.5 4t-28 4t-44.5 1.5q-81 0 -121.5 -48t-40.5 -136q0 -38 8.5 -71t25 -57.5t41 -38.5t56.5 -14zM155 544l124 128l123 -128l-27 -29l-96 71l-97 -71z" />
    <glyph glyph-name="Gbreve" unicode="&#x11e;" horiz-adv-x="692" 
d="M386 -13q-69 0 -130.5 24t-108 69.5t-73.5 111t-27 148.5q0 89 28.5 155.5t75 110.5t107 66t124.5 22q55 0 93.5 -8.5t66 -21t45.5 -26.5t32 -26l-54 -43q-3 3 -14.5 15t-33.5 25t-55.5 23.5t-79.5 10.5q-50 0 -94.5 -21t-77.5 -60t-52.5 -95.5t-19.5 -126.5
q0 -68 19 -123.5t52.5 -95t79.5 -61t99 -21.5q68 0 106 13.5t48 22.5v258h80v-281q-10 -8 -30 -19t-50 -21.5t-69 -17.5t-87 -7zM379 729q-50 0 -84 33t-38 90h42q7 -36 27.5 -55t52.5 -19q39 0 58 19.5t26 54.5h41q-1 -54 -36 -88.5t-89 -34.5z" />
    <glyph glyph-name="gbreve" unicode="&#x11f;" horiz-adv-x="538" 
d="M256 -218q-60 0 -105 20.5t-68 54.5l39 38q20 -29 55 -45.5t76 -16.5q28 0 52.5 5t42.5 20t28.5 42.5t10.5 72.5v84h-2q-16 -25 -50.5 -47.5t-87.5 -22.5q-45 0 -81.5 16.5t-63 47.5t-41 73.5t-14.5 95.5q0 52 17 94t48.5 71.5t76.5 45.5t101 16q60 0 104 -9t69 -18v-438
q0 -200 -207 -200zM260 39q51 0 83 24.5t44 54.5v275q-3 0 -8 1.5t-15.5 4t-28 4t-44.5 1.5q-81 0 -121.5 -48t-40.5 -136q0 -38 8.5 -71t25 -57.5t41 -38.5t56.5 -14zM286 523q-50 0 -84 33t-38 90h42q7 -36 27.5 -55t52.5 -19q39 0 58 19.5t26 54.5h41q-1 -54 -36 -88.5
t-89 -34.5z" />
    <glyph glyph-name="Gdotaccent" unicode="&#x120;" horiz-adv-x="692" 
d="M386 -13q-69 0 -130.5 24t-108 69.5t-73.5 111t-27 148.5q0 89 28.5 155.5t75 110.5t107 66t124.5 22q55 0 93.5 -8.5t66 -21t45.5 -26.5t32 -26l-54 -43q-3 3 -14.5 15t-33.5 25t-55.5 23.5t-79.5 10.5q-50 0 -94.5 -21t-77.5 -60t-52.5 -95.5t-19.5 -126.5
q0 -68 19 -123.5t52.5 -95t79.5 -61t99 -21.5q68 0 106 13.5t48 22.5v258h80v-281q-10 -8 -30 -19t-50 -21.5t-69 -17.5t-87 -7zM375 739q-22 0 -36 14.5t-14 35.5q0 20 14.5 35t35.5 15t35.5 -15t14.5 -35q0 -21 -14.5 -35.5t-35.5 -14.5z" />
    <glyph glyph-name="gdotaccent" unicode="&#x121;" horiz-adv-x="538" 
d="M256 -218q-60 0 -105 20.5t-68 54.5l39 38q20 -29 55 -45.5t76 -16.5q28 0 52.5 5t42.5 20t28.5 42.5t10.5 72.5v84h-2q-16 -25 -50.5 -47.5t-87.5 -22.5q-45 0 -81.5 16.5t-63 47.5t-41 73.5t-14.5 95.5q0 52 17 94t48.5 71.5t76.5 45.5t101 16q60 0 104 -9t69 -18v-438
q0 -200 -207 -200zM260 39q51 0 83 24.5t44 54.5v275q-3 0 -8 1.5t-15.5 4t-28 4t-44.5 1.5q-81 0 -121.5 -48t-40.5 -136q0 -38 8.5 -71t25 -57.5t41 -38.5t56.5 -14zM288 536q-22 0 -36 14.5t-14 35.5q0 20 14.5 35t35.5 15t35.5 -15t14.5 -35q0 -21 -14.5 -35.5
t-35.5 -14.5z" />
    <glyph glyph-name="Gcommaaccent" unicode="&#x122;" horiz-adv-x="692" 
d="M386 -13q-69 0 -130.5 24t-108 69.5t-73.5 111t-27 148.5q0 89 28.5 155.5t75 110.5t107 66t124.5 22q55 0 93.5 -8.5t66 -21t45.5 -26.5t32 -26l-54 -43q-3 3 -14.5 15t-33.5 25t-55.5 23.5t-79.5 10.5q-50 0 -94.5 -21t-77.5 -60t-52.5 -95.5t-19.5 -126.5
q0 -68 19 -123.5t52.5 -95t79.5 -61t99 -21.5q68 0 106 13.5t48 22.5v258h80v-281q-10 -8 -30 -19t-50 -21.5t-69 -17.5t-87 -7zM380 -132q-23 0 -37.5 14.5t-14.5 37.5t14.5 37.5t37.5 14.5q29 0 42 -19t13 -42q0 -29 -14 -58t-48 -69l-39 10q17 19 30 39t18 33z" />
    <glyph glyph-name="gcommaaccent" unicode="&#x123;" horiz-adv-x="538" 
d="M256 -218q-60 0 -105 20.5t-68 54.5l39 38q20 -29 55 -45.5t76 -16.5q28 0 52.5 5t42.5 20t28.5 42.5t10.5 72.5v84h-2q-16 -25 -50.5 -47.5t-87.5 -22.5q-45 0 -81.5 16.5t-63 47.5t-41 73.5t-14.5 95.5q0 52 17 94t48.5 71.5t76.5 45.5t101 16q60 0 104 -9t69 -18v-438
q0 -200 -207 -200zM260 39q51 0 83 24.5t44 54.5v275q-3 0 -8 1.5t-15.5 4t-28 4t-44.5 1.5q-81 0 -121.5 -48t-40.5 -136q0 -38 8.5 -71t25 -57.5t41 -38.5t56.5 -14zM292 634q22 0 36 -14.5t14 -35.5q0 -22 -14 -36t-36 -14q-28 0 -40.5 18t-12.5 40q0 28 13.5 56t46.5 66
l37 -9q-17 -18 -29 -37.5t-17 -31.5z" />
    <glyph glyph-name="Hcircumflex" unicode="&#x124;" horiz-adv-x="670" 
d="M88 680h79v-295h336v295h79v-680h-79v332h-336v-332h-79v680zM212 761l124 128l123 -128l-27 -29l-96 71l-97 -71z" />
    <glyph glyph-name="hcircumflex" unicode="&#x125;" 
d="M74 694h77v-320h2q26 33 64 53t87 20q22 0 49.5 -6t51.5 -22.5t40 -46.5t16 -79v-293h-78v284q0 63 -25 87.5t-78 24.5q-23 0 -43.5 -7t-37 -19t-29 -27t-19.5 -30v-313h-77v694zM174 761l124 128l123 -128l-27 -29l-96 71l-97 -71z" />
    <glyph glyph-name="Hbar" unicode="&#x126;" horiz-adv-x="670" 
d="M88 680h79v-185h336v185h79v-680h-79v332h-336v-332h-79v680zM503 385v61h-336v-61h336z" />
    <glyph glyph-name="hbar" unicode="&#x127;" horiz-adv-x="543" 
d="M86 492h-60v49h60v153h77v-153h158v-49h-158v-118h2q26 33 64 53t87 20q22 0 49.5 -6t51.5 -22.5t40 -46.5t16 -79v-293h-78v284q0 63 -25 87.5t-78 24.5q-23 0 -43.5 -7t-37 -19t-29 -27t-19.5 -30v-313h-77v492z" />
    <glyph glyph-name="Itilde" unicode="&#x128;" horiz-adv-x="255" 
d="M88 680h79v-680h-79v680zM-14 742q0 16 6 32.5t17 29t27 20.5t36 8q18 0 32.5 -5.5t27.5 -12t24.5 -12t25.5 -5.5q19 0 32 9.5t13 31.5l39 -11q-3 -18 -8.5 -34.5t-14.5 -28.5t-23 -19.5t-35 -7.5q-19 0 -34 6t-28.5 12.5t-26.5 12.5t-29 6q-17 0 -30 -12t-13 -30z" />
    <glyph glyph-name="itilde" unicode="&#x129;" horiz-adv-x="252" 
d="M87 434h77v-434h-77v434zM-14 545q0 16 6 32.5t17 29t27 20.5t36 8q18 0 32.5 -5.5t27.5 -12t24.5 -12t25.5 -5.5q19 0 32 9.5t13 31.5l39 -11q-3 -18 -8.5 -34.5t-14.5 -28.5t-23 -19.5t-35 -7.5q-19 0 -34 6t-28.5 12.5t-26.5 12.5t-29 6q-17 0 -30 -12t-13 -30z" />
    <glyph glyph-name="Imacron" unicode="&#x12a;" horiz-adv-x="255" 
d="M88 680h79v-680h-79v680zM-1 803h257v-49h-257v49z" />
    <glyph glyph-name="imacron" unicode="&#x12b;" horiz-adv-x="253" 
d="M88 434h77v-434h-77v434zM-2 609h257v-49h-257v49z" />
    <glyph glyph-name="Iogonek" unicode="&#x12e;" horiz-adv-x="255" 
d="M88 680h79v-680h-79v680zM146 -192q-36 0 -61 20t-25 59q0 28 13 53.5t33 41.5h52q-16 -14 -25.5 -34.5t-9.5 -37.5q0 -16 5 -25t12 -13t14.5 -4.5t12.5 -0.5q27 0 45 16l20 -39q-18 -17 -39 -26.5t-47 -9.5z" />
    <glyph glyph-name="iogonek" unicode="&#x12f;" horiz-adv-x="253" 
d="M88 434h77v-434h-77v434zM127 533q-22 0 -37.5 15t-15.5 36q0 22 15.5 37t36.5 15t36.5 -15t15.5 -37q0 -21 -15.5 -36t-35.5 -15zM143 -192q-36 0 -61 20t-25 59q0 28 13 53.5t33 41.5h52q-16 -14 -25.5 -34.5t-9.5 -37.5q0 -16 5 -25t12 -13t14.5 -4.5t12.5 -0.5
q27 0 45 16l20 -39q-18 -17 -39 -26.5t-47 -9.5z" />
    <glyph glyph-name="Idotaccent" unicode="&#x130;" horiz-adv-x="255" 
d="M88 680h79v-680h-79v680zM128 739q-22 0 -36 14.5t-14 35.5q0 20 14.5 35t35.5 15t35.5 -15t14.5 -35q0 -21 -14.5 -35.5t-35.5 -14.5z" />
    <glyph glyph-name="dotlessi" unicode="&#x131;" horiz-adv-x="253" 
d="M88 434h77v-434h-77v434z" />
    <glyph glyph-name="Jcircumflex" unicode="&#x134;" horiz-adv-x="286" 
d="M56 -115q-26 0 -48 5q-11 2 -21 5l11 52q6 -3 14 -5q15 -5 39 -5q34 0 51 25.5t17 93.5v624h79v-606q0 -55 -10 -91.5t-28 -58t-44.5 -30.5t-59.5 -9zM33 761l124 128l123 -128l-27 -29l-96 71l-97 -71z" />
    <glyph glyph-name="jcircumflex" unicode="&#x135;" horiz-adv-x="261" 
d="M35 -218q-28 0 -48 5q-11 3 -20 6l12 50q6 -3 14 -5q15 -5 38 -5q33 0 49.5 26t16.5 94v481h76v-462q0 -55 -9 -91.5t-26.5 -58.5t-43.5 -31t-59 -9zM7 544l124 128l123 -128l-27 -29l-96 71l-97 -71z" />
    <glyph glyph-name="Kcommaaccent" unicode="&#x136;" horiz-adv-x="589" 
d="M88 680h79v-295h3l296 295h79l-310 -303l340 -377h-109l-296 340h-3v-340h-79v680zM294 -132q-23 0 -37.5 14.5t-14.5 37.5t14.5 37.5t37.5 14.5q29 0 42 -19t13 -42q0 -29 -14 -58t-48 -69l-39 10q17 19 30 39t18 33z" />
    <glyph glyph-name="kcommaaccent" unicode="&#x137;" horiz-adv-x="457" 
d="M74 694h77v-432h2l204 172h77l-219 -180l232 -254h-98l-196 220h-2v-220h-77v694zM238 -132q-23 0 -37.5 14.5t-14.5 37.5t14.5 37.5t37.5 14.5q29 0 42 -19t13 -42q0 -29 -14 -58t-48 -69l-39 10q17 19 30 39t18 33z" />
    <glyph glyph-name="Lacute" unicode="&#x139;" horiz-adv-x="476" 
d="M88 680h79v-625h291v-55h-370v680zM105 769l126 109l40 -57l-144 -83z" />
    <glyph glyph-name="lacute" unicode="&#x13a;" horiz-adv-x="244" 
d="M167 -13q-50 0 -71.5 34.5t-21.5 102.5v570h77v-588q0 -26 5 -47t28 -21q12 0 22 4l8 4l11 -46q-5 -3 -21.5 -8t-36.5 -5zM29 769l126 109l40 -57l-144 -83z" />
    <glyph glyph-name="Lcommaaccent" unicode="&#x13b;" horiz-adv-x="476" 
d="M88 680h79v-625h291v-55h-370v680zM273 -132q-23 0 -37.5 14.5t-14.5 37.5t14.5 37.5t37.5 14.5q29 0 42 -19t13 -42q0 -29 -14 -58t-48 -69l-39 10q17 19 30 39t18 33z" />
    <glyph glyph-name="lcommaaccent" unicode="&#x13c;" horiz-adv-x="244" 
d="M167 -13q-50 0 -71.5 34.5t-21.5 102.5v570h77v-588q0 -26 5 -47t28 -21q12 0 22 4l8 4l11 -46q-5 -3 -21.5 -8t-36.5 -5zM150 -132q-23 0 -37.5 14.5t-14.5 37.5t14.5 37.5t37.5 14.5q29 0 42 -19t13 -42q0 -29 -14 -58t-48 -69l-39 10q17 19 30 39t18 33z" />
    <glyph glyph-name="Lcaron" unicode="&#x13d;" horiz-adv-x="476" 
d="M88 680h79v-625h291v-55h-370v680zM297 576q-23 0 -37.5 14.5t-14.5 37.5t14.5 37.5t37.5 14.5q29 0 42 -19t13 -42q0 -29 -14 -58t-48 -69l-39 10q17 19 30 39t18 33z" />
    <glyph glyph-name="lcaron" unicode="&#x13e;" horiz-adv-x="289" 
d="M167 -13q-50 0 -71.5 34.5t-21.5 102.5v570h77v-588q0 -26 5 -47t28 -21q12 0 22 4l8 4l11 -46q-5 -3 -21.5 -8t-36.5 -5zM253 576q-23 0 -37.5 14.5t-14.5 37.5t14.5 37.5t37.5 14.5q29 0 42 -19t13 -42q0 -29 -14 -58t-48 -69l-39 10q17 19 30 39t18 33z" />
    <glyph glyph-name="Ldot" unicode="&#x13f;" horiz-adv-x="476" 
d="M88 680h79v-625h291v-55h-370v680zM297 334q-22 0 -36 14.5t-14 35.5q0 20 14.5 35t35.5 15t35.5 -15t14.5 -35q0 -21 -14.5 -35.5t-35.5 -14.5z" />
    <glyph glyph-name="ldot" unicode="&#x140;" horiz-adv-x="270" 
d="M167 -13q-50 0 -71.5 34.5t-21.5 102.5v570h77v-588q0 -26 5 -47t28 -21q12 0 22 4l8 4l11 -46q-5 -3 -21.5 -8t-36.5 -5zM250 334q-22 0 -36 14.5t-14 35.5q0 20 14.5 35t35.5 15t35.5 -15t14.5 -35q0 -21 -14.5 -35.5t-35.5 -14.5z" />
    <glyph glyph-name="Lslash" unicode="&#x141;" horiz-adv-x="482" 
d="M94 195l-45 -35l-34 46l79 62v412h78v-352l173 135l35 -44l-208 -163v-198h291v-58h-369v195z" />
    <glyph glyph-name="lslash" unicode="&#x142;" horiz-adv-x="281" 
d="M180 -13q-50 0 -71.5 34.5t-21.5 102.5v163l-54 -41l-33 43l87 68v337h77v-278l65 51l33 -43l-98 -77v-241q0 -26 5 -47t28 -21q12 0 22 4l8 4l11 -46q-5 -3 -21.5 -8t-36.5 -5z" />
    <glyph glyph-name="Nacute" unicode="&#x143;" horiz-adv-x="669" 
d="M88 680h86l344 -553h2v553h61v-680h-74l-356 570h-2v-570h-61v680zM259 769l126 109l40 -57l-144 -83z" />
    <glyph glyph-name="nacute" unicode="&#x144;" 
d="M74 434h76v-60h2q26 33 64.5 53t87.5 20q22 0 49.5 -6t51.5 -22.5t40 -46.5t16 -79v-293h-78v284q0 63 -25 87.5t-78 24.5q-23 0 -43.5 -7t-37 -19t-29 -27t-19.5 -30v-313h-77v434zM193 555l126 109l40 -57l-144 -83z" />
    <glyph glyph-name="Ncommaaccent" unicode="&#x145;" horiz-adv-x="669" 
d="M88 680h86l344 -553h2v553h61v-680h-74l-356 570h-2v-570h-61v680zM339 -132q-23 0 -37.5 14.5t-14.5 37.5t14.5 37.5t37.5 14.5q29 0 42 -19t13 -42q0 -29 -14 -58t-48 -69l-39 10q17 19 30 39t18 33z" />
    <glyph glyph-name="ncommaaccent" unicode="&#x146;" 
d="M74 434h76v-60h2q26 33 64.5 53t87.5 20q22 0 49.5 -6t51.5 -22.5t40 -46.5t16 -79v-293h-78v284q0 63 -25 87.5t-78 24.5q-23 0 -43.5 -7t-37 -19t-29 -27t-19.5 -30v-313h-77v434zM266 -132q-23 0 -37.5 14.5t-14.5 37.5t14.5 37.5t37.5 14.5q29 0 42 -19t13 -42
q0 -29 -14 -58t-48 -69l-39 10q17 19 30 39t18 33z" />
    <glyph glyph-name="Ncaron" unicode="&#x147;" horiz-adv-x="669" 
d="M88 680h86l344 -553h2v553h61v-680h-74l-356 570h-2v-570h-61v680zM217 869h55l72 -74h2l70 74h55l-102 -134h-48z" />
    <glyph glyph-name="ncaron" unicode="&#x148;" 
d="M74 434h76v-60h2q26 33 64.5 53t87.5 20q22 0 49.5 -6t51.5 -22.5t40 -46.5t16 -79v-293h-78v284q0 63 -25 87.5t-78 24.5q-23 0 -43.5 -7t-37 -19t-29 -27t-19.5 -30v-313h-77v434zM155 655h55l72 -74h2l70 74h55l-102 -134h-48z" />
    <glyph glyph-name="Omacron" unicode="&#x14c;" horiz-adv-x="763" 
d="M381 -13q-76 0 -137.5 29t-105 77.5t-67.5 112.5t-24 134q0 80 25.5 145.5t70.5 112t106 71.5t132 25q75 0 137 -26t106 -72.5t68 -111.5t24 -144t-26 -144t-71.5 -111.5t-106.5 -72t-131 -25.5zM381 40q54 0 99.5 20.5t78.5 59.5t51.5 94.5t18.5 125.5q0 66 -18.5 121.5
t-51.5 95.5t-78.5 62.5t-99.5 22.5t-99.5 -21t-78 -60t-51 -95t-18.5 -126q0 -68 19 -123.5t52 -94.5t78 -60.5t98 -21.5zM253 803h257v-49h-257v49z" />
    <glyph glyph-name="omacron" unicode="&#x14d;" horiz-adv-x="537" 
d="M268 -13q-46 0 -86 16.5t-70 46.5t-47.5 72.5t-17.5 94.5t17.5 94.5t47.5 72.5t70.5 46.5t86.5 16.5t86 -16.5t70 -46.5t47.5 -72t17.5 -94q0 -53 -17.5 -95.5t-47.5 -72.5t-70.5 -46.5t-86.5 -16.5zM267 33q33 0 59 13.5t44.5 38t28.5 58t10 74.5q0 38 -10.5 71.5
t-29.5 58.5t-44.5 39.5t-56.5 14.5q-33 0 -59 -14t-44.5 -38.5t-28 -58t-9.5 -73.5q0 -38 10.5 -71.5t29 -58.5t44 -39.5t56.5 -14.5zM140 609h257v-49h-257v49z" />
    <glyph glyph-name="Obreve" unicode="&#x14e;" horiz-adv-x="763" 
d="M381 -13q-76 0 -137.5 29t-105 77.5t-67.5 112.5t-24 134q0 80 25.5 145.5t70.5 112t106 71.5t132 25q75 0 137 -26t106 -72.5t68 -111.5t24 -144t-26 -144t-71.5 -111.5t-106.5 -72t-131 -25.5zM381 40q54 0 99.5 20.5t78.5 59.5t51.5 94.5t18.5 125.5q0 66 -18.5 121.5
t-51.5 95.5t-78.5 62.5t-99.5 22.5t-99.5 -21t-78 -60t-51 -95t-18.5 -126q0 -68 19 -123.5t52 -94.5t78 -60.5t98 -21.5zM380 729q-50 0 -84 33t-38 90h42q7 -36 27.5 -55t52.5 -19q39 0 58 19.5t26 54.5h41q-1 -54 -36 -88.5t-89 -34.5z" />
    <glyph glyph-name="obreve" unicode="&#x14f;" horiz-adv-x="537" 
d="M268 -13q-46 0 -86 16.5t-70 46.5t-47.5 72.5t-17.5 94.5t17.5 94.5t47.5 72.5t70.5 46.5t86.5 16.5t86 -16.5t70 -46.5t47.5 -72t17.5 -94q0 -53 -17.5 -95.5t-47.5 -72.5t-70.5 -46.5t-86.5 -16.5zM267 33q33 0 59 13.5t44.5 38t28.5 58t10 74.5q0 38 -10.5 71.5
t-29.5 58.5t-44.5 39.5t-56.5 14.5q-33 0 -59 -14t-44.5 -38.5t-28 -58t-9.5 -73.5q0 -38 10.5 -71.5t29 -58.5t44 -39.5t56.5 -14.5zM266 523q-50 0 -84 33t-38 90h42q7 -36 27.5 -55t52.5 -19q39 0 58 19.5t26 54.5h41q-1 -54 -36 -88.5t-89 -34.5z" />
    <glyph glyph-name="Ohungarumlaut" unicode="&#x150;" horiz-adv-x="763" 
d="M381 -13q-76 0 -137.5 29t-105 77.5t-67.5 112.5t-24 134q0 80 25.5 145.5t70.5 112t106 71.5t132 25q75 0 137 -26t106 -72.5t68 -111.5t24 -144t-26 -144t-71.5 -111.5t-106.5 -72t-131 -25.5zM381 40q54 0 99.5 20.5t78.5 59.5t51.5 94.5t18.5 125.5q0 66 -18.5 121.5
t-51.5 95.5t-78.5 62.5t-99.5 22.5t-99.5 -21t-78 -60t-51 -95t-18.5 -126q0 -68 19 -123.5t52 -94.5t78 -60.5t98 -21.5zM487 840h91l-128 -120h-59zM345 840h91l-128 -120h-59z" />
    <glyph glyph-name="ohungarumlaut" unicode="&#x151;" horiz-adv-x="537" 
d="M268 -13q-46 0 -86 16.5t-70 46.5t-47.5 72.5t-17.5 94.5t17.5 94.5t47.5 72.5t70.5 46.5t86.5 16.5t86 -16.5t70 -46.5t47.5 -72t17.5 -94q0 -53 -17.5 -95.5t-47.5 -72.5t-70.5 -46.5t-86.5 -16.5zM267 33q33 0 59 13.5t44.5 38t28.5 58t10 74.5q0 38 -10.5 71.5
t-29.5 58.5t-44.5 39.5t-56.5 14.5q-33 0 -59 -14t-44.5 -38.5t-28 -58t-9.5 -73.5q0 -38 10.5 -71.5t29 -58.5t44 -39.5t56.5 -14.5zM390 645h91l-128 -120h-59zM248 645h91l-128 -120h-59z" />
    <glyph glyph-name="OE" unicode="&#x152;" horiz-adv-x="912" 
d="M386 -14q-76 0 -138.5 29t-107 77.5t-69 112.5t-24.5 135q0 80 26.5 145t72 111.5t107.5 72t133 25.5q26 0 58.5 -4t55.5 -10h345v-53h-284v-241h249v-53h-249v-277h295v-56h-352q-25 -7 -57.5 -10.5t-60.5 -3.5zM386 39q24 0 50.5 4t46.5 12v569q-6 3 -18 6.5t-26 5.5
t-28 3.5t-25 1.5q-54 0 -100 -21t-80 -60t-53 -94.5t-19 -125.5q0 -69 19.5 -124.5t54 -94.5t80 -60.5t98.5 -21.5z" />
    <glyph glyph-name="oe" unicode="&#x153;" horiz-adv-x="853" 
d="M263 -13q-46 0 -85.5 16.5t-68.5 46.5t-45.5 72.5t-16.5 94.5t16.5 94.5t46 72.5t69 46.5t85.5 16.5q57 0 102 -25.5t73 -69.5h2q26 45 69 70t98 25q48 0 85 -17t62 -46t38 -68t13 -82v-18h-321q0 -40 8.5 -73.5t25 -57.5t40.5 -37.5t56 -13.5t54 8.5t36.5 19.5t22.5 23
t12 19l46 -24q-3 -7 -13.5 -22.5t-31 -31t-51.5 -27.5t-74 -12q-59 0 -103.5 27t-70.5 70h-2q-29 -45 -74.5 -71t-102.5 -26zM262 33q33 0 58.5 13.5t43.5 38t27 58t9 74.5q0 38 -10 71.5t-28 58.5t-43 39.5t-56 14.5q-33 0 -58.5 -14t-43.5 -38.5t-27 -58t-9 -73.5
q0 -38 10 -71.5t28 -58.5t43 -39.5t56 -14.5zM728 263q-3 28 -10 53t-21 44t-35.5 29.5t-52.5 10.5q-29 0 -50 -12t-35 -31t-22.5 -44t-12.5 -50h239z" />
    <glyph glyph-name="Racute" unicode="&#x154;" horiz-adv-x="582" 
d="M88 680h195q63 0 101.5 -17t60 -43t28.5 -56t7 -55q0 -38 -12 -69t-32 -54.5t-47 -38.5t-58 -20l223 -327h-100l-208 322h-79v-322h-79v680zM268 372h2q56 0 94 33t38 104q0 55 -29.5 89.5t-99.5 34.5l-106 -1v-259zM202 769l126 109l40 -57l-144 -83z" />
    <glyph glyph-name="racute" unicode="&#x155;" horiz-adv-x="349" 
d="M74 434h76v-62h2q17 31 45 53t67 22q29 0 48 -6t28 -13l-36 -60q-7 8 -22 12.5t-32 4.5q-33 0 -59 -20.5t-40 -54.5v-310h-77v434zM117 555l126 109l40 -57l-144 -83z" />
    <glyph glyph-name="Rcommaaccent" unicode="&#x156;" horiz-adv-x="582" 
d="M88 680h195q63 0 101.5 -17t60 -43t28.5 -56t7 -55q0 -38 -12 -69t-32 -54.5t-47 -38.5t-58 -20l223 -327h-100l-208 322h-79v-322h-79v680zM268 372h2q56 0 94 33t38 104q0 55 -29.5 89.5t-99.5 34.5l-106 -1v-259zM297 -132q-23 0 -37.5 14.5t-14.5 37.5t14.5 37.5
t37.5 14.5q29 0 42 -19t13 -42q0 -29 -14 -58t-48 -69l-39 10q17 19 30 39t18 33z" />
    <glyph glyph-name="rcommaaccent" unicode="&#x157;" horiz-adv-x="349" 
d="M74 434h76v-62h2q17 31 45 53t67 22q29 0 48 -6t28 -13l-36 -60q-7 8 -22 12.5t-32 4.5q-33 0 -59 -20.5t-40 -54.5v-310h-77v434zM116 -132q-23 0 -37.5 14.5t-14.5 37.5t14.5 37.5t37.5 14.5q29 0 42 -19t13 -42q0 -29 -14 -58t-48 -69l-39 10q17 19 30 39t18 33z" />
    <glyph glyph-name="Rcaron" unicode="&#x158;" horiz-adv-x="582" 
d="M88 680h195q63 0 101.5 -17t60 -43t28.5 -56t7 -55q0 -38 -12 -69t-32 -54.5t-47 -38.5t-58 -20l223 -327h-100l-208 322h-79v-322h-79v680zM268 372h2q56 0 94 33t38 104q0 55 -29.5 89.5t-99.5 34.5l-106 -1v-259zM153 869h55l72 -74h2l70 74h55l-102 -134h-48z" />
    <glyph glyph-name="rcaron" unicode="&#x159;" horiz-adv-x="349" 
d="M74 434h76v-62h2q17 31 45 53t67 22q29 0 48 -6t28 -13l-36 -60q-7 8 -22 12.5t-32 4.5q-33 0 -59 -20.5t-40 -54.5v-310h-77v434zM79 655h55l72 -74h2l70 74h55l-102 -134h-48z" />
    <glyph glyph-name="Sacute" unicode="&#x15a;" 
d="M259 -13q-45 0 -81 11t-62.5 26.5t-44 32t-24.5 26.5l43 40q3 -5 15.5 -18.5t33.5 -27.5t51.5 -25.5t69.5 -11.5q68 0 104.5 35.5t36.5 96.5q0 45 -24.5 73.5t-60.5 49t-79 39t-79 43t-60.5 61t-24.5 93.5q0 40 16 71t42.5 51t61 30.5t72.5 10.5q39 0 68.5 -7.5t51 -17.5
t35.5 -21t21 -17l-45 -38q-4 4 -14.5 13t-27 17.5t-38.5 15t-48 6.5q-23 0 -46 -5.5t-41 -17.5t-29.5 -30.5t-11.5 -44.5q0 -42 25 -67.5t63 -45t82 -37t82 -43t63 -64t25 -99.5q0 -39 -14 -75.5t-41.5 -65t-69 -46t-96.5 -17.5zM193 769l126 109l40 -57l-144 -83z" />
    <glyph glyph-name="sacute" unicode="&#x15b;" horiz-adv-x="386" 
d="M193 -13q-65 0 -103.5 22.5t-56.5 47.5l38 35q4 -9 14 -19.5t25 -19t35 -14.5t44 -6q37 0 63 18t26 56q0 28 -16.5 45.5t-41.5 30.5t-54.5 24.5t-54.5 27.5t-41.5 39t-16.5 59q0 31 13 53t33.5 35.5t45 19.5t48.5 6q51 0 82.5 -13.5t51.5 -31.5l-40 -36q-9 15 -32 26
t-58 11t-55.5 -14.5t-20.5 -39.5t17 -40.5t42 -27t55 -22.5t55 -27.5t42 -41.5t17 -64q0 -38 -14.5 -64.5t-37 -43t-50 -24t-54.5 -7.5zM112 555l126 109l40 -57l-144 -83z" />
    <glyph glyph-name="Scircumflex" unicode="&#x15c;" 
d="M259 -13q-45 0 -81 11t-62.5 26.5t-44 32t-24.5 26.5l43 40q3 -5 15.5 -18.5t33.5 -27.5t51.5 -25.5t69.5 -11.5q68 0 104.5 35.5t36.5 96.5q0 45 -24.5 73.5t-60.5 49t-79 39t-79 43t-60.5 61t-24.5 93.5q0 40 16 71t42.5 51t61 30.5t72.5 10.5q39 0 68.5 -7.5t51 -17.5
t35.5 -21t21 -17l-45 -38q-4 4 -14.5 13t-27 17.5t-38.5 15t-48 6.5q-23 0 -46 -5.5t-41 -17.5t-29.5 -30.5t-11.5 -44.5q0 -42 25 -67.5t63 -45t82 -37t82 -43t63 -64t25 -99.5q0 -39 -14 -75.5t-41.5 -65t-69 -46t-96.5 -17.5zM142 761l124 128l123 -128l-27 -29l-96 71
l-97 -71z" />
    <glyph glyph-name="scircumflex" unicode="&#x15d;" horiz-adv-x="386" 
d="M193 -13q-65 0 -103.5 22.5t-56.5 47.5l38 35q4 -9 14 -19.5t25 -19t35 -14.5t44 -6q37 0 63 18t26 56q0 28 -16.5 45.5t-41.5 30.5t-54.5 24.5t-54.5 27.5t-41.5 39t-16.5 59q0 31 13 53t33.5 35.5t45 19.5t48.5 6q51 0 82.5 -13.5t51.5 -31.5l-40 -36q-9 15 -32 26
t-58 11t-55.5 -14.5t-20.5 -39.5t17 -40.5t42 -27t55 -22.5t55 -27.5t42 -41.5t17 -64q0 -38 -14.5 -64.5t-37 -43t-50 -24t-54.5 -7.5zM71 544l124 128l123 -128l-27 -29l-96 71l-97 -71z" />
    <glyph glyph-name="Scedilla" unicode="&#x15e;" 
d="M259 -13q-45 0 -81 11t-62.5 26.5t-44 32t-24.5 26.5l43 40q3 -5 15.5 -18.5t33.5 -27.5t51.5 -25.5t69.5 -11.5q68 0 104.5 35.5t36.5 96.5q0 45 -24.5 73.5t-60.5 49t-79 39t-79 43t-60.5 61t-24.5 93.5q0 40 16 71t42.5 51t61 30.5t72.5 10.5q39 0 68.5 -7.5t51 -17.5
t35.5 -21t21 -17l-45 -38q-4 4 -14.5 13t-27 17.5t-38.5 15t-48 6.5q-23 0 -46 -5.5t-41 -17.5t-29.5 -30.5t-11.5 -44.5q0 -42 25 -67.5t63 -45t82 -37t82 -43t63 -64t25 -99.5q0 -39 -14 -75.5t-41.5 -65t-69 -46t-96.5 -17.5zM249 -180q-49 0 -92 20l13 32q32 -16 70 -16
q18 0 37 9.5t19 32.5q0 20 -16 29t-32 9q-13 0 -24 -2.5t-19 -5.5l16 39q13 2 26.5 3.5t35.5 1.5q16 0 30.5 -4t25.5 -12.5t18 -21.5t7 -32q0 -22 -11 -37.5t-28 -25.5t-37 -14.5t-39 -4.5z" />
    <glyph glyph-name="scedilla" unicode="&#x15f;" horiz-adv-x="386" 
d="M193 -13q-65 0 -103.5 22.5t-56.5 47.5l38 35q4 -9 14 -19.5t25 -19t35 -14.5t44 -6q37 0 63 18t26 56q0 28 -16.5 45.5t-41.5 30.5t-54.5 24.5t-54.5 27.5t-41.5 39t-16.5 59q0 31 13 53t33.5 35.5t45 19.5t48.5 6q51 0 82.5 -13.5t51.5 -31.5l-40 -36q-9 15 -32 26
t-58 11t-55.5 -14.5t-20.5 -39.5t17 -40.5t42 -27t55 -22.5t55 -27.5t42 -41.5t17 -64q0 -38 -14.5 -64.5t-37 -43t-50 -24t-54.5 -7.5zM174 -180q-49 0 -92 20l13 32q32 -16 70 -16q18 0 37 9.5t19 32.5q0 20 -16 29t-32 9q-13 0 -24 -2.5t-19 -5.5l16 39q13 2 26.5 3.5
t35.5 1.5q16 0 30.5 -4t25.5 -12.5t18 -21.5t7 -32q0 -22 -11 -37.5t-28 -25.5t-37 -14.5t-39 -4.5z" />
    <glyph glyph-name="Scaron" unicode="&#x160;" 
d="M259 -13q-45 0 -81 11t-62.5 26.5t-44 32t-24.5 26.5l43 40q3 -5 15.5 -18.5t33.5 -27.5t51.5 -25.5t69.5 -11.5q68 0 104.5 35.5t36.5 96.5q0 45 -24.5 73.5t-60.5 49t-79 39t-79 43t-60.5 61t-24.5 93.5q0 40 16 71t42.5 51t61 30.5t72.5 10.5q39 0 68.5 -7.5t51 -17.5
t35.5 -21t21 -17l-45 -38q-4 4 -14.5 13t-27 17.5t-38.5 15t-48 6.5q-23 0 -46 -5.5t-41 -17.5t-29.5 -30.5t-11.5 -44.5q0 -42 25 -67.5t63 -45t82 -37t82 -43t63 -64t25 -99.5q0 -39 -14 -75.5t-41.5 -65t-69 -46t-96.5 -17.5zM137 869h55l72 -74h2l70 74h55l-102 -134
h-48z" />
    <glyph glyph-name="scaron" unicode="&#x161;" horiz-adv-x="386" 
d="M193 -13q-65 0 -103.5 22.5t-56.5 47.5l38 35q4 -9 14 -19.5t25 -19t35 -14.5t44 -6q37 0 63 18t26 56q0 28 -16.5 45.5t-41.5 30.5t-54.5 24.5t-54.5 27.5t-41.5 39t-16.5 59q0 31 13 53t33.5 35.5t45 19.5t48.5 6q51 0 82.5 -13.5t51.5 -31.5l-40 -36q-9 15 -32 26
t-58 11t-55.5 -14.5t-20.5 -39.5t17 -40.5t42 -27t55 -22.5t55 -27.5t42 -41.5t17 -64q0 -38 -14.5 -64.5t-37 -43t-50 -24t-54.5 -7.5zM69 655h55l72 -74h2l70 74h55l-102 -134h-48z" />
    <glyph glyph-name="Tcommaaccent" unicode="&#x162;" horiz-adv-x="495" 
d="M208 627h-199v53h477v-53h-199v-627h-79v627zM245 -132q-23 0 -37.5 14.5t-14.5 37.5t14.5 37.5t37.5 14.5q29 0 42 -19t13 -42q0 -29 -14 -58t-48 -69l-39 10q17 19 30 39t18 33z" />
    <glyph glyph-name="tcommaaccent" unicode="&#x163;" horiz-adv-x="345" 
d="M230 -13q-37 0 -61.5 9t-39 30t-20.5 54t-6 81v226h-75v47h75v79l77 42v-121h128v-47h-128v-245q0 -31 2.5 -51t9 -32t17 -16.5t27.5 -4.5q24 0 39 5q8 2 15 5l11 -51q-11 -3 -22 -5q-22 -5 -49 -5zM198 -132q-23 0 -37.5 14.5t-14.5 37.5t14.5 37.5t37.5 14.5
q29 0 42 -19t13 -42q0 -29 -14 -58t-48 -69l-39 10q17 19 30 39t18 33z" />
    <glyph glyph-name="Tcaron" unicode="&#x164;" horiz-adv-x="495" 
d="M208 627h-199v53h477v-53h-199v-627h-79v627zM121 869h55l72 -74h2l70 74h55l-102 -134h-48z" />
    <glyph glyph-name="tcaron" unicode="&#x165;" horiz-adv-x="351" 
d="M230 -13q-37 0 -61.5 9t-39 30t-20.5 54t-6 81v226h-75v47h75v79l77 42v-121h128v-47h-128v-245q0 -31 2.5 -51t9 -32t17 -16.5t27.5 -4.5q24 0 39 5q8 2 15 5l11 -51q-11 -3 -22 -5q-22 -5 -49 -5zM276 576q-23 0 -37.5 14.5t-14.5 37.5t14.5 37.5t37.5 14.5
q29 0 42 -19t13 -42q0 -29 -14 -58t-48 -69l-39 10q17 19 30 39t18 33z" />
    <glyph glyph-name="Tbar" unicode="&#x166;" horiz-adv-x="495" 
d="M208 334h-100v49h100v244h-199v53h477v-53h-199v-244h100v-49h-100v-334h-79v334z" />
    <glyph glyph-name="tbar" unicode="&#x167;" horiz-adv-x="361" 
d="M238 -13q-37 0 -61.5 9t-39 30t-20.5 54t-6 81v107h-86v49h86v70h-75v47h75v79l77 42v-121h128v-47h-128v-70h141v-49h-141v-126q0 -31 2.5 -51t9 -32t17 -16.5t27.5 -4.5q24 0 39 5q8 2 15 5l11 -51q-11 -3 -22 -5q-22 -5 -49 -5z" />
    <glyph glyph-name="Utilde" unicode="&#x168;" horiz-adv-x="651" 
d="M323 -13q-46 0 -89.5 12.5t-78 41t-55.5 74t-21 110.5v455h79v-473q0 -50 17.5 -82.5t43 -51.5t54.5 -26.5t53 -7.5q37 0 70.5 9.5t58.5 30.5t39.5 53t14.5 77v471h63v-452q0 -72 -21 -118.5t-56 -73.5t-80 -38t-92 -11zM190 742q0 16 6 32.5t17 29t27 20.5t36 8
q18 0 32.5 -5.5t27.5 -12t24.5 -12t25.5 -5.5q19 0 32 9.5t13 31.5l39 -11q-3 -18 -8.5 -34.5t-14.5 -28.5t-23 -19.5t-35 -7.5q-19 0 -34 6t-28.5 12.5t-26.5 12.5t-29 6q-17 0 -30 -12t-13 -30z" />
    <glyph glyph-name="utilde" unicode="&#x169;" 
d="M227 -13q-23 0 -50 6t-51 22.5t-40 46.5t-16 79v293h78v-281q0 -64 25 -89t78 -25q23 0 43.5 7t37.5 19t29 27t19 31v311h77v-434h-74l-2 61h-1q-26 -32 -65 -53t-88 -21zM132 545q0 16 6 32.5t17 29t27 20.5t36 8q18 0 32.5 -5.5t27.5 -12t24.5 -12t25.5 -5.5
q19 0 32 9.5t13 31.5l39 -11q-3 -18 -8.5 -34.5t-14.5 -28.5t-23 -19.5t-35 -7.5q-19 0 -34 6t-28.5 12.5t-26.5 12.5t-29 6q-17 0 -30 -12t-13 -30z" />
    <glyph glyph-name="Umacron" unicode="&#x16a;" horiz-adv-x="651" 
d="M323 -13q-46 0 -89.5 12.5t-78 41t-55.5 74t-21 110.5v455h79v-473q0 -50 17.5 -82.5t43 -51.5t54.5 -26.5t53 -7.5q37 0 70.5 9.5t58.5 30.5t39.5 53t14.5 77v471h63v-452q0 -72 -21 -118.5t-56 -73.5t-80 -38t-92 -11zM202 803h257v-49h-257v49z" />
    <glyph glyph-name="umacron" unicode="&#x16b;" 
d="M227 -13q-23 0 -50 6t-51 22.5t-40 46.5t-16 79v293h78v-281q0 -64 25 -89t78 -25q23 0 43.5 7t37.5 19t29 27t19 31v311h77v-434h-74l-2 61h-1q-26 -32 -65 -53t-88 -21zM137 609h257v-49h-257v49z" />
    <glyph glyph-name="Ubreve" unicode="&#x16c;" horiz-adv-x="651" 
d="M323 -13q-46 0 -89.5 12.5t-78 41t-55.5 74t-21 110.5v455h79v-473q0 -50 17.5 -82.5t43 -51.5t54.5 -26.5t53 -7.5q37 0 70.5 9.5t58.5 30.5t39.5 53t14.5 77v471h63v-452q0 -72 -21 -118.5t-56 -73.5t-80 -38t-92 -11zM329 729q-50 0 -84 33t-38 90h42q7 -36 27.5 -55
t52.5 -19q39 0 58 19.5t26 54.5h41q-1 -54 -36 -88.5t-89 -34.5z" />
    <glyph glyph-name="ubreve" unicode="&#x16d;" 
d="M227 -13q-23 0 -50 6t-51 22.5t-40 46.5t-16 79v293h78v-281q0 -64 25 -89t78 -25q23 0 43.5 7t37.5 19t29 27t19 31v311h77v-434h-74l-2 61h-1q-26 -32 -65 -53t-88 -21zM261 523q-50 0 -84 33t-38 90h42q7 -36 27.5 -55t52.5 -19q39 0 58 19.5t26 54.5h41
q-1 -54 -36 -88.5t-89 -34.5z" />
    <glyph glyph-name="Uring" unicode="&#x16e;" horiz-adv-x="651" 
d="M323 -13q-46 0 -89.5 12.5t-78 41t-55.5 74t-21 110.5v455h79v-473q0 -50 17.5 -82.5t43 -51.5t54.5 -26.5t53 -7.5q37 0 70.5 9.5t58.5 30.5t39.5 53t14.5 77v471h63v-452q0 -72 -21 -118.5t-56 -73.5t-80 -38t-92 -11zM331 717q-20 0 -37 7.5t-29 20t-19 29.5t-7 36
q0 37 26 64.5t66 27.5q41 0 66.5 -27.5t25.5 -64.5q0 -19 -7 -36t-19 -29.5t-29 -20t-37 -7.5zM331 754q25 0 38.5 15.5t13.5 40.5q0 20 -13 37.5t-39 17.5q-24 0 -38 -16.5t-14 -38.5q0 -21 14 -38.5t38 -17.5z" />
    <glyph glyph-name="uring" unicode="&#x16f;" 
d="M227 -13q-23 0 -50 6t-51 22.5t-40 46.5t-16 79v293h78v-281q0 -64 25 -89t78 -25q23 0 43.5 7t37.5 19t29 27t19 31v311h77v-434h-74l-2 61h-1q-26 -32 -65 -53t-88 -21zM263 500q-20 0 -37 7.5t-29 20t-19 29.5t-7 36q0 37 26 64.5t66 27.5q41 0 66.5 -27.5t25.5 -64.5
q0 -19 -7 -36t-19 -29.5t-29 -20t-37 -7.5zM263 537q25 0 38.5 15.5t13.5 40.5q0 20 -13 37.5t-39 17.5q-24 0 -38 -16.5t-14 -38.5q0 -21 14 -38.5t38 -17.5z" />
    <glyph glyph-name="Uhungarumlaut" unicode="&#x170;" horiz-adv-x="651" 
d="M323 -13q-46 0 -89.5 12.5t-78 41t-55.5 74t-21 110.5v455h79v-473q0 -50 17.5 -82.5t43 -51.5t54.5 -26.5t53 -7.5q37 0 70.5 9.5t58.5 30.5t39.5 53t14.5 77v471h63v-452q0 -72 -21 -118.5t-56 -73.5t-80 -38t-92 -11zM427 840h91l-128 -120h-59zM285 840h91l-128 -120
h-59z" />
    <glyph glyph-name="uhungarumlaut" unicode="&#x171;" 
d="M227 -13q-23 0 -50 6t-51 22.5t-40 46.5t-16 79v293h78v-281q0 -64 25 -89t78 -25q23 0 43.5 7t37.5 19t29 27t19 31v311h77v-434h-74l-2 61h-1q-26 -32 -65 -53t-88 -21zM385 645h91l-128 -120h-59zM243 645h91l-128 -120h-59z" />
    <glyph glyph-name="Uogonek" unicode="&#x172;" horiz-adv-x="651" 
d="M323 -13q-46 0 -89.5 12.5t-78 41t-55.5 74t-21 110.5v455h79v-473q0 -50 17.5 -82.5t43 -51.5t54.5 -26.5t53 -7.5q37 0 70.5 9.5t58.5 30.5t39.5 53t14.5 77v471h63v-452q0 -72 -21 -118.5t-56 -73.5t-80 -38t-92 -11zM353 -202q-36 0 -61 20t-25 59q0 28 13 53.5
t33 41.5h52q-16 -14 -25.5 -34.5t-9.5 -37.5q0 -16 5 -25t12 -13t14.5 -4.5t12.5 -0.5q27 0 45 16l20 -39q-18 -17 -39 -26.5t-47 -9.5z" />
    <glyph glyph-name="uogonek" unicode="&#x173;" 
d="M227 -13q-23 0 -50 6t-51 22.5t-40 46.5t-16 79v293h78v-281q0 -64 25 -89t78 -25q23 0 43.5 7t37.5 19t29 27t19 31v311h77v-434h-74l-2 61h-1q-26 -32 -65 -53t-88 -21zM415 -192q-36 0 -61 20t-25 59q0 28 13 53.5t33 41.5h52q-16 -14 -25.5 -34.5t-9.5 -37.5
q0 -16 5 -25t12 -13t14.5 -4.5t12.5 -0.5q27 0 45 16l20 -39q-18 -17 -39 -26.5t-47 -9.5z" />
    <glyph glyph-name="Wcircumflex" unicode="&#x174;" horiz-adv-x="904" 
d="M19 680h90l157 -555h2l165 555h64l157 -555h3l163 555h66l-213 -680h-59l-161 551h-2l-165 -551h-57zM339 761l124 128l123 -128l-27 -29l-96 71l-97 -71z" />
    <glyph glyph-name="wcircumflex" unicode="&#x175;" horiz-adv-x="710" 
d="M9 434h85l118 -340h2l129 340h53l119 -340h2l123 340h60l-168 -434h-52l-121 325h-2l-129 -325h-51zM243 544l124 128l123 -128l-27 -29l-96 71l-97 -71z" />
    <glyph glyph-name="Ycircumflex" unicode="&#x176;" horiz-adv-x="571" 
d="M247 323l-228 357h92l186 -303h2l190 303h64l-227 -352v-328h-79v323zM176 761l124 128l123 -128l-27 -29l-96 71l-97 -71z" />
    <glyph glyph-name="ycircumflex" unicode="&#x177;" horiz-adv-x="456" 
d="M114 -218q-16 0 -28 1t-20 3q-10 2 -18 4l11 51q5 -2 12 -4q6 -2 15.5 -3t23.5 -1q17 0 28 8t21 31l48 116l-198 446h91l148 -351h2l138 351h60l-224 -547l-16 -38t-20.5 -34t-30 -24t-43.5 -9zM123 544l124 128l123 -128l-27 -29l-96 71l-97 -71z" />
    <glyph glyph-name="Ydieresis" unicode="&#x178;" horiz-adv-x="571" 
d="M247 323l-228 357h92l186 -303h2l190 303h64l-227 -352v-328h-79v323zM205 739q-21 0 -35.5 14.5t-14.5 35.5q0 20 14.5 35t35.5 15t35.5 -15t14.5 -35q0 -21 -14.5 -35.5t-35.5 -14.5zM389 739q-21 0 -35.5 14.5t-14.5 35.5q0 20 14.5 35t35.5 15t36 -15t15 -35
q0 -21 -15 -35.5t-36 -14.5z" />
    <glyph glyph-name="Zacute" unicode="&#x179;" horiz-adv-x="580" 
d="M403 625v2h-316v53h441l-374 -622v-2h384v-56h-505zM215 769l126 109l40 -57l-144 -83z" />
    <glyph glyph-name="zacute" unicode="&#x17a;" horiz-adv-x="454" 
d="M290 383v2h-231v49h357l-262 -381v-2h263v-51h-384zM156 555l126 109l40 -57l-144 -83z" />
    <glyph glyph-name="Zdotaccent" unicode="&#x17b;" horiz-adv-x="580" 
d="M403 625v2h-316v53h441l-374 -622v-2h384v-56h-505zM308 739q-22 0 -36 14.5t-14 35.5q0 20 14.5 35t35.5 15t35.5 -15t14.5 -35q0 -21 -14.5 -35.5t-35.5 -14.5z" />
    <glyph glyph-name="zdotaccent" unicode="&#x17c;" horiz-adv-x="454" 
d="M290 383v2h-231v49h357l-262 -381v-2h263v-51h-384zM231 536q-22 0 -36 14.5t-14 35.5q0 20 14.5 35t35.5 15t35.5 -15t14.5 -35q0 -21 -14.5 -35.5t-35.5 -14.5z" />
    <glyph glyph-name="Zcaron" unicode="&#x17d;" horiz-adv-x="580" 
d="M403 625v2h-316v53h441l-374 -622v-2h384v-56h-505zM176 869h55l72 -74h2l70 74h55l-102 -134h-48z" />
    <glyph glyph-name="zcaron" unicode="&#x17e;" horiz-adv-x="454" 
d="M290 383v2h-231v49h357l-262 -381v-2h263v-51h-384zM109 655h55l72 -74h2l70 74h55l-102 -134h-48z" />
    <glyph glyph-name="florin" unicode="&#x192;" horiz-adv-x="504" 
d="M75 -134q-30 0 -52.5 7t-31.5 13l29 48q5 -4 21 -9t33 -5q21 0 34 9.5t21.5 24.5t13 33.5t8.5 36.5q1 6 8 42q3 15 7.5 38.5t11 56.5t15 78t19.5 104h-101v50h109l20 105q6 33 16 68t27 63.5t43.5 46.5t66.5 18q29 0 49 -5.5t44 -19.5l-31 -44q-11 8 -22.5 12t-31.5 4
q-23 0 -37.5 -15t-23.5 -37t-14.5 -47t-9.5 -44l-20 -105h107v-50h-116l-62 -329q-6 -33 -16 -60t-27.5 -46.5t-43.5 -30.5t-63 -11z" />
    <glyph glyph-name="Scommaaccent" unicode="&#x218;" 
d="M259 -13q-45 0 -81 11t-62.5 26.5t-44 32t-24.5 26.5l43 40q3 -5 15.5 -18.5t33.5 -27.5t51.5 -25.5t69.5 -11.5q68 0 104.5 35.5t36.5 96.5q0 45 -24.5 73.5t-60.5 49t-79 39t-79 43t-60.5 61t-24.5 93.5q0 40 16 71t42.5 51t61 30.5t72.5 10.5q39 0 68.5 -7.5t51 -17.5
t35.5 -21t21 -17l-45 -38q-4 4 -14.5 13t-27 17.5t-38.5 15t-48 6.5q-23 0 -46 -5.5t-41 -17.5t-29.5 -30.5t-11.5 -44.5q0 -42 25 -67.5t63 -45t82 -37t82 -43t63 -64t25 -99.5q0 -39 -14 -75.5t-41.5 -65t-69 -46t-96.5 -17.5zM265 -132q-23 0 -37.5 14.5t-14.5 37.5
t14.5 37.5t37.5 14.5q29 0 42 -19t13 -42q0 -29 -14 -58t-48 -69l-39 10q17 19 30 39t18 33z" />
    <glyph glyph-name="scommaaccent" unicode="&#x219;" horiz-adv-x="386" 
d="M193 -13q-65 0 -103.5 22.5t-56.5 47.5l38 35q4 -9 14 -19.5t25 -19t35 -14.5t44 -6q37 0 63 18t26 56q0 28 -16.5 45.5t-41.5 30.5t-54.5 24.5t-54.5 27.5t-41.5 39t-16.5 59q0 31 13 53t33.5 35.5t45 19.5t48.5 6q51 0 82.5 -13.5t51.5 -31.5l-40 -36q-9 15 -32 26
t-58 11t-55.5 -14.5t-20.5 -39.5t17 -40.5t42 -27t55 -22.5t55 -27.5t42 -41.5t17 -64q0 -38 -14.5 -64.5t-37 -43t-50 -24t-54.5 -7.5zM196 -132q-23 0 -37.5 14.5t-14.5 37.5t14.5 37.5t37.5 14.5q29 0 42 -19t13 -42q0 -29 -14 -58t-48 -69l-39 10q17 19 30 39t18 33z
" />
    <glyph glyph-name="uni021A" unicode="&#x21a;" horiz-adv-x="495" 
d="M208 627h-199v53h477v-53h-199v-627h-79v627zM245 -132q-23 0 -37.5 14.5t-14.5 37.5t14.5 37.5t37.5 14.5q29 0 42 -19t13 -42q0 -29 -14 -58t-48 -69l-39 10q17 19 30 39t18 33z" />
    <glyph glyph-name="uni021B" unicode="&#x21b;" horiz-adv-x="345" 
d="M230 -13q-37 0 -61.5 9t-39 30t-20.5 54t-6 81v226h-75v47h75v79l77 42v-121h128v-47h-128v-245q0 -31 2.5 -51t9 -32t17 -16.5t27.5 -4.5q24 0 39 5q8 2 15 5l11 -51q-11 -3 -22 -5q-22 -5 -49 -5zM198 -132q-23 0 -37.5 14.5t-14.5 37.5t14.5 37.5t37.5 14.5
q29 0 42 -19t13 -42q0 -29 -14 -58t-48 -69l-39 10q17 19 30 39t18 33z" />
    <glyph glyph-name="dotlessj" unicode="&#x237;" horiz-adv-x="261" 
d="M35 -218q-28 0 -48 5q-11 3 -20 6l12 50q6 -3 14 -5q15 -5 38 -5q33 0 49.5 26t16.5 94v481h76v-462q0 -55 -9 -91.5t-26.5 -58.5t-43.5 -31t-59 -9z" />
    <glyph glyph-name="circumflex" unicode="&#x2c6;" horiz-adv-x="537" 
d="M145 544l124 128l123 -128l-27 -29l-96 71l-97 -71z" />
    <glyph glyph-name="caron" unicode="&#x2c7;" horiz-adv-x="504" 
d="M125 655h55l72 -74h2l70 74h55l-102 -134h-48z" />
    <glyph glyph-name="uni02C9" unicode="&#x2c9;" horiz-adv-x="313" 
d="M28 609h257v-49h-257v49z" />
    <glyph glyph-name="breve" unicode="&#x2d8;" horiz-adv-x="497" 
d="M247 523q-50 0 -84 33t-38 90h42q7 -36 27.5 -55t52.5 -19q39 0 58 19.5t26 54.5h41q-1 -54 -36 -88.5t-89 -34.5z" />
    <glyph glyph-name="dotaccent" unicode="&#x2d9;" horiz-adv-x="370" 
d="M185 536q-22 0 -36 14.5t-14 35.5q0 20 14.5 35t35.5 15t35.5 -15t14.5 -35q0 -21 -14.5 -35.5t-35.5 -14.5z" />
    <glyph glyph-name="ring" unicode="&#x2da;" horiz-adv-x="464" 
d="M232 500q-20 0 -37 7.5t-29 20t-19 29.5t-7 36q0 37 26 64.5t66 27.5q41 0 66.5 -27.5t25.5 -64.5q0 -19 -7 -36t-19 -29.5t-29 -20t-37 -7.5zM232 537q25 0 38.5 15.5t13.5 40.5q0 20 -13 37.5t-39 17.5q-24 0 -38 -16.5t-14 -38.5q0 -21 14 -38.5t38 -17.5z" />
    <glyph glyph-name="ogonek" unicode="&#x2db;" horiz-adv-x="472" 
d="M236 -202q-36 0 -61 20t-25 59q0 28 13 53.5t33 41.5h52q-16 -14 -25.5 -34.5t-9.5 -37.5q0 -16 5 -25t12 -13t14.5 -4.5t12.5 -0.5q27 0 45 16l20 -39q-18 -17 -39 -26.5t-47 -9.5z" />
    <glyph glyph-name="tilde" unicode="&#x2dc;" horiz-adv-x="550" 
d="M135 545q0 16 6 32.5t17 29t27 20.5t36 8q18 0 32.5 -5.5t27.5 -12t24.5 -12t25.5 -5.5q19 0 32 9.5t13 31.5l39 -11q-3 -18 -8.5 -34.5t-14.5 -28.5t-23 -19.5t-35 -7.5q-19 0 -34 6t-28.5 12.5t-26.5 12.5t-29 6q-17 0 -30 -12t-13 -30z" />
    <glyph glyph-name="hungarumlaut" unicode="&#x2dd;" horiz-adv-x="569" 
d="M358 645h91l-128 -120h-59zM216 645h91l-128 -120h-59z" />
    <glyph glyph-name="uni0394" unicode="&#x394;" horiz-adv-x="616" 
d="M307 680l299 -680h-596zM489 53l-192 452h-3l-191 -452h386z" />
    <glyph glyph-name="uni03A9" unicode="&#x3a9;" horiz-adv-x="756" 
d="M73 53h152v2q-30 11 -61.5 35t-58 60t-43 85.5t-16.5 111.5q0 77 27 141t73 109.5t107.5 71t130.5 25.5q65 0 124 -24.5t104 -69.5t71.5 -109t26.5 -144q0 -61 -16 -110t-42 -85.5t-58.5 -60.5t-65.5 -36v-2h155v-53h-224v64q32 11 61 33.5t51.5 57t36 82t13.5 110.5
q0 50 -15.5 102.5t-45.5 95.5t-75 70.5t-103 27.5q-56 0 -102 -22t-78.5 -61.5t-50.5 -94t-18 -118.5q0 -62 14.5 -110t37.5 -82.5t52.5 -56.5t59.5 -34v-64h-224v53z" />
    <glyph glyph-name="uni03BC" unicode="&#x3bc;" 
d="M70 434h78v-272q0 -57 27.5 -90.5t89.5 -33.5q39 0 69 24.5t46 60.5v311h77v-434h-74l-2 61h-1q-23 -32 -52 -53t-78 -21q-29 0 -56.5 10.5t-42.5 27.5h-2v-233h-79v642z" />
    <glyph glyph-name="pi" unicode="&#x3c0;" horiz-adv-x="639" 
d="M153 382h-106v52h546v-52h-111v-276q0 -26 5.5 -47t28.5 -21q7 0 12 1t10 3q4 2 9 4l11 -46q-5 -3 -21.5 -8t-36.5 -5q-50 0 -71.5 34.5t-21.5 102.5v258h-178v-382h-76v382z" />
    <glyph glyph-name="endash" unicode="&#x2013;" horiz-adv-x="465" 
d="M0 288h465v-55h-465v55z" />
    <glyph glyph-name="emdash" unicode="&#x2014;" horiz-adv-x="930" 
d="M0 288h930v-55h-930v55z" />
    <glyph glyph-name="quoteleft" unicode="&#x2018;" horiz-adv-x="211" 
d="M106 606q26 0 42.5 -16.5t16.5 -41.5q0 -26 -16.5 -42t-42.5 -16q-32 0 -45.5 21t-13.5 46q0 32 14.5 64.5t52.5 77.5l43 -12q-19 -20 -33.5 -42.5t-19.5 -37.5z" />
    <glyph glyph-name="quoteright" unicode="&#x2019;" horiz-adv-x="211" 
d="M105 580q-25 0 -41.5 16t-16.5 41q0 26 16.5 42t41.5 16q32 0 46 -21t14 -46q0 -32 -15 -64.5t-53 -77.5l-43 12q19 21 33.5 43t19.5 37z" />
    <glyph glyph-name="quotesinglbase" unicode="&#x201a;" horiz-adv-x="211" 
d="M105 -13q-25 0 -41.5 16t-16.5 42q0 25 16.5 41t41.5 16q32 0 46 -20.5t14 -46.5q0 -32 -15 -64t-53 -77l-43 11q19 21 33.5 43.5t19.5 36.5z" />
    <glyph glyph-name="quotedblleft" unicode="&#x201c;" horiz-adv-x="388" 
d="M283 606q25 0 41.5 -16.5t16.5 -41.5q0 -26 -16.5 -42t-41.5 -16q-32 0 -46 21t-14 46q0 32 15 64.5t53 77.5l43 -12q-19 -20 -33.5 -42.5t-19.5 -37.5zM106 606q26 0 42.5 -16.5t16.5 -41.5q0 -26 -16.5 -42t-42.5 -16q-32 0 -45.5 21t-13.5 46q0 32 14.5 64.5
t52.5 77.5l43 -12q-19 -20 -33.5 -42.5t-19.5 -37.5z" />
    <glyph glyph-name="quotedblright" unicode="&#x201d;" horiz-adv-x="388" 
d="M105 580q-25 0 -41.5 16t-16.5 41q0 26 16.5 42t41.5 16q32 0 46 -21t14 -46q0 -32 -15 -64.5t-53 -77.5l-43 12q19 21 33.5 43t19.5 37zM282 580q-26 0 -42.5 16t-16.5 41q0 26 16.5 42t42.5 16q32 0 45.5 -21t13.5 -46q0 -32 -15 -64.5t-53 -77.5l-42 12q19 21 33.5 43
t19.5 37z" />
    <glyph glyph-name="quotedblbase" unicode="&#x201e;" horiz-adv-x="388" 
d="M105 -13q-25 0 -41.5 16t-16.5 42q0 25 16.5 41t41.5 16q32 0 46 -20.5t14 -46.5q0 -32 -15 -64t-53 -77l-43 11q19 21 33.5 43.5t19.5 36.5zM282 -13q-26 0 -42.5 16t-16.5 42q0 25 16.5 41t42.5 16q32 0 45.5 -20.5t13.5 -46.5q0 -32 -15 -64t-53 -77l-42 11
q19 21 33.5 43.5t19.5 36.5z" />
    <glyph glyph-name="dagger" unicode="&#x2020;" horiz-adv-x="517" 
d="M218 425h-185v57h185v198h82v-198h185v-57h-185v-514h-82v514z" />
    <glyph glyph-name="daggerdbl" unicode="&#x2021;" horiz-adv-x="526" 
d="M222 124h-185v56h185v245h-185v57h185v198h82v-198h185v-57h-185v-245h185v-56h-185v-213h-82v213z" />
    <glyph glyph-name="bullet" unicode="&#x2022;" horiz-adv-x="478" 
d="M239 165q-34 0 -64 13t-52.5 35t-35.5 52t-13 64t13 64t35.5 52.5t52.5 35.5t64 13t64 -13t52.5 -35.5t35.5 -52.5t13 -64t-13 -64t-35.5 -52t-52.5 -35t-64 -13z" />
    <glyph glyph-name="ellipsis" unicode="&#x2026;" horiz-adv-x="947" 
d="M170 -13q-25 0 -41.5 16.5t-16.5 42.5q0 25 16.5 41.5t41.5 16.5q26 0 42.5 -16.5t16.5 -41.5q0 -26 -16.5 -42.5t-42.5 -16.5zM473 -13q-25 0 -41.5 16.5t-16.5 42.5q0 25 16.5 41.5t41.5 16.5q26 0 42.5 -16.5t16.5 -41.5q0 -26 -16.5 -42.5t-42.5 -16.5zM777 -13
q-26 0 -42.5 16.5t-16.5 42.5q0 25 16.5 41.5t42.5 16.5q25 0 41.5 -16.5t16.5 -41.5q0 -26 -16.5 -42.5t-41.5 -16.5z" />
    <glyph glyph-name="perthousand" unicode="&#x2030;" horiz-adv-x="1083" 
d="M539 682l51 -30l-404 -682l-51 30zM193 348q-33 0 -60 12t-46 33.5t-29.5 52t-10.5 67.5q0 76 40 121.5t106 45.5t106.5 -45.5t40.5 -120.5t-40.5 -120.5t-106.5 -45.5zM192 391q47 0 62.5 32t15.5 90q0 56 -16.5 90t-60.5 34q-48 0 -63 -33t-15 -91q0 -54 16.5 -88
t60.5 -34zM541 -13q-33 0 -59.5 12t-46 33.5t-30 52t-10.5 68.5q0 75 40.5 120t106.5 45t106 -45t40 -120t-40 -120.5t-107 -45.5zM540 30q48 0 63.5 31.5t15.5 91.5q0 54 -17 88t-61 34q-47 0 -62 -32.5t-15 -89.5q0 -56 16 -89.5t60 -33.5zM889 -13q-33 0 -59.5 12
t-46 33.5t-30 52t-10.5 68.5q0 75 40.5 120t106.5 45t106 -45t40 -120t-40 -120.5t-107 -45.5zM888 30q48 0 63 31.5t15 91.5q0 54 -16.5 88t-60.5 34q-47 0 -62 -32.5t-15 -89.5q0 -56 16 -89.5t60 -33.5z" />
    <glyph glyph-name="guilsinglleft" unicode="&#x2039;" horiz-adv-x="292" 
d="M65 223l133 199l38 -26l-89 -171l89 -175l-38 -26z" />
    <glyph glyph-name="guilsinglright" unicode="&#x203a;" horiz-adv-x="292" 
d="M56 50l89 175l-89 171l38 26l133 -199l-133 -199z" />
    <glyph glyph-name="fraction" unicode="&#x2044;" horiz-adv-x="157" 
d="M255 682l51 -30l-404 -682l-51 30z" />
    <glyph glyph-name="Euro" unicode="&#x20ac;" horiz-adv-x="640" 
d="M404 -13q-59 0 -108.5 18t-87 53t-62 88t-33.5 123h-66l19 50h44v21q0 11 0.5 21.5t1.5 21.5h-65l19 50h52q11 59 36 107t62 82.5t85.5 53t107.5 18.5q123 0 184 -75l-44 -41q-32 34 -63 51t-78 17q-41 0 -74 -15.5t-57.5 -43.5t-41.5 -67.5t-25 -86.5h315l-20 -50h-300
q-1 -11 -1.5 -21.5t-0.5 -21.5v-21h278l-20 -50h-254q5 -48 19 -90t38 -73.5t59 -50t83 -18.5q41 0 75 15.5t63 43.5l40 -45q-40 -33 -89.5 -48.5t-90.5 -15.5z" />
    <glyph glyph-name="afii61289" unicode="&#x2113;" horiz-adv-x="500" 
d="M410 39q-56 -53 -125 -53q-52 0 -87 30.5t-35 95.5v123l-61 -64l-23 32l84 84v262q0 84 35.5 128t87.5 44q46 0 75 -33t29 -92q0 -74 -43.5 -154t-124.5 -166v-155q0 -27 7 -44.5t18 -27.5t24.5 -14t26.5 -4q44 0 88 39zM222 330q57 67 88 135t31 126q0 40 -16.5 64
t-39.5 24q-24 0 -43.5 -29t-19.5 -92v-228z" />
    <glyph glyph-name="trademark" unicode="&#x2122;" horiz-adv-x="786" 
d="M130 653h-106v41h266v-41h-106v-343h-54v343zM386 694h64l106 -292l101 292h62l19 -384h-53l-15 298l-104 -298h-31l-108 298l-14 -298h-43z" />
    <glyph glyph-name="Omega" unicode="&#x2126;" horiz-adv-x="756" 
d="M73 53h152v2q-30 11 -61.5 35t-58 60t-43 85.5t-16.5 111.5q0 77 27 141t73 109.5t107.5 71t130.5 25.5q65 0 124 -24.5t104 -69.5t71.5 -109t26.5 -144q0 -61 -16 -110t-42 -85.5t-58.5 -60.5t-65.5 -36v-2h155v-53h-224v64q32 11 61 33.5t51.5 57t36 82t13.5 110.5
q0 50 -15.5 102.5t-45.5 95.5t-75 70.5t-103 27.5q-56 0 -102 -22t-78.5 -61.5t-50.5 -94t-18 -118.5q0 -62 14.5 -110t37.5 -82.5t52.5 -56.5t59.5 -34v-64h-224v53z" />
    <glyph glyph-name="estimated" unicode="&#x212e;" horiz-adv-x="661" 
d="M158 314v-214q70 -70 172 -70q74 0 129 33.5t100 108.5l41 -25q-27 -43 -55 -73t-60.5 -49.5t-70.5 -28.5t-84 -9q-70 0 -126.5 25.5t-96.5 70t-61.5 103.5t-21.5 128t21.5 129t61.5 103.5t96.5 69t126.5 25.5q69 0 125 -24t96.5 -67.5t63 -103.5t22.5 -132h-479z
M503 357v172q-75 71 -174 71q-100 0 -171 -71v-172h345z" />
    <glyph glyph-name="partialdiff" unicode="&#x2202;" horiz-adv-x="552" 
d="M239 -13q-55 0 -92 20t-59 50t-31.5 64t-9.5 63q0 62 19.5 103.5t49.5 66t66 36t70 13.5q39 0 68.5 -10.5t50 -25t32.5 -30.5t17 -28h2q3 15 4 33t1 41q-2 130 -56 190t-157 60l5 48q62 -2 114 -22t89.5 -57.5t58.5 -91.5t21 -124q0 -63 -12 -133t-42 -129.5t-80.5 -98
t-128.5 -38.5zM246 38q21 0 44 8.5t44.5 31.5t40 63.5t31.5 104.5q-4 21 -15.5 40.5t-28.5 34.5t-39.5 24t-47.5 9q-27 0 -53.5 -8.5t-48 -28.5t-34.5 -52.5t-13 -80.5q0 -14 3.5 -38.5t15.5 -48.5t36 -41.5t65 -17.5z" />
    <glyph glyph-name="Delta" unicode="&#x2206;" horiz-adv-x="616" 
d="M307 680l299 -680h-596zM489 53l-192 452h-3l-191 -452h386z" />
    <glyph glyph-name="product" unicode="&#x220f;" horiz-adv-x="761" 
d="M151 628h-104v51h667v-51h-104v-836h-78v836h-303v-836h-78v836z" />
    <glyph glyph-name="summation" unicode="&#x2211;" horiz-adv-x="616" 
d="M361 244l-304 436h492v-52h-362l265 -365l-300 -412h418v-59h-530z" />
    <glyph glyph-name="minus" unicode="&#x2212;" horiz-adv-x="475" 
d="M47 288h381v-56h-381v56z" />
    <glyph glyph-name="uni2215" unicode="&#x2215;" horiz-adv-x="157" 
d="M255 682l51 -30l-404 -682l-51 30z" />
    <glyph glyph-name="uni2219" unicode="&#x2219;" horiz-adv-x="260" 
d="M130 232q-22 0 -39 16t-17 39t16.5 39.5t39.5 16.5t39.5 -16.5t16.5 -39.5t-17 -39t-39 -16z" />
    <glyph glyph-name="radical" unicode="&#x221a;" horiz-adv-x="647" 
d="M28 389h139l147 -255h2l286 560h64l-334 -654h-49l-181 308h-74v41z" />
    <glyph glyph-name="infinity" unicode="&#x221e;" horiz-adv-x="795" 
d="M201 102q-38 0 -66.5 13t-48 34t-29.5 46t-10 49q0 30 11.5 57t32 47t49.5 32t64 12q30 0 55 -9.5t47.5 -24.5t44.5 -34.5t47 -40.5q28 21 51 40.5t45.5 35t46 24.5t52.5 9q35 0 63.5 -10.5t49 -29t32 -45t11.5 -57.5q0 -30 -11 -56.5t-31.5 -47t-50 -32.5t-66.5 -12
q-29 0 -54 9t-47.5 24t-45 35t-46.5 41q-27 -21 -49 -40.5t-44 -34.5t-46.5 -24.5t-56.5 -9.5zM207 155q20 0 38 8.5t35.5 22t35 29t37.5 30.5q-14 11 -31.5 27t-36.5 31t-40 25.5t-43 10.5q-46 0 -70.5 -26.5t-24.5 -64.5q0 -17 6 -34t18 -30t31 -21t45 -8zM593 156
q46 0 70 26.5t24 63.5q0 40 -26 66.5t-72 26.5q-20 0 -36.5 -7t-32.5 -19t-34.5 -28.5t-42.5 -35.5q21 -18 40 -35t37 -30t36 -20.5t37 -7.5z" />
    <glyph glyph-name="integral" unicode="&#x222b;" horiz-adv-x="344" 
d="M59 -218q-27 0 -50 5q-12 3 -23 6l11 54q7 -3 16 -6q17 -5 41 -5q17 0 30.5 5.5t23 19t14.5 36t5 56.5v611q0 56 29.5 93t91.5 37q35 0 52.5 -5.5t34.5 -13.5l-18 -49q-8 5 -22.5 10t-34.5 5q-5 0 -14.5 -2t-18.5 -9t-16 -20.5t-7 -35.5v-602q0 -55 -10.5 -91.5
t-29 -58.5t-45.5 -31t-60 -9z" />
    <glyph glyph-name="approxequal" unicode="&#x2248;" horiz-adv-x="540" 
d="M56 309q6 12 16.5 26.5t25 27t33 21.5t41.5 9q27 0 51.5 -10.5t49 -23t49.5 -23t52 -10.5q31 0 47 16t28 40l35 -34q-4 -7 -13.5 -21.5t-24.5 -29t-35 -25.5t-45 -11q-28 0 -53.5 11t-50 24t-48.5 24t-49 11q-31 0 -49 -18t-29 -42zM56 159q6 12 16.5 26.5t25 27t33 21.5
t41.5 9q27 0 51.5 -10.5t49 -23t49.5 -23t52 -10.5q31 0 47 16t28 41l35 -35q-4 -7 -13.5 -21t-24.5 -28.5t-35 -25.5t-45 -11q-28 0 -53.5 11t-50 23.5t-48.5 23.5t-49 11q-31 0 -49 -18t-29 -42z" />
    <glyph glyph-name="notequal" unicode="&#x2260;" horiz-adv-x="540" 
d="M56 212h139l86 92h-225v54h275l92 98l37 -39l-54 -59h78v-54h-129l-84 -92h213v-54h-264l-101 -109l-37 40l63 69h-89v54z" />
    <glyph glyph-name="lessequal" unicode="&#x2264;" horiz-adv-x="626" 
d="M65 0v55h501v-55h-501zM65 287v62l486 179l19 -48l-399 -160v-3l399 -178l-21 -48z" />
    <glyph glyph-name="greaterequal" unicode="&#x2265;" horiz-adv-x="626" 
d="M60 55h501v-55h-501v55zM56 139l399 178v3l-399 160l19 48l486 -179v-62l-484 -196z" />
    <glyph glyph-name="lozenge" unicode="&#x25ca;" horiz-adv-x="633" 
d="M47 340l245 340h46l248 -341l-248 -339h-46zM319 62q39 55 75 107q31 44 64 91t55 79l-200 277h-2q-48 -68 -97 -137.5t-98 -138.5q24 -34 57.5 -81t65.5 -91q37 -51 76 -106h4z" />
    <glyph glyph-name="exclam.sc" unicode="&#xe000;" horiz-adv-x="272" 
d="M136 -13q-24 0 -40.5 16.5t-16.5 40.5q0 23 16.5 39.5t40.5 16.5q23 0 40 -16.5t17 -39.5q0 -24 -17 -40.5t-40 -16.5zM101 490h70v-331h-70v331z" />
    <glyph glyph-name="dollar.sc" unicode="&#xe001;" horiz-adv-x="438" 
d="M200 -12q-32 2 -58 11t-46 20.5t-33 23t-18 19.5l42 38q1 -4 10 -13t23.5 -19.5t35 -19t44.5 -10.5v192q-25 11 -49 23.5t-43 29.5t-30.5 40.5t-11.5 56.5q0 28 11 49.5t29.5 37t43 24.5t50.5 11v50h39v-50q49 -5 81 -23t43 -28l-43 -36q-7 7 -29 20.5t-52 18.5v-156
q27 -11 53.5 -23.5t48 -30.5t35 -43t13.5 -61q0 -27 -10 -52.5t-29 -46t-47 -34.5t-64 -18v-57h-39v56zM318 125q0 34 -22 54.5t-57 35.5v-176q36 6 57.5 28.5t21.5 57.5zM128 393q0 -30 20.5 -48.5t51.5 -32.5v143q-28 -4 -50 -19t-22 -43z" />
    <glyph glyph-name="percent.sc" unicode="&#xe002;" horiz-adv-x="648" 
d="M464 509l41 -26l-322 -506l-41 26zM169 247q-55 0 -88.5 35t-33.5 92t33.5 93t88.5 36q54 0 88 -33t34 -95q0 -58 -34 -93t-88 -35zM169 283q62 0 62 91q0 48 -16 70.5t-46 22.5q-37 0 -50 -26t-13 -67q0 -48 16.5 -69.5t46.5 -21.5zM479 -13q-55 0 -88.5 35t-33.5 92
t33.5 93t88.5 36q54 0 88 -33t34 -95q0 -58 -34 -93t-88 -35zM479 23q62 0 62 91q0 48 -16 70.5t-46 22.5q-37 0 -50 -26t-13 -67q0 -48 16.5 -69.5t46.5 -21.5z" />
    <glyph glyph-name="ampersand.sc" unicode="&#xe003;" horiz-adv-x="578" 
d="M265 -13q-46 0 -84 10.5t-65.5 31.5t-42.5 52.5t-15 73.5q0 22 7.5 45.5t22.5 42.5t38 32t54 15v2q-33 9 -51 35t-18 64q0 55 39 83.5t98 28.5q45 0 71 -11.5t40 -27.5l-35 -28q-5 8 -20 17.5t-51 9.5q-32 0 -52.5 -18.5t-20.5 -53.5t15.5 -58.5t58.5 -26.5v-41
q-30 0 -52.5 -9t-36.5 -24t-21 -35t-7 -42q0 -35 11.5 -58.5t30 -37.5t41.5 -20.5t45 -6.5q65 0 98.5 37t33.5 109q0 28 -2 47.5t-7 39.5h-85v41h225v-41h-63q2 -17 3.5 -33.5t1.5 -39.5q0 -43 -12 -80.5t-37 -65t-64 -43.5t-92 -16z" />
    <glyph glyph-name="question.sc" unicode="&#xe004;" horiz-adv-x="426" 
d="M50 425q47 78 154 78q45 0 75 -9.5t49 -26t27 -37.5t8 -43q0 -29 -10 -48t-25 -33t-32.5 -24t-32.5 -21t-25 -25t-10 -35v-42h-73v40q0 30 10 49.5t25.5 32.5t33.5 23t33.5 21.5t25.5 26t10 38.5q0 11 -3.5 23t-13.5 22t-27 16.5t-45 6.5q-44 0 -68 -16.5t-40 -44.5z
M194 -13q-24 0 -40.5 16.5t-16.5 40.5q0 23 16.5 39.5t40.5 16.5q23 0 40 -16.5t17 -39.5q0 -24 -17 -40.5t-40 -16.5z" />
    <glyph glyph-name="a.sc" unicode="&#xe005;" horiz-adv-x="465" 
d="M210 493h44l204 -493h-80l-58 146h-194l-60 -146h-59zM301 193l-78 199h-2l-78 -199h158z" />
    <glyph glyph-name="b.sc" unicode="&#xe006;" horiz-adv-x="463" 
d="M84 490h152q42 0 70.5 -9t46.5 -24.5t26 -37t8 -45.5q0 -38 -18.5 -64.5t-42.5 -40.5q14 -6 28.5 -16t26 -25.5t19 -36t7.5 -47.5q0 -66 -43 -105t-124 -39h-156v490zM232 49q29 0 49 7.5t32 21t17 31t5 35.5q0 52 -27.5 73t-74.5 20l-79 -1v-186zM227 286q44 0 66.5 21
t22.5 67q0 31 -20.5 51.5t-65.5 19.5l-76 -1v-158h73z" />
    <glyph glyph-name="c.sc" unicode="&#xe007;" horiz-adv-x="520" 
d="M292 -13q-56 0 -101.5 21.5t-77.5 57.5t-49 82.5t-17 97.5q0 66 21.5 114.5t56.5 80t79 47t89 15.5q38 0 66.5 -6.5t49.5 -16t36.5 -21.5t27.5 -24l-51 -39q-6 8 -16 18.5t-25 19.5t-36 15t-48 6q-36 0 -67.5 -14t-54.5 -40.5t-36.5 -65.5t-13.5 -89q0 -46 12.5 -84.5
t35 -66.5t54.5 -43.5t71 -15.5q47 0 85 20t55 47l45 -36q-19 -18 -37.5 -33t-40.5 -25.5t-49.5 -16t-63.5 -5.5z" />
    <glyph glyph-name="d.sc" unicode="&#xe008;" horiz-adv-x="555" 
d="M84 490h156q75 0 126 -21t82.5 -54.5t45.5 -76.5t14 -87q0 -56 -18 -102.5t-52.5 -79.5t-86 -51t-118.5 -18h-149v490zM231 51q55 -1 93 14t62 42t34.5 64t10.5 80q0 36 -11 70.5t-34 61.5t-60 43.5t-89 15.5l-83 -1v-389z" />
    <glyph glyph-name="e.sc" unicode="&#xe009;" horiz-adv-x="432" 
d="M84 490h283v-50h-213v-154h187v-51h-187v-183h222v-52h-292v490z" />
    <glyph glyph-name="f.sc" unicode="&#xe00a;" horiz-adv-x="411" 
d="M84 490h285v-50h-215v-154h188v-51h-188v-235h-70v490z" />
    <glyph glyph-name="g.sc" unicode="&#xe00b;" horiz-adv-x="541" 
d="M301 -13q-51 0 -97.5 17.5t-81 51t-55 81.5t-20.5 109q0 64 21 112t56 80.5t80.5 48.5t94.5 16q40 0 70 -6.5t51.5 -16.5t36.5 -21t26 -20l-50 -38q-2 2 -10 10.5t-24.5 18.5t-41 17.5t-58.5 7.5q-36 0 -67.5 -14.5t-55 -42t-37 -66t-13.5 -86.5q0 -47 13.5 -86t37 -66.5
t56 -42.5t70.5 -15q47 0 73 8t34 15v188h72v-212q-8 -6 -23.5 -14t-38.5 -15.5t-53 -13t-66 -5.5z" />
    <glyph glyph-name="h.sc" unicode="&#xe00c;" horiz-adv-x="544" 
d="M84 490h70v-204h235v204h71v-490h-71v235h-235v-235h-70v490z" />
    <glyph glyph-name="i.sc" unicode="&#xe00d;" horiz-adv-x="238" 
d="M84 490h70v-490h-70v490z" />
    <glyph glyph-name="j.sc" unicode="&#xe00e;" horiz-adv-x="253" 
d="M12 -23q6 -3 13 -5q13 -5 31 -5q21 0 32.5 16.5t11.5 61.5v445h69v-431q0 -41 -7.5 -68t-22 -43t-34.5 -23t-45 -7q-11 0 -22 1t-19 3q-10 2 -19 5z" />
    <glyph glyph-name="k.sc" unicode="&#xe00f;" horiz-adv-x="477" 
d="M84 490h71v-197h2l209 197h77l-236 -218l256 -272h-97l-209 229h-2v-229h-71v490z" />
    <glyph glyph-name="l.sc" unicode="&#xe010;" horiz-adv-x="387" 
d="M84 490h70v-439h214v-51h-284v490z" />
    <glyph glyph-name="m.sc" unicode="&#xe011;" horiz-adv-x="645" 
d="M105 490h83l133 -365h2l133 365h79l32 -490h-72l-22 377h-2l-137 -377h-40l-140 377h-2q-3 -72 -6 -142q-2 -30 -3 -61.5t-2.5 -62.5t-3 -59.5t-2.5 -51.5h-57z" />
    <glyph glyph-name="n.sc" unicode="&#xe012;" horiz-adv-x="543" 
d="M84 490h72l243 -370h2v370h58v-490h-65l-251 383h-2v-383h-57v490z" />
    <glyph glyph-name="o.sc" unicode="&#xe013;" horiz-adv-x="600" 
d="M300 -13q-57 0 -104 21t-80 57t-51 83t-18 98q0 57 19.5 104.5t53.5 81.5t80 52.5t100 18.5q57 0 103.5 -19t80 -53t51.5 -81.5t18 -103.5q0 -58 -19.5 -105.5t-54 -81.5t-80.5 -53t-99 -19zM300 37q39 0 71 14.5t55.5 41.5t36 65.5t12.5 87.5q0 45 -13 83t-36 66
t-55 43.5t-71 15.5t-71 -14.5t-55 -41.5t-36 -65.5t-13 -86.5t13.5 -86.5t36.5 -65.5t55 -42t70 -15z" />
    <glyph glyph-name="p.sc" unicode="&#xe014;" horiz-adv-x="430" 
d="M84 490h150q48 0 78.5 -12t48 -30.5t24 -42t6.5 -46.5q0 -22 -9 -46.5t-27.5 -45t-47.5 -34t-68 -13.5h-85v-220h-70v490zM229 269q24 0 41 7.5t27.5 20t15.5 29t5 33.5q0 18 -4.5 33.5t-15 27t-28 18t-44.5 6.5l-72 -1v-173z" />
    <glyph glyph-name="q.sc" unicode="&#xe015;" horiz-adv-x="602" 
d="M309 -13q-63 0 -112 20t-82 55t-50.5 82.5t-17.5 101.5q0 65 22 113t58 80t81.5 48t91.5 16q48 0 93.5 -16.5t81 -48.5t57 -80t21.5 -112q0 -52 -14 -90.5t-34 -65.5t-42.5 -43.5t-39.5 -25.5v-1q13 -2 30 -5l34 -6t33.5 -5.5t27.5 -2.5l-17 -48q-24 4 -52.5 10
t-57.5 11.5t-58 9t-54 3.5zM301 37q81 0 127 55.5t46 153.5q0 46 -12.5 84.5t-35.5 66t-55 42.5t-71 15q-36 0 -68 -13t-56 -39.5t-38 -65.5t-14 -90q0 -50 13.5 -89t37 -65.5t56 -40.5t70.5 -14z" />
    <glyph glyph-name="r.sc" unicode="&#xe016;" horiz-adv-x="469" 
d="M84 490h150q49 0 78.5 -12.5t45.5 -31.5t21.5 -41t5.5 -41q0 -52 -30.5 -87t-73.5 -46l165 -231h-93l-148 224h-52v-224h-69v490zM220 273q40 0 66.5 21.5t26.5 69.5q0 36 -20.5 59t-68.5 22l-71 -1v-170z" />
    <glyph glyph-name="s.sc" unicode="&#xe017;" horiz-adv-x="427" 
d="M209 -13q-35 0 -62.5 9t-48.5 21t-34 24.5t-19 20.5l42 38q2 -4 11 -14t25 -21t38 -19.5t49 -8.5q48 0 72.5 24t24.5 64q0 30 -18 49t-44.5 33.5t-58 27.5t-58 31.5t-44.5 45t-18 68.5q0 30 12.5 53t33 38.5t47 23.5t55.5 8t52 -6t40.5 -14.5t29 -17t17.5 -14.5l-43 -36
q-4 4 -12.5 11t-20.5 13.5t-27.5 11.5t-33.5 5q-16 0 -31.5 -3.5t-28 -11t-20.5 -19.5t-8 -29q0 -29 18.5 -46.5t46.5 -31t60 -26t60 -31.5t46.5 -46.5t18.5 -71.5q0 -29 -10.5 -56.5t-31.5 -49t-52.5 -34.5t-74.5 -13z" />
    <glyph glyph-name="t.sc" unicode="&#xe018;" horiz-adv-x="400" 
d="M165 440h-146v50h362v-50h-147v-440h-69v440z" />
    <glyph glyph-name="u.sc" unicode="&#xe019;" horiz-adv-x="533" 
d="M264 -13q-35 0 -68 9.5t-59 30t-42 53.5t-16 81v329h71v-340q0 -33 12 -55t30 -35t38 -18.5t37 -5.5q26 0 49 6.5t40.5 20.5t27.5 36t10 52v339h60v-327q0 -53 -16 -87t-42.5 -53.5t-61 -27.5t-70.5 -8z" />
    <glyph glyph-name="v.sc" unicode="&#xe01a;" horiz-adv-x="484" 
d="M19 490h79l153 -382h2l153 382h59l-201 -490h-44z" />
    <glyph glyph-name="w.sc" unicode="&#xe01b;" horiz-adv-x="702" 
d="M23 490h81l110 -370h2l116 370h56l113 -371h2l113 371h63l-162 -490h-52l-114 367h-2l-116 -367h-50z" />
    <glyph glyph-name="x.sc" unicode="&#xe01c;" horiz-adv-x="483" 
d="M198 255l-158 235h87l117 -174h2l116 174h68l-155 -222l180 -268h-88l-136 206h-2l-138 -206h-63z" />
    <glyph glyph-name="y.sc" unicode="&#xe01d;" horiz-adv-x="458" 
d="M194 232l-175 258h84l135 -206h2l136 206h63l-175 -256v-234h-70v232z" />
    <glyph glyph-name="z.sc" unicode="&#xe01e;" horiz-adv-x="461" 
d="M300 438v2h-228v50h343l-270 -436v-2h275v-52h-387z" />
    <glyph glyph-name="agrave.sc" unicode="&#xe01f;" horiz-adv-x="464" 
d="M210 493h44l204 -493h-80l-58 146h-194l-60 -146h-59zM301 193l-78 199h-2l-78 -199h158zM144 620l44 56l130 -111l-24 -31z" />
    <glyph glyph-name="aacute.sc" unicode="&#xe020;" horiz-adv-x="464" 
d="M210 493h44l204 -493h-80l-58 146h-194l-60 -146h-59zM301 193l-78 199h-2l-78 -199h158zM148 565l126 109l40 -57l-144 -83z" />
    <glyph glyph-name="acircumflex.sc" unicode="&#xe021;" horiz-adv-x="465" 
d="M210 493h44l204 -493h-80l-58 146h-194l-60 -146h-59zM301 193l-78 199h-2l-78 -199h158zM104 554l124 128l123 -128l-27 -29l-96 71l-97 -71z" />
    <glyph glyph-name="atilde.sc" unicode="&#xe022;" horiz-adv-x="465" 
d="M210 493h44l204 -493h-80l-58 146h-194l-60 -146h-59zM301 193l-78 199h-2l-78 -199h158zM91 555q0 16 6 32.5t17 29t27 20.5t36 8q18 0 32.5 -5.5t27.5 -12t24.5 -12t25.5 -5.5q19 0 32 9.5t13 31.5l39 -11q-3 -18 -8.5 -34.5t-14.5 -28.5t-23 -19.5t-35 -7.5
q-19 0 -34 6t-28.5 12.5t-26.5 12.5t-29 6q-17 0 -30 -12t-13 -30z" />
    <glyph glyph-name="adieresis.sc" unicode="&#xe023;" horiz-adv-x="465" 
d="M210 493h44l204 -493h-80l-58 146h-194l-60 -146h-59zM301 193l-78 199h-2l-78 -199h158zM135 546q-21 0 -35.5 14.5t-14.5 35.5q0 20 14.5 35t35.5 15t35.5 -15t14.5 -35q0 -21 -14.5 -35.5t-35.5 -14.5zM319 546q-21 0 -35.5 14.5t-14.5 35.5q0 20 14.5 35t35.5 15
t36 -15t15 -35q0 -21 -15 -35.5t-36 -14.5z" />
    <glyph glyph-name="aring.sc" unicode="&#xe024;" horiz-adv-x="465" 
d="M210 493h44l204 -493h-80l-58 146h-194l-60 -146h-59zM301 193l-78 199h-2l-78 -199h158zM229 515q-20 0 -37 7.5t-29 20t-19 29.5t-7 36q0 37 26 64.5t66 27.5q41 0 66.5 -27.5t25.5 -64.5q0 -19 -7 -36t-19 -29.5t-29 -20t-37 -7.5zM229 552q25 0 38.5 15.5t13.5 40.5
q0 20 -13 37.5t-39 17.5q-24 0 -38 -16.5t-14 -38.5q0 -21 14 -38.5t38 -17.5z" />
    <glyph glyph-name="amacron.sc" unicode="&#xe025;" horiz-adv-x="465" 
d="M210 493h44l204 -493h-80l-58 146h-194l-60 -146h-59zM301 193l-78 199h-2l-78 -199h158zM101 619h257v-49h-257v49z" />
    <glyph glyph-name="abreve.sc" unicode="&#xe026;" horiz-adv-x="465" 
d="M210 493h44l204 -493h-80l-58 146h-194l-60 -146h-59zM301 193l-78 199h-2l-78 -199h158zM228 533q-50 0 -84 33t-38 90h42q7 -36 27.5 -55t52.5 -19q39 0 58 19.5t26 54.5h41q-1 -54 -36 -88.5t-89 -34.5z" />
    <glyph glyph-name="aogonek.sc" unicode="&#xe027;" horiz-adv-x="465" 
d="M210 493h44l204 -493h-80l-58 146h-194l-60 -146h-59zM301 193l-78 199h-2l-78 -199h158zM414 -192q-36 0 -61 20t-25 59q0 28 13 53.5t33 41.5h52q-16 -14 -25.5 -34.5t-9.5 -37.5q0 -16 5 -25t12 -13t14.5 -4.5t12.5 -0.5q27 0 45 16l20 -39q-18 -17 -39 -26.5
t-47 -9.5z" />
    <glyph glyph-name="ae.sc" unicode="&#xe028;" horiz-adv-x="677" 
d="M313 490h300v-50h-208v-154h183v-51h-183v-183h216v-52h-287v144h-172l-89 -144h-66zM334 193v221h-2l-142 -221h144z" />
    <glyph glyph-name="cacute.sc" unicode="&#xe029;" horiz-adv-x="520" 
d="M292 -13q-56 0 -101.5 21.5t-77.5 57.5t-49 82.5t-17 97.5q0 66 21.5 114.5t56.5 80t79 47t89 15.5q38 0 66.5 -6.5t49.5 -16t36.5 -21.5t27.5 -24l-51 -39q-6 8 -16 18.5t-25 19.5t-36 15t-48 6q-36 0 -67.5 -14t-54.5 -40.5t-36.5 -65.5t-13.5 -89q0 -46 12.5 -84.5
t35 -66.5t54.5 -43.5t71 -15.5q47 0 85 20t55 47l45 -36q-19 -18 -37.5 -33t-40.5 -25.5t-49.5 -16t-63.5 -5.5zM208 565l126 109l40 -57l-144 -83z" />
    <glyph glyph-name="ccircumflex.sc" unicode="&#xe02a;" horiz-adv-x="520" 
d="M292 -13q-56 0 -101.5 21.5t-77.5 57.5t-49 82.5t-17 97.5q0 66 21.5 114.5t56.5 80t79 47t89 15.5q38 0 66.5 -6.5t49.5 -16t36.5 -21.5t27.5 -24l-51 -39q-6 8 -16 18.5t-25 19.5t-36 15t-48 6q-36 0 -67.5 -14t-54.5 -40.5t-36.5 -65.5t-13.5 -89q0 -46 12.5 -84.5
t35 -66.5t54.5 -43.5t71 -15.5q47 0 85 20t55 47l45 -36q-19 -18 -37.5 -33t-40.5 -25.5t-49.5 -16t-63.5 -5.5zM164 554l124 128l123 -128l-27 -29l-96 71l-97 -71z" />
    <glyph glyph-name="ccaron.sc" unicode="&#xe02b;" horiz-adv-x="520" 
d="M292 -13q-56 0 -101.5 21.5t-77.5 57.5t-49 82.5t-17 97.5q0 66 21.5 114.5t56.5 80t79 47t89 15.5q38 0 66.5 -6.5t49.5 -16t36.5 -21.5t27.5 -24l-51 -39q-6 8 -16 18.5t-25 19.5t-36 15t-48 6q-36 0 -67.5 -14t-54.5 -40.5t-36.5 -65.5t-13.5 -89q0 -46 12.5 -84.5
t35 -66.5t54.5 -43.5t71 -15.5q47 0 85 20t55 47l45 -36q-19 -18 -37.5 -33t-40.5 -25.5t-49.5 -16t-63.5 -5.5zM160 665h55l72 -74h2l70 74h55l-102 -134h-48z" />
    <glyph glyph-name="cdotaccent.sc" unicode="&#xe02c;" horiz-adv-x="520" 
d="M292 -13q-56 0 -101.5 21.5t-77.5 57.5t-49 82.5t-17 97.5q0 66 21.5 114.5t56.5 80t79 47t89 15.5q38 0 66.5 -6.5t49.5 -16t36.5 -21.5t27.5 -24l-51 -39q-6 8 -16 18.5t-25 19.5t-36 15t-48 6q-36 0 -67.5 -14t-54.5 -40.5t-36.5 -65.5t-13.5 -89q0 -46 12.5 -84.5
t35 -66.5t54.5 -43.5t71 -15.5q47 0 85 20t55 47l45 -36q-19 -18 -37.5 -33t-40.5 -25.5t-49.5 -16t-63.5 -5.5zM291 546q-22 0 -36 14.5t-14 35.5q0 20 14.5 35t35.5 15t35.5 -15t14.5 -35q0 -21 -14.5 -35.5t-35.5 -14.5z" />
    <glyph glyph-name="ccedilla.sc" unicode="&#xe02d;" horiz-adv-x="520" 
d="M292 -13q-56 0 -101.5 21.5t-77.5 57.5t-49 82.5t-17 97.5q0 66 21.5 114.5t56.5 80t79 47t89 15.5q38 0 66.5 -6.5t49.5 -16t36.5 -21.5t27.5 -24l-51 -39q-6 8 -16 18.5t-25 19.5t-36 15t-48 6q-36 0 -67.5 -14t-54.5 -40.5t-36.5 -65.5t-13.5 -89q0 -46 12.5 -84.5
t35 -66.5t54.5 -43.5t71 -15.5q47 0 85 20t55 47l45 -36q-19 -18 -37.5 -33t-40.5 -25.5t-49.5 -16t-63.5 -5.5zM267 -180q-49 0 -92 20l13 32q32 -16 70 -16q18 0 37 9.5t19 32.5q0 20 -16 29t-32 9q-13 0 -24 -2.5t-19 -5.5l16 39q13 2 26.5 3.5t35.5 1.5q16 0 30.5 -4
t25.5 -12.5t18 -21.5t7 -32q0 -22 -11 -37.5t-28 -25.5t-37 -14.5t-39 -4.5z" />
    <glyph glyph-name="dcaron.sc" unicode="&#xe02e;" horiz-adv-x="555" 
d="M145 665h55l72 -74h2l70 74h55l-102 -134h-48zM84 490h156q75 0 126 -21t82.5 -54.5t45.5 -76.5t14 -87q0 -56 -18 -102.5t-52.5 -79.5t-86 -51t-118.5 -18h-149v490zM231 51q55 -1 93 14t62 42t34.5 64t10.5 80q0 36 -11 70.5t-34 61.5t-60 43.5t-89 15.5l-83 -1v-389z
" />
    <glyph glyph-name="dcroat.sc" unicode="&#xe02f;" horiz-adv-x="555" 
d="M84 227h-48v49h48v214h156q75 0 126 -21t82.5 -54.5t45.5 -76.5t14 -87q0 -56 -18 -102.5t-52.5 -79.5t-86 -51t-118.5 -18h-149v227zM231 51q55 -1 93 14t62 42t34.5 64t10.5 80q0 36 -11 70.5t-34 61.5t-60 43.5t-89 15.5l-83 -1v-165h101v-49h-101v-175z" />
    <glyph glyph-name="eth.sc" unicode="&#xe030;" horiz-adv-x="555" 
d="M84 227h-48v49h48v214h156q75 0 126 -21t82.5 -54.5t45.5 -76.5t14 -87q0 -56 -18 -102.5t-52.5 -79.5t-86 -51t-118.5 -18h-149v227zM231 51q55 0 93 15t62 42t34.5 63.5t10.5 79.5q0 36 -11 70.5t-34 61t-60 43t-89 16.5l-83 -1v-165h121v-49h-121v-175z" />
    <glyph glyph-name="egrave.sc" unicode="&#xe031;" horiz-adv-x="432" 
d="M84 490h283v-50h-213v-154h187v-51h-187v-183h222v-52h-292v490zM144 620l44 56l130 -111l-24 -31z" />
    <glyph glyph-name="eacute.sc" unicode="&#xe032;" horiz-adv-x="432" 
d="M84 490h283v-50h-213v-154h187v-51h-187v-183h222v-52h-292v490zM145 565l126 109l40 -57l-144 -83z" />
    <glyph glyph-name="ecircumflex.sc" unicode="&#xe033;" horiz-adv-x="432" 
d="M84 490h283v-50h-213v-154h187v-51h-187v-183h222v-52h-292v490zM103 554l124 128l123 -128l-27 -29l-96 71l-97 -71z" />
    <glyph glyph-name="ecaron.sc" unicode="&#xe034;" horiz-adv-x="432" 
d="M84 490h283v-50h-213v-154h187v-51h-187v-183h222v-52h-292v490zM101 665h55l72 -74h2l70 74h55l-102 -134h-48z" />
    <glyph glyph-name="edieresis.sc" unicode="&#xe035;" horiz-adv-x="434" 
d="M86 490h283v-50h-213v-154h187v-51h-187v-183h222v-52h-292v490zM134 546q-21 0 -35.5 14.5t-14.5 35.5q0 20 14.5 35t35.5 15t35.5 -15t14.5 -35q0 -21 -14.5 -35.5t-35.5 -14.5zM318 546q-21 0 -35.5 14.5t-14.5 35.5q0 20 14.5 35t35.5 15t36 -15t15 -35
q0 -21 -15 -35.5t-36 -14.5z" />
    <glyph glyph-name="edotaccent.sc" unicode="&#xe036;" horiz-adv-x="432" 
d="M84 490h283v-50h-213v-154h187v-51h-187v-183h222v-52h-292v490zM228 546q-22 0 -36 14.5t-14 35.5q0 20 14.5 35t35.5 15t35.5 -15t14.5 -35q0 -21 -14.5 -35.5t-35.5 -14.5z" />
    <glyph glyph-name="emacron.sc" unicode="&#xe037;" horiz-adv-x="432" 
d="M84 490h283v-50h-213v-154h187v-51h-187v-183h222v-52h-292v490zM96 619h257v-49h-257v49z" />
    <glyph glyph-name="ebreve.sc" unicode="&#xe038;" horiz-adv-x="432" 
d="M84 490h283v-50h-213v-154h187v-51h-187v-183h222v-52h-292v490zM224 533q-50 0 -84 33t-38 90h42q7 -36 27.5 -55t52.5 -19q39 0 58 19.5t26 54.5h41q-1 -54 -36 -88.5t-89 -34.5z" />
    <glyph glyph-name="eogonek.sc" unicode="&#xe039;" horiz-adv-x="432" 
d="M84 490h283v-50h-213v-154h187v-51h-187v-183h222v-52h-292v490zM355 -192q-36 0 -61 20t-25 59q0 28 13 53.5t33 41.5h52q-16 -14 -25.5 -34.5t-9.5 -37.5q0 -16 5 -25t12 -13t14.5 -4.5t12.5 -0.5q27 0 45 16l20 -39q-18 -17 -39 -26.5t-47 -9.5z" />
    <glyph glyph-name="gcircumflex.sc" unicode="&#xe03a;" horiz-adv-x="541" 
d="M301 -13q-51 0 -97.5 17.5t-81 51t-55 81.5t-20.5 109q0 64 21 112t56 80.5t80.5 48.5t94.5 16q40 0 70 -6.5t51.5 -16.5t36.5 -21t26 -20l-50 -38q-2 2 -10 10.5t-24.5 18.5t-41 17.5t-58.5 7.5q-36 0 -67.5 -14.5t-55 -42t-37 -66t-13.5 -86.5q0 -47 13.5 -86t37 -66.5
t56 -42.5t70.5 -15q47 0 73 8t34 15v188h72v-212q-8 -6 -23.5 -14t-38.5 -15.5t-53 -13t-66 -5.5zM171 554l124 128l123 -128l-27 -29l-96 71l-97 -71z" />
    <glyph glyph-name="gdotaccent.sc" unicode="&#xe03b;" horiz-adv-x="541" 
d="M301 -13q-51 0 -97.5 17.5t-81 51t-55 81.5t-20.5 109q0 64 21 112t56 80.5t80.5 48.5t94.5 16q40 0 70 -6.5t51.5 -16.5t36.5 -21t26 -20l-50 -38q-2 2 -10 10.5t-24.5 18.5t-41 17.5t-58.5 7.5q-36 0 -67.5 -14.5t-55 -42t-37 -66t-13.5 -86.5q0 -47 13.5 -86t37 -66.5
t56 -42.5t70.5 -15q47 0 73 8t34 15v188h72v-212q-8 -6 -23.5 -14t-38.5 -15.5t-53 -13t-66 -5.5zM292 546q-22 0 -36 14.5t-14 35.5q0 20 14.5 35t35.5 15t35.5 -15t14.5 -35q0 -21 -14.5 -35.5t-35.5 -14.5z" />
    <glyph glyph-name="gbreve.sc" unicode="&#xe03c;" horiz-adv-x="541" 
d="M301 -13q-51 0 -97.5 17.5t-81 51t-55 81.5t-20.5 109q0 64 21 112t56 80.5t80.5 48.5t94.5 16q40 0 70 -6.5t51.5 -16.5t36.5 -21t26 -20l-50 -38q-2 2 -10 10.5t-24.5 18.5t-41 17.5t-58.5 7.5q-36 0 -67.5 -14.5t-55 -42t-37 -66t-13.5 -86.5q0 -47 13.5 -86t37 -66.5
t56 -42.5t70.5 -15q47 0 73 8t34 15v188h72v-212q-8 -6 -23.5 -14t-38.5 -15.5t-53 -13t-66 -5.5zM290 533q-50 0 -84 33t-38 90h42q7 -36 27.5 -55t52.5 -19q39 0 58 19.5t26 54.5h41q-1 -54 -36 -88.5t-89 -34.5z" />
    <glyph glyph-name="gcommaaccent.sc" unicode="&#xe03d;" horiz-adv-x="541" 
d="M301 -13q-51 0 -97.5 17.5t-81 51t-55 81.5t-20.5 109q0 64 21 112t56 80.5t80.5 48.5t94.5 16q40 0 70 -6.5t51.5 -16.5t36.5 -21t26 -20l-50 -38q-2 2 -10 10.5t-24.5 18.5t-41 17.5t-58.5 7.5q-36 0 -67.5 -14.5t-55 -42t-37 -66t-13.5 -86.5q0 -47 13.5 -86t37 -66.5
t56 -42.5t70.5 -15q47 0 73 8t34 15v188h72v-212q-8 -6 -23.5 -14t-38.5 -15.5t-53 -13t-66 -5.5zM302 -132q-23 0 -37.5 14.5t-14.5 37.5t14.5 37.5t37.5 14.5q29 0 42 -19t13 -42q0 -29 -14 -58t-48 -69l-39 10q17 19 30 39t18 33z" />
    <glyph glyph-name="hcircumflex.sc" unicode="&#xe03e;" horiz-adv-x="544" 
d="M84 490h70v-204h235v204h71v-490h-71v235h-235v-235h-70v490zM146 554l124 128l123 -128l-27 -29l-96 71l-97 -71z" />
    <glyph glyph-name="hbar.sc" unicode="&#xe03f;" horiz-adv-x="544" 
d="M84 490h70v-119h235v119h71v-490h-71v235h-235v-235h-70v490zM389 286v40h-235v-40h235z" />
    <glyph glyph-name="igrave.sc" unicode="&#xe040;" horiz-adv-x="238" 
d="M84 490h70v-490h-70v490zM32 620l44 56l130 -111l-24 -31z" />
    <glyph glyph-name="iacute.sc" unicode="&#xe041;" horiz-adv-x="238" 
d="M84 490h70v-490h-70v490zM34 565l126 109l40 -57l-144 -83z" />
    <glyph glyph-name="icircumflex.sc" unicode="&#xe042;" horiz-adv-x="238" 
d="M84 490h70v-490h-70v490zM-5 554l124 128l123 -128l-27 -29l-96 71l-97 -71z" />
    <glyph glyph-name="itilde.sc" unicode="&#xe043;" horiz-adv-x="238" 
d="M84 490h70v-490h-70v490zM-21 555q0 16 6 32.5t17 29t27 20.5t36 8q18 0 32.5 -5.5t27.5 -12t24.5 -12t25.5 -5.5q19 0 32 9.5t13 31.5l39 -11q-3 -18 -8.5 -34.5t-14.5 -28.5t-23 -19.5t-35 -7.5q-19 0 -34 6t-28.5 12.5t-26.5 12.5t-29 6q-17 0 -30 -12t-13 -30z" />
    <glyph glyph-name="idieresis.sc" unicode="&#xe044;" horiz-adv-x="238" 
d="M84 490h70v-490h-70v490zM27 546q-21 0 -35.5 14.5t-14.5 35.5q0 20 14.5 35t35.5 15t35.5 -15t14.5 -35q0 -21 -14.5 -35.5t-35.5 -14.5zM211 546q-21 0 -35.5 14.5t-14.5 35.5q0 20 14.5 35t35.5 15t36 -15t15 -35q0 -21 -15 -35.5t-36 -14.5z" />
    <glyph glyph-name="imacron.sc" unicode="&#xe045;" horiz-adv-x="238" 
d="M84 490h70v-490h-70v490zM-10 619h257v-49h-257v49z" />
    <glyph glyph-name="idotaccent.sc" unicode="&#xe046;" horiz-adv-x="238" 
d="M84 490h70v-490h-70v490zM119 546q-22 0 -36 14.5t-14 35.5q0 20 14.5 35t35.5 15t35.5 -15t14.5 -35q0 -21 -14.5 -35.5t-35.5 -14.5z" />
    <glyph glyph-name="iogonek.sc" unicode="&#xe047;" horiz-adv-x="238" 
d="M84 490h70v-490h-70v490zM135 -192q-36 0 -61 20t-25 59q0 28 13 53.5t33 41.5h52q-16 -14 -25.5 -34.5t-9.5 -37.5q0 -16 5 -25t12 -13t14.5 -4.5t12.5 -0.5q27 0 45 16l20 -39q-18 -17 -39 -26.5t-47 -9.5z" />
    <glyph glyph-name="jcircumflex.sc" unicode="&#xe048;" horiz-adv-x="253" 
d="M12 -23q6 -3 13 -5q13 -5 31 -5q21 0 32.5 16.5t11.5 61.5v445h69v-431q0 -41 -7.5 -68t-22 -43t-34.5 -23t-45 -7q-11 0 -22 1t-19 3q-10 2 -19 5zM7 554l124 128l123 -128l-27 -29l-96 71l-97 -71z" />
    <glyph glyph-name="kcommaaccent.sc" unicode="&#xe049;" horiz-adv-x="477" 
d="M84 490h71v-197h2l209 197h77l-236 -218l256 -272h-97l-209 229h-2v-229h-71v490zM256 -132q-23 0 -37.5 14.5t-14.5 37.5t14.5 37.5t37.5 14.5q29 0 42 -19t13 -42q0 -29 -14 -58t-48 -69l-39 10q17 19 30 39t18 33z" />
    <glyph glyph-name="lacute.sc" unicode="&#xe04a;" horiz-adv-x="387" 
d="M84 490h70v-439h214v-51h-284v490zM88 565l126 109l40 -57l-144 -83z" />
    <glyph glyph-name="lcaron.sc" unicode="&#xe04b;" horiz-adv-x="387" 
d="M84 490h70v-439h214v-51h-284v490zM259 403q-19 0 -31.5 12t-12.5 32q0 19 12.5 31.5t31.5 12.5q25 0 36 -16t11 -36q0 -25 -12 -49.5t-41 -58.5l-33 9q14 16 25.5 33t15.5 28z" />
    <glyph glyph-name="lcommaaccent.sc" unicode="&#xe04c;" horiz-adv-x="387" 
d="M84 490h70v-439h214v-51h-284v490zM227 -132q-23 0 -37.5 14.5t-14.5 37.5t14.5 37.5t37.5 14.5q29 0 42 -19t13 -42q0 -29 -14 -58t-48 -69l-39 10q17 19 30 39t18 33z" />
    <glyph glyph-name="ldot.sc" unicode="&#xe04d;" horiz-adv-x="387" 
d="M84 490h70v-439h214v-51h-284v490zM266 231q-22 0 -36 14.5t-14 35.5q0 20 14.5 35t35.5 15t35.5 -15t14.5 -35q0 -21 -14.5 -35.5t-35.5 -14.5z" />
    <glyph glyph-name="lslash.sc" unicode="&#xe04e;" horiz-adv-x="402" 
d="M99 133l-30 -23l-27 39l57 44v297h70v-242l116 92l30 -40l-146 -113v-136h214v-51h-284v133z" />
    <glyph glyph-name="nacute.sc" unicode="&#xe04f;" horiz-adv-x="543" 
d="M84 490h72l243 -370h2v370h58v-490h-65l-251 383h-2v-383h-57v490zM190 565l126 109l40 -57l-144 -83z" />
    <glyph glyph-name="ncaron.sc" unicode="&#xe050;" horiz-adv-x="543" 
d="M84 490h72l243 -370h2v370h58v-490h-65l-251 383h-2v-383h-57v490zM147 665h55l72 -74h2l70 74h55l-102 -134h-48z" />
    <glyph glyph-name="ntilde.sc" unicode="&#xe051;" horiz-adv-x="543" 
d="M84 490h72l243 -370h2v370h58v-490h-65l-251 383h-2v-383h-57v490zM134 555q0 16 6 32.5t17 29t27 20.5t36 8q18 0 32.5 -5.5t27.5 -12t24.5 -12t25.5 -5.5q19 0 32 9.5t13 31.5l39 -11q-3 -18 -8.5 -34.5t-14.5 -28.5t-23 -19.5t-35 -7.5q-19 0 -34 6t-28.5 12.5
t-26.5 12.5t-29 6q-17 0 -30 -12t-13 -30z" />
    <glyph glyph-name="ncommaaccent.sc" unicode="&#xe052;" horiz-adv-x="543" 
d="M84 490h72l243 -370h2v370h58v-490h-65l-251 383h-2v-383h-57v490zM276 -132q-23 0 -37.5 14.5t-14.5 37.5t14.5 37.5t37.5 14.5q29 0 42 -19t13 -42q0 -29 -14 -58t-48 -69l-39 10q17 19 30 39t18 33z" />
    <glyph glyph-name="ograve.sc" unicode="&#xe054;" horiz-adv-x="600" 
d="M300 -13q-57 0 -104 21t-80 57t-51 83t-18 98q0 57 19.5 104.5t53.5 81.5t80 52.5t100 18.5q57 0 103.5 -19t80 -53t51.5 -81.5t18 -103.5q0 -58 -19.5 -105.5t-54 -81.5t-80.5 -53t-99 -19zM300 37q39 0 71 14.5t55.5 41.5t36 65.5t12.5 87.5q0 45 -13 83t-36 66
t-55 43.5t-71 15.5t-71 -14.5t-55 -41.5t-36 -65.5t-13 -86.5t13.5 -86.5t36.5 -65.5t55 -42t70 -15zM213 620l44 56l130 -111l-24 -31z" />
    <glyph glyph-name="oacute.sc" unicode="&#xe055;" horiz-adv-x="600" 
d="M300 -13q-57 0 -104 21t-80 57t-51 83t-18 98q0 57 19.5 104.5t53.5 81.5t80 52.5t100 18.5q57 0 103.5 -19t80 -53t51.5 -81.5t18 -103.5q0 -58 -19.5 -105.5t-54 -81.5t-80.5 -53t-99 -19zM300 37q39 0 71 14.5t55.5 41.5t36 65.5t12.5 87.5q0 45 -13 83t-36 66
t-55 43.5t-71 15.5t-71 -14.5t-55 -41.5t-36 -65.5t-13 -86.5t13.5 -86.5t36.5 -65.5t55 -42t70 -15zM219 565l126 109l40 -57l-144 -83z" />
    <glyph glyph-name="ocircumflex.sc" unicode="&#xe056;" horiz-adv-x="600" 
d="M300 -13q-57 0 -104 21t-80 57t-51 83t-18 98q0 57 19.5 104.5t53.5 81.5t80 52.5t100 18.5q57 0 103.5 -19t80 -53t51.5 -81.5t18 -103.5q0 -58 -19.5 -105.5t-54 -81.5t-80.5 -53t-99 -19zM300 37q39 0 71 14.5t55.5 41.5t36 65.5t12.5 87.5q0 45 -13 83t-36 66
t-55 43.5t-71 15.5t-71 -14.5t-55 -41.5t-36 -65.5t-13 -86.5t13.5 -86.5t36.5 -65.5t55 -42t70 -15zM177 554l124 128l123 -128l-27 -29l-96 71l-97 -71z" />
    <glyph glyph-name="otilde.sc" unicode="&#xe057;" horiz-adv-x="600" 
d="M300 -13q-57 0 -104 21t-80 57t-51 83t-18 98q0 57 19.5 104.5t53.5 81.5t80 52.5t100 18.5q57 0 103.5 -19t80 -53t51.5 -81.5t18 -103.5q0 -58 -19.5 -105.5t-54 -81.5t-80.5 -53t-99 -19zM300 37q39 0 71 14.5t55.5 41.5t36 65.5t12.5 87.5q0 45 -13 83t-36 66
t-55 43.5t-71 15.5t-71 -14.5t-55 -41.5t-36 -65.5t-13 -86.5t13.5 -86.5t36.5 -65.5t55 -42t70 -15zM160 555q0 16 6 32.5t17 29t27 20.5t36 8q18 0 32.5 -5.5t27.5 -12t24.5 -12t25.5 -5.5q19 0 32 9.5t13 31.5l39 -11q-3 -18 -8.5 -34.5t-14.5 -28.5t-23 -19.5t-35 -7.5
q-19 0 -34 6t-28.5 12.5t-26.5 12.5t-29 6q-17 0 -30 -12t-13 -30z" />
    <glyph glyph-name="odieresis.sc" unicode="&#xe058;" horiz-adv-x="600" 
d="M300 -13q-57 0 -104 21t-80 57t-51 83t-18 98q0 57 19.5 104.5t53.5 81.5t80 52.5t100 18.5q57 0 103.5 -19t80 -53t51.5 -81.5t18 -103.5q0 -58 -19.5 -105.5t-54 -81.5t-80.5 -53t-99 -19zM300 37q39 0 71 14.5t55.5 41.5t36 65.5t12.5 87.5q0 45 -13 83t-36 66
t-55 43.5t-71 15.5t-71 -14.5t-55 -41.5t-36 -65.5t-13 -86.5t13.5 -86.5t36.5 -65.5t55 -42t70 -15zM210 546q-21 0 -35.5 14.5t-14.5 35.5q0 20 14.5 35t35.5 15t35.5 -15t14.5 -35q0 -21 -14.5 -35.5t-35.5 -14.5zM394 546q-21 0 -35.5 14.5t-14.5 35.5q0 20 14.5 35
t35.5 15t36 -15t15 -35q0 -21 -15 -35.5t-36 -14.5z" />
    <glyph glyph-name="omacron.sc" unicode="&#xe059;" horiz-adv-x="600" 
d="M300 -13q-57 0 -104 21t-80 57t-51 83t-18 98q0 57 19.5 104.5t53.5 81.5t80 52.5t100 18.5q57 0 103.5 -19t80 -53t51.5 -81.5t18 -103.5q0 -58 -19.5 -105.5t-54 -81.5t-80.5 -53t-99 -19zM300 37q39 0 71 14.5t55.5 41.5t36 65.5t12.5 87.5q0 45 -13 83t-36 66
t-55 43.5t-71 15.5t-71 -14.5t-55 -41.5t-36 -65.5t-13 -86.5t13.5 -86.5t36.5 -65.5t55 -42t70 -15zM172 619h257v-49h-257v49z" />
    <glyph glyph-name="obreve.sc" unicode="&#xe05a;" horiz-adv-x="600" 
d="M300 -13q-57 0 -104 21t-80 57t-51 83t-18 98q0 57 19.5 104.5t53.5 81.5t80 52.5t100 18.5q57 0 103.5 -19t80 -53t51.5 -81.5t18 -103.5q0 -58 -19.5 -105.5t-54 -81.5t-80.5 -53t-99 -19zM300 37q39 0 71 14.5t55.5 41.5t36 65.5t12.5 87.5q0 45 -13 83t-36 66
t-55 43.5t-71 15.5t-71 -14.5t-55 -41.5t-36 -65.5t-13 -86.5t13.5 -86.5t36.5 -65.5t55 -42t70 -15zM298 533q-50 0 -84 33t-38 90h42q7 -36 27.5 -55t52.5 -19q39 0 58 19.5t26 54.5h41q-1 -54 -36 -88.5t-89 -34.5z" />
    <glyph glyph-name="ohungarumlaut.sc" unicode="&#xe05b;" horiz-adv-x="600" 
d="M300 -13q-57 0 -104 21t-80 57t-51 83t-18 98q0 57 19.5 104.5t53.5 81.5t80 52.5t100 18.5q57 0 103.5 -19t80 -53t51.5 -81.5t18 -103.5q0 -58 -19.5 -105.5t-54 -81.5t-80.5 -53t-99 -19zM300 37q39 0 71 14.5t55.5 41.5t36 65.5t12.5 87.5q0 45 -13 83t-36 66
t-55 43.5t-71 15.5t-71 -14.5t-55 -41.5t-36 -65.5t-13 -86.5t13.5 -86.5t36.5 -65.5t55 -42t70 -15zM415 655h91l-128 -120h-59zM273 655h91l-128 -120h-59z" />
    <glyph glyph-name="oslash.sc" unicode="&#xe05c;" horiz-adv-x="599" 
d="M300 -13q-48 0 -89.5 15.5t-73.5 42.5q-14 -14 -29 -29.5t-28 -29.5l-33 34l58 57q-26 32 -42 75t-16 94q0 56 19 103t52.5 81.5t80 53.5t101.5 19q48 0 90 -16t75 -43q13 12 26 26t24 25l36 -31l-54 -54q25 -32 40.5 -73.5t15.5 -90.5q0 -57 -19.5 -105t-54 -82
t-80.5 -53t-99 -19zM300 33q40 0 72 15.5t54.5 44t34.5 67.5t12 86q0 38 -8 68t-18 46q-67 -69 -132.5 -136t-134.5 -136q7 -11 20 -20.5t29 -17.5t34.5 -12.5t36.5 -4.5zM300 458q-35 0 -66.5 -15t-55.5 -42.5t-38 -67t-14 -87.5q0 -68 27 -119l268 272q-5 8 -14.5 18
t-24 19t-35 15.5t-47.5 6.5z" />
    <glyph glyph-name="oe.sc" unicode="&#xe05d;" horiz-adv-x="712" 
d="M302 -13q-57 0 -104 20t-80.5 55t-52 82.5t-18.5 101.5q0 57 20 104.5t54.5 81.5t81 52.5t99.5 18.5q34 0 52.5 -3.5t35.5 -9.5h258v-50h-208v-154h182v-51h-182v-183h216v-52h-263q-17 -5 -41.5 -9t-49.5 -4zM302 37q23 0 39.5 3.5t27.5 8.5v392q-11 5 -27.5 8.5
t-39.5 3.5q-38 0 -70.5 -14.5t-56.5 -41.5t-37.5 -65t-13.5 -86q0 -49 13 -88t37 -66t56.5 -41t71.5 -14z" />
    <glyph glyph-name="racute.sc" unicode="&#xe05e;" horiz-adv-x="469" 
d="M138 565l126 109l40 -57l-144 -83zM84 490h150q49 0 78.5 -12.5t45.5 -31.5t21.5 -41t5.5 -41q0 -52 -30.5 -87t-73.5 -46l165 -231h-93l-148 224h-52v-224h-69v490zM220 273q40 0 66.5 21.5t26.5 69.5q0 36 -20.5 59t-68.5 22l-71 -1v-170z" />
    <glyph glyph-name="rcommaaccent.sc" unicode="&#xe05f;" horiz-adv-x="469" 
d="M242 -132q-23 0 -37.5 14.5t-14.5 37.5t14.5 37.5t37.5 14.5q29 0 42 -19t13 -42q0 -29 -14 -58t-48 -69l-39 10q17 19 30 39t18 33zM84 490h150q49 0 78.5 -12.5t45.5 -31.5t21.5 -41t5.5 -41q0 -52 -30.5 -87t-73.5 -46l165 -231h-93l-148 224h-52v-224h-69v490z
M220 273q40 0 66.5 21.5t26.5 69.5q0 36 -20.5 59t-68.5 22l-71 -1v-170z" />
    <glyph glyph-name="rcaron.sc" unicode="&#xe060;" horiz-adv-x="469" 
d="M97 665h55l72 -74h2l70 74h55l-102 -134h-48zM84 490h150q49 0 78.5 -12.5t45.5 -31.5t21.5 -41t5.5 -41q0 -52 -30.5 -87t-73.5 -46l165 -231h-93l-148 224h-52v-224h-69v490zM220 273q40 0 66.5 21.5t26.5 69.5q0 36 -20.5 59t-68.5 22l-71 -1v-170z" />
    <glyph glyph-name="sacute.sc" unicode="&#xe061;" horiz-adv-x="427" 
d="M209 -13q-35 0 -62.5 9t-48.5 21t-34 24.5t-19 20.5l42 38q2 -4 11 -14t25 -21t38 -19.5t49 -8.5q48 0 72.5 24t24.5 64q0 30 -18 49t-44.5 33.5t-58 27.5t-58 31.5t-44.5 45t-18 68.5q0 30 12.5 53t33 38.5t47 23.5t55.5 8t52 -6t40.5 -14.5t29 -17t17.5 -14.5l-43 -36
q-4 4 -12.5 11t-20.5 13.5t-27.5 11.5t-33.5 5q-16 0 -31.5 -3.5t-28 -11t-20.5 -19.5t-8 -29q0 -29 18.5 -46.5t46.5 -31t60 -26t60 -31.5t46.5 -46.5t18.5 -71.5q0 -29 -10.5 -56.5t-31.5 -49t-52.5 -34.5t-74.5 -13zM131 565l126 109l40 -57l-144 -83z" />
    <glyph glyph-name="scircumflex.sc" unicode="&#xe062;" horiz-adv-x="427" 
d="M209 -13q-35 0 -62.5 9t-48.5 21t-34 24.5t-19 20.5l42 38q2 -4 11 -14t25 -21t38 -19.5t49 -8.5q48 0 72.5 24t24.5 64q0 30 -18 49t-44.5 33.5t-58 27.5t-58 31.5t-44.5 45t-18 68.5q0 30 12.5 53t33 38.5t47 23.5t55.5 8t52 -6t40.5 -14.5t29 -17t17.5 -14.5l-43 -36
q-4 4 -12.5 11t-20.5 13.5t-27.5 11.5t-33.5 5q-16 0 -31.5 -3.5t-28 -11t-20.5 -19.5t-8 -29q0 -29 18.5 -46.5t46.5 -31t60 -26t60 -31.5t46.5 -46.5t18.5 -71.5q0 -29 -10.5 -56.5t-31.5 -49t-52.5 -34.5t-74.5 -13zM91 554l124 128l123 -128l-27 -29l-96 71l-97 -71z
" />
    <glyph glyph-name="scaron.sc" unicode="&#xe063;" horiz-adv-x="427" 
d="M209 -13q-35 0 -62.5 9t-48.5 21t-34 24.5t-19 20.5l42 38q2 -4 11 -14t25 -21t38 -19.5t49 -8.5q48 0 72.5 24t24.5 64q0 30 -18 49t-44.5 33.5t-58 27.5t-58 31.5t-44.5 45t-18 68.5q0 30 12.5 53t33 38.5t47 23.5t55.5 8t52 -6t40.5 -14.5t29 -17t17.5 -14.5l-43 -36
q-4 4 -12.5 11t-20.5 13.5t-27.5 11.5t-33.5 5q-16 0 -31.5 -3.5t-28 -11t-20.5 -19.5t-8 -29q0 -29 18.5 -46.5t46.5 -31t60 -26t60 -31.5t46.5 -46.5t18.5 -71.5q0 -29 -10.5 -56.5t-31.5 -49t-52.5 -34.5t-74.5 -13zM92 665h55l72 -74h2l70 74h55l-102 -134h-48z" />
    <glyph glyph-name="scedilla.sc" unicode="&#xe064;" horiz-adv-x="427" 
d="M209 -13q-35 0 -62.5 9t-48.5 21t-34 24.5t-19 20.5l42 38q2 -4 11 -14t25 -21t38 -19.5t49 -8.5q48 0 72.5 24t24.5 64q0 30 -18 49t-44.5 33.5t-58 27.5t-58 31.5t-44.5 45t-18 68.5q0 30 12.5 53t33 38.5t47 23.5t55.5 8t52 -6t40.5 -14.5t29 -17t17.5 -14.5l-43 -36
q-4 4 -12.5 11t-20.5 13.5t-27.5 11.5t-33.5 5q-16 0 -31.5 -3.5t-28 -11t-20.5 -19.5t-8 -29q0 -29 18.5 -46.5t46.5 -31t60 -26t60 -31.5t46.5 -46.5t18.5 -71.5q0 -29 -10.5 -56.5t-31.5 -49t-52.5 -34.5t-74.5 -13zM195 -180q-49 0 -92 20l13 32q32 -16 70 -16
q18 0 37 9.5t19 32.5q0 20 -16 29t-32 9q-13 0 -24 -2.5t-19 -5.5l16 39q13 2 26.5 3.5t35.5 1.5q16 0 30.5 -4t25.5 -12.5t18 -21.5t7 -32q0 -22 -11 -37.5t-28 -25.5t-37 -14.5t-39 -4.5z" />
    <glyph glyph-name="scommaaccent.sc" unicode="&#xe065;" horiz-adv-x="427" 
d="M209 -13q-35 0 -62.5 9t-48.5 21t-34 24.5t-19 20.5l42 38q2 -4 11 -14t25 -21t38 -19.5t49 -8.5q48 0 72.5 24t24.5 64q0 30 -18 49t-44.5 33.5t-58 27.5t-58 31.5t-44.5 45t-18 68.5q0 30 12.5 53t33 38.5t47 23.5t55.5 8t52 -6t40.5 -14.5t29 -17t17.5 -14.5l-43 -36
q-4 4 -12.5 11t-20.5 13.5t-27.5 11.5t-33.5 5q-16 0 -31.5 -3.5t-28 -11t-20.5 -19.5t-8 -29q0 -29 18.5 -46.5t46.5 -31t60 -26t60 -31.5t46.5 -46.5t18.5 -71.5q0 -29 -10.5 -56.5t-31.5 -49t-52.5 -34.5t-74.5 -13zM214 -132q-23 0 -37.5 14.5t-14.5 37.5t14.5 37.5
t37.5 14.5q29 0 42 -19t13 -42q0 -29 -14 -58t-48 -69l-39 10q17 19 30 39t18 33z" />
    <glyph glyph-name="germandbls.sc" unicode="&#xe066;" horiz-adv-x="854" 
d="M209 -13q-35 0 -62.5 9t-48.5 21t-34 24.5t-19 20.5l42 38q2 -4 11 -14t25 -21t38 -19.5t49 -8.5q48 0 72.5 24t24.5 64q0 30 -18 49t-44.5 33.5t-58 27.5t-58 31.5t-44.5 45t-18 68.5q0 30 12.5 53t33 38.5t47 23.5t55.5 8t52 -6t40.5 -14.5t29 -17t17.5 -14.5l-43 -36
q-4 4 -12.5 11t-20.5 13.5t-27.5 11.5t-33.5 5q-16 0 -31.5 -3.5t-28 -11t-20.5 -19.5t-8 -29q0 -29 18.5 -46.5t46.5 -31t60 -26t60 -31.5t46.5 -46.5t18.5 -71.5q0 -29 -10.5 -56.5t-31.5 -49t-52.5 -34.5t-74.5 -13zM636 -13q-35 0 -62.5 9t-48.5 21t-34 24.5t-19 20.5
l41 38q2 -4 11.5 -14t25.5 -21t38 -19.5t49 -8.5q48 0 72.5 24t24.5 64q0 30 -18 49t-44.5 33.5t-58 27.5t-58 31.5t-44.5 45t-18 68.5q0 30 12.5 53t33 38.5t47 23.5t55.5 8t52 -6t40.5 -14.5t29 -17t17.5 -14.5l-43 -36q-4 4 -12.5 11t-20.5 13.5t-27.5 11.5t-33.5 5
q-16 0 -31.5 -3.5t-28 -11t-20.5 -19.5t-8 -29q0 -29 18.5 -46.5t46.5 -31t60 -26t60 -31.5t46.5 -46.5t18.5 -71.5q0 -29 -10.5 -56.5t-31.5 -49t-52.5 -34.5t-74.5 -13z" />
    <glyph glyph-name="tcaron.sc" unicode="&#xe067;" horiz-adv-x="400" 
d="M165 440h-146v50h362v-50h-147v-440h-69v440zM73 665h55l72 -74h2l70 74h55l-102 -134h-48z" />
    <glyph glyph-name="tcommaaccent.sc" unicode="&#xe068;" horiz-adv-x="400" 
d="M165 440h-146v50h362v-50h-147v-440h-69v440zM198 -132q-23 0 -37.5 14.5t-14.5 37.5t14.5 37.5t37.5 14.5q29 0 42 -19t13 -42q0 -29 -14 -58t-48 -69l-39 10q17 19 30 39t18 33z" />
    <glyph glyph-name="tbar.sc" unicode="&#xe069;" horiz-adv-x="400" 
d="M165 233h-98v49h98v158h-146v50h362v-50h-147v-158h98v-49h-98v-233h-69v233z" />
    <glyph glyph-name="thorn.sc" unicode="&#xe06a;" horiz-adv-x="430" 
d="M84 490h70v-65h80q48 0 78.5 -12t48 -30.5t24 -42t6.5 -46.5q0 -22 -9 -46.5t-27.5 -45t-47.5 -34t-68 -13.5h-85v-155h-70v490zM229 204h2q24 0 40.5 7.5t27 20.5t15 29t4.5 33t-4 32.5t-14 27t-27.5 18.5t-43.5 7h-3l-72 -1v-173z" />
    <glyph glyph-name="ugrave.sc" unicode="&#xe06b;" horiz-adv-x="533" 
d="M264 -13q-35 0 -68 9.5t-59 30t-42 53.5t-16 81v329h71v-340q0 -33 12 -55t30 -35t38 -18.5t37 -5.5q26 0 49 6.5t40.5 20.5t27.5 36t10 52v339h60v-327q0 -53 -16 -87t-42.5 -53.5t-61 -27.5t-70.5 -8zM180 620l44 56l130 -111l-24 -31z" />
    <glyph glyph-name="uacute.sc" unicode="&#xe06c;" horiz-adv-x="533" 
d="M264 -13q-35 0 -68 9.5t-59 30t-42 53.5t-16 81v329h71v-340q0 -33 12 -55t30 -35t38 -18.5t37 -5.5q26 0 49 6.5t40.5 20.5t27.5 36t10 52v339h60v-327q0 -53 -16 -87t-42.5 -53.5t-61 -27.5t-70.5 -8zM181 565l126 109l40 -57l-144 -83z" />
    <glyph glyph-name="ucircumflex.sc" unicode="&#xe06d;" horiz-adv-x="533" 
d="M264 -13q-35 0 -68 9.5t-59 30t-42 53.5t-16 81v329h71v-340q0 -33 12 -55t30 -35t38 -18.5t37 -5.5q26 0 49 6.5t40.5 20.5t27.5 36t10 52v339h60v-327q0 -53 -16 -87t-42.5 -53.5t-61 -27.5t-70.5 -8zM145 554l124 128l123 -128l-27 -29l-96 71l-97 -71z" />
    <glyph glyph-name="utilde.sc" unicode="&#xe06e;" horiz-adv-x="533" 
d="M264 -13q-35 0 -68 9.5t-59 30t-42 53.5t-16 81v329h71v-340q0 -33 12 -55t30 -35t38 -18.5t37 -5.5q26 0 49 6.5t40.5 20.5t27.5 36t10 52v339h60v-327q0 -53 -16 -87t-42.5 -53.5t-61 -27.5t-70.5 -8zM131 555q0 16 6 32.5t17 29t27 20.5t36 8q18 0 32.5 -5.5t27.5 -12
t24.5 -12t25.5 -5.5q19 0 32 9.5t13 31.5l39 -11q-3 -18 -8.5 -34.5t-14.5 -28.5t-23 -19.5t-35 -7.5q-19 0 -34 6t-28.5 12.5t-26.5 12.5t-29 6q-17 0 -30 -12t-13 -30z" />
    <glyph glyph-name="udieresis.sc" unicode="&#xe06f;" horiz-adv-x="533" 
d="M264 -13q-35 0 -68 9.5t-59 30t-42 53.5t-16 81v329h71v-340q0 -33 12 -55t30 -35t38 -18.5t37 -5.5q26 0 49 6.5t40.5 20.5t27.5 36t10 52v339h60v-327q0 -53 -16 -87t-42.5 -53.5t-61 -27.5t-70.5 -8zM173 546q-21 0 -35.5 14.5t-14.5 35.5q0 20 14.5 35t35.5 15
t35.5 -15t14.5 -35q0 -21 -14.5 -35.5t-35.5 -14.5zM357 546q-21 0 -35.5 14.5t-14.5 35.5q0 20 14.5 35t35.5 15t36 -15t15 -35q0 -21 -15 -35.5t-36 -14.5z" />
    <glyph glyph-name="umacron.sc" unicode="&#xe070;" horiz-adv-x="533" 
d="M264 -13q-35 0 -68 9.5t-59 30t-42 53.5t-16 81v329h71v-340q0 -33 12 -55t30 -35t38 -18.5t37 -5.5q26 0 49 6.5t40.5 20.5t27.5 36t10 52v339h60v-327q0 -53 -16 -87t-42.5 -53.5t-61 -27.5t-70.5 -8zM140 619h257v-49h-257v49z" />
    <glyph glyph-name="ubreve.sc" unicode="&#xe071;" horiz-adv-x="533" 
d="M264 -13q-35 0 -68 9.5t-59 30t-42 53.5t-16 81v329h71v-340q0 -33 12 -55t30 -35t38 -18.5t37 -5.5q26 0 49 6.5t40.5 20.5t27.5 36t10 52v339h60v-327q0 -53 -16 -87t-42.5 -53.5t-61 -27.5t-70.5 -8zM267 533q-50 0 -84 33t-38 90h42q7 -36 27.5 -55t52.5 -19
q39 0 58 19.5t26 54.5h41q-1 -54 -36 -88.5t-89 -34.5z" />
    <glyph glyph-name="uring.sc" unicode="&#xe072;" horiz-adv-x="533" 
d="M264 -13q-35 0 -68 9.5t-59 30t-42 53.5t-16 81v329h71v-340q0 -33 12 -55t30 -35t38 -18.5t37 -5.5q26 0 49 6.5t40.5 20.5t27.5 36t10 52v339h60v-327q0 -53 -16 -87t-42.5 -53.5t-61 -27.5t-70.5 -8zM268 515q-20 0 -37 7.5t-29 20t-19 29.5t-7 36q0 37 26 64.5
t66 27.5q41 0 66.5 -27.5t25.5 -64.5q0 -19 -7 -36t-19 -29.5t-29 -20t-37 -7.5zM268 552q25 0 38.5 15.5t13.5 40.5q0 20 -13 37.5t-39 17.5q-24 0 -38 -16.5t-14 -38.5q0 -21 14 -38.5t38 -17.5z" />
    <glyph glyph-name="uhungarumlaut.sc" unicode="&#xe073;" horiz-adv-x="533" 
d="M264 -13q-35 0 -68 9.5t-59 30t-42 53.5t-16 81v329h71v-340q0 -33 12 -55t30 -35t38 -18.5t37 -5.5q26 0 49 6.5t40.5 20.5t27.5 36t10 52v339h60v-327q0 -53 -16 -87t-42.5 -53.5t-61 -27.5t-70.5 -8zM376 655h91l-128 -120h-59zM234 655h91l-128 -120h-59z" />
    <glyph glyph-name="uogonek.sc" unicode="&#xe074;" horiz-adv-x="533" 
d="M264 -13q-35 0 -68 9.5t-59 30t-42 53.5t-16 81v329h71v-340q0 -33 12 -55t30 -35t38 -18.5t37 -5.5q26 0 49 6.5t40.5 20.5t27.5 36t10 52v339h60v-327q0 -53 -16 -87t-42.5 -53.5t-61 -27.5t-70.5 -8zM292 -202q-36 0 -61 20t-25 59q0 28 13 53.5t33 41.5h52
q-16 -14 -25.5 -34.5t-9.5 -37.5q0 -16 5 -25t12 -13t14.5 -4.5t12.5 -0.5q27 0 45 16l20 -39q-18 -17 -39 -26.5t-47 -9.5z" />
    <glyph glyph-name="wcircumflex.sc" unicode="&#xe075;" horiz-adv-x="702" 
d="M23 490h81l110 -370h2l116 370h56l113 -371h2l113 371h63l-162 -490h-52l-114 367h-2l-116 -367h-50zM235 554l124 128l123 -128l-27 -29l-96 71l-97 -71z" />
    <glyph glyph-name="yacute.sc" unicode="&#xe076;" horiz-adv-x="458" 
d="M194 232l-175 258h84l135 -206h2l136 206h63l-175 -256v-234h-70v232zM153 565l126 109l40 -57l-144 -83z" />
    <glyph glyph-name="ycircumflex.sc" unicode="&#xe077;" horiz-adv-x="458" 
d="M194 232l-175 258h84l135 -206h2l136 206h63l-175 -256v-234h-70v232zM115 554l124 128l123 -128l-27 -29l-96 71l-97 -71z" />
    <glyph glyph-name="ydieresis.sc" unicode="&#xe078;" horiz-adv-x="458" 
d="M194 232l-175 258h84l135 -206h2l136 206h63l-175 -256v-234h-70v232zM139 546q-21 0 -35.5 14.5t-14.5 35.5q0 20 14.5 35t35.5 15t35.5 -15t14.5 -35q0 -21 -14.5 -35.5t-35.5 -14.5zM323 546q-21 0 -35.5 14.5t-14.5 35.5q0 20 14.5 35t35.5 15t36 -15t15 -35
q0 -21 -15 -35.5t-36 -14.5z" />
    <glyph glyph-name="zacute.sc" unicode="&#xe079;" horiz-adv-x="461" 
d="M300 438v2h-228v50h343l-270 -436v-2h275v-52h-387zM168 565l126 109l40 -57l-144 -83z" />
    <glyph glyph-name="zcaron.sc" unicode="&#xe07a;" horiz-adv-x="461" 
d="M300 438v2h-228v50h343l-270 -436v-2h275v-52h-387zM118 665h55l72 -74h2l70 74h55l-102 -134h-48z" />
    <glyph glyph-name="zdotaccent.sc" unicode="&#xe07b;" horiz-adv-x="461" 
d="M300 438v2h-228v50h343l-270 -436v-2h275v-52h-387zM239 546q-22 0 -36 14.5t-14 35.5q0 20 14.5 35t35.5 15t35.5 -15t14.5 -35q0 -21 -14.5 -35.5t-35.5 -14.5z" />
    <glyph glyph-name="fi.sc" unicode="&#xe07c;" horiz-adv-x="650" 
d="M84 490h285v-50h-215v-154h188v-51h-188v-235h-70v490zM495 490h71v-490h-71v490z" />
    <glyph glyph-name="fl.sc" unicode="&#xe07d;" horiz-adv-x="799" 
d="M84 490h285v-50h-215v-154h188v-51h-188v-235h-70v490zM495 490h71v-439h214v-51h-285v490z" />
    <glyph glyph-name="ij.sc" unicode="&#xe07e;" horiz-adv-x="453" 
d="M84 490h70v-490h-70v490zM212 -23q6 -3 13 -5q13 -5 31 -5q21 0 32.5 16.5t11.5 61.5v445h69v-431q0 -41 -7.5 -68t-22 -43t-34.5 -23t-45 -7q-11 0 -22 1t-19 3q-10 2 -19 5z" />
    <glyph glyph-name="exclamdown.sc" unicode="&#xe07f;" horiz-adv-x="272" 
d="M101 192h70v-331h-70v331zM136 251q-23 0 -40 16.5t-17 39.5q0 24 17 40.5t40 16.5q24 0 40.5 -16.5t16.5 -40.5q0 -23 -16.5 -39.5t-40.5 -16.5z" />
    <glyph glyph-name="questiondown.sc" unicode="&#xe080;" horiz-adv-x="426" 
d="M214 -151q-45 0 -75 9.5t-49 26t-27 37t-8 43.5q0 29 10 48t25 33t32.5 24t32.5 21t25 25t10 35v42h73v-40q0 -30 -10 -49.5t-25.5 -32.5t-33.5 -23t-33.5 -21.5t-25.5 -26.5t-10 -38q0 -11 3.5 -23t13 -22t27 -16.5t45.5 -6.5q44 0 68 16.5t40 44.5l46 -28
q-47 -78 -154 -78zM221 250q-23 0 -38 17t-15 40t16.5 40t39.5 17q24 0 40.5 -17t16.5 -40t-18 -40t-42 -17z" />
    <glyph glyph-name="Euro.sc" unicode="&#xe081;" horiz-adv-x="536" 
d="M340 -13q-44 0 -83 10.5t-70 34.5t-52.5 62.5t-29.5 94.5h-58l17 41h37v14v15.5t1 15.5h-54l18 41h42q8 37 25 71t45 60t67.5 41t92.5 15q59 0 94.5 -16.5t56.5 -37.5l-37 -40q-20 24 -44.5 36.5t-69.5 12.5q-68 0 -103.5 -39.5t-47.5 -102.5h241l-18 -41h-229
q-1 -8 -1 -15.5v-15.5v-14h209l-17 -41h-188q5 -34 16 -62.5t30 -49t46.5 -32t65.5 -11.5q42 0 69.5 14t41.5 28l33 -41q-32 -24 -70.5 -36t-75.5 -12z" />
    <glyph glyph-name="cent.sc" unicode="&#xe082;" horiz-adv-x="520" 
d="M270 -12q-51 4 -92.5 27t-70.5 58t-44.5 80t-15.5 93q0 62 19 108.5t50 78t71.5 48.5t82.5 21v50h39v-50q34 -1 59.5 -7.5t45 -16t33.5 -21t26 -22.5l-51 -39q-5 7 -14.5 17t-23.5 18.5t-32.5 15t-42.5 8.5v-421q48 3 81.5 24t47.5 45l45 -36q-18 -17 -35.5 -31
t-37.5 -24.5t-44.5 -17t-56.5 -7.5v-55h-39v56zM270 454q-31 -4 -57.5 -20t-46 -42.5t-30.5 -63.5t-11 -82q0 -42 10 -78.5t29 -64.5t46 -46t60 -22v419z" />
    <glyph glyph-name="sterling.sc" unicode="&#xe083;" horiz-adv-x="456" 
d="M63 51h69v175h-60v43h60v82q0 71 36.5 111.5t117.5 40.5q32 0 63.5 -9.5t54.5 -32.5l-34 -34q-7 10 -25 23.5t-59 13.5q-45 0 -65.5 -26t-20.5 -82v-87h115v-43h-115v-175h211v-51h-348v51z" />
    <glyph glyph-name="florin.sc" unicode="&#xe084;" horiz-adv-x="424" 
d="M58 -121q-27 0 -44 5t-25 10l25 39q4 -3 15.5 -7t28.5 -4t27.5 5.5t17 15.5t10.5 24t8 31l52 237h-88v41h97l17 79q6 27 14.5 53.5t22.5 47.5t36.5 34t56.5 13q28 0 45 -5t32 -14l-27 -35q-5 4 -13.5 8t-29.5 4q-18 0 -30.5 -11t-20 -27.5t-12 -34.5t-7.5 -33l-17 -79h93
v-41h-103l-54 -244q-5 -25 -13 -45.5t-22.5 -35.5t-36.5 -23t-55 -8z" />
    <glyph glyph-name="yen.sc" unicode="&#xe085;" horiz-adv-x="464" 
d="M197 150h-120v38h120v43h-120v38h94l-149 221h84l135 -206h2l136 206h63l-151 -221h96v-38h-120v-43h120v-38h-120v-150h-70v150z" />
    <glyph glyph-name="ordfeminine.sc" unicode="&#xe086;" horiz-adv-x="388" 
d="M175 348q-58 0 -93 27.5t-35 83.5q0 42 31.5 68.5t103.5 28.5l86 4q0 45 -17 68t-58 23q-19 0 -32.5 -7.5t-22.5 -15.5q-11 -11 -19 -23l-49 24q8 11 17.5 22.5t24.5 21t36.5 15.5t53.5 6q60 0 99.5 -30.5t39.5 -96.5v-210h-73v33q-12 -15 -38 -28.5t-55 -13.5zM176 393
q16 0 30.5 5.5t26 14t20.5 18t15 18.5v72l-63 -4q-39 -2 -62 -16t-23 -43q0 -24 15 -44.5t41 -20.5z" />
    <glyph glyph-name="perthousand.sc" unicode="&#xe087;" horiz-adv-x="939" 
d="M464 509l41 -26l-322 -506l-41 26zM169 247q-55 0 -88.5 35t-33.5 92t33.5 93t88.5 36q54 0 88 -33t34 -95q0 -58 -34 -93t-88 -35zM169 283q62 0 62 91q0 48 -16 70.5t-46 22.5q-37 0 -50 -26t-13 -67q0 -48 16.5 -69.5t46.5 -21.5zM479 -13q-55 0 -88.5 35t-33.5 92
t33.5 93t88.5 36q54 0 88 -33t34 -95q0 -58 -34 -93t-88 -35zM479 23q62 0 62 91q0 48 -16 70.5t-46 22.5q-37 0 -50 -26t-13 -67q0 -48 16.5 -69.5t46.5 -21.5zM770 -13q-55 0 -88.5 35t-33.5 92t33.5 93t88.5 36q54 0 88 -33t34 -95q0 -58 -34 -93t-88 -35zM770 23
q62 0 62 91q0 48 -16 70.5t-46 22.5q-37 0 -50 -26t-13 -67q0 -48 16.5 -69.5t46.5 -21.5z" />
    <glyph glyph-name="zero.onum" unicode="&#xe100;" horiz-adv-x="500" 
d="M249 -13q-46 0 -83 16.5t-63.5 46.5t-41 72.5t-14.5 94.5t14.5 94.5t41 72.5t64 46.5t83.5 16.5t83.5 -16.5t64 -46.5t41 -72t14.5 -94q0 -53 -14.5 -95.5t-41.5 -72.5t-64.5 -46.5t-83.5 -16.5zM248 33q33 0 56 13.5t37.5 38t21 58t6.5 74.5q0 38 -7 71.5t-22 58.5
t-37.5 39.5t-53.5 14.5q-33 0 -56 -14t-37 -38.5t-20.5 -58t-6.5 -73.5q0 -38 7 -71.5t22 -58.5t37.5 -39.5t52.5 -14.5z" />
    <glyph glyph-name="one.onum" unicode="&#xe101;" horiz-adv-x="309" 
d="M144 353h-2l-73 -52l-32 44l126 89h57v-434h-76v353z" />
    <glyph glyph-name="two.onum" unicode="&#xe102;" horiz-adv-x="444" 
d="M222 202q21 21 41.5 48.5t20.5 61.5q0 41 -19.5 65.5t-64.5 24.5q-26 0 -44 -10.5t-30 -23.5t-18 -24.5t-7 -13.5l-49 24q4 10 13.5 25.5t27.5 30.5t45 26t67 11q72 0 113 -34t41 -100q0 -43 -18 -74.5t-41 -55.5l-120 -132v-2h208v-49h-360z" />
    <glyph glyph-name="three.onum" unicode="&#xe103;" horiz-adv-x="410" 
d="M157 -218q-56 0 -82 9.5t-37 16.5l23 46q13 -11 36.5 -18t59.5 -7q62 0 93 41t31 113q0 74 -42 104t-127 30v45q39 0 68 13t48 32.5t28.5 44t9.5 48.5q0 45 -19 73.5t-67 28.5q-25 0 -43 -10t-29.5 -22.5t-18 -24t-7.5 -15.5l-49 24q4 10 13.5 25.5t27 30.5t44.5 26
t67 11q82 0 118.5 -40t36.5 -106q0 -28 -11.5 -53.5t-29.5 -46t-40.5 -34t-43.5 -17.5v-2q28 -1 55 -14t48 -34.5t33.5 -50.5t12.5 -62q0 -93 -52.5 -149t-154.5 -56z" />
    <glyph glyph-name="four.onum" unicode="&#xe104;" horiz-adv-x="466" 
d="M273 0h-278l288 433h70v-383h94v-50h-94v-208h-80v208zM273 320h-1l-180 -270h181v270z" />
    <glyph glyph-name="five.onum" unicode="&#xe105;" horiz-adv-x="421" 
d="M175 -218q-56 0 -82.5 9.5t-36.5 16.5l23 46q13 -11 36.5 -18t59.5 -7q34 0 58 15t39 39.5t21.5 55t6.5 61.5q0 29 -7 53.5t-23 42.5t-43.5 28t-67.5 11l-90 2l19 297h253v-47h-177l-14 -210h64q37 0 68 -11t53.5 -32.5t35.5 -54.5t13 -77q0 -59 -18 -101t-47 -68.5
t-67 -38.5t-77 -12z" />
    <glyph glyph-name="six.onum" unicode="&#xe106;" horiz-adv-x="487" 
d="M256 -13q-54 0 -92.5 23.5t-63.5 64.5t-37 96t-12 118q0 70 11.5 134t39 112.5t73.5 77t115 28.5q43 0 73.5 -13t41.5 -22l-27 -40q-9 9 -29.5 20.5t-59.5 11.5q-51 0 -81.5 -25.5t-46 -62t-20.5 -76.5t-5 -69h2q18 26 54.5 42t72.5 16q33 0 64.5 -9.5t56.5 -33.5t40 -64
t15 -101q0 -56 -15.5 -99t-41 -71.5t-59 -43t-69.5 -14.5zM255 33q27 0 47 14.5t33.5 39t20 57.5t6.5 71q0 33 -5.5 61.5t-18 49.5t-34 33.5t-52.5 12.5q-40 0 -72 -18t-46 -53v-1q0 -40 2.5 -87t14.5 -87t36 -66.5t68 -26.5z" />
    <glyph glyph-name="seven.onum" unicode="&#xe107;" horiz-adv-x="382" 
d="M260 380h-251v54h353l-226 -642h-82z" />
    <glyph glyph-name="eight.onum" unicode="&#xe108;" horiz-adv-x="491" 
d="M247 -13q-55 0 -92 19t-59 47t-31.5 60t-9.5 58q0 38 11.5 66.5t29.5 49t40 34.5t43 24v2q-47 26 -69.5 64.5t-22.5 88.5q0 28 10.5 54t31 45t50.5 30.5t68 11.5q30 0 58.5 -8t51 -24.5t36.5 -43t14 -63.5q0 -52 -25.5 -85t-67.5 -57v-2q71 -35 102 -76t31 -108
q0 -38 -14 -72t-40 -59.5t-63 -40.5t-83 -15zM247 33q33 0 56.5 11t38.5 29t22.5 42.5t7.5 51.5q0 30 -12 52t-32 39.5t-46 32t-55 29.5q-31 -17 -52 -32t-34 -32t-19 -37.5t-6 -48.5q0 -11 4.5 -34t18.5 -46t39.5 -40t68.5 -17zM262 383q38 20 63 45t25 71q0 20 -5.5 38
t-17.5 31t-31 20.5t-46 7.5q-47 0 -72.5 -24.5t-25.5 -68.5q0 -23 11.5 -41.5t28 -33t36 -25.5t34.5 -20z" />
    <glyph glyph-name="nine.onum" unicode="&#xe109;" horiz-adv-x="485" 
d="M196 -218q-45 0 -74.5 10t-39.5 16l23 46q12 -9 36.5 -17t57.5 -8q42 0 70.5 19t46 51t26 74.5t10.5 89.5h-2q-8 -14 -21 -25t-29 -19t-33.5 -12t-33.5 -4q-38 0 -71.5 13t-59 40.5t-40.5 69.5t-15 99q0 49 14 89.5t39.5 70t60.5 46t76 16.5q45 0 81.5 -17t62 -53
t39.5 -92t14 -133q0 -81 -12 -149t-39.5 -117t-73.5 -76.5t-113 -27.5zM238 56q39 0 69.5 20.5t45.5 56.5q0 49 -2 97.5t-13.5 86t-35.5 61t-68 23.5q-29 0 -49.5 -13.5t-33.5 -37t-19 -55.5t-6 -70q0 -91 31.5 -130t80.5 -39z" />
    <glyph glyph-name="zero.sc" unicode="&#xe10a;" horiz-adv-x="507" 
d="M253 -13q-48 0 -86 21t-64.5 56t-41 82t-14.5 99q0 53 13.5 100t39.5 82t64.5 55.5t88.5 20.5q48 0 86.5 -20t65.5 -55t41 -81.5t14 -100.5t-13 -101.5t-39 -82.5t-64.5 -55t-90.5 -20zM253 34q30 0 53.5 11.5t40 36.5t25 65t8.5 98q0 45 -7.5 84t-23.5 67.5t-39.5 44.5
t-56.5 16q-57 0 -92 -50.5t-35 -161.5q0 -38 7.5 -76t23 -68t39.5 -48.5t57 -18.5z" />
    <glyph glyph-name="one.sc" unicode="&#xe10b;" horiz-adv-x="307" 
d="M144 408l-2 1l-73 -52l-32 44l124 89h58v-490h-75v408z" />
    <glyph glyph-name="two.sc" unicode="&#xe10c;" horiz-adv-x="446" 
d="M223 244q8 10 18.5 23t19.5 29t15 34t6 38q0 37 -19 63.5t-63 26.5q-27 0 -45.5 -10.5t-30 -23.5t-17 -24.5t-6.5 -13.5l-49 24q4 10 13.5 25.5t27.5 30.5t45 26t67 11q41 0 71 -10.5t49.5 -29.5t29 -44t9.5 -53q0 -24 -6.5 -44.5t-16 -38t-21 -32t-20.5 -26.5l-134 -174
v-2h224v-49h-362z" />
    <glyph glyph-name="three.sc" unicode="&#xe10d;" horiz-adv-x="406" 
d="M172 -13q-55 0 -91.5 14.5t-49.5 23.5l27 46q14 -11 42.5 -24.5t70.5 -13.5q56 0 83.5 27.5t27.5 72.5q0 22 -4.5 40t-21 31.5t-48.5 21t-87 7.5v46q78 1 111.5 30.5t33.5 73.5q0 16 -4 29.5t-14 23.5t-26.5 16t-41.5 6t-42 -6.5t-29 -16t-19.5 -21.5t-12.5 -23l-49 24
q4 10 13.5 25t27.5 29t46.5 24t70.5 10q43 0 72.5 -10t47.5 -26.5t25.5 -38t7.5 -43.5q0 -44 -27.5 -77t-75.5 -41v-2q63 -5 95.5 -40t32.5 -88q0 -26 -9.5 -52.5t-31.5 -48t-59 -35.5t-92 -14z" />
    <glyph glyph-name="four.sc" unicode="&#xe10e;" horiz-adv-x="452" 
d="M255 115h-255l264 375h65v-324h95v-51h-95v-115h-74v115zM255 384h-2l-151 -218h153v218z" />
    <glyph glyph-name="five.sc" unicode="&#xe10f;" horiz-adv-x="405" 
d="M180 -13q-31 0 -55.5 4.5t-42.5 10.5t-30.5 12.5t-18.5 10.5l27 46q12 -9 42 -23.5t78 -14.5q54 0 80.5 34t26.5 83q0 21 -6 39t-21.5 31.5t-41.5 21t-65 8.5l-96 2l19 238h251v-47h-182l-12 -151h74q71 0 115.5 -37t44.5 -103q0 -33 -11 -62.5t-33.5 -52.5t-58 -36.5
t-84.5 -13.5z" />
    <glyph glyph-name="six.sc" unicode="&#xe110;" horiz-adv-x="460" 
d="M239 -13q-56 0 -92.5 23t-59 58.5t-31.5 77.5t-9 80q0 140 58 208.5t156 68.5q51 0 82 -15.5t42 -24.5l-31 -40q-9 9 -31 22.5t-61 13.5q-41 0 -66.5 -14.5t-40 -38.5t-20.5 -56t-7 -67h2q16 21 45.5 39t75.5 18q76 0 122 -46t46 -124q0 -41 -13.5 -74.5t-37.5 -57.5
t-57 -37.5t-72 -13.5zM238 33q47 0 75 33t28 104q0 25 -4.5 47t-16.5 37.5t-32 24.5t-50 9q-40 0 -67 -18t-44 -50v-2q0 -95 27.5 -140t83.5 -45z" />
    <glyph glyph-name="seven.sc" unicode="&#xe111;" horiz-adv-x="366" 
d="M261 438h-252v52h357l-212 -490h-82z" />
    <glyph glyph-name="eight.sc" unicode="&#xe112;" horiz-adv-x="443" 
d="M218 -13q-43 0 -76.5 12t-57 33t-35.5 48.5t-12 59.5q0 48 30.5 81t75.5 50v2q-37 19 -56.5 44t-19.5 70q0 17 8 37.5t26 38t47 29t72 11.5q42 0 70 -10t45 -26t24.5 -36t7.5 -40q0 -22 -6.5 -39t-17.5 -30t-25 -22t-29 -15v-2q62 -27 89.5 -59t27.5 -83q0 -32 -12.5 -60
t-36.5 -49t-59 -33t-80 -12zM217 33q52 0 80 27t28 71q0 24 -11.5 41.5t-30 30.5t-42 23t-47.5 19q-48 -17 -71.5 -41.5t-23.5 -66.5q0 -19 7.5 -37.5t22.5 -33.5t37 -24t51 -9zM237 306q13 5 26 11.5t23.5 16t17 23t6.5 31.5q0 12 -4 24.5t-14 23t-27 17t-43 6.5
q-25 0 -41.5 -6.5t-26 -16t-13.5 -21t-4 -21.5q0 -22 12 -36.5t28.5 -24.5t33.5 -16.5t26 -10.5z" />
    <glyph glyph-name="nine.sc" unicode="&#xe113;" horiz-adv-x="460" 
d="M200 -13q-50 0 -82.5 14t-45.5 25l29 45q9 -11 35 -25t64 -14q70 0 100 45t33 130h-2q-15 -20 -45 -38.5t-77 -18.5q-32 0 -62 9.5t-53.5 29.5t-37.5 52.5t-14 78.5q0 36 12.5 69.5t35.5 58.5t57 40t76 15q57 0 94 -22.5t58.5 -58t30 -77.5t8.5 -81q0 -141 -55 -209
t-159 -68zM222 202q40 0 68 18.5t45 50.5v2q0 92 -25.5 138.5t-87.5 46.5q-50 0 -77.5 -34.5t-27.5 -103.5q0 -51 24 -84.5t81 -33.5z" />
    <glyph glyph-name="grave.cap" unicode="&#xe300;" horiz-adv-x="554" 
d="M190 824l44 56l130 -111l-24 -31z" />
    <glyph glyph-name="acute.cap" unicode="&#xe301;" horiz-adv-x="586" 
d="M210 769l126 109l40 -57l-144 -83z" />
    <glyph glyph-name="circumflex.cap" unicode="&#xe302;" horiz-adv-x="647" 
d="M200 761l124 128l123 -128l-27 -29l-96 71l-97 -71z" />
    <glyph glyph-name="caron.cap" unicode="&#xe303;" horiz-adv-x="614" 
d="M180 869h55l72 -74h2l70 74h55l-102 -134h-48z" />
    <glyph glyph-name="tilde.cap" unicode="&#xe304;" horiz-adv-x="600" 
d="M160 742q0 16 6 32.5t17 29t27 20.5t36 8q18 0 32.5 -5.5t27.5 -12t24.5 -12t25.5 -5.5q19 0 32 9.5t13 31.5l39 -11q-3 -18 -8.5 -34.5t-14.5 -28.5t-23 -19.5t-35 -7.5q-19 0 -34 6t-28.5 12.5t-26.5 12.5t-29 6q-17 0 -30 -12t-13 -30z" />
    <glyph glyph-name="dieresis.cap" unicode="&#xe305;" horiz-adv-x="605" 
d="M210 739q-21 0 -35.5 14.5t-14.5 35.5q0 20 14.5 35t35.5 15t35.5 -15t14.5 -35q0 -21 -14.5 -35.5t-35.5 -14.5zM394 739q-21 0 -35.5 14.5t-14.5 35.5q0 20 14.5 35t35.5 15t36 -15t15 -35q0 -21 -15 -35.5t-36 -14.5z" />
    <glyph glyph-name="macron.cap" unicode="&#xe306;" horiz-adv-x="577" 
d="M160 803h257v-49h-257v49z" />
    <glyph glyph-name="breve.cap" unicode="&#xe307;" horiz-adv-x="527" 
d="M262 729q-50 0 -84 33t-38 90h42q7 -36 27.5 -55t52.5 -19q39 0 58 19.5t26 54.5h41q-1 -54 -36 -88.5t-89 -34.5z" />
    <glyph glyph-name="ring.cap" unicode="&#xe308;" horiz-adv-x="584" 
d="M292 717q-20 0 -37 7.5t-29 20t-19 29.5t-7 36q0 37 26 64.5t66 27.5q41 0 66.5 -27.5t25.5 -64.5q0 -19 -7 -36t-19 -29.5t-29 -20t-37 -7.5zM292 754q25 0 38.5 15.5t13.5 40.5q0 20 -13 37.5t-39 17.5q-24 0 -38 -16.5t-14 -38.5q0 -21 14 -38.5t38 -17.5z" />
    <glyph glyph-name="hungarumlaut.cap" unicode="&#xe309;" horiz-adv-x="609" 
d="M378 840h91l-128 -120h-59zM236 840h91l-128 -120h-59z" />
    <glyph glyph-name="dotaccent.cap" unicode="&#xe30a;" horiz-adv-x="500" 
d="M250 739q-22 0 -36 14.5t-14 35.5q0 20 14.5 35t35.5 15t35.5 -15t14.5 -35q0 -21 -14.5 -35.5t-35.5 -14.5z" />
    <glyph glyph-name="caron.alt" unicode="&#xe30b;" horiz-adv-x="346" 
d="M166 576q-23 0 -37.5 14.5t-14.5 37.5t14.5 37.5t37.5 14.5q29 0 42 -19t13 -42q0 -29 -14 -58t-48 -69l-39 10q17 19 30 39t18 33z" />
    <glyph glyph-name="commaaccent" unicode="&#xe30c;" horiz-adv-x="306" 
d="M152 -132q-23 0 -37.5 14.5t-14.5 37.5t14.5 37.5t37.5 14.5q29 0 42 -19t13 -42q0 -29 -14 -58t-48 -69l-39 10q17 19 30 39t18 33z" />
    <glyph glyph-name="commaaccent.alt" unicode="&#xe30d;" horiz-adv-x="306" 
d="M156 634q22 0 36 -14.5t14 -35.5q0 -22 -14 -36t-36 -14q-28 0 -40.5 18t-12.5 40q0 28 13.5 56t46.5 66l37 -9q-17 -18 -29 -37.5t-17 -31.5z" />
    <glyph glyph-name="grave.sc" unicode="&#xe320;" horiz-adv-x="514" 
d="M170 620l44 56l130 -111l-24 -31z" />
    <glyph glyph-name="acute.sc" unicode="&#xe321;" horiz-adv-x="546" 
d="M190 565l126 109l40 -57l-144 -83z" />
    <glyph glyph-name="circumflex.sc" unicode="&#xe322;" horiz-adv-x="537" 
d="M145 554l124 128l123 -128l-27 -29l-96 71l-97 -71z" />
    <glyph glyph-name="caron.sc" unicode="&#xe323;" horiz-adv-x="504" 
d="M125 665h55l72 -74h2l70 74h55l-102 -134h-48z" />
    <glyph glyph-name="tilde.sc" unicode="&#xe324;" horiz-adv-x="550" 
d="M135 555q0 16 6 32.5t17 29t27 20.5t36 8q18 0 32.5 -5.5t27.5 -12t24.5 -12t25.5 -5.5q19 0 32 9.5t13 31.5l39 -11q-3 -18 -8.5 -34.5t-14.5 -28.5t-23 -19.5t-35 -7.5q-19 0 -34 6t-28.5 12.5t-26.5 12.5t-29 6q-17 0 -30 -12t-13 -30z" />
    <glyph glyph-name="dieresis.sc" unicode="&#xe325;" horiz-adv-x="555" 
d="M185 546q-21 0 -35.5 14.5t-14.5 35.5q0 20 14.5 35t35.5 15t35.5 -15t14.5 -35q0 -21 -14.5 -35.5t-35.5 -14.5zM369 546q-21 0 -35.5 14.5t-14.5 35.5q0 20 14.5 35t35.5 15t36 -15t15 -35q0 -21 -15 -35.5t-36 -14.5z" />
    <glyph glyph-name="macron.sc" unicode="&#xe326;" horiz-adv-x="527" 
d="M135 619h257v-49h-257v49z" />
    <glyph glyph-name="breve.sc" unicode="&#xe327;" horiz-adv-x="497" 
d="M247 533q-50 0 -84 33t-38 90h42q7 -36 27.5 -55t52.5 -19q39 0 58 19.5t26 54.5h41q-1 -54 -36 -88.5t-89 -34.5z" />
    <glyph glyph-name="ring.sc" unicode="&#xe328;" horiz-adv-x="464" 
d="M232 515q-20 0 -37 7.5t-29 20t-19 29.5t-7 36q0 37 26 64.5t66 27.5q41 0 66.5 -27.5t25.5 -64.5q0 -19 -7 -36t-19 -29.5t-29 -20t-37 -7.5zM232 552q25 0 38.5 15.5t13.5 40.5q0 20 -13 37.5t-39 17.5q-24 0 -38 -16.5t-14 -38.5q0 -21 14 -38.5t38 -17.5z" />
    <glyph glyph-name="hungarumlaut.sc" unicode="&#xe329;" horiz-adv-x="569" 
d="M358 655h91l-128 -120h-59zM216 655h91l-128 -120h-59z" />
    <glyph glyph-name="dotaccent.sc" unicode="&#xe32a;" horiz-adv-x="370" 
d="M185 546q-22 0 -36 14.5t-14 35.5q0 20 14.5 35t35.5 15t35.5 -15t14.5 -35q0 -21 -14.5 -35.5t-35.5 -14.5z" />
    <glyph glyph-name="uniF8FF" unicode="&#xf8ff;" horiz-adv-x="512" 
d="M222 117v67h56v-67h-56zM225 234l-2 17q0 56 13 81q7 13 18 27.5t28 31.5q16 15 26 26.5t15 21t7 18t2 17.5q0 36 -22.5 60.5t-53.5 24.5t-53.5 -22t-28.5 -73l-50 8q7 72 44 104.5t91 32.5t89 -35.5t35 -95.5q0 -32 -12.5 -58.5t-50.5 -61.5q-37 -33 -43 -52
q-6 -20 -6 -72h-46zM462 50v617h-412v-617h412zM512 718v-718h-512v718h512z" />
    </font>
</defs>
</svg>
